<?xml version="1.0" encoding="UTF-8" standalone="no"?>
<svg width="252.942mm" height="152.4mm"
 viewBox="0 0 717 432"
 xmlns="http://www.w3.org/2000/svg" xmlns:xlink="http://www.w3.org/1999/xlink"  version="1.2" baseProfile="tiny">
<title>Qt SVG Document</title>
<desc>MATLAB, The MathWorks, Inc. Version 25.1.0.2973910 R2025a Update 1</desc>
<defs>
</defs>
<g fill="none" stroke="black" stroke-width="1" fill-rule="evenodd" stroke-linecap="square" stroke-linejoin="bevel" >

<g fill="#000000" fill-opacity="1" stroke="none" transform="matrix(0.6,0,0,0.6,0,0)"
font-family="MS Shell Dlg 2" font-size="7.8" font-weight="400" font-style="normal" 
>
<path vector-effect="none" fill-rule="evenodd" d="M0,0 L1196,0 L1196,721 L0,721 L0,0"/>
</g>

<g fill="#121212" fill-opacity="1" stroke="none" transform="matrix(6e-05,0,0,6e-05,0,0)"
font-family="MS Shell Dlg 2" font-size="7.8" font-weight="400" font-style="normal" 
>
<path vector-effect="none" fill-rule="evenodd" d="M1.55e+06,540000 L1.55e+06,6.41e+06 L1.081e+07,6.41e+06 L1.081e+07,540000 L1.55e+06,540000"/>
</g>

<g fill="#d9d9d9" fill-opacity="1" stroke="#d9d9d9" stroke-opacity="1" stroke-width="1" stroke-linecap="square" stroke-linejoin="bevel" transform="matrix(0.6,0,0,0.6,360.9,414.8)"
font-family="Helvetica" font-size="25" font-weight="400" font-style="normal" 
>
<text fill="#d9d9d9" fill-opacity="1" stroke="none" xml:space="preserve" x="0" y="0" font-family="Helvetica" font-size="25" font-weight="400" font-style="normal" 
 >x/c</text>
</g>

<g fill="#d9d9d9" fill-opacity="1" stroke="#d9d9d9" stroke-opacity="1" stroke-width="0.833333" stroke-linecap="square" stroke-linejoin="round" transform="matrix(0.6,0,0,0.6,0,0)"
font-family="Helvetica" font-size="25" font-weight="400" font-style="normal" 
>
<polyline fill="none" vector-effect="none" points="155,641 1081,641 " />
<polyline fill="none" vector-effect="none" points="155,641 155,631.74 " />
<polyline fill="none" vector-effect="none" points="247.6,641 247.6,631.74 " />
<polyline fill="none" vector-effect="none" points="340.2,641 340.2,631.74 " />
<polyline fill="none" vector-effect="none" points="432.8,641 432.8,631.74 " />
<polyline fill="none" vector-effect="none" points="525.4,641 525.4,631.74 " />
<polyline fill="none" vector-effect="none" points="618,641 618,631.74 " />
<polyline fill="none" vector-effect="none" points="710.6,641 710.6,631.74 " />
<polyline fill="none" vector-effect="none" points="803.2,641 803.2,631.74 " />
<polyline fill="none" vector-effect="none" points="895.8,641 895.8,631.74 " />
<polyline fill="none" vector-effect="none" points="988.4,641 988.4,631.74 " />
<polyline fill="none" vector-effect="none" points="1081,641 1081,631.74 " />
</g>

<g fill="#d9d9d9" fill-opacity="1" stroke="#d9d9d9" stroke-opacity="1" stroke-width="1" stroke-linecap="square" stroke-linejoin="bevel" transform="matrix(0.6,0,0,0.6,90.3,397.6)"
font-family="Helvetica" font-size="16" font-weight="400" font-style="normal" 
>
<text fill="#d9d9d9" fill-opacity="1" stroke="none" xml:space="preserve" x="0" y="0" font-family="Helvetica" font-size="16" font-weight="400" font-style="normal" 
 >0</text>
</g>

<g fill="#d9d9d9" fill-opacity="1" stroke="#d9d9d9" stroke-opacity="1" stroke-width="1" stroke-linecap="square" stroke-linejoin="bevel" transform="matrix(0.6,0,0,0.6,141.96,397.6)"
font-family="Helvetica" font-size="16" font-weight="400" font-style="normal" 
>
<text fill="#d9d9d9" fill-opacity="1" stroke="none" xml:space="preserve" x="0" y="0" font-family="Helvetica" font-size="16" font-weight="400" font-style="normal" 
 >0.1</text>
</g>

<g fill="#d9d9d9" fill-opacity="1" stroke="#d9d9d9" stroke-opacity="1" stroke-width="1" stroke-linecap="square" stroke-linejoin="bevel" transform="matrix(0.6,0,0,0.6,197.52,397.6)"
font-family="Helvetica" font-size="16" font-weight="400" font-style="normal" 
>
<text fill="#d9d9d9" fill-opacity="1" stroke="none" xml:space="preserve" x="0" y="0" font-family="Helvetica" font-size="16" font-weight="400" font-style="normal" 
 >0.2</text>
</g>

<g fill="#d9d9d9" fill-opacity="1" stroke="#d9d9d9" stroke-opacity="1" stroke-width="1" stroke-linecap="square" stroke-linejoin="bevel" transform="matrix(0.6,0,0,0.6,253.08,397.6)"
font-family="Helvetica" font-size="16" font-weight="400" font-style="normal" 
>
<text fill="#d9d9d9" fill-opacity="1" stroke="none" xml:space="preserve" x="0" y="0" font-family="Helvetica" font-size="16" font-weight="400" font-style="normal" 
 >0.3</text>
</g>

<g fill="#d9d9d9" fill-opacity="1" stroke="#d9d9d9" stroke-opacity="1" stroke-width="1" stroke-linecap="square" stroke-linejoin="bevel" transform="matrix(0.6,0,0,0.6,308.64,397.6)"
font-family="Helvetica" font-size="16" font-weight="400" font-style="normal" 
>
<text fill="#d9d9d9" fill-opacity="1" stroke="none" xml:space="preserve" x="0" y="0" font-family="Helvetica" font-size="16" font-weight="400" font-style="normal" 
 >0.4</text>
</g>

<g fill="#d9d9d9" fill-opacity="1" stroke="#d9d9d9" stroke-opacity="1" stroke-width="1" stroke-linecap="square" stroke-linejoin="bevel" transform="matrix(0.6,0,0,0.6,364.2,397.6)"
font-family="Helvetica" font-size="16" font-weight="400" font-style="normal" 
>
<text fill="#d9d9d9" fill-opacity="1" stroke="none" xml:space="preserve" x="0" y="0" font-family="Helvetica" font-size="16" font-weight="400" font-style="normal" 
 >0.5</text>
</g>

<g fill="#d9d9d9" fill-opacity="1" stroke="#d9d9d9" stroke-opacity="1" stroke-width="1" stroke-linecap="square" stroke-linejoin="bevel" transform="matrix(0.6,0,0,0.6,419.76,397.6)"
font-family="Helvetica" font-size="16" font-weight="400" font-style="normal" 
>
<text fill="#d9d9d9" fill-opacity="1" stroke="none" xml:space="preserve" x="0" y="0" font-family="Helvetica" font-size="16" font-weight="400" font-style="normal" 
 >0.6</text>
</g>

<g fill="#d9d9d9" fill-opacity="1" stroke="#d9d9d9" stroke-opacity="1" stroke-width="1" stroke-linecap="square" stroke-linejoin="bevel" transform="matrix(0.6,0,0,0.6,475.32,397.6)"
font-family="Helvetica" font-size="16" font-weight="400" font-style="normal" 
>
<text fill="#d9d9d9" fill-opacity="1" stroke="none" xml:space="preserve" x="0" y="0" font-family="Helvetica" font-size="16" font-weight="400" font-style="normal" 
 >0.7</text>
</g>

<g fill="#d9d9d9" fill-opacity="1" stroke="#d9d9d9" stroke-opacity="1" stroke-width="1" stroke-linecap="square" stroke-linejoin="bevel" transform="matrix(0.6,0,0,0.6,530.88,397.6)"
font-family="Helvetica" font-size="16" font-weight="400" font-style="normal" 
>
<text fill="#d9d9d9" fill-opacity="1" stroke="none" xml:space="preserve" x="0" y="0" font-family="Helvetica" font-size="16" font-weight="400" font-style="normal" 
 >0.8</text>
</g>

<g fill="#d9d9d9" fill-opacity="1" stroke="#d9d9d9" stroke-opacity="1" stroke-width="1" stroke-linecap="square" stroke-linejoin="bevel" transform="matrix(0.6,0,0,0.6,586.44,397.6)"
font-family="Helvetica" font-size="16" font-weight="400" font-style="normal" 
>
<text fill="#d9d9d9" fill-opacity="1" stroke="none" xml:space="preserve" x="0" y="0" font-family="Helvetica" font-size="16" font-weight="400" font-style="normal" 
 >0.9</text>
</g>

<g fill="#d9d9d9" fill-opacity="1" stroke="#d9d9d9" stroke-opacity="1" stroke-width="1" stroke-linecap="square" stroke-linejoin="bevel" transform="matrix(0.6,0,0,0.6,645.9,397.6)"
font-family="Helvetica" font-size="16" font-weight="400" font-style="normal" 
>
<text fill="#d9d9d9" fill-opacity="1" stroke="none" xml:space="preserve" x="0" y="0" font-family="Helvetica" font-size="16" font-weight="400" font-style="normal" 
 >1</text>
</g>

<g fill="#d9d9d9" fill-opacity="1" stroke="#d9d9d9" stroke-opacity="1" stroke-width="1" stroke-linecap="square" stroke-linejoin="bevel" transform="matrix(0,-0.6,0.6,0,59.6,218.4)"
font-family="Helvetica" font-size="25" font-weight="400" font-style="normal" 
>
<text fill="#d9d9d9" fill-opacity="1" stroke="none" xml:space="preserve" x="0" y="0" font-family="Helvetica" font-size="25" font-weight="400" font-style="normal" 
 >y/c</text>
</g>

<g fill="#d9d9d9" fill-opacity="1" stroke="#d9d9d9" stroke-opacity="1" stroke-width="0.833333" stroke-linecap="square" stroke-linejoin="round" transform="matrix(0.6,0,0,0.6,0,0)"
font-family="Helvetica" font-size="25" font-weight="400" font-style="normal" 
>
<polyline fill="none" vector-effect="none" points="155,641 155,54 " />
<polyline fill="none" vector-effect="none" points="155,641 164.26,641 " />
<polyline fill="none" vector-effect="none" points="155,543.167 164.26,543.167 " />
<polyline fill="none" vector-effect="none" points="155,445.333 164.26,445.333 " />
<polyline fill="none" vector-effect="none" points="155,347.5 164.26,347.5 " />
<polyline fill="none" vector-effect="none" points="155,249.667 164.26,249.667 " />
<polyline fill="none" vector-effect="none" points="155,151.833 164.26,151.833 " />
<polyline fill="none" vector-effect="none" points="155,54 164.26,54 " />
</g>

<g fill="#d9d9d9" fill-opacity="1" stroke="#d9d9d9" stroke-opacity="1" stroke-width="1" stroke-linecap="square" stroke-linejoin="bevel" transform="matrix(0.6,0,0,0.6,67.4,387.9)"
font-family="Helvetica" font-size="16" font-weight="400" font-style="normal" 
>
<text fill="#d9d9d9" fill-opacity="1" stroke="none" xml:space="preserve" x="0" y="0" font-family="Helvetica" font-size="16" font-weight="400" font-style="normal" 
 >-0.06</text>
</g>

<g fill="#d9d9d9" fill-opacity="1" stroke="#d9d9d9" stroke-opacity="1" stroke-width="1" stroke-linecap="square" stroke-linejoin="bevel" transform="matrix(0.6,0,0,0.6,67.4,329.2)"
font-family="Helvetica" font-size="16" font-weight="400" font-style="normal" 
>
<text fill="#d9d9d9" fill-opacity="1" stroke="none" xml:space="preserve" x="0" y="0" font-family="Helvetica" font-size="16" font-weight="400" font-style="normal" 
 >-0.04</text>
</g>

<g fill="#d9d9d9" fill-opacity="1" stroke="#d9d9d9" stroke-opacity="1" stroke-width="1" stroke-linecap="square" stroke-linejoin="bevel" transform="matrix(0.6,0,0,0.6,67.4,270.5)"
font-family="Helvetica" font-size="16" font-weight="400" font-style="normal" 
>
<text fill="#d9d9d9" fill-opacity="1" stroke="none" xml:space="preserve" x="0" y="0" font-family="Helvetica" font-size="16" font-weight="400" font-style="normal" 
 >-0.02</text>
</g>

<g fill="#d9d9d9" fill-opacity="1" stroke="#d9d9d9" stroke-opacity="1" stroke-width="1" stroke-linecap="square" stroke-linejoin="bevel" transform="matrix(0.6,0,0,0.6,83.6,211.8)"
font-family="Helvetica" font-size="16" font-weight="400" font-style="normal" 
>
<text fill="#d9d9d9" fill-opacity="1" stroke="none" xml:space="preserve" x="0" y="0" font-family="Helvetica" font-size="16" font-weight="400" font-style="normal" 
 >0</text>
</g>

<g fill="#d9d9d9" fill-opacity="1" stroke="#d9d9d9" stroke-opacity="1" stroke-width="1" stroke-linecap="square" stroke-linejoin="bevel" transform="matrix(0.6,0,0,0.6,70.4,153.1)"
font-family="Helvetica" font-size="16" font-weight="400" font-style="normal" 
>
<text fill="#d9d9d9" fill-opacity="1" stroke="none" xml:space="preserve" x="0" y="0" font-family="Helvetica" font-size="16" font-weight="400" font-style="normal" 
 >0.02</text>
</g>

<g fill="#d9d9d9" fill-opacity="1" stroke="#d9d9d9" stroke-opacity="1" stroke-width="1" stroke-linecap="square" stroke-linejoin="bevel" transform="matrix(0.6,0,0,0.6,70.4,94.4)"
font-family="Helvetica" font-size="16" font-weight="400" font-style="normal" 
>
<text fill="#d9d9d9" fill-opacity="1" stroke="none" xml:space="preserve" x="0" y="0" font-family="Helvetica" font-size="16" font-weight="400" font-style="normal" 
 >0.04</text>
</g>

<g fill="#d9d9d9" fill-opacity="1" stroke="#d9d9d9" stroke-opacity="1" stroke-width="1" stroke-linecap="square" stroke-linejoin="bevel" transform="matrix(0.6,0,0,0.6,70.4,35.7)"
font-family="Helvetica" font-size="16" font-weight="400" font-style="normal" 
>
<text fill="#d9d9d9" fill-opacity="1" stroke="none" xml:space="preserve" x="0" y="0" font-family="Helvetica" font-size="16" font-weight="400" font-style="normal" 
 >0.06</text>
</g>

<g fill="#d9d9d9" fill-opacity="1" stroke="#d9d9d9" stroke-opacity="1" stroke-width="1" stroke-linecap="square" stroke-linejoin="bevel" transform="matrix(0.6,0,0,0.6,286.2,24.6)"
font-family="Times New Roman" font-size="33" font-weight="700" font-style="normal" 
>
<text fill="#d9d9d9" fill-opacity="1" stroke="none" xml:space="preserve" x="0" y="0" font-family="Times New Roman" font-size="33" font-weight="700" font-style="normal" 
 >Airfoils Scaled Axes</text>
</g>

<g fill="none" stroke="#000000" stroke-opacity="1" stroke-width="1.66667" stroke-linecap="butt" stroke-linejoin="round" transform="matrix(0.6,0,0,0.6,0,0)"
font-family="Times New Roman" font-size="33" font-weight="700" font-style="normal" 
>
<polyline fill="none" vector-effect="none" points="155,347.5 155.117,340.359 155.466,333.236 156.049,326.15 156.864,319.118 157.912,312.156 159.193,305.28 160.706,298.503 162.45,291.839 164.425,285.297 166.632,278.886 169.068,272.612 171.734,266.48 174.629,260.493 177.752,254.649 181.102,248.948 184.68,243.387 188.482,237.96 192.51,232.66 196.761,227.48 201.234,222.413 205.929,217.447 210.845,212.575 215.979,207.787 221.331,203.074 226.9,198.426 232.684,193.838 238.681,189.302 244.89,184.813 251.31,180.367 257.938,175.962 264.774,171.598 271.815,167.276 279.06,163 286.507,158.772 294.154,154.601 301.999,150.494 310.04,146.458 318.275,142.505 326.703,138.645 335.32,134.887 344.125,131.244 353.115,127.726 362.288,124.343 371.643,121.104 381.176,118.019 390.885,115.093 400.768,112.333 410.822,109.741 421.045,107.321 431.434,105.071 441.987,102.991 452.7,101.076 463.572,99.3211 474.599,97.7199 485.779,96.2645 497.108,94.9463 508.585,93.7562 520.205,92.6853 531.967,91.7249 543.867,90.8677 555.903,90.1075 568.07,89.4406 580.367,88.8652 592.789,88.3831 605.335,87.9992 618,87.7222 630.782,87.5648 643.677,87.5442 656.682,87.6816 669.794,88.003 683.01,88.5381 696.326,89.3211 709.738,90.3894 723.244,91.7839 736.841,93.5477 750.523,95.7261 764.289,98.3654 778.135,101.512 792.057,105.212 806.052,109.51 820.116,114.449 834.245,120.068 848.437,126.403 862.687,133.486 876.992,141.345 891.349,150.003 905.753,159.482 920.202,169.797 934.691,180.965 949.216,193.001 963.775,205.925 978.364,219.762 992.978,234.544 1007.61,250.32 1022.27,267.157 1036.94,285.148 1051.62,304.417 1066.31,325.13 1081,347.5 " />
<polyline fill="none" vector-effect="none" points="155,347.5 155.117,355.978 155.466,364.432 156.049,372.838 156.864,381.173 157.912,389.414 159.193,397.542 160.706,405.537 162.45,413.381 164.425,421.06 166.632,428.56 169.068,435.872 171.734,442.986 174.629,449.896 177.752,456.601 181.102,463.098 184.68,469.389 188.482,475.477 192.51,481.367 196.761,487.065 201.234,492.581 205.929,497.922 210.845,503.099 215.979,508.121 221.331,512.999 226.9,517.744 232.684,522.364 238.681,526.869 244.89,531.267 251.31,535.565 257.938,539.767 264.774,543.879 271.815,547.901 279.06,551.836 286.507,555.681 294.154,559.434 301.999,563.092 310.04,566.647 318.275,570.094 326.703,573.423 335.32,576.625 344.125,579.69 353.115,582.607 362.288,585.363 371.643,587.948 381.176,590.347 390.885,592.549 400.768,594.541 410.822,596.31 421.045,597.844 431.434,599.13 441.987,600.155 452.7,600.907 463.572,601.371 474.599,601.536 485.779,601.386 497.108,600.908 508.585,600.086 520.205,598.904 531.967,597.345 543.867,595.389 555.903,593.019 568.07,590.214 580.367,586.952 592.789,583.212 605.335,578.973 618,574.212 630.782,568.909 643.677,563.045 656.682,556.604 669.794,549.573 683.01,541.943 696.326,533.712 709.738,524.885 723.244,515.473 736.841,505.501 750.523,495.002 764.289,484.02 778.135,472.616 792.057,460.863 806.052,448.849 820.116,436.678 834.245,424.467 848.437,412.351 862.687,400.477 876.992,389.002 891.349,378.094 905.753,367.928 920.202,358.678 934.691,350.516 949.216,343.604 963.775,338.086 978.364,334.079 992.978,331.666 1007.61,330.88 1022.27,331.696 1036.94,334.012 1051.62,337.637 1066.31,342.274 1081,347.5 " />
</g>

<g fill="none" stroke="#ff0000" stroke-opacity="1" stroke-dasharray="10,6" stroke-dashoffset="0" stroke-width="1.66667" stroke-linecap="butt" stroke-linejoin="round" transform="matrix(0.6,0,0,0.6,0,0)"
font-family="Times New Roman" font-size="33" font-weight="700" font-style="normal" 
>
<polyline fill="none" vector-effect="none" points="155,347.5 155.117,339.347 155.466,331.221 156.049,323.147 156.864,315.15 157.912,307.254 159.193,299.48 160.706,291.85 162.45,284.381 164.425,277.088 166.632,269.984 169.068,263.079 171.734,256.379 174.629,249.888 177.752,243.607 181.102,237.533 184.68,231.663 188.482,225.989 192.51,220.502 196.761,215.19 201.234,210.041 205.929,205.04 210.845,200.174 215.979,195.426 221.331,190.783 226.9,186.228 232.684,181.747 238.681,177.329 244.89,172.962 251.31,168.635 257.938,164.342 264.774,160.075 271.815,155.833 279.06,151.612 286.507,147.415 294.154,143.245 301.999,139.106 310.04,135.006 318.275,130.954 326.703,126.961 335.32,123.036 344.125,119.193 353.115,115.445 362.288,111.804 371.643,108.284 381.176,104.895 390.885,101.65 400.768,98.5582 410.822,95.6294 421.045,92.8707 431.434,90.288 441.987,87.8854 452.7,85.6656 463.572,83.6295 474.599,81.7768 485.779,80.106 497.108,78.6146 508.585,77.2996 520.205,76.158 531.967,75.1868 543.867,74.3838 555.903,73.7482 568.07,73.2804 580.367,72.9833 592.789,72.8618 605.335,72.9242 618,73.1814 630.782,73.648 643.677,74.3418 656.682,75.2841 669.794,76.4995 683.01,78.0158 696.326,79.8636 709.738,82.0756 723.244,84.6862 736.841,87.731 750.523,91.2457 764.289,95.2652 778.135,99.8231 792.057,104.951 806.052,110.675 820.116,117.021 834.245,124.007 848.437,131.648 862.687,139.95 876.992,148.918 891.349,158.551 905.753,168.841 920.202,179.78 934.691,191.36 949.216,203.573 963.775,216.417 978.364,229.899 992.978,244.043 1007.61,258.889 1022.27,274.507 1036.94,291.002 1051.62,308.52 1066.31,327.264 1081,347.5 " />
<polyline fill="none" vector-effect="none" points="155,347.5 155.117,356.196 155.466,364.866 156.049,373.485 156.864,382.026 157.912,390.468 159.193,398.785 160.706,406.958 162.45,414.965 164.425,422.79 166.632,430.417 169.068,437.831 171.734,445.021 174.629,451.979 177.752,458.696 181.102,465.17 184.68,471.396 188.482,477.375 192.51,483.108 196.761,488.599 201.234,493.851 205.929,498.872 210.845,503.668 215.979,508.247 221.331,512.619 226.9,516.791 232.684,520.773 238.681,524.574 244.89,528.202 251.31,531.667 257.938,534.975 264.774,538.134 271.815,541.149 279.06,544.026 286.507,546.769 294.154,549.381 301.999,551.864 310.04,554.219 318.275,556.447 326.703,558.547 335.32,560.518 344.125,562.357 353.115,564.061 362.288,565.629 371.643,567.054 381.176,568.334 390.885,569.462 400.768,570.434 410.822,571.244 421.045,571.884 431.434,572.348 441.987,572.628 452.7,572.715 463.572,572.599 474.599,572.269 485.779,571.713 497.108,570.917 508.585,569.867 520.205,568.544 531.967,566.932 543.867,565.009 555.903,562.754 568.07,560.145 580.367,557.157 592.789,553.766 605.335,549.945 618,545.67 630.782,540.917 643.677,535.663 656.682,529.889 669.794,523.577 683.01,516.717 696.326,509.302 709.738,501.334 723.244,492.823 736.841,483.787 750.523,474.259 764.289,464.279 778.135,453.904 792.057,443.204 806.052,432.261 820.116,421.176 834.245,410.06 848.437,399.043 862.687,388.263 876.992,377.874 891.349,368.034 905.753,358.91 920.202,350.669 934.691,343.476 949.216,337.484 963.775,332.833 978.364,329.635 992.978,327.972 1007.61,327.877 1022.27,329.331 1036.94,332.244 1051.62,336.444 1066.31,341.658 1081,347.5 " />
</g>

<g fill="#121212" fill-opacity="1" stroke="none" transform="matrix(6e-05,0,0,6e-05,0,0)"
font-family="Times New Roman" font-size="33" font-weight="700" font-style="normal" 
>
<path vector-effect="none" fill-rule="evenodd" d="M8.03e+06,5.68e+06 L8.03e+06,6.3e+06 L1.051e+07,6.3e+06 L1.051e+07,5.68e+06 L8.03e+06,5.68e+06"/>
</g>

<g fill="#000000" fill-opacity="1" stroke="#000000" stroke-opacity="1" stroke-width="1.66667" stroke-linecap="butt" stroke-linejoin="round" transform="matrix(0.6,0,0,0.6,0,0)"
font-family="Times New Roman" font-size="33" font-weight="700" font-style="normal" 
>
<polyline fill="none" vector-effect="none" points="807.985,584.6 857.834,584.6 " />
</g>

<g fill="#ff0000" fill-opacity="1" stroke="#ff0000" stroke-opacity="1" stroke-dasharray="10,6" stroke-dashoffset="0" stroke-width="1.66667" stroke-linecap="butt" stroke-linejoin="round" transform="matrix(0.6,0,0,0.6,0,0)"
font-family="Times New Roman" font-size="33" font-weight="700" font-style="normal" 
>
<polyline fill="none" vector-effect="none" points="807.985,613.4 857.834,613.4 " />
</g>

<g fill="#d9d9d9" fill-opacity="1" stroke="#d9d9d9" stroke-opacity="1" stroke-width="1" stroke-linecap="square" stroke-linejoin="bevel" transform="matrix(0.6,0,0,0.6,516.944,355.86)"
font-family="Helvetica" font-size="25" font-weight="400" font-style="normal" 
>
<text fill="#d9d9d9" fill-opacity="1" stroke="none" xml:space="preserve" x="0" y="0" font-family="Helvetica" font-size="25" font-weight="400" font-style="normal" 
 >Current Airfoil</text>
</g>

<g fill="#d9d9d9" fill-opacity="1" stroke="#d9d9d9" stroke-opacity="1" stroke-width="1" stroke-linecap="square" stroke-linejoin="bevel" transform="matrix(0.6,0,0,0.6,516.944,373.14)"
font-family="Helvetica" font-size="25" font-weight="400" font-style="normal" 
>
<text fill="#d9d9d9" fill-opacity="1" stroke="none" xml:space="preserve" x="0" y="0" font-family="Helvetica" font-size="25" font-weight="400" font-style="normal" 
 >Reference Airfoil</text>
</g>

<g fill="none" stroke="#d9d9d9" stroke-opacity="1" stroke-width="0.833333" stroke-linecap="butt" stroke-linejoin="miter" stroke-miterlimit="2" transform="matrix(0.6,0,0,0.6,0,0)"
font-family="Helvetica" font-size="25" font-weight="400" font-style="normal" 
>
<path vector-effect="none" fill-rule="evenodd" d="M803,630 L803,568 L1051,568 L1051,630 L803,630"/>
</g>
</g>
</svg>
