<?xml version="1.0" encoding="UTF-8" standalone="no"?>
<svg width="252.942mm" height="152.4mm"
 viewBox="0 0 717 432"
 xmlns="http://www.w3.org/2000/svg" xmlns:xlink="http://www.w3.org/1999/xlink"  version="1.2" baseProfile="tiny">
<title>Qt SVG Document</title>
<desc>MATLAB, The MathWorks, Inc. Version 25.1.0.2973910 R2025a Update 1</desc>
<defs>
</defs>
<g fill="none" stroke="black" stroke-width="1" fill-rule="evenodd" stroke-linecap="square" stroke-linejoin="bevel" >

<g fill="#000000" fill-opacity="1" stroke="none" transform="matrix(0.6,0,0,0.6,0,0)"
font-family="MS Shell Dlg 2" font-size="7.8" font-weight="400" font-style="normal" 
>
<path vector-effect="none" fill-rule="evenodd" d="M0,0 L1196,0 L1196,721 L0,721 L0,0"/>
</g>

<g fill="#121212" fill-opacity="1" stroke="none" transform="matrix(6e-05,0,0,6e-05,0,0)"
font-family="MS Shell Dlg 2" font-size="7.8" font-weight="400" font-style="normal" 
>
<path vector-effect="none" fill-rule="evenodd" d="M1.55e+06,540000 L1.55e+06,6.41e+06 L1.081e+07,6.41e+06 L1.081e+07,540000 L1.55e+06,540000"/>
</g>

<g fill="#d9d9d9" fill-opacity="1" stroke="#d9d9d9" stroke-opacity="1" stroke-width="1" stroke-linecap="square" stroke-linejoin="bevel" transform="matrix(0.6,0,0,0.6,360.9,414.8)"
font-family="Helvetica" font-size="25" font-weight="400" font-style="normal" 
>
<text fill="#d9d9d9" fill-opacity="1" stroke="none" xml:space="preserve" x="0" y="0" font-family="Helvetica" font-size="25" font-weight="400" font-style="normal" 
 >x/c</text>
</g>

<g fill="#d9d9d9" fill-opacity="1" stroke="#d9d9d9" stroke-opacity="1" stroke-width="0.833333" stroke-linecap="square" stroke-linejoin="round" transform="matrix(0.6,0,0,0.6,0,0)"
font-family="Helvetica" font-size="25" font-weight="400" font-style="normal" 
>
<polyline fill="none" vector-effect="none" points="155,641 1081,641 " />
<polyline fill="none" vector-effect="none" points="155,641 155,631.74 " />
<polyline fill="none" vector-effect="none" points="247.6,641 247.6,631.74 " />
<polyline fill="none" vector-effect="none" points="340.2,641 340.2,631.74 " />
<polyline fill="none" vector-effect="none" points="432.8,641 432.8,631.74 " />
<polyline fill="none" vector-effect="none" points="525.4,641 525.4,631.74 " />
<polyline fill="none" vector-effect="none" points="618,641 618,631.74 " />
<polyline fill="none" vector-effect="none" points="710.6,641 710.6,631.74 " />
<polyline fill="none" vector-effect="none" points="803.2,641 803.2,631.74 " />
<polyline fill="none" vector-effect="none" points="895.8,641 895.8,631.74 " />
<polyline fill="none" vector-effect="none" points="988.4,641 988.4,631.74 " />
<polyline fill="none" vector-effect="none" points="1081,641 1081,631.74 " />
</g>

<g fill="#d9d9d9" fill-opacity="1" stroke="#d9d9d9" stroke-opacity="1" stroke-width="1" stroke-linecap="square" stroke-linejoin="bevel" transform="matrix(0.6,0,0,0.6,90.3,397.6)"
font-family="Helvetica" font-size="16" font-weight="400" font-style="normal" 
>
<text fill="#d9d9d9" fill-opacity="1" stroke="none" xml:space="preserve" x="0" y="0" font-family="Helvetica" font-size="16" font-weight="400" font-style="normal" 
 >0</text>
</g>

<g fill="#d9d9d9" fill-opacity="1" stroke="#d9d9d9" stroke-opacity="1" stroke-width="1" stroke-linecap="square" stroke-linejoin="bevel" transform="matrix(0.6,0,0,0.6,141.96,397.6)"
font-family="Helvetica" font-size="16" font-weight="400" font-style="normal" 
>
<text fill="#d9d9d9" fill-opacity="1" stroke="none" xml:space="preserve" x="0" y="0" font-family="Helvetica" font-size="16" font-weight="400" font-style="normal" 
 >0.1</text>
</g>

<g fill="#d9d9d9" fill-opacity="1" stroke="#d9d9d9" stroke-opacity="1" stroke-width="1" stroke-linecap="square" stroke-linejoin="bevel" transform="matrix(0.6,0,0,0.6,197.52,397.6)"
font-family="Helvetica" font-size="16" font-weight="400" font-style="normal" 
>
<text fill="#d9d9d9" fill-opacity="1" stroke="none" xml:space="preserve" x="0" y="0" font-family="Helvetica" font-size="16" font-weight="400" font-style="normal" 
 >0.2</text>
</g>

<g fill="#d9d9d9" fill-opacity="1" stroke="#d9d9d9" stroke-opacity="1" stroke-width="1" stroke-linecap="square" stroke-linejoin="bevel" transform="matrix(0.6,0,0,0.6,253.08,397.6)"
font-family="Helvetica" font-size="16" font-weight="400" font-style="normal" 
>
<text fill="#d9d9d9" fill-opacity="1" stroke="none" xml:space="preserve" x="0" y="0" font-family="Helvetica" font-size="16" font-weight="400" font-style="normal" 
 >0.3</text>
</g>

<g fill="#d9d9d9" fill-opacity="1" stroke="#d9d9d9" stroke-opacity="1" stroke-width="1" stroke-linecap="square" stroke-linejoin="bevel" transform="matrix(0.6,0,0,0.6,308.64,397.6)"
font-family="Helvetica" font-size="16" font-weight="400" font-style="normal" 
>
<text fill="#d9d9d9" fill-opacity="1" stroke="none" xml:space="preserve" x="0" y="0" font-family="Helvetica" font-size="16" font-weight="400" font-style="normal" 
 >0.4</text>
</g>

<g fill="#d9d9d9" fill-opacity="1" stroke="#d9d9d9" stroke-opacity="1" stroke-width="1" stroke-linecap="square" stroke-linejoin="bevel" transform="matrix(0.6,0,0,0.6,364.2,397.6)"
font-family="Helvetica" font-size="16" font-weight="400" font-style="normal" 
>
<text fill="#d9d9d9" fill-opacity="1" stroke="none" xml:space="preserve" x="0" y="0" font-family="Helvetica" font-size="16" font-weight="400" font-style="normal" 
 >0.5</text>
</g>

<g fill="#d9d9d9" fill-opacity="1" stroke="#d9d9d9" stroke-opacity="1" stroke-width="1" stroke-linecap="square" stroke-linejoin="bevel" transform="matrix(0.6,0,0,0.6,419.76,397.6)"
font-family="Helvetica" font-size="16" font-weight="400" font-style="normal" 
>
<text fill="#d9d9d9" fill-opacity="1" stroke="none" xml:space="preserve" x="0" y="0" font-family="Helvetica" font-size="16" font-weight="400" font-style="normal" 
 >0.6</text>
</g>

<g fill="#d9d9d9" fill-opacity="1" stroke="#d9d9d9" stroke-opacity="1" stroke-width="1" stroke-linecap="square" stroke-linejoin="bevel" transform="matrix(0.6,0,0,0.6,475.32,397.6)"
font-family="Helvetica" font-size="16" font-weight="400" font-style="normal" 
>
<text fill="#d9d9d9" fill-opacity="1" stroke="none" xml:space="preserve" x="0" y="0" font-family="Helvetica" font-size="16" font-weight="400" font-style="normal" 
 >0.7</text>
</g>

<g fill="#d9d9d9" fill-opacity="1" stroke="#d9d9d9" stroke-opacity="1" stroke-width="1" stroke-linecap="square" stroke-linejoin="bevel" transform="matrix(0.6,0,0,0.6,530.88,397.6)"
font-family="Helvetica" font-size="16" font-weight="400" font-style="normal" 
>
<text fill="#d9d9d9" fill-opacity="1" stroke="none" xml:space="preserve" x="0" y="0" font-family="Helvetica" font-size="16" font-weight="400" font-style="normal" 
 >0.8</text>
</g>

<g fill="#d9d9d9" fill-opacity="1" stroke="#d9d9d9" stroke-opacity="1" stroke-width="1" stroke-linecap="square" stroke-linejoin="bevel" transform="matrix(0.6,0,0,0.6,586.44,397.6)"
font-family="Helvetica" font-size="16" font-weight="400" font-style="normal" 
>
<text fill="#d9d9d9" fill-opacity="1" stroke="none" xml:space="preserve" x="0" y="0" font-family="Helvetica" font-size="16" font-weight="400" font-style="normal" 
 >0.9</text>
</g>

<g fill="#d9d9d9" fill-opacity="1" stroke="#d9d9d9" stroke-opacity="1" stroke-width="1" stroke-linecap="square" stroke-linejoin="bevel" transform="matrix(0.6,0,0,0.6,645.9,397.6)"
font-family="Helvetica" font-size="16" font-weight="400" font-style="normal" 
>
<text fill="#d9d9d9" fill-opacity="1" stroke="none" xml:space="preserve" x="0" y="0" font-family="Helvetica" font-size="16" font-weight="400" font-style="normal" 
 >1</text>
</g>

<g fill="#d9d9d9" fill-opacity="1" stroke="#d9d9d9" stroke-opacity="1" stroke-width="1" stroke-linecap="square" stroke-linejoin="bevel" transform="matrix(0,-0.6,0.6,0,59.6,218.4)"
font-family="Helvetica" font-size="25" font-weight="400" font-style="normal" 
>
<text fill="#d9d9d9" fill-opacity="1" stroke="none" xml:space="preserve" x="0" y="0" font-family="Helvetica" font-size="25" font-weight="400" font-style="normal" 
 >y/c</text>
</g>

<g fill="#d9d9d9" fill-opacity="1" stroke="#d9d9d9" stroke-opacity="1" stroke-width="0.833333" stroke-linecap="square" stroke-linejoin="round" transform="matrix(0.6,0,0,0.6,0,0)"
font-family="Helvetica" font-size="25" font-weight="400" font-style="normal" 
>
<polyline fill="none" vector-effect="none" points="155,641 155,54 " />
<polyline fill="none" vector-effect="none" points="155,641 164.26,641 " />
<polyline fill="none" vector-effect="none" points="155,543.167 164.26,543.167 " />
<polyline fill="none" vector-effect="none" points="155,445.333 164.26,445.333 " />
<polyline fill="none" vector-effect="none" points="155,347.5 164.26,347.5 " />
<polyline fill="none" vector-effect="none" points="155,249.667 164.26,249.667 " />
<polyline fill="none" vector-effect="none" points="155,151.833 164.26,151.833 " />
<polyline fill="none" vector-effect="none" points="155,54 164.26,54 " />
</g>

<g fill="#d9d9d9" fill-opacity="1" stroke="#d9d9d9" stroke-opacity="1" stroke-width="1" stroke-linecap="square" stroke-linejoin="bevel" transform="matrix(0.6,0,0,0.6,67.4,387.9)"
font-family="Helvetica" font-size="16" font-weight="400" font-style="normal" 
>
<text fill="#d9d9d9" fill-opacity="1" stroke="none" xml:space="preserve" x="0" y="0" font-family="Helvetica" font-size="16" font-weight="400" font-style="normal" 
 >-0.06</text>
</g>

<g fill="#d9d9d9" fill-opacity="1" stroke="#d9d9d9" stroke-opacity="1" stroke-width="1" stroke-linecap="square" stroke-linejoin="bevel" transform="matrix(0.6,0,0,0.6,67.4,329.2)"
font-family="Helvetica" font-size="16" font-weight="400" font-style="normal" 
>
<text fill="#d9d9d9" fill-opacity="1" stroke="none" xml:space="preserve" x="0" y="0" font-family="Helvetica" font-size="16" font-weight="400" font-style="normal" 
 >-0.04</text>
</g>

<g fill="#d9d9d9" fill-opacity="1" stroke="#d9d9d9" stroke-opacity="1" stroke-width="1" stroke-linecap="square" stroke-linejoin="bevel" transform="matrix(0.6,0,0,0.6,67.4,270.5)"
font-family="Helvetica" font-size="16" font-weight="400" font-style="normal" 
>
<text fill="#d9d9d9" fill-opacity="1" stroke="none" xml:space="preserve" x="0" y="0" font-family="Helvetica" font-size="16" font-weight="400" font-style="normal" 
 >-0.02</text>
</g>

<g fill="#d9d9d9" fill-opacity="1" stroke="#d9d9d9" stroke-opacity="1" stroke-width="1" stroke-linecap="square" stroke-linejoin="bevel" transform="matrix(0.6,0,0,0.6,83.6,211.8)"
font-family="Helvetica" font-size="16" font-weight="400" font-style="normal" 
>
<text fill="#d9d9d9" fill-opacity="1" stroke="none" xml:space="preserve" x="0" y="0" font-family="Helvetica" font-size="16" font-weight="400" font-style="normal" 
 >0</text>
</g>

<g fill="#d9d9d9" fill-opacity="1" stroke="#d9d9d9" stroke-opacity="1" stroke-width="1" stroke-linecap="square" stroke-linejoin="bevel" transform="matrix(0.6,0,0,0.6,70.4,153.1)"
font-family="Helvetica" font-size="16" font-weight="400" font-style="normal" 
>
<text fill="#d9d9d9" fill-opacity="1" stroke="none" xml:space="preserve" x="0" y="0" font-family="Helvetica" font-size="16" font-weight="400" font-style="normal" 
 >0.02</text>
</g>

<g fill="#d9d9d9" fill-opacity="1" stroke="#d9d9d9" stroke-opacity="1" stroke-width="1" stroke-linecap="square" stroke-linejoin="bevel" transform="matrix(0.6,0,0,0.6,70.4,94.4)"
font-family="Helvetica" font-size="16" font-weight="400" font-style="normal" 
>
<text fill="#d9d9d9" fill-opacity="1" stroke="none" xml:space="preserve" x="0" y="0" font-family="Helvetica" font-size="16" font-weight="400" font-style="normal" 
 >0.04</text>
</g>

<g fill="#d9d9d9" fill-opacity="1" stroke="#d9d9d9" stroke-opacity="1" stroke-width="1" stroke-linecap="square" stroke-linejoin="bevel" transform="matrix(0.6,0,0,0.6,70.4,35.7)"
font-family="Helvetica" font-size="16" font-weight="400" font-style="normal" 
>
<text fill="#d9d9d9" fill-opacity="1" stroke="none" xml:space="preserve" x="0" y="0" font-family="Helvetica" font-size="16" font-weight="400" font-style="normal" 
 >0.06</text>
</g>

<g fill="#d9d9d9" fill-opacity="1" stroke="#d9d9d9" stroke-opacity="1" stroke-width="1" stroke-linecap="square" stroke-linejoin="bevel" transform="matrix(0.6,0,0,0.6,286.2,24.6)"
font-family="Times New Roman" font-size="33" font-weight="700" font-style="normal" 
>
<text fill="#d9d9d9" fill-opacity="1" stroke="none" xml:space="preserve" x="0" y="0" font-family="Times New Roman" font-size="33" font-weight="700" font-style="normal" 
 >Airfoils Scaled Axes</text>
</g>

<g fill="none" stroke="#000000" stroke-opacity="1" stroke-width="1.66667" stroke-linecap="butt" stroke-linejoin="round" transform="matrix(0.6,0,0,0.6,0,0)"
font-family="Times New Roman" font-size="33" font-weight="700" font-style="normal" 
>
<polyline fill="none" vector-effect="none" points="155,347.5 155.117,341.982 155.466,336.47 156.049,330.972 156.864,325.493 157.912,320.039 159.193,314.615 160.706,309.226 162.45,303.876 164.425,298.568 166.632,293.304 169.068,288.086 171.734,282.914 174.629,277.788 177.752,272.707 181.102,267.67 184.68,262.675 188.482,257.718 192.51,252.797 196.761,247.908 201.234,243.049 205.929,238.216 210.845,233.406 215.979,228.617 221.331,223.847 226.9,219.094 232.684,214.359 238.681,209.641 244.89,204.943 251.31,200.266 257.938,195.613 264.774,190.99 271.815,186.4 279.06,181.85 286.507,177.348 294.154,172.899 301.999,168.512 310.04,164.195 318.275,159.957 326.703,155.804 335.32,151.746 344.125,147.789 353.115,143.941 362.288,140.206 371.643,136.591 381.176,133.099 390.885,129.733 400.768,126.495 410.822,123.385 421.045,120.402 431.434,117.546 441.987,114.813 452.7,112.2 463.572,109.705 474.599,107.322 485.779,105.048 497.108,102.879 508.585,100.814 520.205,98.8514 531.967,96.9904 543.867,95.2335 555.903,93.5852 568.07,92.0523 580.367,90.6445 592.789,89.3748 605.335,88.2593 618,87.3173 630.782,86.5715 643.677,86.0481 656.682,85.7759 669.794,85.7869 683.01,86.1153 696.326,86.7974 709.738,87.8708 723.244,89.3739 736.841,91.3452 750.523,93.8226 764.289,96.8428 778.135,100.44 792.057,104.646 806.052,109.49 820.116,114.995 834.245,121.182 848.437,128.067 862.687,135.661 876.992,143.972 891.349,153.006 905.753,162.766 920.202,173.254 934.691,184.477 949.216,196.444 963.775,209.175 978.364,222.701 992.978,237.07 1007.61,252.356 1022.27,268.657 1036.94,286.113 1051.62,304.905 1066.31,325.268 1081,347.5 " />
<polyline fill="none" vector-effect="none" points="155,347.5 155.117,354.65 155.466,361.781 156.049,368.872 156.864,375.905 157.912,382.863 159.193,389.728 160.706,396.486 162.45,403.124 164.425,409.632 166.632,416.001 169.068,422.225 171.734,428.3 174.629,434.225 177.752,440.001 181.102,445.632 184.68,451.121 188.482,456.477 192.51,461.709 196.761,466.826 201.234,471.839 205.929,476.761 210.845,481.604 215.979,486.379 221.331,491.098 226.9,495.772 232.684,500.411 238.681,505.024 244.89,509.617 251.31,514.196 257.938,518.763 264.774,523.321 271.815,527.866 279.06,532.396 286.507,536.905 294.154,541.385 301.999,545.825 310.04,550.214 318.275,554.538 326.703,558.78 335.32,562.926 344.125,566.956 353.115,570.852 362.288,574.596 371.643,578.169 381.176,581.551 390.885,584.723 400.768,587.667 410.822,590.364 421.045,592.799 431.434,594.954 441.987,596.813 452.7,598.363 463.572,599.587 474.599,600.474 485.779,601.009 497.108,601.179 508.585,600.971 520.205,600.374 531.967,599.372 543.867,597.953 555.903,596.101 568.07,593.803 580.367,591.043 592.789,587.804 605.335,584.071 618,579.826 630.782,575.055 643.677,569.743 656.682,563.875 669.794,557.442 683.01,550.435 696.326,542.852 709.738,534.694 723.244,525.972 736.841,516.701 750.523,506.907 764.289,496.628 778.135,485.911 792.057,474.817 806.052,463.419 820.116,451.804 834.245,440.075 848.437,428.346 862.687,416.746 876.992,405.414 891.349,394.501 905.753,384.163 920.202,374.56 934.691,365.852 949.216,358.19 963.775,351.713 978.364,346.54 992.978,342.757 1007.61,340.413 1022.27,339.502 1036.94,339.954 1051.62,341.62 1066.31,344.254 1081,347.5 " />
</g>

<g fill="none" stroke="#ff0000" stroke-opacity="1" stroke-dasharray="10,6" stroke-dashoffset="0" stroke-width="1.66667" stroke-linecap="butt" stroke-linejoin="round" transform="matrix(0.6,0,0,0.6,0,0)"
font-family="Times New Roman" font-size="33" font-weight="700" font-style="normal" 
>
<polyline fill="none" vector-effect="none" points="155,347.5 155.117,339.347 155.466,331.221 156.049,323.147 156.864,315.15 157.912,307.254 159.193,299.48 160.706,291.85 162.45,284.381 164.425,277.088 166.632,269.984 169.068,263.079 171.734,256.379 174.629,249.888 177.752,243.607 181.102,237.533 184.68,231.663 188.482,225.989 192.51,220.502 196.761,215.19 201.234,210.041 205.929,205.04 210.845,200.174 215.979,195.426 221.331,190.783 226.9,186.228 232.684,181.747 238.681,177.329 244.89,172.962 251.31,168.635 257.938,164.342 264.774,160.075 271.815,155.833 279.06,151.612 286.507,147.415 294.154,143.245 301.999,139.106 310.04,135.006 318.275,130.954 326.703,126.961 335.32,123.036 344.125,119.193 353.115,115.445 362.288,111.804 371.643,108.284 381.176,104.895 390.885,101.65 400.768,98.5582 410.822,95.6294 421.045,92.8707 431.434,90.288 441.987,87.8854 452.7,85.6656 463.572,83.6295 474.599,81.7768 485.779,80.106 497.108,78.6146 508.585,77.2996 520.205,76.158 531.967,75.1868 543.867,74.3838 555.903,73.7482 568.07,73.2804 580.367,72.9833 592.789,72.8618 605.335,72.9242 618,73.1814 630.782,73.648 643.677,74.3418 656.682,75.2841 669.794,76.4995 683.01,78.0158 696.326,79.8636 709.738,82.0756 723.244,84.6862 736.841,87.731 750.523,91.2457 764.289,95.2652 778.135,99.8231 792.057,104.951 806.052,110.675 820.116,117.021 834.245,124.007 848.437,131.648 862.687,139.95 876.992,148.918 891.349,158.551 905.753,168.841 920.202,179.78 934.691,191.36 949.216,203.573 963.775,216.417 978.364,229.899 992.978,244.043 1007.61,258.889 1022.27,274.507 1036.94,291.002 1051.62,308.52 1066.31,327.264 1081,347.5 " />
<polyline fill="none" vector-effect="none" points="155,347.5 155.117,356.196 155.466,364.866 156.049,373.485 156.864,382.026 157.912,390.468 159.193,398.785 160.706,406.958 162.45,414.965 164.425,422.79 166.632,430.417 169.068,437.831 171.734,445.021 174.629,451.979 177.752,458.696 181.102,465.17 184.68,471.396 188.482,477.375 192.51,483.108 196.761,488.599 201.234,493.851 205.929,498.872 210.845,503.668 215.979,508.247 221.331,512.619 226.9,516.791 232.684,520.773 238.681,524.574 244.89,528.202 251.31,531.667 257.938,534.975 264.774,538.134 271.815,541.149 279.06,544.026 286.507,546.769 294.154,549.381 301.999,551.864 310.04,554.219 318.275,556.447 326.703,558.547 335.32,560.518 344.125,562.357 353.115,564.061 362.288,565.629 371.643,567.054 381.176,568.334 390.885,569.462 400.768,570.434 410.822,571.244 421.045,571.884 431.434,572.348 441.987,572.628 452.7,572.715 463.572,572.599 474.599,572.269 485.779,571.713 497.108,570.917 508.585,569.867 520.205,568.544 531.967,566.932 543.867,565.009 555.903,562.754 568.07,560.145 580.367,557.157 592.789,553.766 605.335,549.945 618,545.67 630.782,540.917 643.677,535.663 656.682,529.889 669.794,523.577 683.01,516.717 696.326,509.302 709.738,501.334 723.244,492.823 736.841,483.787 750.523,474.259 764.289,464.279 778.135,453.904 792.057,443.204 806.052,432.261 820.116,421.176 834.245,410.06 848.437,399.043 862.687,388.263 876.992,377.874 891.349,368.034 905.753,358.91 920.202,350.669 934.691,343.476 949.216,337.484 963.775,332.833 978.364,329.635 992.978,327.972 1007.61,327.877 1022.27,329.331 1036.94,332.244 1051.62,336.444 1066.31,341.658 1081,347.5 " />
</g>

<g fill="#121212" fill-opacity="1" stroke="none" transform="matrix(6e-05,0,0,6e-05,0,0)"
font-family="Times New Roman" font-size="33" font-weight="700" font-style="normal" 
>
<path vector-effect="none" fill-rule="evenodd" d="M8.03e+06,5.68e+06 L8.03e+06,6.3e+06 L1.051e+07,6.3e+06 L1.051e+07,5.68e+06 L8.03e+06,5.68e+06"/>
</g>

<g fill="#000000" fill-opacity="1" stroke="#000000" stroke-opacity="1" stroke-width="1.66667" stroke-linecap="butt" stroke-linejoin="round" transform="matrix(0.6,0,0,0.6,0,0)"
font-family="Times New Roman" font-size="33" font-weight="700" font-style="normal" 
>
<polyline fill="none" vector-effect="none" points="807.985,584.6 857.834,584.6 " />
</g>

<g fill="#ff0000" fill-opacity="1" stroke="#ff0000" stroke-opacity="1" stroke-dasharray="10,6" stroke-dashoffset="0" stroke-width="1.66667" stroke-linecap="butt" stroke-linejoin="round" transform="matrix(0.6,0,0,0.6,0,0)"
font-family="Times New Roman" font-size="33" font-weight="700" font-style="normal" 
>
<polyline fill="none" vector-effect="none" points="807.985,613.4 857.834,613.4 " />
</g>

<g fill="#d9d9d9" fill-opacity="1" stroke="#d9d9d9" stroke-opacity="1" stroke-width="1" stroke-linecap="square" stroke-linejoin="bevel" transform="matrix(0.6,0,0,0.6,516.944,355.86)"
font-family="Helvetica" font-size="25" font-weight="400" font-style="normal" 
>
<text fill="#d9d9d9" fill-opacity="1" stroke="none" xml:space="preserve" x="0" y="0" font-family="Helvetica" font-size="25" font-weight="400" font-style="normal" 
 >Current Airfoil</text>
</g>

<g fill="#d9d9d9" fill-opacity="1" stroke="#d9d9d9" stroke-opacity="1" stroke-width="1" stroke-linecap="square" stroke-linejoin="bevel" transform="matrix(0.6,0,0,0.6,516.944,373.14)"
font-family="Helvetica" font-size="25" font-weight="400" font-style="normal" 
>
<text fill="#d9d9d9" fill-opacity="1" stroke="none" xml:space="preserve" x="0" y="0" font-family="Helvetica" font-size="25" font-weight="400" font-style="normal" 
 >Reference Airfoil</text>
</g>

<g fill="none" stroke="#d9d9d9" stroke-opacity="1" stroke-width="0.833333" stroke-linecap="butt" stroke-linejoin="miter" stroke-miterlimit="2" transform="matrix(0.6,0,0,0.6,0,0)"
font-family="Helvetica" font-size="25" font-weight="400" font-style="normal" 
>
<path vector-effect="none" fill-rule="evenodd" d="M803,630 L803,568 L1051,568 L1051,630 L803,630"/>
</g>
</g>
</svg>
