<?xml version="1.0" encoding="UTF-8" standalone="no"?>
<svg width="252.942mm" height="152.4mm"
 viewBox="0 0 717 432"
 xmlns="http://www.w3.org/2000/svg" xmlns:xlink="http://www.w3.org/1999/xlink"  version="1.2" baseProfile="tiny">
<title>Qt SVG Document</title>
<desc>MATLAB, The MathWorks, Inc. Version 25.1.0.2973910 R2025a Update 1</desc>
<defs>
</defs>
<g fill="none" stroke="black" stroke-width="1" fill-rule="evenodd" stroke-linecap="square" stroke-linejoin="bevel" >

<g fill="#000000" fill-opacity="1" stroke="none" transform="matrix(0.6,0,0,0.6,0,0)"
font-family="MS Shell Dlg 2" font-size="7.8" font-weight="400" font-style="normal" 
>
<path vector-effect="none" fill-rule="evenodd" d="M0,0 L1196,0 L1196,721 L0,721 L0,0"/>
</g>

<g fill="#121212" fill-opacity="1" stroke="none" transform="matrix(6e-05,0,0,6e-05,0,0)"
font-family="MS Shell Dlg 2" font-size="7.8" font-weight="400" font-style="normal" 
>
<path vector-effect="none" fill-rule="evenodd" d="M1.55e+06,543422 L1.55e+06,6.40658e+06 L1.081e+07,6.40658e+06 L1.081e+07,543422 L1.55e+06,543422"/>
</g>

<g fill="#d9d9d9" fill-opacity="1" stroke="#d9d9d9" stroke-opacity="1" stroke-width="1" stroke-linecap="square" stroke-linejoin="bevel" transform="matrix(0.6,0,0,0.6,360.9,414.595)"
font-family="Helvetica" font-size="25" font-weight="400" font-style="normal" 
>
<text fill="#d9d9d9" fill-opacity="1" stroke="none" xml:space="preserve" x="0" y="0" font-family="Helvetica" font-size="25" font-weight="400" font-style="normal" 
 >x/c</text>
</g>

<g fill="#d9d9d9" fill-opacity="1" stroke="#d9d9d9" stroke-opacity="1" stroke-width="0.833333" stroke-linecap="square" stroke-linejoin="round" transform="matrix(0.6,0,0,0.6,0,0)"
font-family="Helvetica" font-size="25" font-weight="400" font-style="normal" 
>
<polyline fill="none" vector-effect="none" points="155,640.658 1081,640.658 " />
<polyline fill="none" vector-effect="none" points="155,640.658 155,631.398 " />
<polyline fill="none" vector-effect="none" points="247.6,640.658 247.6,631.398 " />
<polyline fill="none" vector-effect="none" points="340.2,640.658 340.2,631.398 " />
<polyline fill="none" vector-effect="none" points="432.8,640.658 432.8,631.398 " />
<polyline fill="none" vector-effect="none" points="525.4,640.658 525.4,631.398 " />
<polyline fill="none" vector-effect="none" points="618,640.658 618,631.398 " />
<polyline fill="none" vector-effect="none" points="710.6,640.658 710.6,631.398 " />
<polyline fill="none" vector-effect="none" points="803.2,640.658 803.2,631.398 " />
<polyline fill="none" vector-effect="none" points="895.8,640.658 895.8,631.398 " />
<polyline fill="none" vector-effect="none" points="988.4,640.658 988.4,631.398 " />
<polyline fill="none" vector-effect="none" points="1081,640.658 1081,631.398 " />
</g>

<g fill="#d9d9d9" fill-opacity="1" stroke="#d9d9d9" stroke-opacity="1" stroke-width="1" stroke-linecap="square" stroke-linejoin="bevel" transform="matrix(0.6,0,0,0.6,90.3,397.395)"
font-family="Helvetica" font-size="16" font-weight="400" font-style="normal" 
>
<text fill="#d9d9d9" fill-opacity="1" stroke="none" xml:space="preserve" x="0" y="0" font-family="Helvetica" font-size="16" font-weight="400" font-style="normal" 
 >0</text>
</g>

<g fill="#d9d9d9" fill-opacity="1" stroke="#d9d9d9" stroke-opacity="1" stroke-width="1" stroke-linecap="square" stroke-linejoin="bevel" transform="matrix(0.6,0,0,0.6,141.96,397.395)"
font-family="Helvetica" font-size="16" font-weight="400" font-style="normal" 
>
<text fill="#d9d9d9" fill-opacity="1" stroke="none" xml:space="preserve" x="0" y="0" font-family="Helvetica" font-size="16" font-weight="400" font-style="normal" 
 >0.1</text>
</g>

<g fill="#d9d9d9" fill-opacity="1" stroke="#d9d9d9" stroke-opacity="1" stroke-width="1" stroke-linecap="square" stroke-linejoin="bevel" transform="matrix(0.6,0,0,0.6,197.52,397.395)"
font-family="Helvetica" font-size="16" font-weight="400" font-style="normal" 
>
<text fill="#d9d9d9" fill-opacity="1" stroke="none" xml:space="preserve" x="0" y="0" font-family="Helvetica" font-size="16" font-weight="400" font-style="normal" 
 >0.2</text>
</g>

<g fill="#d9d9d9" fill-opacity="1" stroke="#d9d9d9" stroke-opacity="1" stroke-width="1" stroke-linecap="square" stroke-linejoin="bevel" transform="matrix(0.6,0,0,0.6,253.08,397.395)"
font-family="Helvetica" font-size="16" font-weight="400" font-style="normal" 
>
<text fill="#d9d9d9" fill-opacity="1" stroke="none" xml:space="preserve" x="0" y="0" font-family="Helvetica" font-size="16" font-weight="400" font-style="normal" 
 >0.3</text>
</g>

<g fill="#d9d9d9" fill-opacity="1" stroke="#d9d9d9" stroke-opacity="1" stroke-width="1" stroke-linecap="square" stroke-linejoin="bevel" transform="matrix(0.6,0,0,0.6,308.64,397.395)"
font-family="Helvetica" font-size="16" font-weight="400" font-style="normal" 
>
<text fill="#d9d9d9" fill-opacity="1" stroke="none" xml:space="preserve" x="0" y="0" font-family="Helvetica" font-size="16" font-weight="400" font-style="normal" 
 >0.4</text>
</g>

<g fill="#d9d9d9" fill-opacity="1" stroke="#d9d9d9" stroke-opacity="1" stroke-width="1" stroke-linecap="square" stroke-linejoin="bevel" transform="matrix(0.6,0,0,0.6,364.2,397.395)"
font-family="Helvetica" font-size="16" font-weight="400" font-style="normal" 
>
<text fill="#d9d9d9" fill-opacity="1" stroke="none" xml:space="preserve" x="0" y="0" font-family="Helvetica" font-size="16" font-weight="400" font-style="normal" 
 >0.5</text>
</g>

<g fill="#d9d9d9" fill-opacity="1" stroke="#d9d9d9" stroke-opacity="1" stroke-width="1" stroke-linecap="square" stroke-linejoin="bevel" transform="matrix(0.6,0,0,0.6,419.76,397.395)"
font-family="Helvetica" font-size="16" font-weight="400" font-style="normal" 
>
<text fill="#d9d9d9" fill-opacity="1" stroke="none" xml:space="preserve" x="0" y="0" font-family="Helvetica" font-size="16" font-weight="400" font-style="normal" 
 >0.6</text>
</g>

<g fill="#d9d9d9" fill-opacity="1" stroke="#d9d9d9" stroke-opacity="1" stroke-width="1" stroke-linecap="square" stroke-linejoin="bevel" transform="matrix(0.6,0,0,0.6,475.32,397.395)"
font-family="Helvetica" font-size="16" font-weight="400" font-style="normal" 
>
<text fill="#d9d9d9" fill-opacity="1" stroke="none" xml:space="preserve" x="0" y="0" font-family="Helvetica" font-size="16" font-weight="400" font-style="normal" 
 >0.7</text>
</g>

<g fill="#d9d9d9" fill-opacity="1" stroke="#d9d9d9" stroke-opacity="1" stroke-width="1" stroke-linecap="square" stroke-linejoin="bevel" transform="matrix(0.6,0,0,0.6,530.88,397.395)"
font-family="Helvetica" font-size="16" font-weight="400" font-style="normal" 
>
<text fill="#d9d9d9" fill-opacity="1" stroke="none" xml:space="preserve" x="0" y="0" font-family="Helvetica" font-size="16" font-weight="400" font-style="normal" 
 >0.8</text>
</g>

<g fill="#d9d9d9" fill-opacity="1" stroke="#d9d9d9" stroke-opacity="1" stroke-width="1" stroke-linecap="square" stroke-linejoin="bevel" transform="matrix(0.6,0,0,0.6,586.44,397.395)"
font-family="Helvetica" font-size="16" font-weight="400" font-style="normal" 
>
<text fill="#d9d9d9" fill-opacity="1" stroke="none" xml:space="preserve" x="0" y="0" font-family="Helvetica" font-size="16" font-weight="400" font-style="normal" 
 >0.9</text>
</g>

<g fill="#d9d9d9" fill-opacity="1" stroke="#d9d9d9" stroke-opacity="1" stroke-width="1" stroke-linecap="square" stroke-linejoin="bevel" transform="matrix(0.6,0,0,0.6,645.9,397.395)"
font-family="Helvetica" font-size="16" font-weight="400" font-style="normal" 
>
<text fill="#d9d9d9" fill-opacity="1" stroke="none" xml:space="preserve" x="0" y="0" font-family="Helvetica" font-size="16" font-weight="400" font-style="normal" 
 >1</text>
</g>

<g fill="#d9d9d9" fill-opacity="1" stroke="#d9d9d9" stroke-opacity="1" stroke-width="1" stroke-linecap="square" stroke-linejoin="bevel" transform="matrix(0,-0.6,0.6,0,65,218.4)"
font-family="Helvetica" font-size="25" font-weight="400" font-style="normal" 
>
<text fill="#d9d9d9" fill-opacity="1" stroke="none" xml:space="preserve" x="0" y="0" font-family="Helvetica" font-size="25" font-weight="400" font-style="normal" 
 >y/c</text>
</g>

<g fill="#d9d9d9" fill-opacity="1" stroke="#d9d9d9" stroke-opacity="1" stroke-width="0.833333" stroke-linecap="square" stroke-linejoin="round" transform="matrix(0.6,0,0,0.6,0,0)"
font-family="Helvetica" font-size="25" font-weight="400" font-style="normal" 
>
<polyline fill="none" vector-effect="none" points="155,640.658 155,54.3423 " />
<polyline fill="none" vector-effect="none" points="155,626.395 164.26,626.395 " />
<polyline fill="none" vector-effect="none" points="155,533.795 164.26,533.795 " />
<polyline fill="none" vector-effect="none" points="155,441.195 164.26,441.195 " />
<polyline fill="none" vector-effect="none" points="155,348.595 164.26,348.595 " />
<polyline fill="none" vector-effect="none" points="155,255.995 164.26,255.995 " />
<polyline fill="none" vector-effect="none" points="155,163.395 164.26,163.395 " />
<polyline fill="none" vector-effect="none" points="155,70.7947 164.26,70.7947 " />
</g>

<g fill="#d9d9d9" fill-opacity="1" stroke="#d9d9d9" stroke-opacity="1" stroke-width="1" stroke-linecap="square" stroke-linejoin="bevel" transform="matrix(0.6,0,0,0.6,72.8,379.137)"
font-family="Helvetica" font-size="16" font-weight="400" font-style="normal" 
>
<text fill="#d9d9d9" fill-opacity="1" stroke="none" xml:space="preserve" x="0" y="0" font-family="Helvetica" font-size="16" font-weight="400" font-style="normal" 
 >-0.3</text>
</g>

<g fill="#d9d9d9" fill-opacity="1" stroke="#d9d9d9" stroke-opacity="1" stroke-width="1" stroke-linecap="square" stroke-linejoin="bevel" transform="matrix(0.6,0,0,0.6,72.8,323.577)"
font-family="Helvetica" font-size="16" font-weight="400" font-style="normal" 
>
<text fill="#d9d9d9" fill-opacity="1" stroke="none" xml:space="preserve" x="0" y="0" font-family="Helvetica" font-size="16" font-weight="400" font-style="normal" 
 >-0.2</text>
</g>

<g fill="#d9d9d9" fill-opacity="1" stroke="#d9d9d9" stroke-opacity="1" stroke-width="1" stroke-linecap="square" stroke-linejoin="bevel" transform="matrix(0.6,0,0,0.6,72.8,268.017)"
font-family="Helvetica" font-size="16" font-weight="400" font-style="normal" 
>
<text fill="#d9d9d9" fill-opacity="1" stroke="none" xml:space="preserve" x="0" y="0" font-family="Helvetica" font-size="16" font-weight="400" font-style="normal" 
 >-0.1</text>
</g>

<g fill="#d9d9d9" fill-opacity="1" stroke="#d9d9d9" stroke-opacity="1" stroke-width="1" stroke-linecap="square" stroke-linejoin="bevel" transform="matrix(0.6,0,0,0.6,83.6,212.457)"
font-family="Helvetica" font-size="16" font-weight="400" font-style="normal" 
>
<text fill="#d9d9d9" fill-opacity="1" stroke="none" xml:space="preserve" x="0" y="0" font-family="Helvetica" font-size="16" font-weight="400" font-style="normal" 
 >0</text>
</g>

<g fill="#d9d9d9" fill-opacity="1" stroke="#d9d9d9" stroke-opacity="1" stroke-width="1" stroke-linecap="square" stroke-linejoin="bevel" transform="matrix(0.6,0,0,0.6,75.8,156.897)"
font-family="Helvetica" font-size="16" font-weight="400" font-style="normal" 
>
<text fill="#d9d9d9" fill-opacity="1" stroke="none" xml:space="preserve" x="0" y="0" font-family="Helvetica" font-size="16" font-weight="400" font-style="normal" 
 >0.1</text>
</g>

<g fill="#d9d9d9" fill-opacity="1" stroke="#d9d9d9" stroke-opacity="1" stroke-width="1" stroke-linecap="square" stroke-linejoin="bevel" transform="matrix(0.6,0,0,0.6,75.8,101.337)"
font-family="Helvetica" font-size="16" font-weight="400" font-style="normal" 
>
<text fill="#d9d9d9" fill-opacity="1" stroke="none" xml:space="preserve" x="0" y="0" font-family="Helvetica" font-size="16" font-weight="400" font-style="normal" 
 >0.2</text>
</g>

<g fill="#d9d9d9" fill-opacity="1" stroke="#d9d9d9" stroke-opacity="1" stroke-width="1" stroke-linecap="square" stroke-linejoin="bevel" transform="matrix(0.6,0,0,0.6,75.8,45.7768)"
font-family="Helvetica" font-size="16" font-weight="400" font-style="normal" 
>
<text fill="#d9d9d9" fill-opacity="1" stroke="none" xml:space="preserve" x="0" y="0" font-family="Helvetica" font-size="16" font-weight="400" font-style="normal" 
 >0.3</text>
</g>

<g fill="#d9d9d9" fill-opacity="1" stroke="#d9d9d9" stroke-opacity="1" stroke-width="1" stroke-linecap="square" stroke-linejoin="bevel" transform="matrix(0.6,0,0,0.6,288.6,24.8054)"
font-family="Times New Roman" font-size="33" font-weight="700" font-style="normal" 
>
<text fill="#d9d9d9" fill-opacity="1" stroke="none" xml:space="preserve" x="0" y="0" font-family="Times New Roman" font-size="33" font-weight="700" font-style="normal" 
 >Airfoils Equal Axes</text>
</g>

<g fill="none" stroke="#000000" stroke-opacity="1" stroke-width="1.66667" stroke-linecap="butt" stroke-linejoin="round" transform="matrix(0.6,0,0,0.6,0,0)"
font-family="Times New Roman" font-size="33" font-weight="700" font-style="normal" 
>
<polyline fill="none" vector-effect="none" points="155,348.595 155.117,347.247 155.466,345.903 156.049,344.565 156.864,343.237 157.912,341.922 159.193,340.622 160.706,339.339 162.45,338.077 164.425,336.836 166.632,335.619 169.068,334.425 171.734,333.257 174.629,332.114 177.752,330.997 181.102,329.904 184.68,328.836 188.482,327.79 192.51,326.767 196.761,325.764 201.234,324.78 205.929,323.814 210.845,322.862 215.979,321.925 221.331,320.999 226.9,320.084 232.684,319.178 238.681,318.28 244.89,317.389 251.31,316.505 257.938,315.627 264.774,314.755 271.815,313.89 279.06,313.032 286.507,312.182 294.154,311.341 301.999,310.511 310.04,309.693 318.275,308.89 326.703,308.104 335.32,307.335 344.125,306.587 353.115,305.861 362.288,305.16 371.643,304.484 381.176,303.837 390.885,303.218 400.768,302.628 410.822,302.07 421.045,301.542 431.434,301.046 441.987,300.58 452.7,300.145 463.572,299.739 474.599,299.363 485.779,299.013 497.108,298.691 508.585,298.393 520.205,298.12 531.967,297.87 543.867,297.643 555.903,297.439 568.07,297.256 580.367,297.097 592.789,296.962 605.335,296.853 618,296.773 630.782,296.724 643.677,296.712 656.682,296.741 669.794,296.815 683.01,296.942 696.326,297.127 709.738,297.379 723.244,297.703 736.841,298.109 750.523,298.603 764.289,299.194 778.135,299.889 792.057,300.694 806.052,301.617 820.116,302.663 834.245,303.839 848.437,305.147 862.687,306.592 876.992,308.176 891.349,309.904 905.753,311.776 920.202,313.795 934.691,315.964 949.216,318.287 963.775,320.77 978.364,323.421 992.978,326.254 1007.61,329.286 1022.27,332.541 1036.94,336.051 1051.62,339.859 1066.31,344.017 1081,348.595 " />
<polyline fill="none" vector-effect="none" points="155,348.595 155.117,350.41 155.466,352.22 156.049,354.019 156.864,355.802 157.912,357.564 159.193,359.3 160.706,361.005 162.45,362.677 164.425,364.31 166.632,365.902 169.068,367.45 171.734,368.952 174.629,370.406 177.752,371.811 181.102,373.166 184.68,374.471 188.482,375.726 192.51,376.932 196.761,378.089 201.234,379.199 205.929,380.264 210.845,381.285 215.979,382.264 221.331,383.203 226.9,384.105 232.684,384.971 238.681,385.803 244.89,386.604 251.31,387.375 257.938,388.118 264.774,388.834 271.815,389.525 279.06,390.192 286.507,390.835 294.154,391.455 301.999,392.053 310.04,392.629 318.275,393.182 326.703,393.712 335.32,394.219 344.125,394.702 353.115,395.162 362.288,395.595 371.643,396.003 381.176,396.384 390.885,396.736 400.768,397.059 410.822,397.351 421.045,397.611 431.434,397.837 441.987,398.028 452.7,398.182 463.572,398.296 474.599,398.367 485.779,398.395 497.108,398.374 508.585,398.302 520.205,398.175 531.967,397.989 543.867,397.738 555.903,397.418 568.07,397.023 580.367,396.546 592.789,395.983 605.335,395.325 618,394.567 630.782,393.703 643.677,392.725 656.682,391.628 669.794,390.408 683.01,389.059 696.326,387.58 709.738,385.968 723.244,384.224 736.841,382.351 750.523,380.354 764.289,378.24 778.135,376.02 792.057,373.708 806.052,371.321 820.116,368.879 834.245,366.407 848.437,363.932 862.687,361.484 876.992,359.096 891.349,356.803 905.753,354.643 920.202,352.652 934.691,350.867 949.216,349.323 963.775,348.051 978.364,347.079 992.978,346.423 1007.61,346.093 1022.27,346.086 1036.94,346.382 1051.62,346.943 1066.31,347.71 1081,348.595 " />
</g>

<g fill="none" stroke="#ff0000" stroke-opacity="1" stroke-dasharray="10,6" stroke-dashoffset="0" stroke-width="1.66667" stroke-linecap="butt" stroke-linejoin="round" transform="matrix(0.6,0,0,0.6,0,0)"
font-family="Times New Roman" font-size="33" font-weight="700" font-style="normal" 
>
<polyline fill="none" vector-effect="none" points="155,348.595 155.117,347.051 155.466,345.513 156.049,343.985 156.864,342.471 157.912,340.976 159.193,339.505 160.706,338.06 162.45,336.646 164.425,335.266 166.632,333.921 169.068,332.614 171.734,331.345 174.629,330.117 177.752,328.928 181.102,327.778 184.68,326.667 188.482,325.593 192.51,324.554 196.761,323.548 201.234,322.573 205.929,321.627 210.845,320.706 215.979,319.807 221.331,318.928 226.9,318.066 232.684,317.217 238.681,316.381 244.89,315.554 251.31,314.735 257.938,313.923 264.774,313.115 271.815,312.312 279.06,311.513 286.507,310.718 294.154,309.929 301.999,309.145 310.04,308.369 318.275,307.602 326.703,306.846 335.32,306.103 344.125,305.376 353.115,304.666 362.288,303.977 371.643,303.311 381.176,302.669 390.885,302.055 400.768,301.47 410.822,300.915 421.045,300.393 431.434,299.904 441.987,299.449 452.7,299.029 463.572,298.644 474.599,298.293 485.779,297.977 497.108,297.694 508.585,297.445 520.205,297.229 531.967,297.045 543.867,296.893 555.903,296.773 568.07,296.685 580.367,296.628 592.789,296.605 605.335,296.617 618,296.666 630.782,296.754 643.677,296.885 656.682,297.064 669.794,297.294 683.01,297.581 696.326,297.931 709.738,298.349 723.244,298.844 736.841,299.42 750.523,300.085 764.289,300.846 778.135,301.709 792.057,302.68 806.052,303.763 820.116,304.965 834.245,306.287 848.437,307.733 862.687,309.305 876.992,311.003 891.349,312.826 905.753,314.774 920.202,316.845 934.691,319.037 949.216,321.349 963.775,323.78 978.364,326.333 992.978,329.01 1007.61,331.82 1022.27,334.777 1036.94,337.899 1051.62,341.216 1066.31,344.764 1081,348.595 " />
<polyline fill="none" vector-effect="none" points="155,348.595 155.117,350.241 155.466,351.882 156.049,353.514 156.864,355.131 157.912,356.729 159.193,358.303 160.706,359.85 162.45,361.366 164.425,362.847 166.632,364.291 169.068,365.694 171.734,367.056 174.629,368.373 177.752,369.644 181.102,370.87 184.68,372.048 188.482,373.18 192.51,374.266 196.761,375.305 201.234,376.299 205.929,377.25 210.845,378.158 215.979,379.024 221.331,379.852 226.9,380.642 232.684,381.395 238.681,382.115 244.89,382.802 251.31,383.458 257.938,384.084 264.774,384.682 271.815,385.253 279.06,385.797 286.507,386.317 294.154,386.811 301.999,387.281 310.04,387.727 318.275,388.149 326.703,388.546 335.32,388.919 344.125,389.267 353.115,389.59 362.288,389.887 371.643,390.157 381.176,390.399 390.885,390.612 400.768,390.796 410.822,390.95 421.045,391.071 431.434,391.159 441.987,391.212 452.7,391.228 463.572,391.206 474.599,391.144 485.779,391.039 497.108,390.888 508.585,390.689 520.205,390.439 531.967,390.133 543.867,389.769 555.903,389.343 568.07,388.849 580.367,388.283 592.789,387.641 605.335,386.918 618,386.109 630.782,385.209 643.677,384.214 656.682,383.121 669.794,381.926 683.01,380.628 696.326,379.224 709.738,377.716 723.244,376.104 736.841,374.394 750.523,372.59 764.289,370.701 778.135,368.737 792.057,366.712 806.052,364.64 820.116,362.542 834.245,360.437 848.437,358.352 862.687,356.311 876.992,354.344 891.349,352.482 905.753,350.755 920.202,349.195 934.691,347.833 949.216,346.699 963.775,345.818 978.364,345.213 992.978,344.898 1007.61,344.88 1022.27,345.155 1036.94,345.707 1051.62,346.502 1066.31,347.489 1081,348.595 " />
</g>

<g fill="#121212" fill-opacity="1" stroke="none" transform="matrix(6e-05,0,0,6e-05,0,0)"
font-family="Times New Roman" font-size="33" font-weight="700" font-style="normal" 
>
<path vector-effect="none" fill-rule="evenodd" d="M8.03e+06,650000 L8.03e+06,1.27e+06 L1.051e+07,1.27e+06 L1.051e+07,650000 L8.03e+06,650000"/>
</g>

<g fill="#000000" fill-opacity="1" stroke="#000000" stroke-opacity="1" stroke-width="1.66667" stroke-linecap="butt" stroke-linejoin="round" transform="matrix(0.6,0,0,0.6,0,0)"
font-family="Times New Roman" font-size="33" font-weight="700" font-style="normal" 
>
<polyline fill="none" vector-effect="none" points="807.985,81.6004 857.834,81.6004 " />
</g>

<g fill="#ff0000" fill-opacity="1" stroke="#ff0000" stroke-opacity="1" stroke-dasharray="10,6" stroke-dashoffset="0" stroke-width="1.66667" stroke-linecap="butt" stroke-linejoin="round" transform="matrix(0.6,0,0,0.6,0,0)"
font-family="Times New Roman" font-size="33" font-weight="700" font-style="normal" 
>
<polyline fill="none" vector-effect="none" points="807.985,110.4 857.834,110.4 " />
</g>

<g fill="#d9d9d9" fill-opacity="1" stroke="#d9d9d9" stroke-opacity="1" stroke-width="1" stroke-linecap="square" stroke-linejoin="bevel" transform="matrix(0.6,0,0,0.6,516.944,54.0602)"
font-family="Helvetica" font-size="25" font-weight="400" font-style="normal" 
>
<text fill="#d9d9d9" fill-opacity="1" stroke="none" xml:space="preserve" x="0" y="0" font-family="Helvetica" font-size="25" font-weight="400" font-style="normal" 
 >Current Airfoil</text>
</g>

<g fill="#d9d9d9" fill-opacity="1" stroke="#d9d9d9" stroke-opacity="1" stroke-width="1" stroke-linecap="square" stroke-linejoin="bevel" transform="matrix(0.6,0,0,0.6,516.944,71.3398)"
font-family="Helvetica" font-size="25" font-weight="400" font-style="normal" 
>
<text fill="#d9d9d9" fill-opacity="1" stroke="none" xml:space="preserve" x="0" y="0" font-family="Helvetica" font-size="25" font-weight="400" font-style="normal" 
 >Reference Airfoil</text>
</g>

<g fill="none" stroke="#d9d9d9" stroke-opacity="1" stroke-width="0.833333" stroke-linecap="butt" stroke-linejoin="miter" stroke-miterlimit="2" transform="matrix(0.6,0,0,0.6,0,0)"
font-family="Helvetica" font-size="25" font-weight="400" font-style="normal" 
>
<path vector-effect="none" fill-rule="evenodd" d="M803,127 L803,65 L1051,65 L1051,127 L803,127"/>
</g>
</g>
</svg>
