<?xml version="1.0" encoding="UTF-8" standalone="no"?>
<svg width="252.942mm" height="152.4mm"
 viewBox="0 0 717 432"
 xmlns="http://www.w3.org/2000/svg" xmlns:xlink="http://www.w3.org/1999/xlink"  version="1.2" baseProfile="tiny">
<title>Qt SVG Document</title>
<desc>MATLAB, The MathWorks, Inc. Version 25.1.0.2973910 R2025a Update 1</desc>
<defs>
</defs>
<g fill="none" stroke="black" stroke-width="1" fill-rule="evenodd" stroke-linecap="square" stroke-linejoin="bevel" >

<g fill="#000000" fill-opacity="1" stroke="none" transform="matrix(0.6,0,0,0.6,0,0)"
font-family="MS Shell Dlg 2" font-size="7.8" font-weight="400" font-style="normal" 
>
<path vector-effect="none" fill-rule="evenodd" d="M0,0 L1196,0 L1196,721 L0,721 L0,0"/>
</g>

<g fill="#121212" fill-opacity="1" stroke="none" transform="matrix(6e-05,0,0,6e-05,0,0)"
font-family="MS Shell Dlg 2" font-size="7.8" font-weight="400" font-style="normal" 
>
<path vector-effect="none" fill-rule="evenodd" d="M1.55e+06,540000 L1.55e+06,6.41e+06 L1.081e+07,6.41e+06 L1.081e+07,540000 L1.55e+06,540000"/>
</g>

<g fill="#ffffff" fill-opacity="0.25098" stroke="#ffffff" stroke-opacity="0.25098" stroke-dasharray="1,3" stroke-dashoffset="0" stroke-width="0.833333" stroke-linecap="butt" stroke-linejoin="round" transform="matrix(0.6,0,0,0.6,0,0)"
font-family="MS Shell Dlg 2" font-size="7.8" font-weight="400" font-style="normal" 
>
<polyline fill="none" vector-effect="none" points="155,54 155,641 " />
<polyline fill="none" vector-effect="none" points="216.733,54 216.733,641 " />
<polyline fill="none" vector-effect="none" points="278.467,54 278.467,641 " />
<polyline fill="none" vector-effect="none" points="340.2,54 340.2,641 " />
<polyline fill="none" vector-effect="none" points="401.933,54 401.933,641 " />
<polyline fill="none" vector-effect="none" points="463.667,54 463.667,641 " />
<polyline fill="none" vector-effect="none" points="525.4,54 525.4,641 " />
<polyline fill="none" vector-effect="none" points="587.133,54 587.133,641 " />
<polyline fill="none" vector-effect="none" points="648.867,54 648.867,641 " />
<polyline fill="none" vector-effect="none" points="710.6,54 710.6,641 " />
<polyline fill="none" vector-effect="none" points="772.333,54 772.333,641 " />
<polyline fill="none" vector-effect="none" points="834.067,54 834.067,641 " />
<polyline fill="none" vector-effect="none" points="895.8,54 895.8,641 " />
<polyline fill="none" vector-effect="none" points="957.533,54 957.533,641 " />
<polyline fill="none" vector-effect="none" points="1019.27,54 1019.27,641 " />
<polyline fill="none" vector-effect="none" points="1081,54 1081,641 " />
<polyline fill="none" vector-effect="none" points="155,632.699 1081,632.699 " />
<polyline fill="none" vector-effect="none" points="155,618.254 1081,618.254 " />
<polyline fill="none" vector-effect="none" points="155,603.809 1081,603.809 " />
<polyline fill="none" vector-effect="none" points="155,589.364 1081,589.364 " />
<polyline fill="none" vector-effect="none" points="155,574.919 1081,574.919 " />
<polyline fill="none" vector-effect="none" points="155,560.474 1081,560.474 " />
<polyline fill="none" vector-effect="none" points="155,546.029 1081,546.029 " />
<polyline fill="none" vector-effect="none" points="155,531.584 1081,531.584 " />
<polyline fill="none" vector-effect="none" points="155,517.138 1081,517.138 " />
<polyline fill="none" vector-effect="none" points="155,502.693 1081,502.693 " />
<polyline fill="none" vector-effect="none" points="155,488.248 1081,488.248 " />
<polyline fill="none" vector-effect="none" points="155,473.803 1081,473.803 " />
<polyline fill="none" vector-effect="none" points="155,459.358 1081,459.358 " />
<polyline fill="none" vector-effect="none" points="155,444.913 1081,444.913 " />
<polyline fill="none" vector-effect="none" points="155,430.468 1081,430.468 " />
<polyline fill="none" vector-effect="none" points="155,416.023 1081,416.023 " />
<polyline fill="none" vector-effect="none" points="155,401.578 1081,401.578 " />
<polyline fill="none" vector-effect="none" points="155,387.133 1081,387.133 " />
<polyline fill="none" vector-effect="none" points="155,372.688 1081,372.688 " />
<polyline fill="none" vector-effect="none" points="155,358.243 1081,358.243 " />
<polyline fill="none" vector-effect="none" points="155,343.798 1081,343.798 " />
<polyline fill="none" vector-effect="none" points="155,329.353 1081,329.353 " />
<polyline fill="none" vector-effect="none" points="155,314.908 1081,314.908 " />
<polyline fill="none" vector-effect="none" points="155,300.463 1081,300.463 " />
<polyline fill="none" vector-effect="none" points="155,286.018 1081,286.018 " />
<polyline fill="none" vector-effect="none" points="155,271.573 1081,271.573 " />
<polyline fill="none" vector-effect="none" points="155,257.128 1081,257.128 " />
<polyline fill="none" vector-effect="none" points="155,242.683 1081,242.683 " />
<polyline fill="none" vector-effect="none" points="155,228.238 1081,228.238 " />
<polyline fill="none" vector-effect="none" points="155,213.793 1081,213.793 " />
<polyline fill="none" vector-effect="none" points="155,199.348 1081,199.348 " />
<polyline fill="none" vector-effect="none" points="155,184.903 1081,184.903 " />
<polyline fill="none" vector-effect="none" points="155,170.458 1081,170.458 " />
<polyline fill="none" vector-effect="none" points="155,156.013 1081,156.013 " />
<polyline fill="none" vector-effect="none" points="155,141.568 1081,141.568 " />
<polyline fill="none" vector-effect="none" points="155,127.123 1081,127.123 " />
<polyline fill="none" vector-effect="none" points="155,112.678 1081,112.678 " />
<polyline fill="none" vector-effect="none" points="155,98.2327 1081,98.2327 " />
<polyline fill="none" vector-effect="none" points="155,83.7877 1081,83.7877 " />
<polyline fill="none" vector-effect="none" points="155,69.3427 1081,69.3427 " />
<polyline fill="none" vector-effect="none" points="155,54.8976 1081,54.8976 " />
</g>

<g fill="#d9d9d9" fill-opacity="1" stroke="#d9d9d9" stroke-opacity="1" stroke-width="1" stroke-linecap="square" stroke-linejoin="bevel" transform="matrix(0.6,0,0,0.6,351.3,411.2)"
font-family="Helvetica" font-size="18" font-weight="400" font-style="normal" 
>
<text fill="#d9d9d9" fill-opacity="1" stroke="none" xml:space="preserve" x="0" y="0" font-family="Helvetica" font-size="18" font-weight="400" font-style="normal" 
 >Iteration</text>
</g>

<g fill="#d9d9d9" fill-opacity="1" stroke="#d9d9d9" stroke-opacity="1" stroke-width="0.833333" stroke-linecap="square" stroke-linejoin="round" transform="matrix(0.6,0,0,0.6,0,0)"
font-family="Helvetica" font-size="18" font-weight="400" font-style="normal" 
>
<polyline fill="none" vector-effect="none" points="155,641 1081,641 " />
<polyline fill="none" vector-effect="none" points="155,54 1081,54 " />
<polyline fill="none" vector-effect="none" points="155,641 155,631.74 " />
<polyline fill="none" vector-effect="none" points="155,63.26 155,54 " />
<polyline fill="none" vector-effect="none" points="463.667,641 463.667,631.74 " />
<polyline fill="none" vector-effect="none" points="463.667,63.26 463.667,54 " />
<polyline fill="none" vector-effect="none" points="772.333,641 772.333,631.74 " />
<polyline fill="none" vector-effect="none" points="772.333,63.26 772.333,54 " />
<polyline fill="none" vector-effect="none" points="1081,641 1081,631.74 " />
<polyline fill="none" vector-effect="none" points="1081,63.26 1081,54 " />
</g>

<g fill="#d9d9d9" fill-opacity="1" stroke="#d9d9d9" stroke-opacity="1" stroke-width="1" stroke-linecap="square" stroke-linejoin="bevel" transform="matrix(0.6,0,0,0.6,90.3,397.6)"
font-family="Helvetica" font-size="16" font-weight="400" font-style="normal" 
>
<text fill="#d9d9d9" fill-opacity="1" stroke="none" xml:space="preserve" x="0" y="0" font-family="Helvetica" font-size="16" font-weight="400" font-style="normal" 
 >0</text>
</g>

<g fill="#d9d9d9" fill-opacity="1" stroke="#d9d9d9" stroke-opacity="1" stroke-width="1" stroke-linecap="square" stroke-linejoin="bevel" transform="matrix(0.6,0,0,0.6,275.5,397.6)"
font-family="Helvetica" font-size="16" font-weight="400" font-style="normal" 
>
<text fill="#d9d9d9" fill-opacity="1" stroke="none" xml:space="preserve" x="0" y="0" font-family="Helvetica" font-size="16" font-weight="400" font-style="normal" 
 >5</text>
</g>

<g fill="#d9d9d9" fill-opacity="1" stroke="#d9d9d9" stroke-opacity="1" stroke-width="1" stroke-linecap="square" stroke-linejoin="bevel" transform="matrix(0.6,0,0,0.6,458,397.6)"
font-family="Helvetica" font-size="16" font-weight="400" font-style="normal" 
>
<text fill="#d9d9d9" fill-opacity="1" stroke="none" xml:space="preserve" x="0" y="0" font-family="Helvetica" font-size="16" font-weight="400" font-style="normal" 
 >10</text>
</g>

<g fill="#d9d9d9" fill-opacity="1" stroke="#d9d9d9" stroke-opacity="1" stroke-width="1" stroke-linecap="square" stroke-linejoin="bevel" transform="matrix(0.6,0,0,0.6,643.2,397.6)"
font-family="Helvetica" font-size="16" font-weight="400" font-style="normal" 
>
<text fill="#d9d9d9" fill-opacity="1" stroke="none" xml:space="preserve" x="0" y="0" font-family="Helvetica" font-size="16" font-weight="400" font-style="normal" 
 >15</text>
</g>

<g fill="#d9d9d9" fill-opacity="1" stroke="#d9d9d9" stroke-opacity="1" stroke-width="1" stroke-linecap="square" stroke-linejoin="bevel" transform="matrix(0,-0.6,0.6,0,60.8,247.5)"
font-family="Helvetica" font-size="18" font-weight="400" font-style="normal" 
>
<text fill="#d9d9d9" fill-opacity="1" stroke="none" xml:space="preserve" x="0" y="0" font-family="Helvetica" font-size="18" font-weight="400" font-style="normal" 
 >Constraint value</text>
</g>

<g fill="#d9d9d9" fill-opacity="1" stroke="#d9d9d9" stroke-opacity="1" stroke-width="0.833333" stroke-linecap="square" stroke-linejoin="round" transform="matrix(0.6,0,0,0.6,0,0)"
font-family="Helvetica" font-size="18" font-weight="400" font-style="normal" 
>
<polyline fill="none" vector-effect="none" points="155,641 155,54 " />
<polyline fill="none" vector-effect="none" points="1081,641 1081,54 " />
<polyline fill="none" vector-effect="none" points="155,618.254 164.26,618.254 " />
<polyline fill="none" vector-effect="none" points="1071.74,618.254 1081,618.254 " />
<polyline fill="none" vector-effect="none" points="155,546.029 164.26,546.029 " />
<polyline fill="none" vector-effect="none" points="1071.74,546.029 1081,546.029 " />
<polyline fill="none" vector-effect="none" points="155,473.803 164.26,473.803 " />
<polyline fill="none" vector-effect="none" points="1071.74,473.803 1081,473.803 " />
<polyline fill="none" vector-effect="none" points="155,401.578 164.26,401.578 " />
<polyline fill="none" vector-effect="none" points="1071.74,401.578 1081,401.578 " />
<polyline fill="none" vector-effect="none" points="155,329.353 164.26,329.353 " />
<polyline fill="none" vector-effect="none" points="1071.74,329.353 1081,329.353 " />
<polyline fill="none" vector-effect="none" points="155,257.128 164.26,257.128 " />
<polyline fill="none" vector-effect="none" points="1071.74,257.128 1081,257.128 " />
<polyline fill="none" vector-effect="none" points="155,184.903 164.26,184.903 " />
<polyline fill="none" vector-effect="none" points="1071.74,184.903 1081,184.903 " />
<polyline fill="none" vector-effect="none" points="155,112.678 164.26,112.678 " />
<polyline fill="none" vector-effect="none" points="1071.74,112.678 1081,112.678 " />
</g>

<g fill="#d9d9d9" fill-opacity="1" stroke="#d9d9d9" stroke-opacity="1" stroke-width="1" stroke-linecap="square" stroke-linejoin="bevel" transform="matrix(0.6,0,0,0.6,67.4,374.252)"
font-family="Helvetica" font-size="16" font-weight="400" font-style="normal" 
>
<text fill="#d9d9d9" fill-opacity="1" stroke="none" xml:space="preserve" x="0" y="0" font-family="Helvetica" font-size="16" font-weight="400" font-style="normal" 
 >-0.35</text>
</g>

<g fill="#d9d9d9" fill-opacity="1" stroke="#d9d9d9" stroke-opacity="1" stroke-width="1" stroke-linecap="square" stroke-linejoin="bevel" transform="matrix(0.6,0,0,0.6,72.8,330.917)"
font-family="Helvetica" font-size="16" font-weight="400" font-style="normal" 
>
<text fill="#d9d9d9" fill-opacity="1" stroke="none" xml:space="preserve" x="0" y="0" font-family="Helvetica" font-size="16" font-weight="400" font-style="normal" 
 >-0.3</text>
</g>

<g fill="#d9d9d9" fill-opacity="1" stroke="#d9d9d9" stroke-opacity="1" stroke-width="1" stroke-linecap="square" stroke-linejoin="bevel" transform="matrix(0.6,0,0,0.6,67.4,287.582)"
font-family="Helvetica" font-size="16" font-weight="400" font-style="normal" 
>
<text fill="#d9d9d9" fill-opacity="1" stroke="none" xml:space="preserve" x="0" y="0" font-family="Helvetica" font-size="16" font-weight="400" font-style="normal" 
 >-0.25</text>
</g>

<g fill="#d9d9d9" fill-opacity="1" stroke="#d9d9d9" stroke-opacity="1" stroke-width="1" stroke-linecap="square" stroke-linejoin="bevel" transform="matrix(0.6,0,0,0.6,72.8,244.247)"
font-family="Helvetica" font-size="16" font-weight="400" font-style="normal" 
>
<text fill="#d9d9d9" fill-opacity="1" stroke="none" xml:space="preserve" x="0" y="0" font-family="Helvetica" font-size="16" font-weight="400" font-style="normal" 
 >-0.2</text>
</g>

<g fill="#d9d9d9" fill-opacity="1" stroke="#d9d9d9" stroke-opacity="1" stroke-width="1" stroke-linecap="square" stroke-linejoin="bevel" transform="matrix(0.6,0,0,0.6,67.4,200.912)"
font-family="Helvetica" font-size="16" font-weight="400" font-style="normal" 
>
<text fill="#d9d9d9" fill-opacity="1" stroke="none" xml:space="preserve" x="0" y="0" font-family="Helvetica" font-size="16" font-weight="400" font-style="normal" 
 >-0.15</text>
</g>

<g fill="#d9d9d9" fill-opacity="1" stroke="#d9d9d9" stroke-opacity="1" stroke-width="1" stroke-linecap="square" stroke-linejoin="bevel" transform="matrix(0.6,0,0,0.6,72.8,157.577)"
font-family="Helvetica" font-size="16" font-weight="400" font-style="normal" 
>
<text fill="#d9d9d9" fill-opacity="1" stroke="none" xml:space="preserve" x="0" y="0" font-family="Helvetica" font-size="16" font-weight="400" font-style="normal" 
 >-0.1</text>
</g>

<g fill="#d9d9d9" fill-opacity="1" stroke="#d9d9d9" stroke-opacity="1" stroke-width="1" stroke-linecap="square" stroke-linejoin="bevel" transform="matrix(0.6,0,0,0.6,67.4,114.242)"
font-family="Helvetica" font-size="16" font-weight="400" font-style="normal" 
>
<text fill="#d9d9d9" fill-opacity="1" stroke="none" xml:space="preserve" x="0" y="0" font-family="Helvetica" font-size="16" font-weight="400" font-style="normal" 
 >-0.05</text>
</g>

<g fill="#d9d9d9" fill-opacity="1" stroke="#d9d9d9" stroke-opacity="1" stroke-width="1" stroke-linecap="square" stroke-linejoin="bevel" transform="matrix(0.6,0,0,0.6,83.6,70.9066)"
font-family="Helvetica" font-size="16" font-weight="400" font-style="normal" 
>
<text fill="#d9d9d9" fill-opacity="1" stroke="none" xml:space="preserve" x="0" y="0" font-family="Helvetica" font-size="16" font-weight="400" font-style="normal" 
 >0</text>
</g>

<g fill="#d9d9d9" fill-opacity="1" stroke="#d9d9d9" stroke-opacity="1" stroke-width="1" stroke-linecap="square" stroke-linejoin="bevel" transform="matrix(0.6,0,0,0.6,270.3,28.35)"
font-family="Helvetica" font-size="18" font-weight="700" font-style="normal" 
>
<text fill="#d9d9d9" fill-opacity="1" stroke="none" xml:space="preserve" x="0" y="0" font-family="Helvetica" font-size="18" font-weight="700" font-style="normal" 
 >Convergence history of the constraints</text>
</g>

<g fill="none" stroke="#ff0000" stroke-opacity="1" stroke-width="3.33333" stroke-linecap="butt" stroke-linejoin="round" transform="matrix(0.6,0,0,0.6,0,0)"
font-family="Helvetica" font-size="18" font-weight="700" font-style="normal" 
>
<polyline fill="none" vector-effect="none" points="155,141.484 216.733,216.457 278.467,343.976 340.2,379.635 401.933,290.377 463.667,126.225 525.4,130.486 587.133,155.369 648.867,209.853 710.6,202.19 772.333,198.997 834.067,199.057 895.8,200.631 957.533,200.633 1019.27,200.633 1081,232.746 " />
</g>

<g fill="#ff0000" fill-opacity="1" stroke="none" transform="matrix(0.6,0,0,0.6,0,0)"
font-family="Helvetica" font-size="18" font-weight="700" font-style="normal" 
>
<circle cx="155" cy="141.484" r="5.55556"/>
</g>

<g fill="none" stroke="#ff0000" stroke-opacity="1" stroke-width="3.33333" stroke-linecap="butt" stroke-linejoin="miter" stroke-miterlimit="2" transform="matrix(0.6,0,0,0.6,0,0)"
font-family="Helvetica" font-size="18" font-weight="700" font-style="normal" 
>
<path vector-effect="none" fill-rule="evenodd" d="M160.556,141.484 C160.556,138.415 158.068,135.928 155,135.928 C151.932,135.928 149.444,138.415 149.444,141.484 C149.444,144.552 151.932,147.039 155,147.039 C158.068,147.039 160.556,144.552 160.556,141.484 "/>
</g>

<g fill="#ff0000" fill-opacity="1" stroke="none" transform="matrix(0.6,0,0,0.6,0,0)"
font-family="Helvetica" font-size="18" font-weight="700" font-style="normal" 
>
<circle cx="216.733" cy="216.457" r="5.55556"/>
</g>

<g fill="none" stroke="#ff0000" stroke-opacity="1" stroke-width="3.33333" stroke-linecap="butt" stroke-linejoin="miter" stroke-miterlimit="2" transform="matrix(0.6,0,0,0.6,0,0)"
font-family="Helvetica" font-size="18" font-weight="700" font-style="normal" 
>
<path vector-effect="none" fill-rule="evenodd" d="M222.289,216.457 C222.289,213.389 219.802,210.901 216.733,210.901 C213.665,210.901 211.178,213.389 211.178,216.457 C211.178,219.525 213.665,222.012 216.733,222.012 C219.802,222.012 222.289,219.525 222.289,216.457 "/>
</g>

<g fill="#ff0000" fill-opacity="1" stroke="none" transform="matrix(0.6,0,0,0.6,0,0)"
font-family="Helvetica" font-size="18" font-weight="700" font-style="normal" 
>
<circle cx="278.467" cy="343.976" r="5.55556"/>
</g>

<g fill="none" stroke="#ff0000" stroke-opacity="1" stroke-width="3.33333" stroke-linecap="butt" stroke-linejoin="miter" stroke-miterlimit="2" transform="matrix(0.6,0,0,0.6,0,0)"
font-family="Helvetica" font-size="18" font-weight="700" font-style="normal" 
>
<path vector-effect="none" fill-rule="evenodd" d="M284.022,343.976 C284.022,340.908 281.535,338.42 278.467,338.42 C275.398,338.42 272.911,340.908 272.911,343.976 C272.911,347.044 275.398,349.531 278.467,349.531 C281.535,349.531 284.022,347.044 284.022,343.976 "/>
</g>

<g fill="#ff0000" fill-opacity="1" stroke="none" transform="matrix(0.6,0,0,0.6,0,0)"
font-family="Helvetica" font-size="18" font-weight="700" font-style="normal" 
>
<circle cx="340.2" cy="379.635" r="5.55556"/>
</g>

<g fill="none" stroke="#ff0000" stroke-opacity="1" stroke-width="3.33333" stroke-linecap="butt" stroke-linejoin="miter" stroke-miterlimit="2" transform="matrix(0.6,0,0,0.6,0,0)"
font-family="Helvetica" font-size="18" font-weight="700" font-style="normal" 
>
<path vector-effect="none" fill-rule="evenodd" d="M345.756,379.635 C345.756,376.567 343.268,374.08 340.2,374.08 C337.132,374.08 334.644,376.567 334.644,379.635 C334.644,382.703 337.132,385.191 340.2,385.191 C343.268,385.191 345.756,382.703 345.756,379.635 "/>
</g>

<g fill="#ff0000" fill-opacity="1" stroke="none" transform="matrix(0.6,0,0,0.6,0,0)"
font-family="Helvetica" font-size="18" font-weight="700" font-style="normal" 
>
<circle cx="401.933" cy="290.377" r="5.55556"/>
</g>

<g fill="none" stroke="#ff0000" stroke-opacity="1" stroke-width="3.33333" stroke-linecap="butt" stroke-linejoin="miter" stroke-miterlimit="2" transform="matrix(0.6,0,0,0.6,0,0)"
font-family="Helvetica" font-size="18" font-weight="700" font-style="normal" 
>
<path vector-effect="none" fill-rule="evenodd" d="M407.489,290.377 C407.489,287.309 405.002,284.822 401.933,284.822 C398.865,284.822 396.378,287.309 396.378,290.377 C396.378,293.445 398.865,295.933 401.933,295.933 C405.002,295.933 407.489,293.445 407.489,290.377 "/>
</g>

<g fill="#ff0000" fill-opacity="1" stroke="none" transform="matrix(0.6,0,0,0.6,0,0)"
font-family="Helvetica" font-size="18" font-weight="700" font-style="normal" 
>
<circle cx="463.667" cy="126.225" r="5.55556"/>
</g>

<g fill="none" stroke="#ff0000" stroke-opacity="1" stroke-width="3.33333" stroke-linecap="butt" stroke-linejoin="miter" stroke-miterlimit="2" transform="matrix(0.6,0,0,0.6,0,0)"
font-family="Helvetica" font-size="18" font-weight="700" font-style="normal" 
>
<path vector-effect="none" fill-rule="evenodd" d="M469.222,126.225 C469.222,123.157 466.735,120.67 463.667,120.67 C460.598,120.67 458.111,123.157 458.111,126.225 C458.111,129.293 460.598,131.781 463.667,131.781 C466.735,131.781 469.222,129.293 469.222,126.225 "/>
</g>

<g fill="#ff0000" fill-opacity="1" stroke="none" transform="matrix(0.6,0,0,0.6,0,0)"
font-family="Helvetica" font-size="18" font-weight="700" font-style="normal" 
>
<circle cx="525.4" cy="130.486" r="5.55556"/>
</g>

<g fill="none" stroke="#ff0000" stroke-opacity="1" stroke-width="3.33333" stroke-linecap="butt" stroke-linejoin="miter" stroke-miterlimit="2" transform="matrix(0.6,0,0,0.6,0,0)"
font-family="Helvetica" font-size="18" font-weight="700" font-style="normal" 
>
<path vector-effect="none" fill-rule="evenodd" d="M530.956,130.486 C530.956,127.418 528.468,124.931 525.4,124.931 C522.332,124.931 519.844,127.418 519.844,130.486 C519.844,133.555 522.332,136.042 525.4,136.042 C528.468,136.042 530.956,133.555 530.956,130.486 "/>
</g>

<g fill="#ff0000" fill-opacity="1" stroke="none" transform="matrix(0.6,0,0,0.6,0,0)"
font-family="Helvetica" font-size="18" font-weight="700" font-style="normal" 
>
<circle cx="587.133" cy="155.369" r="5.55556"/>
</g>

<g fill="none" stroke="#ff0000" stroke-opacity="1" stroke-width="3.33333" stroke-linecap="butt" stroke-linejoin="miter" stroke-miterlimit="2" transform="matrix(0.6,0,0,0.6,0,0)"
font-family="Helvetica" font-size="18" font-weight="700" font-style="normal" 
>
<path vector-effect="none" fill-rule="evenodd" d="M592.689,155.369 C592.689,152.301 590.202,149.814 587.133,149.814 C584.065,149.814 581.578,152.301 581.578,155.369 C581.578,158.437 584.065,160.925 587.133,160.925 C590.202,160.925 592.689,158.437 592.689,155.369 "/>
</g>

<g fill="#ff0000" fill-opacity="1" stroke="none" transform="matrix(0.6,0,0,0.6,0,0)"
font-family="Helvetica" font-size="18" font-weight="700" font-style="normal" 
>
<circle cx="648.867" cy="209.853" r="5.55556"/>
</g>

<g fill="none" stroke="#ff0000" stroke-opacity="1" stroke-width="3.33333" stroke-linecap="butt" stroke-linejoin="miter" stroke-miterlimit="2" transform="matrix(0.6,0,0,0.6,0,0)"
font-family="Helvetica" font-size="18" font-weight="700" font-style="normal" 
>
<path vector-effect="none" fill-rule="evenodd" d="M654.422,209.853 C654.422,206.785 651.935,204.297 648.867,204.297 C645.798,204.297 643.311,206.785 643.311,209.853 C643.311,212.921 645.798,215.409 648.867,215.409 C651.935,215.409 654.422,212.921 654.422,209.853 "/>
</g>

<g fill="#ff0000" fill-opacity="1" stroke="none" transform="matrix(0.6,0,0,0.6,0,0)"
font-family="Helvetica" font-size="18" font-weight="700" font-style="normal" 
>
<circle cx="710.6" cy="202.19" r="5.55556"/>
</g>

<g fill="none" stroke="#ff0000" stroke-opacity="1" stroke-width="3.33333" stroke-linecap="butt" stroke-linejoin="miter" stroke-miterlimit="2" transform="matrix(0.6,0,0,0.6,0,0)"
font-family="Helvetica" font-size="18" font-weight="700" font-style="normal" 
>
<path vector-effect="none" fill-rule="evenodd" d="M716.156,202.19 C716.156,199.121 713.668,196.634 710.6,196.634 C707.532,196.634 705.044,199.121 705.044,202.19 C705.044,205.258 707.532,207.745 710.6,207.745 C713.668,207.745 716.156,205.258 716.156,202.19 "/>
</g>

<g fill="#ff0000" fill-opacity="1" stroke="none" transform="matrix(0.6,0,0,0.6,0,0)"
font-family="Helvetica" font-size="18" font-weight="700" font-style="normal" 
>
<circle cx="772.333" cy="198.997" r="5.55556"/>
</g>

<g fill="none" stroke="#ff0000" stroke-opacity="1" stroke-width="3.33333" stroke-linecap="butt" stroke-linejoin="miter" stroke-miterlimit="2" transform="matrix(0.6,0,0,0.6,0,0)"
font-family="Helvetica" font-size="18" font-weight="700" font-style="normal" 
>
<path vector-effect="none" fill-rule="evenodd" d="M777.889,198.997 C777.889,195.928 775.402,193.441 772.333,193.441 C769.265,193.441 766.778,195.928 766.778,198.997 C766.778,202.065 769.265,204.552 772.333,204.552 C775.402,204.552 777.889,202.065 777.889,198.997 "/>
</g>

<g fill="#ff0000" fill-opacity="1" stroke="none" transform="matrix(0.6,0,0,0.6,0,0)"
font-family="Helvetica" font-size="18" font-weight="700" font-style="normal" 
>
<circle cx="834.067" cy="199.057" r="5.55556"/>
</g>

<g fill="none" stroke="#ff0000" stroke-opacity="1" stroke-width="3.33333" stroke-linecap="butt" stroke-linejoin="miter" stroke-miterlimit="2" transform="matrix(0.6,0,0,0.6,0,0)"
font-family="Helvetica" font-size="18" font-weight="700" font-style="normal" 
>
<path vector-effect="none" fill-rule="evenodd" d="M839.622,199.057 C839.622,195.989 837.135,193.502 834.067,193.502 C830.998,193.502 828.511,195.989 828.511,199.057 C828.511,202.125 830.998,204.613 834.067,204.613 C837.135,204.613 839.622,202.125 839.622,199.057 "/>
</g>

<g fill="#ff0000" fill-opacity="1" stroke="none" transform="matrix(0.6,0,0,0.6,0,0)"
font-family="Helvetica" font-size="18" font-weight="700" font-style="normal" 
>
<circle cx="895.8" cy="200.631" r="5.55556"/>
</g>

<g fill="none" stroke="#ff0000" stroke-opacity="1" stroke-width="3.33333" stroke-linecap="butt" stroke-linejoin="miter" stroke-miterlimit="2" transform="matrix(0.6,0,0,0.6,0,0)"
font-family="Helvetica" font-size="18" font-weight="700" font-style="normal" 
>
<path vector-effect="none" fill-rule="evenodd" d="M901.356,200.631 C901.356,197.562 898.868,195.075 895.8,195.075 C892.732,195.075 890.244,197.562 890.244,200.631 C890.244,203.699 892.732,206.186 895.8,206.186 C898.868,206.186 901.356,203.699 901.356,200.631 "/>
</g>

<g fill="#ff0000" fill-opacity="1" stroke="none" transform="matrix(0.6,0,0,0.6,0,0)"
font-family="Helvetica" font-size="18" font-weight="700" font-style="normal" 
>
<circle cx="957.533" cy="200.633" r="5.55556"/>
</g>

<g fill="none" stroke="#ff0000" stroke-opacity="1" stroke-width="3.33333" stroke-linecap="butt" stroke-linejoin="miter" stroke-miterlimit="2" transform="matrix(0.6,0,0,0.6,0,0)"
font-family="Helvetica" font-size="18" font-weight="700" font-style="normal" 
>
<path vector-effect="none" fill-rule="evenodd" d="M963.089,200.633 C963.089,197.564 960.602,195.077 957.533,195.077 C954.465,195.077 951.978,197.564 951.978,200.633 C951.978,203.701 954.465,206.188 957.533,206.188 C960.602,206.188 963.089,203.701 963.089,200.633 "/>
</g>

<g fill="#ff0000" fill-opacity="1" stroke="none" transform="matrix(0.6,0,0,0.6,0,0)"
font-family="Helvetica" font-size="18" font-weight="700" font-style="normal" 
>
<circle cx="1019.27" cy="200.633" r="5.55556"/>
</g>

<g fill="none" stroke="#ff0000" stroke-opacity="1" stroke-width="3.33333" stroke-linecap="butt" stroke-linejoin="miter" stroke-miterlimit="2" transform="matrix(0.6,0,0,0.6,0,0)"
font-family="Helvetica" font-size="18" font-weight="700" font-style="normal" 
>
<path vector-effect="none" fill-rule="evenodd" d="M1024.82,200.633 C1024.82,197.564 1022.33,195.077 1019.27,195.077 C1016.2,195.077 1013.71,197.564 1013.71,200.633 C1013.71,203.701 1016.2,206.188 1019.27,206.188 C1022.33,206.188 1024.82,203.701 1024.82,200.633 "/>
</g>

<g fill="#ff0000" fill-opacity="1" stroke="none" transform="matrix(0.6,0,0,0.6,0,0)"
font-family="Helvetica" font-size="18" font-weight="700" font-style="normal" 
>
<circle cx="1081" cy="232.746" r="5.55556"/>
</g>

<g fill="none" stroke="#ff0000" stroke-opacity="1" stroke-width="3.33333" stroke-linecap="butt" stroke-linejoin="miter" stroke-miterlimit="2" transform="matrix(0.6,0,0,0.6,0,0)"
font-family="Helvetica" font-size="18" font-weight="700" font-style="normal" 
>
<path vector-effect="none" fill-rule="evenodd" d="M1086.56,232.746 C1086.56,229.678 1084.07,227.191 1081,227.191 C1077.93,227.191 1075.44,229.678 1075.44,232.746 C1075.44,235.814 1077.93,238.302 1081,238.302 C1084.07,238.302 1086.56,235.814 1086.56,232.746 "/>
</g>

<g fill="none" stroke="#0000ff" stroke-opacity="1" stroke-width="3.33333" stroke-linecap="butt" stroke-linejoin="round" transform="matrix(0.6,0,0,0.6,0,0)"
font-family="Helvetica" font-size="18" font-weight="700" font-style="normal" 
>
<polyline fill="none" vector-effect="none" points="155,327.359 216.733,417.523 278.467,569.821 340.2,612.11 401.933,523.296 463.667,354.844 525.4,362.37 587.133,360.416 648.867,430.28 710.6,413.641 772.333,403.554 834.067,402.614 895.8,401.809 957.533,401.81 1019.27,401.81 1081,428.11 " />
</g>

<g fill="#0000ff" fill-opacity="1" stroke="none" transform="matrix(0.6,0,0,0.6,0,0)"
font-family="Helvetica" font-size="18" font-weight="700" font-style="normal" 
>
<circle cx="155" cy="327.359" r="5.55556"/>
</g>

<g fill="none" stroke="#0000ff" stroke-opacity="1" stroke-width="3.33333" stroke-linecap="butt" stroke-linejoin="miter" stroke-miterlimit="2" transform="matrix(0.6,0,0,0.6,0,0)"
font-family="Helvetica" font-size="18" font-weight="700" font-style="normal" 
>
<path vector-effect="none" fill-rule="evenodd" d="M160.556,327.359 C160.556,324.291 158.068,321.804 155,321.804 C151.932,321.804 149.444,324.291 149.444,327.359 C149.444,330.427 151.932,332.915 155,332.915 C158.068,332.915 160.556,330.427 160.556,327.359 "/>
</g>

<g fill="#0000ff" fill-opacity="1" stroke="none" transform="matrix(0.6,0,0,0.6,0,0)"
font-family="Helvetica" font-size="18" font-weight="700" font-style="normal" 
>
<circle cx="216.733" cy="417.523" r="5.55556"/>
</g>

<g fill="none" stroke="#0000ff" stroke-opacity="1" stroke-width="3.33333" stroke-linecap="butt" stroke-linejoin="miter" stroke-miterlimit="2" transform="matrix(0.6,0,0,0.6,0,0)"
font-family="Helvetica" font-size="18" font-weight="700" font-style="normal" 
>
<path vector-effect="none" fill-rule="evenodd" d="M222.289,417.523 C222.289,414.455 219.802,411.967 216.733,411.967 C213.665,411.967 211.178,414.455 211.178,417.523 C211.178,420.591 213.665,423.079 216.733,423.079 C219.802,423.079 222.289,420.591 222.289,417.523 "/>
</g>

<g fill="#0000ff" fill-opacity="1" stroke="none" transform="matrix(0.6,0,0,0.6,0,0)"
font-family="Helvetica" font-size="18" font-weight="700" font-style="normal" 
>
<circle cx="278.467" cy="569.821" r="5.55556"/>
</g>

<g fill="none" stroke="#0000ff" stroke-opacity="1" stroke-width="3.33333" stroke-linecap="butt" stroke-linejoin="miter" stroke-miterlimit="2" transform="matrix(0.6,0,0,0.6,0,0)"
font-family="Helvetica" font-size="18" font-weight="700" font-style="normal" 
>
<path vector-effect="none" fill-rule="evenodd" d="M284.022,569.821 C284.022,566.753 281.535,564.265 278.467,564.265 C275.398,564.265 272.911,566.753 272.911,569.821 C272.911,572.889 275.398,575.376 278.467,575.376 C281.535,575.376 284.022,572.889 284.022,569.821 "/>
</g>

<g fill="#0000ff" fill-opacity="1" stroke="none" transform="matrix(0.6,0,0,0.6,0,0)"
font-family="Helvetica" font-size="18" font-weight="700" font-style="normal" 
>
<circle cx="340.2" cy="612.11" r="5.55556"/>
</g>

<g fill="none" stroke="#0000ff" stroke-opacity="1" stroke-width="3.33333" stroke-linecap="butt" stroke-linejoin="miter" stroke-miterlimit="2" transform="matrix(0.6,0,0,0.6,0,0)"
font-family="Helvetica" font-size="18" font-weight="700" font-style="normal" 
>
<path vector-effect="none" fill-rule="evenodd" d="M345.756,612.11 C345.756,609.042 343.268,606.554 340.2,606.554 C337.132,606.554 334.644,609.042 334.644,612.11 C334.644,615.178 337.132,617.666 340.2,617.666 C343.268,617.666 345.756,615.178 345.756,612.11 "/>
</g>

<g fill="#0000ff" fill-opacity="1" stroke="none" transform="matrix(0.6,0,0,0.6,0,0)"
font-family="Helvetica" font-size="18" font-weight="700" font-style="normal" 
>
<circle cx="401.933" cy="523.296" r="5.55556"/>
</g>

<g fill="none" stroke="#0000ff" stroke-opacity="1" stroke-width="3.33333" stroke-linecap="butt" stroke-linejoin="miter" stroke-miterlimit="2" transform="matrix(0.6,0,0,0.6,0,0)"
font-family="Helvetica" font-size="18" font-weight="700" font-style="normal" 
>
<path vector-effect="none" fill-rule="evenodd" d="M407.489,523.296 C407.489,520.227 405.002,517.74 401.933,517.74 C398.865,517.74 396.378,520.227 396.378,523.296 C396.378,526.364 398.865,528.851 401.933,528.851 C405.002,528.851 407.489,526.364 407.489,523.296 "/>
</g>

<g fill="#0000ff" fill-opacity="1" stroke="none" transform="matrix(0.6,0,0,0.6,0,0)"
font-family="Helvetica" font-size="18" font-weight="700" font-style="normal" 
>
<circle cx="463.667" cy="354.844" r="5.55556"/>
</g>

<g fill="none" stroke="#0000ff" stroke-opacity="1" stroke-width="3.33333" stroke-linecap="butt" stroke-linejoin="miter" stroke-miterlimit="2" transform="matrix(0.6,0,0,0.6,0,0)"
font-family="Helvetica" font-size="18" font-weight="700" font-style="normal" 
>
<path vector-effect="none" fill-rule="evenodd" d="M469.222,354.844 C469.222,351.776 466.735,349.288 463.667,349.288 C460.598,349.288 458.111,351.776 458.111,354.844 C458.111,357.912 460.598,360.399 463.667,360.399 C466.735,360.399 469.222,357.912 469.222,354.844 "/>
</g>

<g fill="#0000ff" fill-opacity="1" stroke="none" transform="matrix(0.6,0,0,0.6,0,0)"
font-family="Helvetica" font-size="18" font-weight="700" font-style="normal" 
>
<circle cx="525.4" cy="362.37" r="5.55556"/>
</g>

<g fill="none" stroke="#0000ff" stroke-opacity="1" stroke-width="3.33333" stroke-linecap="butt" stroke-linejoin="miter" stroke-miterlimit="2" transform="matrix(0.6,0,0,0.6,0,0)"
font-family="Helvetica" font-size="18" font-weight="700" font-style="normal" 
>
<path vector-effect="none" fill-rule="evenodd" d="M530.956,362.37 C530.956,359.302 528.468,356.814 525.4,356.814 C522.332,356.814 519.844,359.302 519.844,362.37 C519.844,365.438 522.332,367.925 525.4,367.925 C528.468,367.925 530.956,365.438 530.956,362.37 "/>
</g>

<g fill="#0000ff" fill-opacity="1" stroke="none" transform="matrix(0.6,0,0,0.6,0,0)"
font-family="Helvetica" font-size="18" font-weight="700" font-style="normal" 
>
<circle cx="587.133" cy="360.416" r="5.55556"/>
</g>

<g fill="none" stroke="#0000ff" stroke-opacity="1" stroke-width="3.33333" stroke-linecap="butt" stroke-linejoin="miter" stroke-miterlimit="2" transform="matrix(0.6,0,0,0.6,0,0)"
font-family="Helvetica" font-size="18" font-weight="700" font-style="normal" 
>
<path vector-effect="none" fill-rule="evenodd" d="M592.689,360.416 C592.689,357.348 590.202,354.86 587.133,354.86 C584.065,354.86 581.578,357.348 581.578,360.416 C581.578,363.484 584.065,365.971 587.133,365.971 C590.202,365.971 592.689,363.484 592.689,360.416 "/>
</g>

<g fill="#0000ff" fill-opacity="1" stroke="none" transform="matrix(0.6,0,0,0.6,0,0)"
font-family="Helvetica" font-size="18" font-weight="700" font-style="normal" 
>
<circle cx="648.867" cy="430.28" r="5.55556"/>
</g>

<g fill="none" stroke="#0000ff" stroke-opacity="1" stroke-width="3.33333" stroke-linecap="butt" stroke-linejoin="miter" stroke-miterlimit="2" transform="matrix(0.6,0,0,0.6,0,0)"
font-family="Helvetica" font-size="18" font-weight="700" font-style="normal" 
>
<path vector-effect="none" fill-rule="evenodd" d="M654.422,430.28 C654.422,427.212 651.935,424.724 648.867,424.724 C645.798,424.724 643.311,427.212 643.311,430.28 C643.311,433.348 645.798,435.836 648.867,435.836 C651.935,435.836 654.422,433.348 654.422,430.28 "/>
</g>

<g fill="#0000ff" fill-opacity="1" stroke="none" transform="matrix(0.6,0,0,0.6,0,0)"
font-family="Helvetica" font-size="18" font-weight="700" font-style="normal" 
>
<circle cx="710.6" cy="413.641" r="5.55556"/>
</g>

<g fill="none" stroke="#0000ff" stroke-opacity="1" stroke-width="3.33333" stroke-linecap="butt" stroke-linejoin="miter" stroke-miterlimit="2" transform="matrix(0.6,0,0,0.6,0,0)"
font-family="Helvetica" font-size="18" font-weight="700" font-style="normal" 
>
<path vector-effect="none" fill-rule="evenodd" d="M716.156,413.641 C716.156,410.573 713.668,408.086 710.6,408.086 C707.532,408.086 705.044,410.573 705.044,413.641 C705.044,416.709 707.532,419.197 710.6,419.197 C713.668,419.197 716.156,416.709 716.156,413.641 "/>
</g>

<g fill="#0000ff" fill-opacity="1" stroke="none" transform="matrix(0.6,0,0,0.6,0,0)"
font-family="Helvetica" font-size="18" font-weight="700" font-style="normal" 
>
<circle cx="772.333" cy="403.554" r="5.55556"/>
</g>

<g fill="none" stroke="#0000ff" stroke-opacity="1" stroke-width="3.33333" stroke-linecap="butt" stroke-linejoin="miter" stroke-miterlimit="2" transform="matrix(0.6,0,0,0.6,0,0)"
font-family="Helvetica" font-size="18" font-weight="700" font-style="normal" 
>
<path vector-effect="none" fill-rule="evenodd" d="M777.889,403.554 C777.889,400.486 775.402,397.999 772.333,397.999 C769.265,397.999 766.778,400.486 766.778,403.554 C766.778,406.623 769.265,409.11 772.333,409.11 C775.402,409.11 777.889,406.623 777.889,403.554 "/>
</g>

<g fill="#0000ff" fill-opacity="1" stroke="none" transform="matrix(0.6,0,0,0.6,0,0)"
font-family="Helvetica" font-size="18" font-weight="700" font-style="normal" 
>
<circle cx="834.067" cy="402.614" r="5.55556"/>
</g>

<g fill="none" stroke="#0000ff" stroke-opacity="1" stroke-width="3.33333" stroke-linecap="butt" stroke-linejoin="miter" stroke-miterlimit="2" transform="matrix(0.6,0,0,0.6,0,0)"
font-family="Helvetica" font-size="18" font-weight="700" font-style="normal" 
>
<path vector-effect="none" fill-rule="evenodd" d="M839.622,402.614 C839.622,399.546 837.135,397.059 834.067,397.059 C830.998,397.059 828.511,399.546 828.511,402.614 C828.511,405.683 830.998,408.17 834.067,408.17 C837.135,408.17 839.622,405.683 839.622,402.614 "/>
</g>

<g fill="#0000ff" fill-opacity="1" stroke="none" transform="matrix(0.6,0,0,0.6,0,0)"
font-family="Helvetica" font-size="18" font-weight="700" font-style="normal" 
>
<circle cx="895.8" cy="401.809" r="5.55556"/>
</g>

<g fill="none" stroke="#0000ff" stroke-opacity="1" stroke-width="3.33333" stroke-linecap="butt" stroke-linejoin="miter" stroke-miterlimit="2" transform="matrix(0.6,0,0,0.6,0,0)"
font-family="Helvetica" font-size="18" font-weight="700" font-style="normal" 
>
<path vector-effect="none" fill-rule="evenodd" d="M901.356,401.809 C901.356,398.741 898.868,396.254 895.8,396.254 C892.732,396.254 890.244,398.741 890.244,401.809 C890.244,404.877 892.732,407.365 895.8,407.365 C898.868,407.365 901.356,404.877 901.356,401.809 "/>
</g>

<g fill="#0000ff" fill-opacity="1" stroke="none" transform="matrix(0.6,0,0,0.6,0,0)"
font-family="Helvetica" font-size="18" font-weight="700" font-style="normal" 
>
<circle cx="957.533" cy="401.81" r="5.55556"/>
</g>

<g fill="none" stroke="#0000ff" stroke-opacity="1" stroke-width="3.33333" stroke-linecap="butt" stroke-linejoin="miter" stroke-miterlimit="2" transform="matrix(0.6,0,0,0.6,0,0)"
font-family="Helvetica" font-size="18" font-weight="700" font-style="normal" 
>
<path vector-effect="none" fill-rule="evenodd" d="M963.089,401.81 C963.089,398.742 960.602,396.255 957.533,396.255 C954.465,396.255 951.978,398.742 951.978,401.81 C951.978,404.878 954.465,407.366 957.533,407.366 C960.602,407.366 963.089,404.878 963.089,401.81 "/>
</g>

<g fill="#0000ff" fill-opacity="1" stroke="none" transform="matrix(0.6,0,0,0.6,0,0)"
font-family="Helvetica" font-size="18" font-weight="700" font-style="normal" 
>
<circle cx="1019.27" cy="401.81" r="5.55556"/>
</g>

<g fill="none" stroke="#0000ff" stroke-opacity="1" stroke-width="3.33333" stroke-linecap="butt" stroke-linejoin="miter" stroke-miterlimit="2" transform="matrix(0.6,0,0,0.6,0,0)"
font-family="Helvetica" font-size="18" font-weight="700" font-style="normal" 
>
<path vector-effect="none" fill-rule="evenodd" d="M1024.82,401.81 C1024.82,398.742 1022.33,396.255 1019.27,396.255 C1016.2,396.255 1013.71,398.742 1013.71,401.81 C1013.71,404.878 1016.2,407.366 1019.27,407.366 C1022.33,407.366 1024.82,404.878 1024.82,401.81 "/>
</g>

<g fill="#0000ff" fill-opacity="1" stroke="none" transform="matrix(0.6,0,0,0.6,0,0)"
font-family="Helvetica" font-size="18" font-weight="700" font-style="normal" 
>
<circle cx="1081" cy="428.11" r="5.55556"/>
</g>

<g fill="none" stroke="#0000ff" stroke-opacity="1" stroke-width="3.33333" stroke-linecap="butt" stroke-linejoin="miter" stroke-miterlimit="2" transform="matrix(0.6,0,0,0.6,0,0)"
font-family="Helvetica" font-size="18" font-weight="700" font-style="normal" 
>
<path vector-effect="none" fill-rule="evenodd" d="M1086.56,428.11 C1086.56,425.042 1084.07,422.555 1081,422.555 C1077.93,422.555 1075.44,425.042 1075.44,428.11 C1075.44,431.179 1077.93,433.666 1081,433.666 C1084.07,433.666 1086.56,431.179 1086.56,428.11 "/>
</g>

<g fill="#00ff00" fill-opacity="0.2" stroke="none" transform="matrix(6e-05,0,0,6e-05,0,0)"
font-family="Helvetica" font-size="18" font-weight="700" font-style="normal" 
>
<path vector-effect="none" fill-rule="evenodd" d="M1.55e+06,1.11233e+06 L1.55e+06,6.41e+06 L1.081e+07,6.41e+06 L1.081e+07,1.11233e+06 L1.55e+06,1.11233e+06"/>
</g>

<g fill="#121212" fill-opacity="1" stroke="none" transform="matrix(6e-05,0,0,6e-05,0,0)"
font-family="Helvetica" font-size="18" font-weight="700" font-style="normal" 
>
<path vector-effect="none" fill-rule="evenodd" d="M6.49e+06,3.17e+06 L6.49e+06,3.78e+06 L1.051e+07,3.78e+06 L1.051e+07,3.17e+06 L6.49e+06,3.17e+06"/>
</g>

<g fill="#ff0000" fill-opacity="1" stroke="#ff0000" stroke-opacity="1" stroke-width="3.33333" stroke-linecap="butt" stroke-linejoin="round" transform="matrix(0.6,0,0,0.6,0,0)"
font-family="Helvetica" font-size="18" font-weight="700" font-style="normal" 
>
<polyline fill="none" vector-effect="none" points="654.003,333.333 704.034,333.333 " />
</g>

<g fill="#ff0000" fill-opacity="1" stroke="none" transform="matrix(0.6,0,0,0.6,0,0)"
font-family="Helvetica" font-size="18" font-weight="700" font-style="normal" 
>
<circle cx="679.019" cy="333.333" r="5.55556"/>
</g>

<g fill="none" stroke="#ff0000" stroke-opacity="1" stroke-width="3.33333" stroke-linecap="butt" stroke-linejoin="miter" stroke-miterlimit="2" transform="matrix(0.6,0,0,0.6,0,0)"
font-family="Helvetica" font-size="18" font-weight="700" font-style="normal" 
>
<path vector-effect="none" fill-rule="evenodd" d="M684.574,333.333 C684.574,330.264 682.087,327.777 679.019,327.777 C675.95,327.777 673.463,330.264 673.463,333.333 C673.463,336.401 675.95,338.888 679.019,338.888 C682.087,338.888 684.574,336.401 684.574,333.333 "/>
</g>

<g fill="#0000ff" fill-opacity="1" stroke="#0000ff" stroke-opacity="1" stroke-width="3.33333" stroke-linecap="butt" stroke-linejoin="round" transform="matrix(0.6,0,0,0.6,0,0)"
font-family="Helvetica" font-size="18" font-weight="700" font-style="normal" 
>
<polyline fill="none" vector-effect="none" points="654.003,361.667 704.034,361.667 " />
</g>

<g fill="#0000ff" fill-opacity="1" stroke="none" transform="matrix(0.6,0,0,0.6,0,0)"
font-family="Helvetica" font-size="18" font-weight="700" font-style="normal" 
>
<circle cx="679.019" cy="361.667" r="5.55556"/>
</g>

<g fill="none" stroke="#0000ff" stroke-opacity="1" stroke-width="3.33333" stroke-linecap="butt" stroke-linejoin="miter" stroke-miterlimit="2" transform="matrix(0.6,0,0,0.6,0,0)"
font-family="Helvetica" font-size="18" font-weight="700" font-style="normal" 
>
<path vector-effect="none" fill-rule="evenodd" d="M684.574,361.667 C684.574,358.599 682.087,356.112 679.019,356.112 C675.95,356.112 673.463,358.599 673.463,361.667 C673.463,364.736 675.95,367.223 679.019,367.223 C682.087,367.223 684.574,364.736 684.574,361.667 "/>
</g>

<g fill="#d9d9d9" fill-opacity="1" stroke="#d9d9d9" stroke-opacity="1" stroke-width="1" stroke-linecap="square" stroke-linejoin="bevel" transform="matrix(0.6,0,0,0.6,424.672,205.1)"
font-family="Helvetica" font-size="25" font-weight="400" font-style="normal" 
>
<text fill="#d9d9d9" fill-opacity="1" stroke="none" xml:space="preserve" x="0" y="0" font-family="Helvetica" font-size="25" font-weight="400" font-style="normal" 
 >Constraint on wing loading</text>
</g>

<g fill="#d9d9d9" fill-opacity="1" stroke="#d9d9d9" stroke-opacity="1" stroke-width="1" stroke-linecap="square" stroke-linejoin="bevel" transform="matrix(0.6,0,0,0.6,424.672,222.1)"
font-family="Helvetica" font-size="25" font-weight="400" font-style="normal" 
>
<text fill="#d9d9d9" fill-opacity="1" stroke="none" xml:space="preserve" x="0" y="0" font-family="Helvetica" font-size="25" font-weight="400" font-style="normal" 
 >Constraint on fuel tank volume</text>
</g>

<g fill="none" stroke="#d9d9d9" stroke-opacity="1" stroke-width="0.833333" stroke-linecap="butt" stroke-linejoin="miter" stroke-miterlimit="2" transform="matrix(0.6,0,0,0.6,0,0)"
font-family="Helvetica" font-size="25" font-weight="400" font-style="normal" 
>
<path vector-effect="none" fill-rule="evenodd" d="M649,378 L649,317 L1051,317 L1051,378 L649,378"/>
</g>
</g>
</svg>
