<?xml version="1.0" encoding="UTF-8" standalone="no"?>
<svg width="252.942mm" height="152.4mm"
 viewBox="0 0 717 432"
 xmlns="http://www.w3.org/2000/svg" xmlns:xlink="http://www.w3.org/1999/xlink"  version="1.2" baseProfile="tiny">
<title>Qt SVG Document</title>
<desc>MATLAB, The MathWorks, Inc. Version 25.1.0.2973910 R2025a Update 1</desc>
<defs>
</defs>
<g fill="none" stroke="black" stroke-width="1" fill-rule="evenodd" stroke-linecap="square" stroke-linejoin="bevel" >

<g fill="#000000" fill-opacity="1" stroke="none" transform="matrix(0.6,0,0,0.6,0,0)"
font-family="MS Shell Dlg 2" font-size="6.6" font-weight="400" font-style="normal" 
>
<path vector-effect="none" fill-rule="evenodd" d="M0,0 L1196,0 L1196,721 L0,721 L0,0"/>
</g>

<g fill="#121212" fill-opacity="1" stroke="none" transform="matrix(6e-05,0,0,6e-05,0,0)"
font-family="MS Shell Dlg 2" font-size="6.6" font-weight="400" font-style="normal" 
>
<path vector-effect="none" fill-rule="evenodd" d="M1.55e+06,540000 L1.55e+06,6.41e+06 L1.081e+07,6.41e+06 L1.081e+07,540000 L1.55e+06,540000"/>
</g>

<g fill="#d9d9d9" fill-opacity="1" stroke="#d9d9d9" stroke-opacity="1" stroke-width="1" stroke-linecap="square" stroke-linejoin="bevel" transform="matrix(0.6,0,0,0.6,360.9,414.8)"
font-family="Helvetica" font-size="25" font-weight="400" font-style="normal" 
>
<text fill="#d9d9d9" fill-opacity="1" stroke="none" xml:space="preserve" x="0" y="0" font-family="Helvetica" font-size="25" font-weight="400" font-style="normal" 
 >x/c</text>
</g>

<g fill="#d9d9d9" fill-opacity="1" stroke="#d9d9d9" stroke-opacity="1" stroke-width="0.833333" stroke-linecap="square" stroke-linejoin="round" transform="matrix(0.6,0,0,0.6,0,0)"
font-family="Helvetica" font-size="25" font-weight="400" font-style="normal" 
>
<polyline fill="none" vector-effect="none" points="155,641 1081,641 " />
<polyline fill="none" vector-effect="none" points="155,641 155,631.74 " />
<polyline fill="none" vector-effect="none" points="247.6,641 247.6,631.74 " />
<polyline fill="none" vector-effect="none" points="340.2,641 340.2,631.74 " />
<polyline fill="none" vector-effect="none" points="432.8,641 432.8,631.74 " />
<polyline fill="none" vector-effect="none" points="525.4,641 525.4,631.74 " />
<polyline fill="none" vector-effect="none" points="618,641 618,631.74 " />
<polyline fill="none" vector-effect="none" points="710.6,641 710.6,631.74 " />
<polyline fill="none" vector-effect="none" points="803.2,641 803.2,631.74 " />
<polyline fill="none" vector-effect="none" points="895.8,641 895.8,631.74 " />
<polyline fill="none" vector-effect="none" points="988.4,641 988.4,631.74 " />
<polyline fill="none" vector-effect="none" points="1081,641 1081,631.74 " />
</g>

<g fill="#d9d9d9" fill-opacity="1" stroke="#d9d9d9" stroke-opacity="1" stroke-width="1" stroke-linecap="square" stroke-linejoin="bevel" transform="matrix(0.6,0,0,0.6,90.3,397.6)"
font-family="Helvetica" font-size="16" font-weight="400" font-style="normal" 
>
<text fill="#d9d9d9" fill-opacity="1" stroke="none" xml:space="preserve" x="0" y="0" font-family="Helvetica" font-size="16" font-weight="400" font-style="normal" 
 >0</text>
</g>

<g fill="#d9d9d9" fill-opacity="1" stroke="#d9d9d9" stroke-opacity="1" stroke-width="1" stroke-linecap="square" stroke-linejoin="bevel" transform="matrix(0.6,0,0,0.6,141.96,397.6)"
font-family="Helvetica" font-size="16" font-weight="400" font-style="normal" 
>
<text fill="#d9d9d9" fill-opacity="1" stroke="none" xml:space="preserve" x="0" y="0" font-family="Helvetica" font-size="16" font-weight="400" font-style="normal" 
 >0.1</text>
</g>

<g fill="#d9d9d9" fill-opacity="1" stroke="#d9d9d9" stroke-opacity="1" stroke-width="1" stroke-linecap="square" stroke-linejoin="bevel" transform="matrix(0.6,0,0,0.6,197.52,397.6)"
font-family="Helvetica" font-size="16" font-weight="400" font-style="normal" 
>
<text fill="#d9d9d9" fill-opacity="1" stroke="none" xml:space="preserve" x="0" y="0" font-family="Helvetica" font-size="16" font-weight="400" font-style="normal" 
 >0.2</text>
</g>

<g fill="#d9d9d9" fill-opacity="1" stroke="#d9d9d9" stroke-opacity="1" stroke-width="1" stroke-linecap="square" stroke-linejoin="bevel" transform="matrix(0.6,0,0,0.6,253.08,397.6)"
font-family="Helvetica" font-size="16" font-weight="400" font-style="normal" 
>
<text fill="#d9d9d9" fill-opacity="1" stroke="none" xml:space="preserve" x="0" y="0" font-family="Helvetica" font-size="16" font-weight="400" font-style="normal" 
 >0.3</text>
</g>

<g fill="#d9d9d9" fill-opacity="1" stroke="#d9d9d9" stroke-opacity="1" stroke-width="1" stroke-linecap="square" stroke-linejoin="bevel" transform="matrix(0.6,0,0,0.6,308.64,397.6)"
font-family="Helvetica" font-size="16" font-weight="400" font-style="normal" 
>
<text fill="#d9d9d9" fill-opacity="1" stroke="none" xml:space="preserve" x="0" y="0" font-family="Helvetica" font-size="16" font-weight="400" font-style="normal" 
 >0.4</text>
</g>

<g fill="#d9d9d9" fill-opacity="1" stroke="#d9d9d9" stroke-opacity="1" stroke-width="1" stroke-linecap="square" stroke-linejoin="bevel" transform="matrix(0.6,0,0,0.6,364.2,397.6)"
font-family="Helvetica" font-size="16" font-weight="400" font-style="normal" 
>
<text fill="#d9d9d9" fill-opacity="1" stroke="none" xml:space="preserve" x="0" y="0" font-family="Helvetica" font-size="16" font-weight="400" font-style="normal" 
 >0.5</text>
</g>

<g fill="#d9d9d9" fill-opacity="1" stroke="#d9d9d9" stroke-opacity="1" stroke-width="1" stroke-linecap="square" stroke-linejoin="bevel" transform="matrix(0.6,0,0,0.6,419.76,397.6)"
font-family="Helvetica" font-size="16" font-weight="400" font-style="normal" 
>
<text fill="#d9d9d9" fill-opacity="1" stroke="none" xml:space="preserve" x="0" y="0" font-family="Helvetica" font-size="16" font-weight="400" font-style="normal" 
 >0.6</text>
</g>

<g fill="#d9d9d9" fill-opacity="1" stroke="#d9d9d9" stroke-opacity="1" stroke-width="1" stroke-linecap="square" stroke-linejoin="bevel" transform="matrix(0.6,0,0,0.6,475.32,397.6)"
font-family="Helvetica" font-size="16" font-weight="400" font-style="normal" 
>
<text fill="#d9d9d9" fill-opacity="1" stroke="none" xml:space="preserve" x="0" y="0" font-family="Helvetica" font-size="16" font-weight="400" font-style="normal" 
 >0.7</text>
</g>

<g fill="#d9d9d9" fill-opacity="1" stroke="#d9d9d9" stroke-opacity="1" stroke-width="1" stroke-linecap="square" stroke-linejoin="bevel" transform="matrix(0.6,0,0,0.6,530.88,397.6)"
font-family="Helvetica" font-size="16" font-weight="400" font-style="normal" 
>
<text fill="#d9d9d9" fill-opacity="1" stroke="none" xml:space="preserve" x="0" y="0" font-family="Helvetica" font-size="16" font-weight="400" font-style="normal" 
 >0.8</text>
</g>

<g fill="#d9d9d9" fill-opacity="1" stroke="#d9d9d9" stroke-opacity="1" stroke-width="1" stroke-linecap="square" stroke-linejoin="bevel" transform="matrix(0.6,0,0,0.6,586.44,397.6)"
font-family="Helvetica" font-size="16" font-weight="400" font-style="normal" 
>
<text fill="#d9d9d9" fill-opacity="1" stroke="none" xml:space="preserve" x="0" y="0" font-family="Helvetica" font-size="16" font-weight="400" font-style="normal" 
 >0.9</text>
</g>

<g fill="#d9d9d9" fill-opacity="1" stroke="#d9d9d9" stroke-opacity="1" stroke-width="1" stroke-linecap="square" stroke-linejoin="bevel" transform="matrix(0.6,0,0,0.6,645.9,397.6)"
font-family="Helvetica" font-size="16" font-weight="400" font-style="normal" 
>
<text fill="#d9d9d9" fill-opacity="1" stroke="none" xml:space="preserve" x="0" y="0" font-family="Helvetica" font-size="16" font-weight="400" font-style="normal" 
 >1</text>
</g>

<g fill="#d9d9d9" fill-opacity="1" stroke="#d9d9d9" stroke-opacity="1" stroke-width="1" stroke-linecap="square" stroke-linejoin="bevel" transform="matrix(0,-0.6,0.6,0,59.6,218.4)"
font-family="Helvetica" font-size="25" font-weight="400" font-style="normal" 
>
<text fill="#d9d9d9" fill-opacity="1" stroke="none" xml:space="preserve" x="0" y="0" font-family="Helvetica" font-size="25" font-weight="400" font-style="normal" 
 >y/c</text>
</g>

<g fill="#d9d9d9" fill-opacity="1" stroke="#d9d9d9" stroke-opacity="1" stroke-width="0.833333" stroke-linecap="square" stroke-linejoin="round" transform="matrix(0.6,0,0,0.6,0,0)"
font-family="Helvetica" font-size="25" font-weight="400" font-style="normal" 
>
<polyline fill="none" vector-effect="none" points="155,641 155,54 " />
<polyline fill="none" vector-effect="none" points="155,641 164.26,641 " />
<polyline fill="none" vector-effect="none" points="155,543.167 164.26,543.167 " />
<polyline fill="none" vector-effect="none" points="155,445.333 164.26,445.333 " />
<polyline fill="none" vector-effect="none" points="155,347.5 164.26,347.5 " />
<polyline fill="none" vector-effect="none" points="155,249.667 164.26,249.667 " />
<polyline fill="none" vector-effect="none" points="155,151.833 164.26,151.833 " />
<polyline fill="none" vector-effect="none" points="155,54 164.26,54 " />
</g>

<g fill="#d9d9d9" fill-opacity="1" stroke="#d9d9d9" stroke-opacity="1" stroke-width="1" stroke-linecap="square" stroke-linejoin="bevel" transform="matrix(0.6,0,0,0.6,67.4,387.9)"
font-family="Helvetica" font-size="16" font-weight="400" font-style="normal" 
>
<text fill="#d9d9d9" fill-opacity="1" stroke="none" xml:space="preserve" x="0" y="0" font-family="Helvetica" font-size="16" font-weight="400" font-style="normal" 
 >-0.06</text>
</g>

<g fill="#d9d9d9" fill-opacity="1" stroke="#d9d9d9" stroke-opacity="1" stroke-width="1" stroke-linecap="square" stroke-linejoin="bevel" transform="matrix(0.6,0,0,0.6,67.4,329.2)"
font-family="Helvetica" font-size="16" font-weight="400" font-style="normal" 
>
<text fill="#d9d9d9" fill-opacity="1" stroke="none" xml:space="preserve" x="0" y="0" font-family="Helvetica" font-size="16" font-weight="400" font-style="normal" 
 >-0.04</text>
</g>

<g fill="#d9d9d9" fill-opacity="1" stroke="#d9d9d9" stroke-opacity="1" stroke-width="1" stroke-linecap="square" stroke-linejoin="bevel" transform="matrix(0.6,0,0,0.6,67.4,270.5)"
font-family="Helvetica" font-size="16" font-weight="400" font-style="normal" 
>
<text fill="#d9d9d9" fill-opacity="1" stroke="none" xml:space="preserve" x="0" y="0" font-family="Helvetica" font-size="16" font-weight="400" font-style="normal" 
 >-0.02</text>
</g>

<g fill="#d9d9d9" fill-opacity="1" stroke="#d9d9d9" stroke-opacity="1" stroke-width="1" stroke-linecap="square" stroke-linejoin="bevel" transform="matrix(0.6,0,0,0.6,83.6,211.8)"
font-family="Helvetica" font-size="16" font-weight="400" font-style="normal" 
>
<text fill="#d9d9d9" fill-opacity="1" stroke="none" xml:space="preserve" x="0" y="0" font-family="Helvetica" font-size="16" font-weight="400" font-style="normal" 
 >0</text>
</g>

<g fill="#d9d9d9" fill-opacity="1" stroke="#d9d9d9" stroke-opacity="1" stroke-width="1" stroke-linecap="square" stroke-linejoin="bevel" transform="matrix(0.6,0,0,0.6,70.4,153.1)"
font-family="Helvetica" font-size="16" font-weight="400" font-style="normal" 
>
<text fill="#d9d9d9" fill-opacity="1" stroke="none" xml:space="preserve" x="0" y="0" font-family="Helvetica" font-size="16" font-weight="400" font-style="normal" 
 >0.02</text>
</g>

<g fill="#d9d9d9" fill-opacity="1" stroke="#d9d9d9" stroke-opacity="1" stroke-width="1" stroke-linecap="square" stroke-linejoin="bevel" transform="matrix(0.6,0,0,0.6,70.4,94.4)"
font-family="Helvetica" font-size="16" font-weight="400" font-style="normal" 
>
<text fill="#d9d9d9" fill-opacity="1" stroke="none" xml:space="preserve" x="0" y="0" font-family="Helvetica" font-size="16" font-weight="400" font-style="normal" 
 >0.04</text>
</g>

<g fill="#d9d9d9" fill-opacity="1" stroke="#d9d9d9" stroke-opacity="1" stroke-width="1" stroke-linecap="square" stroke-linejoin="bevel" transform="matrix(0.6,0,0,0.6,70.4,35.7)"
font-family="Helvetica" font-size="16" font-weight="400" font-style="normal" 
>
<text fill="#d9d9d9" fill-opacity="1" stroke="none" xml:space="preserve" x="0" y="0" font-family="Helvetica" font-size="16" font-weight="400" font-style="normal" 
 >0.06</text>
</g>

<g fill="#d9d9d9" fill-opacity="1" stroke="#d9d9d9" stroke-opacity="1" stroke-width="1" stroke-linecap="square" stroke-linejoin="bevel" transform="matrix(0.6,0,0,0.6,286.2,24.6)"
font-family="Times New Roman" font-size="33" font-weight="700" font-style="normal" 
>
<text fill="#d9d9d9" fill-opacity="1" stroke="none" xml:space="preserve" x="0" y="0" font-family="Times New Roman" font-size="33" font-weight="700" font-style="normal" 
 >Airfoils Scaled Axes</text>
</g>

<g fill="none" stroke="#000000" stroke-opacity="1" stroke-width="1.66667" stroke-linecap="butt" stroke-linejoin="round" transform="matrix(0.6,0,0,0.6,0,0)"
font-family="Times New Roman" font-size="33" font-weight="700" font-style="normal" 
>
<polyline fill="none" vector-effect="none" points="155,347.5 155.117,340.401 155.466,333.321 156.049,326.275 156.864,319.283 157.912,312.358 159.193,305.517 160.706,298.772 162.45,292.134 164.425,285.614 166.632,279.218 169.068,272.952 171.734,266.819 174.629,260.821 177.752,254.955 181.102,249.22 184.68,243.609 188.482,238.116 192.51,232.734 196.761,227.454 201.234,222.265 205.929,217.157 210.845,212.119 215.979,207.143 221.331,202.216 226.9,197.331 232.684,192.48 238.681,187.655 244.89,182.851 251.31,178.066 257.938,173.297 264.774,168.545 271.815,163.811 279.06,159.102 286.507,154.422 294.154,149.779 301.999,145.182 310.04,140.644 318.275,136.174 326.703,131.787 335.32,127.494 344.125,123.31 353.115,119.248 362.288,115.321 371.643,111.54 381.176,107.918 390.885,104.464 400.768,101.186 410.822,98.0932 421.045,95.1897 431.434,92.48 441.987,89.9667 452.7,87.651 463.572,85.5331 474.599,83.612 485.779,81.8864 497.108,80.3548 508.585,79.0157 520.205,77.8685 531.967,76.9138 543.867,76.1536 555.903,75.5922 568.07,75.2364 580.367,75.0958 592.789,75.1835 605.335,75.5157 618,76.1126 630.782,76.9977 643.677,78.1984 656.682,79.745 669.794,81.6708 683.01,84.0115 696.326,86.8043 709.738,90.0872 723.244,93.8978 736.841,98.2725 750.523,103.245 764.289,108.845 778.135,115.096 792.057,122.017 806.052,129.617 820.116,137.896 834.245,146.845 848.437,156.442 862.687,166.654 876.992,177.436 891.349,188.731 905.753,200.471 920.202,212.577 934.691,224.963 949.216,237.538 963.775,250.207 978.364,262.88 992.978,275.473 1007.61,287.918 1022.27,300.166 1036.94,312.199 1051.62,324.04 1066.31,335.762 1081,347.5 " />
<polyline fill="none" vector-effect="none" points="155,347.5 155.117,354.882 155.466,362.248 156.049,369.578 156.864,376.857 157.912,384.069 159.193,391.198 160.706,398.23 162.45,405.153 164.425,411.956 166.632,418.627 169.068,425.16 171.734,431.547 174.629,437.783 177.752,443.865 181.102,449.79 184.68,455.558 188.482,461.169 192.51,466.626 196.761,471.931 201.234,477.087 205.929,482.1 210.845,486.973 215.979,491.711 221.331,496.319 226.9,500.801 232.684,505.163 238.681,509.408 244.89,513.538 251.31,517.557 257.938,521.466 264.774,525.266 271.815,528.957 279.06,532.539 286.507,536.008 294.154,539.364 301.999,542.602 310.04,545.719 318.275,548.712 326.703,551.574 335.32,554.302 344.125,556.89 353.115,559.332 362.288,561.625 371.643,563.762 381.176,565.739 390.885,567.55 400.768,569.19 410.822,570.654 421.045,571.937 431.434,573.032 441.987,573.934 452.7,574.635 463.572,575.128 474.599,575.401 485.779,575.446 497.108,575.249 508.585,574.795 520.205,574.069 531.967,573.051 543.867,571.72 555.903,570.052 568.07,568.023 580.367,565.603 592.789,562.765 605.335,559.478 618,555.711 630.782,551.433 643.677,546.615 656.682,541.23 669.794,535.253 683.01,528.664 696.326,521.451 709.738,513.608 723.244,505.137 736.841,496.052 750.523,486.379 764.289,476.156 778.135,465.438 792.057,454.294 806.052,442.81 820.116,431.089 834.245,419.252 848.437,407.435 862.687,395.791 876.992,384.487 891.349,373.699 905.753,363.613 920.202,354.417 934.691,346.3 949.216,339.44 963.775,333.999 978.364,330.115 992.978,327.891 1007.61,327.383 1022.27,328.586 1036.94,331.423 1051.62,335.726 1066.31,341.218 1081,347.5 " />
</g>

<g fill="none" stroke="#ff0000" stroke-opacity="1" stroke-dasharray="10,6" stroke-dashoffset="0" stroke-width="1.66667" stroke-linecap="butt" stroke-linejoin="round" transform="matrix(0.6,0,0,0.6,0,0)"
font-family="Times New Roman" font-size="33" font-weight="700" font-style="normal" 
>
<polyline fill="none" vector-effect="none" points="155,347.5 155.117,339.347 155.466,331.221 156.049,323.147 156.864,315.15 157.912,307.254 159.193,299.48 160.706,291.85 162.45,284.381 164.425,277.088 166.632,269.984 169.068,263.079 171.734,256.379 174.629,249.888 177.752,243.607 181.102,237.533 184.68,231.663 188.482,225.989 192.51,220.502 196.761,215.19 201.234,210.041 205.929,205.04 210.845,200.174 215.979,195.426 221.331,190.783 226.9,186.228 232.684,181.747 238.681,177.329 244.89,172.962 251.31,168.635 257.938,164.342 264.774,160.075 271.815,155.833 279.06,151.612 286.507,147.415 294.154,143.245 301.999,139.106 310.04,135.006 318.275,130.954 326.703,126.961 335.32,123.036 344.125,119.193 353.115,115.445 362.288,111.804 371.643,108.284 381.176,104.895 390.885,101.65 400.768,98.5582 410.822,95.6294 421.045,92.8707 431.434,90.288 441.987,87.8854 452.7,85.6656 463.572,83.6295 474.599,81.7768 485.779,80.106 497.108,78.6146 508.585,77.2996 520.205,76.158 531.967,75.1868 543.867,74.3838 555.903,73.7482 568.07,73.2804 580.367,72.9833 592.789,72.8618 605.335,72.9242 618,73.1814 630.782,73.648 643.677,74.3418 656.682,75.2841 669.794,76.4995 683.01,78.0158 696.326,79.8636 709.738,82.0756 723.244,84.6862 736.841,87.731 750.523,91.2457 764.289,95.2652 778.135,99.8231 792.057,104.951 806.052,110.675 820.116,117.021 834.245,124.007 848.437,131.648 862.687,139.95 876.992,148.918 891.349,158.551 905.753,168.841 920.202,179.78 934.691,191.36 949.216,203.573 963.775,216.417 978.364,229.899 992.978,244.043 1007.61,258.889 1022.27,274.507 1036.94,291.002 1051.62,308.52 1066.31,327.264 1081,347.5 " />
<polyline fill="none" vector-effect="none" points="155,347.5 155.117,356.196 155.466,364.866 156.049,373.485 156.864,382.026 157.912,390.468 159.193,398.785 160.706,406.958 162.45,414.965 164.425,422.79 166.632,430.417 169.068,437.831 171.734,445.021 174.629,451.979 177.752,458.696 181.102,465.17 184.68,471.396 188.482,477.375 192.51,483.108 196.761,488.599 201.234,493.851 205.929,498.872 210.845,503.668 215.979,508.247 221.331,512.619 226.9,516.791 232.684,520.773 238.681,524.574 244.89,528.202 251.31,531.667 257.938,534.975 264.774,538.134 271.815,541.149 279.06,544.026 286.507,546.769 294.154,549.381 301.999,551.864 310.04,554.219 318.275,556.447 326.703,558.547 335.32,560.518 344.125,562.357 353.115,564.061 362.288,565.629 371.643,567.054 381.176,568.334 390.885,569.462 400.768,570.434 410.822,571.244 421.045,571.884 431.434,572.348 441.987,572.628 452.7,572.715 463.572,572.599 474.599,572.269 485.779,571.713 497.108,570.917 508.585,569.867 520.205,568.544 531.967,566.932 543.867,565.009 555.903,562.754 568.07,560.145 580.367,557.157 592.789,553.766 605.335,549.945 618,545.67 630.782,540.917 643.677,535.663 656.682,529.889 669.794,523.577 683.01,516.717 696.326,509.302 709.738,501.334 723.244,492.823 736.841,483.787 750.523,474.259 764.289,464.279 778.135,453.904 792.057,443.204 806.052,432.261 820.116,421.176 834.245,410.06 848.437,399.043 862.687,388.263 876.992,377.874 891.349,368.034 905.753,358.91 920.202,350.669 934.691,343.476 949.216,337.484 963.775,332.833 978.364,329.635 992.978,327.972 1007.61,327.877 1022.27,329.331 1036.94,332.244 1051.62,336.444 1066.31,341.658 1081,347.5 " />
</g>

<g fill="#121212" fill-opacity="1" stroke="none" transform="matrix(6e-05,0,0,6e-05,0,0)"
font-family="Times New Roman" font-size="33" font-weight="700" font-style="normal" 
>
<path vector-effect="none" fill-rule="evenodd" d="M8.03e+06,4.84e+06 L8.03e+06,5.46e+06 L1.051e+07,5.46e+06 L1.051e+07,4.84e+06 L8.03e+06,4.84e+06"/>
</g>

<g fill="#000000" fill-opacity="1" stroke="#000000" stroke-opacity="1" stroke-width="1.66667" stroke-linecap="butt" stroke-linejoin="round" transform="matrix(0.6,0,0,0.6,0,0)"
font-family="Times New Roman" font-size="33" font-weight="700" font-style="normal" 
>
<polyline fill="none" vector-effect="none" points="807.985,500.6 857.834,500.6 " />
</g>

<g fill="#ff0000" fill-opacity="1" stroke="#ff0000" stroke-opacity="1" stroke-dasharray="10,6" stroke-dashoffset="0" stroke-width="1.66667" stroke-linecap="butt" stroke-linejoin="round" transform="matrix(0.6,0,0,0.6,0,0)"
font-family="Times New Roman" font-size="33" font-weight="700" font-style="normal" 
>
<polyline fill="none" vector-effect="none" points="807.985,529.4 857.834,529.4 " />
</g>

<g fill="#d9d9d9" fill-opacity="1" stroke="#d9d9d9" stroke-opacity="1" stroke-width="1" stroke-linecap="square" stroke-linejoin="bevel" transform="matrix(0.6,0,0,0.6,516.944,305.46)"
font-family="Helvetica" font-size="25" font-weight="400" font-style="normal" 
>
<text fill="#d9d9d9" fill-opacity="1" stroke="none" xml:space="preserve" x="0" y="0" font-family="Helvetica" font-size="25" font-weight="400" font-style="normal" 
 >Current Airfoil</text>
</g>

<g fill="#d9d9d9" fill-opacity="1" stroke="#d9d9d9" stroke-opacity="1" stroke-width="1" stroke-linecap="square" stroke-linejoin="bevel" transform="matrix(0.6,0,0,0.6,516.944,322.74)"
font-family="Helvetica" font-size="25" font-weight="400" font-style="normal" 
>
<text fill="#d9d9d9" fill-opacity="1" stroke="none" xml:space="preserve" x="0" y="0" font-family="Helvetica" font-size="25" font-weight="400" font-style="normal" 
 >Reference Airfoil</text>
</g>

<g fill="none" stroke="#d9d9d9" stroke-opacity="1" stroke-width="0.833333" stroke-linecap="butt" stroke-linejoin="miter" stroke-miterlimit="2" transform="matrix(0.6,0,0,0.6,0,0)"
font-family="Helvetica" font-size="25" font-weight="400" font-style="normal" 
>
<path vector-effect="none" fill-rule="evenodd" d="M803,546 L803,484 L1051,484 L1051,546 L803,546"/>
</g>
</g>
</svg>
