<?xml version="1.0" encoding="UTF-8" standalone="no"?>
<svg width="252.942mm" height="152.4mm"
 viewBox="0 0 717 432"
 xmlns="http://www.w3.org/2000/svg" xmlns:xlink="http://www.w3.org/1999/xlink"  version="1.2" baseProfile="tiny">
<title>Qt SVG Document</title>
<desc>MATLAB, The MathWorks, Inc. Version 25.1.0.2973910 R2025a Update 1</desc>
<defs>
</defs>
<g fill="none" stroke="black" stroke-width="1" fill-rule="evenodd" stroke-linecap="square" stroke-linejoin="bevel" >

<g fill="#000000" fill-opacity="1" stroke="none" transform="matrix(0.6,0,0,0.6,0,0)"
font-family="MS Shell Dlg 2" font-size="6.6" font-weight="400" font-style="normal" 
>
<path vector-effect="none" fill-rule="evenodd" d="M0,0 L1196,0 L1196,721 L0,721 L0,0"/>
</g>

<g fill="#121212" fill-opacity="1" stroke="none" transform="matrix(6e-05,0,0,6e-05,0,0)"
font-family="MS Shell Dlg 2" font-size="6.6" font-weight="400" font-style="normal" 
>
<path vector-effect="none" fill-rule="evenodd" d="M1.55e+06,543422 L1.55e+06,6.40658e+06 L1.081e+07,6.40658e+06 L1.081e+07,543422 L1.55e+06,543422"/>
</g>

<g fill="#d9d9d9" fill-opacity="1" stroke="#d9d9d9" stroke-opacity="1" stroke-width="1" stroke-linecap="square" stroke-linejoin="bevel" transform="matrix(0.6,0,0,0.6,360.9,414.595)"
font-family="Helvetica" font-size="25" font-weight="400" font-style="normal" 
>
<text fill="#d9d9d9" fill-opacity="1" stroke="none" xml:space="preserve" x="0" y="0" font-family="Helvetica" font-size="25" font-weight="400" font-style="normal" 
 >x/c</text>
</g>

<g fill="#d9d9d9" fill-opacity="1" stroke="#d9d9d9" stroke-opacity="1" stroke-width="0.833333" stroke-linecap="square" stroke-linejoin="round" transform="matrix(0.6,0,0,0.6,0,0)"
font-family="Helvetica" font-size="25" font-weight="400" font-style="normal" 
>
<polyline fill="none" vector-effect="none" points="155,640.658 1081,640.658 " />
<polyline fill="none" vector-effect="none" points="155,640.658 155,631.398 " />
<polyline fill="none" vector-effect="none" points="247.6,640.658 247.6,631.398 " />
<polyline fill="none" vector-effect="none" points="340.2,640.658 340.2,631.398 " />
<polyline fill="none" vector-effect="none" points="432.8,640.658 432.8,631.398 " />
<polyline fill="none" vector-effect="none" points="525.4,640.658 525.4,631.398 " />
<polyline fill="none" vector-effect="none" points="618,640.658 618,631.398 " />
<polyline fill="none" vector-effect="none" points="710.6,640.658 710.6,631.398 " />
<polyline fill="none" vector-effect="none" points="803.2,640.658 803.2,631.398 " />
<polyline fill="none" vector-effect="none" points="895.8,640.658 895.8,631.398 " />
<polyline fill="none" vector-effect="none" points="988.4,640.658 988.4,631.398 " />
<polyline fill="none" vector-effect="none" points="1081,640.658 1081,631.398 " />
</g>

<g fill="#d9d9d9" fill-opacity="1" stroke="#d9d9d9" stroke-opacity="1" stroke-width="1" stroke-linecap="square" stroke-linejoin="bevel" transform="matrix(0.6,0,0,0.6,90.3,397.395)"
font-family="Helvetica" font-size="16" font-weight="400" font-style="normal" 
>
<text fill="#d9d9d9" fill-opacity="1" stroke="none" xml:space="preserve" x="0" y="0" font-family="Helvetica" font-size="16" font-weight="400" font-style="normal" 
 >0</text>
</g>

<g fill="#d9d9d9" fill-opacity="1" stroke="#d9d9d9" stroke-opacity="1" stroke-width="1" stroke-linecap="square" stroke-linejoin="bevel" transform="matrix(0.6,0,0,0.6,141.96,397.395)"
font-family="Helvetica" font-size="16" font-weight="400" font-style="normal" 
>
<text fill="#d9d9d9" fill-opacity="1" stroke="none" xml:space="preserve" x="0" y="0" font-family="Helvetica" font-size="16" font-weight="400" font-style="normal" 
 >0.1</text>
</g>

<g fill="#d9d9d9" fill-opacity="1" stroke="#d9d9d9" stroke-opacity="1" stroke-width="1" stroke-linecap="square" stroke-linejoin="bevel" transform="matrix(0.6,0,0,0.6,197.52,397.395)"
font-family="Helvetica" font-size="16" font-weight="400" font-style="normal" 
>
<text fill="#d9d9d9" fill-opacity="1" stroke="none" xml:space="preserve" x="0" y="0" font-family="Helvetica" font-size="16" font-weight="400" font-style="normal" 
 >0.2</text>
</g>

<g fill="#d9d9d9" fill-opacity="1" stroke="#d9d9d9" stroke-opacity="1" stroke-width="1" stroke-linecap="square" stroke-linejoin="bevel" transform="matrix(0.6,0,0,0.6,253.08,397.395)"
font-family="Helvetica" font-size="16" font-weight="400" font-style="normal" 
>
<text fill="#d9d9d9" fill-opacity="1" stroke="none" xml:space="preserve" x="0" y="0" font-family="Helvetica" font-size="16" font-weight="400" font-style="normal" 
 >0.3</text>
</g>

<g fill="#d9d9d9" fill-opacity="1" stroke="#d9d9d9" stroke-opacity="1" stroke-width="1" stroke-linecap="square" stroke-linejoin="bevel" transform="matrix(0.6,0,0,0.6,308.64,397.395)"
font-family="Helvetica" font-size="16" font-weight="400" font-style="normal" 
>
<text fill="#d9d9d9" fill-opacity="1" stroke="none" xml:space="preserve" x="0" y="0" font-family="Helvetica" font-size="16" font-weight="400" font-style="normal" 
 >0.4</text>
</g>

<g fill="#d9d9d9" fill-opacity="1" stroke="#d9d9d9" stroke-opacity="1" stroke-width="1" stroke-linecap="square" stroke-linejoin="bevel" transform="matrix(0.6,0,0,0.6,364.2,397.395)"
font-family="Helvetica" font-size="16" font-weight="400" font-style="normal" 
>
<text fill="#d9d9d9" fill-opacity="1" stroke="none" xml:space="preserve" x="0" y="0" font-family="Helvetica" font-size="16" font-weight="400" font-style="normal" 
 >0.5</text>
</g>

<g fill="#d9d9d9" fill-opacity="1" stroke="#d9d9d9" stroke-opacity="1" stroke-width="1" stroke-linecap="square" stroke-linejoin="bevel" transform="matrix(0.6,0,0,0.6,419.76,397.395)"
font-family="Helvetica" font-size="16" font-weight="400" font-style="normal" 
>
<text fill="#d9d9d9" fill-opacity="1" stroke="none" xml:space="preserve" x="0" y="0" font-family="Helvetica" font-size="16" font-weight="400" font-style="normal" 
 >0.6</text>
</g>

<g fill="#d9d9d9" fill-opacity="1" stroke="#d9d9d9" stroke-opacity="1" stroke-width="1" stroke-linecap="square" stroke-linejoin="bevel" transform="matrix(0.6,0,0,0.6,475.32,397.395)"
font-family="Helvetica" font-size="16" font-weight="400" font-style="normal" 
>
<text fill="#d9d9d9" fill-opacity="1" stroke="none" xml:space="preserve" x="0" y="0" font-family="Helvetica" font-size="16" font-weight="400" font-style="normal" 
 >0.7</text>
</g>

<g fill="#d9d9d9" fill-opacity="1" stroke="#d9d9d9" stroke-opacity="1" stroke-width="1" stroke-linecap="square" stroke-linejoin="bevel" transform="matrix(0.6,0,0,0.6,530.88,397.395)"
font-family="Helvetica" font-size="16" font-weight="400" font-style="normal" 
>
<text fill="#d9d9d9" fill-opacity="1" stroke="none" xml:space="preserve" x="0" y="0" font-family="Helvetica" font-size="16" font-weight="400" font-style="normal" 
 >0.8</text>
</g>

<g fill="#d9d9d9" fill-opacity="1" stroke="#d9d9d9" stroke-opacity="1" stroke-width="1" stroke-linecap="square" stroke-linejoin="bevel" transform="matrix(0.6,0,0,0.6,586.44,397.395)"
font-family="Helvetica" font-size="16" font-weight="400" font-style="normal" 
>
<text fill="#d9d9d9" fill-opacity="1" stroke="none" xml:space="preserve" x="0" y="0" font-family="Helvetica" font-size="16" font-weight="400" font-style="normal" 
 >0.9</text>
</g>

<g fill="#d9d9d9" fill-opacity="1" stroke="#d9d9d9" stroke-opacity="1" stroke-width="1" stroke-linecap="square" stroke-linejoin="bevel" transform="matrix(0.6,0,0,0.6,645.9,397.395)"
font-family="Helvetica" font-size="16" font-weight="400" font-style="normal" 
>
<text fill="#d9d9d9" fill-opacity="1" stroke="none" xml:space="preserve" x="0" y="0" font-family="Helvetica" font-size="16" font-weight="400" font-style="normal" 
 >1</text>
</g>

<g fill="#d9d9d9" fill-opacity="1" stroke="#d9d9d9" stroke-opacity="1" stroke-width="1" stroke-linecap="square" stroke-linejoin="bevel" transform="matrix(0,-0.6,0.6,0,65,218.4)"
font-family="Helvetica" font-size="25" font-weight="400" font-style="normal" 
>
<text fill="#d9d9d9" fill-opacity="1" stroke="none" xml:space="preserve" x="0" y="0" font-family="Helvetica" font-size="25" font-weight="400" font-style="normal" 
 >y/c</text>
</g>

<g fill="#d9d9d9" fill-opacity="1" stroke="#d9d9d9" stroke-opacity="1" stroke-width="0.833333" stroke-linecap="square" stroke-linejoin="round" transform="matrix(0.6,0,0,0.6,0,0)"
font-family="Helvetica" font-size="25" font-weight="400" font-style="normal" 
>
<polyline fill="none" vector-effect="none" points="155,640.658 155,54.3423 " />
<polyline fill="none" vector-effect="none" points="155,629.719 164.26,629.719 " />
<polyline fill="none" vector-effect="none" points="155,537.119 164.26,537.119 " />
<polyline fill="none" vector-effect="none" points="155,444.519 164.26,444.519 " />
<polyline fill="none" vector-effect="none" points="155,351.919 164.26,351.919 " />
<polyline fill="none" vector-effect="none" points="155,259.319 164.26,259.319 " />
<polyline fill="none" vector-effect="none" points="155,166.719 164.26,166.719 " />
<polyline fill="none" vector-effect="none" points="155,74.1194 164.26,74.1194 " />
</g>

<g fill="#d9d9d9" fill-opacity="1" stroke="#d9d9d9" stroke-opacity="1" stroke-width="1" stroke-linecap="square" stroke-linejoin="bevel" transform="matrix(0.6,0,0,0.6,72.8,381.132)"
font-family="Helvetica" font-size="16" font-weight="400" font-style="normal" 
>
<text fill="#d9d9d9" fill-opacity="1" stroke="none" xml:space="preserve" x="0" y="0" font-family="Helvetica" font-size="16" font-weight="400" font-style="normal" 
 >-0.3</text>
</g>

<g fill="#d9d9d9" fill-opacity="1" stroke="#d9d9d9" stroke-opacity="1" stroke-width="1" stroke-linecap="square" stroke-linejoin="bevel" transform="matrix(0.6,0,0,0.6,72.8,325.572)"
font-family="Helvetica" font-size="16" font-weight="400" font-style="normal" 
>
<text fill="#d9d9d9" fill-opacity="1" stroke="none" xml:space="preserve" x="0" y="0" font-family="Helvetica" font-size="16" font-weight="400" font-style="normal" 
 >-0.2</text>
</g>

<g fill="#d9d9d9" fill-opacity="1" stroke="#d9d9d9" stroke-opacity="1" stroke-width="1" stroke-linecap="square" stroke-linejoin="bevel" transform="matrix(0.6,0,0,0.6,72.8,270.012)"
font-family="Helvetica" font-size="16" font-weight="400" font-style="normal" 
>
<text fill="#d9d9d9" fill-opacity="1" stroke="none" xml:space="preserve" x="0" y="0" font-family="Helvetica" font-size="16" font-weight="400" font-style="normal" 
 >-0.1</text>
</g>

<g fill="#d9d9d9" fill-opacity="1" stroke="#d9d9d9" stroke-opacity="1" stroke-width="1" stroke-linecap="square" stroke-linejoin="bevel" transform="matrix(0.6,0,0,0.6,83.6,214.452)"
font-family="Helvetica" font-size="16" font-weight="400" font-style="normal" 
>
<text fill="#d9d9d9" fill-opacity="1" stroke="none" xml:space="preserve" x="0" y="0" font-family="Helvetica" font-size="16" font-weight="400" font-style="normal" 
 >0</text>
</g>

<g fill="#d9d9d9" fill-opacity="1" stroke="#d9d9d9" stroke-opacity="1" stroke-width="1" stroke-linecap="square" stroke-linejoin="bevel" transform="matrix(0.6,0,0,0.6,75.8,158.892)"
font-family="Helvetica" font-size="16" font-weight="400" font-style="normal" 
>
<text fill="#d9d9d9" fill-opacity="1" stroke="none" xml:space="preserve" x="0" y="0" font-family="Helvetica" font-size="16" font-weight="400" font-style="normal" 
 >0.1</text>
</g>

<g fill="#d9d9d9" fill-opacity="1" stroke="#d9d9d9" stroke-opacity="1" stroke-width="1" stroke-linecap="square" stroke-linejoin="bevel" transform="matrix(0.6,0,0,0.6,75.8,103.332)"
font-family="Helvetica" font-size="16" font-weight="400" font-style="normal" 
>
<text fill="#d9d9d9" fill-opacity="1" stroke="none" xml:space="preserve" x="0" y="0" font-family="Helvetica" font-size="16" font-weight="400" font-style="normal" 
 >0.2</text>
</g>

<g fill="#d9d9d9" fill-opacity="1" stroke="#d9d9d9" stroke-opacity="1" stroke-width="1" stroke-linecap="square" stroke-linejoin="bevel" transform="matrix(0.6,0,0,0.6,75.8,47.7717)"
font-family="Helvetica" font-size="16" font-weight="400" font-style="normal" 
>
<text fill="#d9d9d9" fill-opacity="1" stroke="none" xml:space="preserve" x="0" y="0" font-family="Helvetica" font-size="16" font-weight="400" font-style="normal" 
 >0.3</text>
</g>

<g fill="#d9d9d9" fill-opacity="1" stroke="#d9d9d9" stroke-opacity="1" stroke-width="1" stroke-linecap="square" stroke-linejoin="bevel" transform="matrix(0.6,0,0,0.6,288.6,24.8054)"
font-family="Times New Roman" font-size="33" font-weight="700" font-style="normal" 
>
<text fill="#d9d9d9" fill-opacity="1" stroke="none" xml:space="preserve" x="0" y="0" font-family="Times New Roman" font-size="33" font-weight="700" font-style="normal" 
 >Airfoils Equal Axes</text>
</g>

<g fill="none" stroke="#000000" stroke-opacity="1" stroke-width="1.66667" stroke-linecap="butt" stroke-linejoin="round" transform="matrix(0.6,0,0,0.6,0,0)"
font-family="Times New Roman" font-size="33" font-weight="700" font-style="normal" 
>
<polyline fill="none" vector-effect="none" points="155,351.919 155.117,350.576 155.466,349.235 156.049,347.902 156.864,346.578 157.912,345.267 159.193,343.972 160.706,342.695 162.45,341.439 164.425,340.204 166.632,338.994 169.068,337.807 171.734,336.647 174.629,335.511 177.752,334.401 181.102,333.315 184.68,332.253 188.482,331.213 192.51,330.194 196.761,329.194 201.234,328.212 205.929,327.245 210.845,326.292 215.979,325.35 221.331,324.417 226.9,323.492 232.684,322.574 238.681,321.66 244.89,320.751 251.31,319.845 257.938,318.943 264.774,318.043 271.815,317.147 279.06,316.255 286.507,315.369 294.154,314.491 301.999,313.62 310.04,312.761 318.275,311.915 326.703,311.085 335.32,310.272 344.125,309.48 353.115,308.711 362.288,307.968 371.643,307.252 381.176,306.566 390.885,305.912 400.768,305.292 410.822,304.706 421.045,304.157 431.434,303.644 441.987,303.168 452.7,302.73 463.572,302.329 474.599,301.965 485.779,301.638 497.108,301.348 508.585,301.095 520.205,300.878 531.967,300.697 543.867,300.553 555.903,300.447 568.07,300.38 580.367,300.353 592.789,300.37 605.335,300.432 618,300.545 630.782,300.713 643.677,300.94 656.682,301.233 669.794,301.598 683.01,302.041 696.326,302.569 709.738,303.191 723.244,303.912 736.841,304.74 750.523,305.682 764.289,306.742 778.135,307.925 792.057,309.235 806.052,310.674 820.116,312.241 834.245,313.935 848.437,315.752 862.687,317.685 876.992,319.726 891.349,321.864 905.753,324.087 920.202,326.378 934.691,328.723 949.216,331.103 963.775,333.502 978.364,335.901 992.978,338.285 1007.61,340.64 1022.27,342.959 1036.94,345.237 1051.62,347.479 1066.31,349.698 1081,351.919 " />
<polyline fill="none" vector-effect="none" points="155,351.919 155.117,353.317 155.466,354.711 156.049,356.099 156.864,357.477 157.912,358.842 159.193,360.191 160.706,361.523 162.45,362.833 164.425,364.121 166.632,365.384 169.068,366.621 171.734,367.83 174.629,369.01 177.752,370.161 181.102,371.283 184.68,372.375 188.482,373.437 192.51,374.47 196.761,375.474 201.234,376.451 205.929,377.399 210.845,378.322 215.979,379.219 221.331,380.091 226.9,380.94 232.684,381.765 238.681,382.569 244.89,383.351 251.31,384.112 257.938,384.852 264.774,385.571 271.815,386.27 279.06,386.948 286.507,387.604 294.154,388.24 301.999,388.853 310.04,389.443 318.275,390.009 326.703,390.551 335.32,391.067 344.125,391.557 353.115,392.02 362.288,392.454 371.643,392.858 381.176,393.232 390.885,393.575 400.768,393.886 410.822,394.163 421.045,394.406 431.434,394.613 441.987,394.784 452.7,394.917 463.572,395.01 474.599,395.062 485.779,395.07 497.108,395.033 508.585,394.947 520.205,394.809 531.967,394.617 543.867,394.365 555.903,394.049 568.07,393.665 580.367,393.207 592.789,392.67 605.335,392.047 618,391.334 630.782,390.524 643.677,389.612 656.682,388.593 669.794,387.461 683.01,386.214 696.326,384.849 709.738,383.364 723.244,381.76 736.841,380.041 750.523,378.209 764.289,376.274 778.135,374.245 792.057,372.136 806.052,369.962 820.116,367.743 834.245,365.502 848.437,363.265 862.687,361.061 876.992,358.921 891.349,356.879 905.753,354.97 920.202,353.229 934.691,351.692 949.216,350.394 963.775,349.364 978.364,348.628 992.978,348.207 1007.61,348.111 1022.27,348.339 1036.94,348.876 1051.62,349.691 1066.31,350.73 1081,351.919 " />
</g>

<g fill="none" stroke="#ff0000" stroke-opacity="1" stroke-dasharray="10,6" stroke-dashoffset="0" stroke-width="1.66667" stroke-linecap="butt" stroke-linejoin="round" transform="matrix(0.6,0,0,0.6,0,0)"
font-family="Times New Roman" font-size="33" font-weight="700" font-style="normal" 
>
<polyline fill="none" vector-effect="none" points="155,351.919 155.117,350.376 155.466,348.838 156.049,347.309 156.864,345.796 157.912,344.301 159.193,342.829 160.706,341.385 162.45,339.971 164.425,338.59 166.632,337.246 169.068,335.938 171.734,334.67 174.629,333.441 177.752,332.252 181.102,331.103 184.68,329.991 188.482,328.917 192.51,327.879 196.761,326.873 201.234,325.898 205.929,324.952 210.845,324.03 215.979,323.132 221.331,322.253 226.9,321.39 232.684,320.542 238.681,319.706 244.89,318.879 251.31,318.06 257.938,317.247 264.774,316.44 271.815,315.637 279.06,314.838 286.507,314.043 294.154,313.254 301.999,312.47 310.04,311.694 318.275,310.927 326.703,310.171 335.32,309.428 344.125,308.701 353.115,307.991 362.288,307.302 371.643,306.635 381.176,305.994 390.885,305.38 400.768,304.794 410.822,304.24 421.045,303.718 431.434,303.229 441.987,302.774 452.7,302.354 463.572,301.968 474.599,301.618 485.779,301.301 497.108,301.019 508.585,300.77 520.205,300.554 531.967,300.37 543.867,300.218 555.903,300.098 568.07,300.009 580.367,299.953 592.789,299.93 605.335,299.942 618,299.991 630.782,300.079 643.677,300.21 656.682,300.389 669.794,300.619 683.01,300.906 696.326,301.255 709.738,301.674 723.244,302.168 736.841,302.745 750.523,303.41 764.289,304.171 778.135,305.034 792.057,306.004 806.052,307.088 820.116,308.289 834.245,309.612 848.437,311.058 862.687,312.63 876.992,314.328 891.349,316.151 905.753,318.099 920.202,320.17 934.691,322.362 949.216,324.674 963.775,327.105 978.364,329.657 992.978,332.335 1007.61,335.145 1022.27,338.102 1036.94,341.224 1051.62,344.54 1066.31,348.089 1081,351.919 " />
<polyline fill="none" vector-effect="none" points="155,351.919 155.117,353.566 155.466,355.207 156.049,356.838 156.864,358.455 157.912,360.053 159.193,361.628 160.706,363.175 162.45,364.691 164.425,366.172 166.632,367.616 169.068,369.019 171.734,370.38 174.629,371.697 177.752,372.969 181.102,374.195 184.68,375.373 188.482,376.505 192.51,377.59 196.761,378.63 201.234,379.624 205.929,380.574 210.845,381.482 215.979,382.349 221.331,383.177 226.9,383.966 232.684,384.72 238.681,385.44 244.89,386.127 251.31,386.783 257.938,387.409 264.774,388.007 271.815,388.578 279.06,389.122 286.507,389.641 294.154,390.136 301.999,390.606 310.04,391.052 318.275,391.473 326.703,391.871 335.32,392.244 344.125,392.592 353.115,392.915 362.288,393.212 371.643,393.481 381.176,393.724 390.885,393.937 400.768,394.121 410.822,394.274 421.045,394.396 431.434,394.484 441.987,394.537 452.7,394.553 463.572,394.531 474.599,394.469 485.779,394.363 497.108,394.213 508.585,394.014 520.205,393.763 531.967,393.458 543.867,393.094 555.903,392.667 568.07,392.174 580.367,391.608 592.789,390.966 605.335,390.243 618,389.433 630.782,388.534 643.677,387.539 656.682,386.446 669.794,385.251 683.01,383.952 696.326,382.549 709.738,381.04 723.244,379.429 736.841,377.719 750.523,375.915 764.289,374.026 778.135,372.062 792.057,370.036 806.052,367.965 820.116,365.866 834.245,363.762 848.437,361.677 862.687,359.636 876.992,357.669 891.349,355.807 905.753,354.079 920.202,352.519 934.691,351.158 949.216,350.023 963.775,349.143 978.364,348.538 992.978,348.223 1007.61,348.205 1022.27,348.48 1036.94,349.032 1051.62,349.827 1066.31,350.814 1081,351.919 " />
</g>

<g fill="#121212" fill-opacity="1" stroke="none" transform="matrix(6e-05,0,0,6e-05,0,0)"
font-family="Times New Roman" font-size="33" font-weight="700" font-style="normal" 
>
<path vector-effect="none" fill-rule="evenodd" d="M8.03e+06,650000 L8.03e+06,1.27e+06 L1.051e+07,1.27e+06 L1.051e+07,650000 L8.03e+06,650000"/>
</g>

<g fill="#000000" fill-opacity="1" stroke="#000000" stroke-opacity="1" stroke-width="1.66667" stroke-linecap="butt" stroke-linejoin="round" transform="matrix(0.6,0,0,0.6,0,0)"
font-family="Times New Roman" font-size="33" font-weight="700" font-style="normal" 
>
<polyline fill="none" vector-effect="none" points="807.985,81.6004 857.834,81.6004 " />
</g>

<g fill="#ff0000" fill-opacity="1" stroke="#ff0000" stroke-opacity="1" stroke-dasharray="10,6" stroke-dashoffset="0" stroke-width="1.66667" stroke-linecap="butt" stroke-linejoin="round" transform="matrix(0.6,0,0,0.6,0,0)"
font-family="Times New Roman" font-size="33" font-weight="700" font-style="normal" 
>
<polyline fill="none" vector-effect="none" points="807.985,110.4 857.834,110.4 " />
</g>

<g fill="#d9d9d9" fill-opacity="1" stroke="#d9d9d9" stroke-opacity="1" stroke-width="1" stroke-linecap="square" stroke-linejoin="bevel" transform="matrix(0.6,0,0,0.6,516.944,54.0602)"
font-family="Helvetica" font-size="25" font-weight="400" font-style="normal" 
>
<text fill="#d9d9d9" fill-opacity="1" stroke="none" xml:space="preserve" x="0" y="0" font-family="Helvetica" font-size="25" font-weight="400" font-style="normal" 
 >Current Airfoil</text>
</g>

<g fill="#d9d9d9" fill-opacity="1" stroke="#d9d9d9" stroke-opacity="1" stroke-width="1" stroke-linecap="square" stroke-linejoin="bevel" transform="matrix(0.6,0,0,0.6,516.944,71.3398)"
font-family="Helvetica" font-size="25" font-weight="400" font-style="normal" 
>
<text fill="#d9d9d9" fill-opacity="1" stroke="none" xml:space="preserve" x="0" y="0" font-family="Helvetica" font-size="25" font-weight="400" font-style="normal" 
 >Reference Airfoil</text>
</g>

<g fill="none" stroke="#d9d9d9" stroke-opacity="1" stroke-width="0.833333" stroke-linecap="butt" stroke-linejoin="miter" stroke-miterlimit="2" transform="matrix(0.6,0,0,0.6,0,0)"
font-family="Helvetica" font-size="25" font-weight="400" font-style="normal" 
>
<path vector-effect="none" fill-rule="evenodd" d="M803,127 L803,65 L1051,65 L1051,127 L803,127"/>
</g>
</g>
</svg>
