<?xml version="1.0" encoding="UTF-8" standalone="no"?>
<svg width="322.792mm" height="194.028mm"
 viewBox="0 0 915 550"
 xmlns="http://www.w3.org/2000/svg" xmlns:xlink="http://www.w3.org/1999/xlink"  version="1.2" baseProfile="tiny">
<title>Qt SVG Document</title>
<desc>MATLAB, The MathWorks, Inc. Version 25.1.0.2973910 R2025a Update 1</desc>
<defs>
</defs>
<g fill="none" stroke="black" stroke-width="1" fill-rule="evenodd" stroke-linecap="square" stroke-linejoin="bevel" >

<g fill="#ffffff" fill-opacity="1" stroke="none" transform="matrix(0.75,0,0,0.75,0,0)"
font-family="MS Shell Dlg 2" font-size="8.25" font-weight="400" font-style="normal" 
>
<path vector-effect="none" fill-rule="evenodd" d="M0,0 L1220,0 L1220,734 L0,734 L0,0"/>
</g>

<g fill="#ffffff" fill-opacity="1" stroke="none" transform="matrix(7.5e-05,0,0,7.5e-05,0,0)"
font-family="MS Shell Dlg 2" font-size="8.25" font-weight="400" font-style="normal" 
>
<path vector-effect="none" fill-rule="evenodd" d="M1.58e+06,550000 L1.58e+06,6.52e+06 L1.103e+07,6.52e+06 L1.103e+07,550000 L1.58e+06,550000"/>
</g>

<g fill="#212121" fill-opacity="0.14902" stroke="#212121" stroke-opacity="0.14902" stroke-dasharray="1,3" stroke-dashoffset="0" stroke-width="0.666667" stroke-linecap="butt" stroke-linejoin="round" transform="matrix(0.75,0,0,0.75,0,0)"
font-family="MS Shell Dlg 2" font-size="8.25" font-weight="400" font-style="normal" 
>
<polyline fill="none" vector-effect="none" points="158,54.9997 158,652 " />
<polyline fill="none" vector-effect="none" points="182.868,54.9997 182.868,652 " />
<polyline fill="none" vector-effect="none" points="207.737,54.9997 207.737,652 " />
<polyline fill="none" vector-effect="none" points="232.605,54.9997 232.605,652 " />
<polyline fill="none" vector-effect="none" points="257.474,54.9997 257.474,652 " />
<polyline fill="none" vector-effect="none" points="282.342,54.9997 282.342,652 " />
<polyline fill="none" vector-effect="none" points="307.211,54.9997 307.211,652 " />
<polyline fill="none" vector-effect="none" points="332.079,54.9997 332.079,652 " />
<polyline fill="none" vector-effect="none" points="356.947,54.9997 356.947,652 " />
<polyline fill="none" vector-effect="none" points="381.816,54.9997 381.816,652 " />
<polyline fill="none" vector-effect="none" points="406.684,54.9997 406.684,652 " />
<polyline fill="none" vector-effect="none" points="431.553,54.9997 431.553,652 " />
<polyline fill="none" vector-effect="none" points="456.421,54.9997 456.421,652 " />
<polyline fill="none" vector-effect="none" points="481.289,54.9997 481.289,652 " />
<polyline fill="none" vector-effect="none" points="506.158,54.9997 506.158,652 " />
<polyline fill="none" vector-effect="none" points="531.026,54.9997 531.026,652 " />
<polyline fill="none" vector-effect="none" points="555.895,54.9997 555.895,652 " />
<polyline fill="none" vector-effect="none" points="580.763,54.9997 580.763,652 " />
<polyline fill="none" vector-effect="none" points="605.632,54.9997 605.632,652 " />
<polyline fill="none" vector-effect="none" points="630.5,54.9997 630.5,652 " />
<polyline fill="none" vector-effect="none" points="655.368,54.9997 655.368,652 " />
<polyline fill="none" vector-effect="none" points="680.237,54.9997 680.237,652 " />
<polyline fill="none" vector-effect="none" points="705.105,54.9997 705.105,652 " />
<polyline fill="none" vector-effect="none" points="729.974,54.9997 729.974,652 " />
<polyline fill="none" vector-effect="none" points="754.842,54.9997 754.842,652 " />
<polyline fill="none" vector-effect="none" points="779.711,54.9997 779.711,652 " />
<polyline fill="none" vector-effect="none" points="804.579,54.9997 804.579,652 " />
<polyline fill="none" vector-effect="none" points="829.447,54.9997 829.447,652 " />
<polyline fill="none" vector-effect="none" points="854.316,54.9997 854.316,652 " />
<polyline fill="none" vector-effect="none" points="879.184,54.9997 879.184,652 " />
<polyline fill="none" vector-effect="none" points="904.053,54.9997 904.053,652 " />
<polyline fill="none" vector-effect="none" points="928.921,54.9997 928.921,652 " />
<polyline fill="none" vector-effect="none" points="953.789,54.9997 953.789,652 " />
<polyline fill="none" vector-effect="none" points="978.658,54.9997 978.658,652 " />
<polyline fill="none" vector-effect="none" points="1003.53,54.9997 1003.53,652 " />
<polyline fill="none" vector-effect="none" points="1028.39,54.9997 1028.39,652 " />
<polyline fill="none" vector-effect="none" points="1053.26,54.9997 1053.26,652 " />
<polyline fill="none" vector-effect="none" points="1078.13,54.9997 1078.13,652 " />
<polyline fill="none" vector-effect="none" points="1103,54.9997 1103,652 " />
<polyline fill="none" vector-effect="none" points="158,641.895 1103,641.895 " />
<polyline fill="none" vector-effect="none" points="158,625.898 1103,625.898 " />
<polyline fill="none" vector-effect="none" points="158,609.902 1103,609.902 " />
<polyline fill="none" vector-effect="none" points="158,593.905 1103,593.905 " />
<polyline fill="none" vector-effect="none" points="158,577.909 1103,577.909 " />
<polyline fill="none" vector-effect="none" points="158,561.913 1103,561.913 " />
<polyline fill="none" vector-effect="none" points="158,545.917 1103,545.917 " />
<polyline fill="none" vector-effect="none" points="158,529.921 1103,529.921 " />
<polyline fill="none" vector-effect="none" points="158,513.924 1103,513.924 " />
<polyline fill="none" vector-effect="none" points="158,497.928 1103,497.928 " />
<polyline fill="none" vector-effect="none" points="158,481.932 1103,481.932 " />
<polyline fill="none" vector-effect="none" points="158,465.936 1103,465.936 " />
<polyline fill="none" vector-effect="none" points="158,449.94 1103,449.94 " />
<polyline fill="none" vector-effect="none" points="158,433.943 1103,433.943 " />
<polyline fill="none" vector-effect="none" points="158,417.947 1103,417.947 " />
<polyline fill="none" vector-effect="none" points="158,401.951 1103,401.951 " />
<polyline fill="none" vector-effect="none" points="158,385.955 1103,385.955 " />
<polyline fill="none" vector-effect="none" points="158,369.959 1103,369.959 " />
<polyline fill="none" vector-effect="none" points="158,353.962 1103,353.962 " />
<polyline fill="none" vector-effect="none" points="158,337.966 1103,337.966 " />
<polyline fill="none" vector-effect="none" points="158,321.97 1103,321.97 " />
<polyline fill="none" vector-effect="none" points="158,305.974 1103,305.974 " />
<polyline fill="none" vector-effect="none" points="158,289.978 1103,289.978 " />
<polyline fill="none" vector-effect="none" points="158,273.981 1103,273.981 " />
<polyline fill="none" vector-effect="none" points="158,257.985 1103,257.985 " />
<polyline fill="none" vector-effect="none" points="158,241.989 1103,241.989 " />
<polyline fill="none" vector-effect="none" points="158,225.993 1103,225.993 " />
<polyline fill="none" vector-effect="none" points="158,209.997 1103,209.997 " />
<polyline fill="none" vector-effect="none" points="158,194 1103,194 " />
<polyline fill="none" vector-effect="none" points="158,178.003 1103,178.003 " />
<polyline fill="none" vector-effect="none" points="158,162.007 1103,162.007 " />
<polyline fill="none" vector-effect="none" points="158,146.011 1103,146.011 " />
<polyline fill="none" vector-effect="none" points="158,130.015 1103,130.015 " />
<polyline fill="none" vector-effect="none" points="158,114.018 1103,114.018 " />
<polyline fill="none" vector-effect="none" points="158,98.0223 1103,98.0223 " />
<polyline fill="none" vector-effect="none" points="158,82.0262 1103,82.0262 " />
<polyline fill="none" vector-effect="none" points="158,66.0302 1103,66.0302 " />
</g>

<g fill="#212121" fill-opacity="1" stroke="#212121" stroke-opacity="1" stroke-width="1" stroke-linecap="square" stroke-linejoin="bevel" transform="matrix(0.75,0,0,0.75,453.375,515)"
font-family="Helvetica" font-size="14" font-weight="400" font-style="normal" 
>
<text fill="#212121" fill-opacity="1" stroke="none" xml:space="preserve" x="0" y="0" font-family="Helvetica" font-size="14" font-weight="400" font-style="normal" 
 >Iteration</text>
</g>

<g fill="#212121" fill-opacity="1" stroke="#212121" stroke-opacity="1" stroke-width="0.666667" stroke-linecap="square" stroke-linejoin="round" transform="matrix(0.75,0,0,0.75,0,0)"
font-family="Helvetica" font-size="14" font-weight="400" font-style="normal" 
>
<polyline fill="none" vector-effect="none" points="158,652 1103,652 " />
<polyline fill="none" vector-effect="none" points="158,54.9997 1103,54.9997 " />
<polyline fill="none" vector-effect="none" points="158,652 158,642.55 " />
<polyline fill="none" vector-effect="none" points="158,64.4503 158,54.9997 " />
<polyline fill="none" vector-effect="none" points="257.474,652 257.474,642.55 " />
<polyline fill="none" vector-effect="none" points="257.474,64.4503 257.474,54.9997 " />
<polyline fill="none" vector-effect="none" points="356.947,652 356.947,642.55 " />
<polyline fill="none" vector-effect="none" points="356.947,64.4503 356.947,54.9997 " />
<polyline fill="none" vector-effect="none" points="456.421,652 456.421,642.55 " />
<polyline fill="none" vector-effect="none" points="456.421,64.4503 456.421,54.9997 " />
<polyline fill="none" vector-effect="none" points="555.895,652 555.895,642.55 " />
<polyline fill="none" vector-effect="none" points="555.895,64.4503 555.895,54.9997 " />
<polyline fill="none" vector-effect="none" points="655.368,652 655.368,642.55 " />
<polyline fill="none" vector-effect="none" points="655.368,64.4503 655.368,54.9997 " />
<polyline fill="none" vector-effect="none" points="754.842,652 754.842,642.55 " />
<polyline fill="none" vector-effect="none" points="754.842,64.4503 754.842,54.9997 " />
<polyline fill="none" vector-effect="none" points="854.316,652 854.316,642.55 " />
<polyline fill="none" vector-effect="none" points="854.316,64.4503 854.316,54.9997 " />
<polyline fill="none" vector-effect="none" points="953.789,652 953.789,642.55 " />
<polyline fill="none" vector-effect="none" points="953.789,64.4503 953.789,54.9997 " />
<polyline fill="none" vector-effect="none" points="1053.26,652 1053.26,642.55 " />
<polyline fill="none" vector-effect="none" points="1053.26,64.4503 1053.26,54.9997 " />
</g>

<g fill="#212121" fill-opacity="1" stroke="#212121" stroke-opacity="1" stroke-width="1" stroke-linecap="square" stroke-linejoin="bevel" transform="matrix(0.75,0,0,0.75,115.875,502)"
font-family="Helvetica" font-size="13" font-weight="400" font-style="normal" 
>
<text fill="#212121" fill-opacity="1" stroke="none" xml:space="preserve" x="0" y="0" font-family="Helvetica" font-size="13" font-weight="400" font-style="normal" 
 >0</text>
</g>

<g fill="#212121" fill-opacity="1" stroke="#212121" stroke-opacity="1" stroke-width="1" stroke-linecap="square" stroke-linejoin="bevel" transform="matrix(0.75,0,0,0.75,190.48,502)"
font-family="Helvetica" font-size="13" font-weight="400" font-style="normal" 
>
<text fill="#212121" fill-opacity="1" stroke="none" xml:space="preserve" x="0" y="0" font-family="Helvetica" font-size="13" font-weight="400" font-style="normal" 
 >2</text>
</g>

<g fill="#212121" fill-opacity="1" stroke="#212121" stroke-opacity="1" stroke-width="1" stroke-linecap="square" stroke-linejoin="bevel" transform="matrix(0.75,0,0,0.75,265.086,502)"
font-family="Helvetica" font-size="13" font-weight="400" font-style="normal" 
>
<text fill="#212121" fill-opacity="1" stroke="none" xml:space="preserve" x="0" y="0" font-family="Helvetica" font-size="13" font-weight="400" font-style="normal" 
 >4</text>
</g>

<g fill="#212121" fill-opacity="1" stroke="#212121" stroke-opacity="1" stroke-width="1" stroke-linecap="square" stroke-linejoin="bevel" transform="matrix(0.75,0,0,0.75,339.691,502)"
font-family="Helvetica" font-size="13" font-weight="400" font-style="normal" 
>
<text fill="#212121" fill-opacity="1" stroke="none" xml:space="preserve" x="0" y="0" font-family="Helvetica" font-size="13" font-weight="400" font-style="normal" 
 >6</text>
</g>

<g fill="#212121" fill-opacity="1" stroke="#212121" stroke-opacity="1" stroke-width="1" stroke-linecap="square" stroke-linejoin="bevel" transform="matrix(0.75,0,0,0.75,414.296,502)"
font-family="Helvetica" font-size="13" font-weight="400" font-style="normal" 
>
<text fill="#212121" fill-opacity="1" stroke="none" xml:space="preserve" x="0" y="0" font-family="Helvetica" font-size="13" font-weight="400" font-style="normal" 
 >8</text>
</g>

<g fill="#212121" fill-opacity="1" stroke="#212121" stroke-opacity="1" stroke-width="1" stroke-linecap="square" stroke-linejoin="bevel" transform="matrix(0.75,0,0,0.75,486.276,502)"
font-family="Helvetica" font-size="13" font-weight="400" font-style="normal" 
>
<text fill="#212121" fill-opacity="1" stroke="none" xml:space="preserve" x="0" y="0" font-family="Helvetica" font-size="13" font-weight="400" font-style="normal" 
 >10</text>
</g>

<g fill="#212121" fill-opacity="1" stroke="#212121" stroke-opacity="1" stroke-width="1" stroke-linecap="square" stroke-linejoin="bevel" transform="matrix(0.75,0,0,0.75,560.882,502)"
font-family="Helvetica" font-size="13" font-weight="400" font-style="normal" 
>
<text fill="#212121" fill-opacity="1" stroke="none" xml:space="preserve" x="0" y="0" font-family="Helvetica" font-size="13" font-weight="400" font-style="normal" 
 >12</text>
</g>

<g fill="#212121" fill-opacity="1" stroke="#212121" stroke-opacity="1" stroke-width="1" stroke-linecap="square" stroke-linejoin="bevel" transform="matrix(0.75,0,0,0.75,635.487,502)"
font-family="Helvetica" font-size="13" font-weight="400" font-style="normal" 
>
<text fill="#212121" fill-opacity="1" stroke="none" xml:space="preserve" x="0" y="0" font-family="Helvetica" font-size="13" font-weight="400" font-style="normal" 
 >14</text>
</g>

<g fill="#212121" fill-opacity="1" stroke="#212121" stroke-opacity="1" stroke-width="1" stroke-linecap="square" stroke-linejoin="bevel" transform="matrix(0.75,0,0,0.75,710.092,502)"
font-family="Helvetica" font-size="13" font-weight="400" font-style="normal" 
>
<text fill="#212121" fill-opacity="1" stroke="none" xml:space="preserve" x="0" y="0" font-family="Helvetica" font-size="13" font-weight="400" font-style="normal" 
 >16</text>
</g>

<g fill="#212121" fill-opacity="1" stroke="#212121" stroke-opacity="1" stroke-width="1" stroke-linecap="square" stroke-linejoin="bevel" transform="matrix(0.75,0,0,0.75,784.697,502)"
font-family="Helvetica" font-size="13" font-weight="400" font-style="normal" 
>
<text fill="#212121" fill-opacity="1" stroke="none" xml:space="preserve" x="0" y="0" font-family="Helvetica" font-size="13" font-weight="400" font-style="normal" 
 >18</text>
</g>

<g fill="#212121" fill-opacity="1" stroke="#212121" stroke-opacity="1" stroke-width="1" stroke-linecap="square" stroke-linejoin="bevel" transform="matrix(0,-0.75,0.75,0,86,307.5)"
font-family="Helvetica" font-size="14" font-weight="400" font-style="normal" 
>
<text fill="#212121" fill-opacity="1" stroke="none" xml:space="preserve" x="0" y="0" font-family="Helvetica" font-size="14" font-weight="400" font-style="normal" 
 >Objective function</text>
</g>

<g fill="#212121" fill-opacity="1" stroke="#212121" stroke-opacity="1" stroke-width="0.666667" stroke-linecap="square" stroke-linejoin="round" transform="matrix(0.75,0,0,0.75,0,0)"
font-family="Helvetica" font-size="14" font-weight="400" font-style="normal" 
>
<polyline fill="none" vector-effect="none" points="158,652 158,54.9997 " />
<polyline fill="none" vector-effect="none" points="1103,652 1103,54.9997 " />
<polyline fill="none" vector-effect="none" points="158,641.895 167.45,641.895 " />
<polyline fill="none" vector-effect="none" points="1093.55,641.895 1103,641.895 " />
<polyline fill="none" vector-effect="none" points="158,561.913 167.45,561.913 " />
<polyline fill="none" vector-effect="none" points="1093.55,561.913 1103,561.913 " />
<polyline fill="none" vector-effect="none" points="158,481.932 167.45,481.932 " />
<polyline fill="none" vector-effect="none" points="1093.55,481.932 1103,481.932 " />
<polyline fill="none" vector-effect="none" points="158,401.951 167.45,401.951 " />
<polyline fill="none" vector-effect="none" points="1093.55,401.951 1103,401.951 " />
<polyline fill="none" vector-effect="none" points="158,321.97 167.45,321.97 " />
<polyline fill="none" vector-effect="none" points="1093.55,321.97 1103,321.97 " />
<polyline fill="none" vector-effect="none" points="158,241.989 167.45,241.989 " />
<polyline fill="none" vector-effect="none" points="1093.55,241.989 1103,241.989 " />
<polyline fill="none" vector-effect="none" points="158,162.007 167.45,162.007 " />
<polyline fill="none" vector-effect="none" points="1093.55,162.007 1103,162.007 " />
<polyline fill="none" vector-effect="none" points="158,82.0262 167.45,82.0262 " />
<polyline fill="none" vector-effect="none" points="1093.55,82.0262 1103,82.0262 " />
</g>

<g fill="#212121" fill-opacity="1" stroke="#212121" stroke-opacity="1" stroke-width="1" stroke-linecap="square" stroke-linejoin="bevel" transform="matrix(0.75,0,0,0.75,92.75,484.796)"
font-family="Helvetica" font-size="13" font-weight="400" font-style="normal" 
>
<text fill="#212121" fill-opacity="1" stroke="none" xml:space="preserve" x="0" y="0" font-family="Helvetica" font-size="13" font-weight="400" font-style="normal" 
 >-1.55</text>
</g>

<g fill="#212121" fill-opacity="1" stroke="#212121" stroke-opacity="1" stroke-width="1" stroke-linecap="square" stroke-linejoin="bevel" transform="matrix(0.75,0,0,0.75,92.75,424.81)"
font-family="Helvetica" font-size="13" font-weight="400" font-style="normal" 
>
<text fill="#212121" fill-opacity="1" stroke="none" xml:space="preserve" x="0" y="0" font-family="Helvetica" font-size="13" font-weight="400" font-style="normal" 
 >-1.54</text>
</g>

<g fill="#212121" fill-opacity="1" stroke="#212121" stroke-opacity="1" stroke-width="1" stroke-linecap="square" stroke-linejoin="bevel" transform="matrix(0.75,0,0,0.75,92.75,364.824)"
font-family="Helvetica" font-size="13" font-weight="400" font-style="normal" 
>
<text fill="#212121" fill-opacity="1" stroke="none" xml:space="preserve" x="0" y="0" font-family="Helvetica" font-size="13" font-weight="400" font-style="normal" 
 >-1.53</text>
</g>

<g fill="#212121" fill-opacity="1" stroke="#212121" stroke-opacity="1" stroke-width="1" stroke-linecap="square" stroke-linejoin="bevel" transform="matrix(0.75,0,0,0.75,92.75,304.838)"
font-family="Helvetica" font-size="13" font-weight="400" font-style="normal" 
>
<text fill="#212121" fill-opacity="1" stroke="none" xml:space="preserve" x="0" y="0" font-family="Helvetica" font-size="13" font-weight="400" font-style="normal" 
 >-1.52</text>
</g>

<g fill="#212121" fill-opacity="1" stroke="#212121" stroke-opacity="1" stroke-width="1" stroke-linecap="square" stroke-linejoin="bevel" transform="matrix(0.75,0,0,0.75,92.75,244.852)"
font-family="Helvetica" font-size="13" font-weight="400" font-style="normal" 
>
<text fill="#212121" fill-opacity="1" stroke="none" xml:space="preserve" x="0" y="0" font-family="Helvetica" font-size="13" font-weight="400" font-style="normal" 
 >-1.51</text>
</g>

<g fill="#212121" fill-opacity="1" stroke="#212121" stroke-opacity="1" stroke-width="1" stroke-linecap="square" stroke-linejoin="bevel" transform="matrix(0.75,0,0,0.75,98,184.866)"
font-family="Helvetica" font-size="13" font-weight="400" font-style="normal" 
>
<text fill="#212121" fill-opacity="1" stroke="none" xml:space="preserve" x="0" y="0" font-family="Helvetica" font-size="13" font-weight="400" font-style="normal" 
 >-1.5</text>
</g>

<g fill="#212121" fill-opacity="1" stroke="#212121" stroke-opacity="1" stroke-width="1" stroke-linecap="square" stroke-linejoin="bevel" transform="matrix(0.75,0,0,0.75,92.75,124.881)"
font-family="Helvetica" font-size="13" font-weight="400" font-style="normal" 
>
<text fill="#212121" fill-opacity="1" stroke="none" xml:space="preserve" x="0" y="0" font-family="Helvetica" font-size="13" font-weight="400" font-style="normal" 
 >-1.49</text>
</g>

<g fill="#212121" fill-opacity="1" stroke="#212121" stroke-opacity="1" stroke-width="1" stroke-linecap="square" stroke-linejoin="bevel" transform="matrix(0.75,0,0,0.75,92.75,64.8947)"
font-family="Helvetica" font-size="13" font-weight="400" font-style="normal" 
>
<text fill="#212121" fill-opacity="1" stroke="none" xml:space="preserve" x="0" y="0" font-family="Helvetica" font-size="13" font-weight="400" font-style="normal" 
 >-1.48</text>
</g>

<g fill="#212121" fill-opacity="1" stroke="#212121" stroke-opacity="1" stroke-width="1" stroke-linecap="square" stroke-linejoin="bevel" transform="matrix(0.75,0,0,0.75,354.375,36.9375)"
font-family="Helvetica" font-size="14" font-weight="700" font-style="normal" 
>
<text fill="#212121" fill-opacity="1" stroke="none" xml:space="preserve" x="0" y="0" font-family="Helvetica" font-size="14" font-weight="700" font-style="normal" 
 >Convergence history of the objective function</text>
</g>

<g fill="none" stroke="#000000" stroke-opacity="1" stroke-width="2.66667" stroke-linecap="butt" stroke-linejoin="round" transform="matrix(0.75,0,0,0.75,0,0)"
font-family="Helvetica" font-size="14" font-weight="700" font-style="normal" 
>
<polyline fill="none" vector-effect="none" points="158,134.981 207.737,354.763 257.474,452.224 307.211,453.864 356.947,489.849 406.684,491.337 456.421,493.613 506.158,494.734 555.895,512.884 605.632,512.892 655.368,524.976 705.105,547.642 754.842,562.967 804.579,567.797 854.316,571.344 904.053,571.989 953.789,571.994 1003.53,572.019 1053.26,572.019 1103,572.019 " />
</g>

<g fill="#000000" fill-opacity="1" stroke="none" transform="matrix(0.75,0,0,0.75,0,0)"
font-family="Helvetica" font-size="14" font-weight="700" font-style="normal" 
>
<circle cx="158" cy="134.981" r="5.55556"/>
</g>

<g fill="none" stroke="#000000" stroke-opacity="1" stroke-width="2.66667" stroke-linecap="butt" stroke-linejoin="miter" stroke-miterlimit="2" transform="matrix(0.75,0,0,0.75,0,0)"
font-family="Helvetica" font-size="14" font-weight="700" font-style="normal" 
>
<path vector-effect="none" fill-rule="evenodd" d="M163.556,134.981 C163.556,131.913 161.068,129.425 158,129.425 C154.932,129.425 152.444,131.913 152.444,134.981 C152.444,138.049 154.932,140.536 158,140.536 C161.068,140.536 163.556,138.049 163.556,134.981 "/>
</g>

<g fill="#000000" fill-opacity="1" stroke="none" transform="matrix(0.75,0,0,0.75,0,0)"
font-family="Helvetica" font-size="14" font-weight="700" font-style="normal" 
>
<circle cx="207.737" cy="354.763" r="5.55556"/>
</g>

<g fill="none" stroke="#000000" stroke-opacity="1" stroke-width="2.66667" stroke-linecap="butt" stroke-linejoin="miter" stroke-miterlimit="2" transform="matrix(0.75,0,0,0.75,0,0)"
font-family="Helvetica" font-size="14" font-weight="700" font-style="normal" 
>
<path vector-effect="none" fill-rule="evenodd" d="M213.292,354.763 C213.292,351.695 210.805,349.207 207.737,349.207 C204.669,349.207 202.181,351.695 202.181,354.763 C202.181,357.831 204.669,360.318 207.737,360.318 C210.805,360.318 213.292,357.831 213.292,354.763 "/>
</g>

<g fill="#000000" fill-opacity="1" stroke="none" transform="matrix(0.75,0,0,0.75,0,0)"
font-family="Helvetica" font-size="14" font-weight="700" font-style="normal" 
>
<circle cx="257.474" cy="452.224" r="5.55556"/>
</g>

<g fill="none" stroke="#000000" stroke-opacity="1" stroke-width="2.66667" stroke-linecap="butt" stroke-linejoin="miter" stroke-miterlimit="2" transform="matrix(0.75,0,0,0.75,0,0)"
font-family="Helvetica" font-size="14" font-weight="700" font-style="normal" 
>
<path vector-effect="none" fill-rule="evenodd" d="M263.029,452.224 C263.029,449.155 260.542,446.668 257.474,446.668 C254.405,446.668 251.918,449.155 251.918,452.224 C251.918,455.292 254.405,457.779 257.474,457.779 C260.542,457.779 263.029,455.292 263.029,452.224 "/>
</g>

<g fill="#000000" fill-opacity="1" stroke="none" transform="matrix(0.75,0,0,0.75,0,0)"
font-family="Helvetica" font-size="14" font-weight="700" font-style="normal" 
>
<circle cx="307.211" cy="453.864" r="5.55556"/>
</g>

<g fill="none" stroke="#000000" stroke-opacity="1" stroke-width="2.66667" stroke-linecap="butt" stroke-linejoin="miter" stroke-miterlimit="2" transform="matrix(0.75,0,0,0.75,0,0)"
font-family="Helvetica" font-size="14" font-weight="700" font-style="normal" 
>
<path vector-effect="none" fill-rule="evenodd" d="M312.766,453.864 C312.766,450.795 310.279,448.308 307.211,448.308 C304.142,448.308 301.655,450.795 301.655,453.864 C301.655,456.932 304.142,459.419 307.211,459.419 C310.279,459.419 312.766,456.932 312.766,453.864 "/>
</g>

<g fill="#000000" fill-opacity="1" stroke="none" transform="matrix(0.75,0,0,0.75,0,0)"
font-family="Helvetica" font-size="14" font-weight="700" font-style="normal" 
>
<circle cx="356.947" cy="489.849" r="5.55556"/>
</g>

<g fill="none" stroke="#000000" stroke-opacity="1" stroke-width="2.66667" stroke-linecap="butt" stroke-linejoin="miter" stroke-miterlimit="2" transform="matrix(0.75,0,0,0.75,0,0)"
font-family="Helvetica" font-size="14" font-weight="700" font-style="normal" 
>
<path vector-effect="none" fill-rule="evenodd" d="M362.503,489.849 C362.503,486.78 360.016,484.293 356.947,484.293 C353.879,484.293 351.392,486.78 351.392,489.849 C351.392,492.917 353.879,495.404 356.947,495.404 C360.016,495.404 362.503,492.917 362.503,489.849 "/>
</g>

<g fill="#000000" fill-opacity="1" stroke="none" transform="matrix(0.75,0,0,0.75,0,0)"
font-family="Helvetica" font-size="14" font-weight="700" font-style="normal" 
>
<circle cx="406.684" cy="491.337" r="5.55556"/>
</g>

<g fill="none" stroke="#000000" stroke-opacity="1" stroke-width="2.66667" stroke-linecap="butt" stroke-linejoin="miter" stroke-miterlimit="2" transform="matrix(0.75,0,0,0.75,0,0)"
font-family="Helvetica" font-size="14" font-weight="700" font-style="normal" 
>
<path vector-effect="none" fill-rule="evenodd" d="M412.24,491.337 C412.24,488.269 409.752,485.781 406.684,485.781 C403.616,485.781 401.129,488.269 401.129,491.337 C401.129,494.405 403.616,496.893 406.684,496.893 C409.752,496.893 412.24,494.405 412.24,491.337 "/>
</g>

<g fill="#000000" fill-opacity="1" stroke="none" transform="matrix(0.75,0,0,0.75,0,0)"
font-family="Helvetica" font-size="14" font-weight="700" font-style="normal" 
>
<circle cx="456.421" cy="493.613" r="5.55556"/>
</g>

<g fill="none" stroke="#000000" stroke-opacity="1" stroke-width="2.66667" stroke-linecap="butt" stroke-linejoin="miter" stroke-miterlimit="2" transform="matrix(0.75,0,0,0.75,0,0)"
font-family="Helvetica" font-size="14" font-weight="700" font-style="normal" 
>
<path vector-effect="none" fill-rule="evenodd" d="M461.977,493.613 C461.977,490.545 459.489,488.057 456.421,488.057 C453.353,488.057 450.866,490.545 450.866,493.613 C450.866,496.681 453.353,499.168 456.421,499.168 C459.489,499.168 461.977,496.681 461.977,493.613 "/>
</g>

<g fill="#000000" fill-opacity="1" stroke="none" transform="matrix(0.75,0,0,0.75,0,0)"
font-family="Helvetica" font-size="14" font-weight="700" font-style="normal" 
>
<circle cx="506.158" cy="494.734" r="5.55556"/>
</g>

<g fill="none" stroke="#000000" stroke-opacity="1" stroke-width="2.66667" stroke-linecap="butt" stroke-linejoin="miter" stroke-miterlimit="2" transform="matrix(0.75,0,0,0.75,0,0)"
font-family="Helvetica" font-size="14" font-weight="700" font-style="normal" 
>
<path vector-effect="none" fill-rule="evenodd" d="M511.713,494.734 C511.713,491.666 509.226,489.179 506.158,489.179 C503.09,489.179 500.602,491.666 500.602,494.734 C500.602,497.802 503.09,500.29 506.158,500.29 C509.226,500.29 511.713,497.802 511.713,494.734 "/>
</g>

<g fill="#000000" fill-opacity="1" stroke="none" transform="matrix(0.75,0,0,0.75,0,0)"
font-family="Helvetica" font-size="14" font-weight="700" font-style="normal" 
>
<circle cx="555.895" cy="512.884" r="5.55556"/>
</g>

<g fill="none" stroke="#000000" stroke-opacity="1" stroke-width="2.66667" stroke-linecap="butt" stroke-linejoin="miter" stroke-miterlimit="2" transform="matrix(0.75,0,0,0.75,0,0)"
font-family="Helvetica" font-size="14" font-weight="700" font-style="normal" 
>
<path vector-effect="none" fill-rule="evenodd" d="M561.45,512.884 C561.45,509.816 558.963,507.328 555.895,507.328 C552.826,507.328 550.339,509.816 550.339,512.884 C550.339,515.952 552.826,518.44 555.895,518.44 C558.963,518.44 561.45,515.952 561.45,512.884 "/>
</g>

<g fill="#000000" fill-opacity="1" stroke="none" transform="matrix(0.75,0,0,0.75,0,0)"
font-family="Helvetica" font-size="14" font-weight="700" font-style="normal" 
>
<circle cx="605.632" cy="512.892" r="5.55556"/>
</g>

<g fill="none" stroke="#000000" stroke-opacity="1" stroke-width="2.66667" stroke-linecap="butt" stroke-linejoin="miter" stroke-miterlimit="2" transform="matrix(0.75,0,0,0.75,0,0)"
font-family="Helvetica" font-size="14" font-weight="700" font-style="normal" 
>
<path vector-effect="none" fill-rule="evenodd" d="M611.187,512.892 C611.187,509.823 608.7,507.336 605.632,507.336 C602.563,507.336 600.076,509.823 600.076,512.892 C600.076,515.96 602.563,518.447 605.632,518.447 C608.7,518.447 611.187,515.96 611.187,512.892 "/>
</g>

<g fill="#000000" fill-opacity="1" stroke="none" transform="matrix(0.75,0,0,0.75,0,0)"
font-family="Helvetica" font-size="14" font-weight="700" font-style="normal" 
>
<circle cx="655.368" cy="524.976" r="5.55556"/>
</g>

<g fill="none" stroke="#000000" stroke-opacity="1" stroke-width="2.66667" stroke-linecap="butt" stroke-linejoin="miter" stroke-miterlimit="2" transform="matrix(0.75,0,0,0.75,0,0)"
font-family="Helvetica" font-size="14" font-weight="700" font-style="normal" 
>
<path vector-effect="none" fill-rule="evenodd" d="M660.924,524.976 C660.924,521.907 658.437,519.42 655.368,519.42 C652.3,519.42 649.813,521.907 649.813,524.976 C649.813,528.044 652.3,530.531 655.368,530.531 C658.437,530.531 660.924,528.044 660.924,524.976 "/>
</g>

<g fill="#000000" fill-opacity="1" stroke="none" transform="matrix(0.75,0,0,0.75,0,0)"
font-family="Helvetica" font-size="14" font-weight="700" font-style="normal" 
>
<circle cx="705.105" cy="547.642" r="5.55556"/>
</g>

<g fill="none" stroke="#000000" stroke-opacity="1" stroke-width="2.66667" stroke-linecap="butt" stroke-linejoin="miter" stroke-miterlimit="2" transform="matrix(0.75,0,0,0.75,0,0)"
font-family="Helvetica" font-size="14" font-weight="700" font-style="normal" 
>
<path vector-effect="none" fill-rule="evenodd" d="M710.661,547.642 C710.661,544.574 708.174,542.087 705.105,542.087 C702.037,542.087 699.55,544.574 699.55,547.642 C699.55,550.71 702.037,553.198 705.105,553.198 C708.174,553.198 710.661,550.71 710.661,547.642 "/>
</g>

<g fill="#000000" fill-opacity="1" stroke="none" transform="matrix(0.75,0,0,0.75,0,0)"
font-family="Helvetica" font-size="14" font-weight="700" font-style="normal" 
>
<circle cx="754.842" cy="562.967" r="5.55556"/>
</g>

<g fill="none" stroke="#000000" stroke-opacity="1" stroke-width="2.66667" stroke-linecap="butt" stroke-linejoin="miter" stroke-miterlimit="2" transform="matrix(0.75,0,0,0.75,0,0)"
font-family="Helvetica" font-size="14" font-weight="700" font-style="normal" 
>
<path vector-effect="none" fill-rule="evenodd" d="M760.398,562.967 C760.398,559.899 757.91,557.411 754.842,557.411 C751.774,557.411 749.287,559.899 749.287,562.967 C749.287,566.035 751.774,568.522 754.842,568.522 C757.91,568.522 760.398,566.035 760.398,562.967 "/>
</g>

<g fill="#000000" fill-opacity="1" stroke="none" transform="matrix(0.75,0,0,0.75,0,0)"
font-family="Helvetica" font-size="14" font-weight="700" font-style="normal" 
>
<circle cx="804.579" cy="567.797" r="5.55556"/>
</g>

<g fill="none" stroke="#000000" stroke-opacity="1" stroke-width="2.66667" stroke-linecap="butt" stroke-linejoin="miter" stroke-miterlimit="2" transform="matrix(0.75,0,0,0.75,0,0)"
font-family="Helvetica" font-size="14" font-weight="700" font-style="normal" 
>
<path vector-effect="none" fill-rule="evenodd" d="M810.134,567.797 C810.134,564.729 807.647,562.242 804.579,562.242 C801.511,562.242 799.023,564.729 799.023,567.797 C799.023,570.865 801.511,573.353 804.579,573.353 C807.647,573.353 810.134,570.865 810.134,567.797 "/>
</g>

<g fill="#000000" fill-opacity="1" stroke="none" transform="matrix(0.75,0,0,0.75,0,0)"
font-family="Helvetica" font-size="14" font-weight="700" font-style="normal" 
>
<circle cx="854.316" cy="571.344" r="5.55556"/>
</g>

<g fill="none" stroke="#000000" stroke-opacity="1" stroke-width="2.66667" stroke-linecap="butt" stroke-linejoin="miter" stroke-miterlimit="2" transform="matrix(0.75,0,0,0.75,0,0)"
font-family="Helvetica" font-size="14" font-weight="700" font-style="normal" 
>
<path vector-effect="none" fill-rule="evenodd" d="M859.871,571.344 C859.871,568.276 857.384,565.788 854.316,565.788 C851.248,565.788 848.76,568.276 848.76,571.344 C848.76,574.412 851.248,576.9 854.316,576.9 C857.384,576.9 859.871,574.412 859.871,571.344 "/>
</g>

<g fill="#000000" fill-opacity="1" stroke="none" transform="matrix(0.75,0,0,0.75,0,0)"
font-family="Helvetica" font-size="14" font-weight="700" font-style="normal" 
>
<circle cx="904.053" cy="571.989" r="5.55556"/>
</g>

<g fill="none" stroke="#000000" stroke-opacity="1" stroke-width="2.66667" stroke-linecap="butt" stroke-linejoin="miter" stroke-miterlimit="2" transform="matrix(0.75,0,0,0.75,0,0)"
font-family="Helvetica" font-size="14" font-weight="700" font-style="normal" 
>
<path vector-effect="none" fill-rule="evenodd" d="M909.608,571.989 C909.608,568.921 907.121,566.434 904.053,566.434 C900.984,566.434 898.497,568.921 898.497,571.989 C898.497,575.058 900.984,577.545 904.053,577.545 C907.121,577.545 909.608,575.058 909.608,571.989 "/>
</g>

<g fill="#000000" fill-opacity="1" stroke="none" transform="matrix(0.75,0,0,0.75,0,0)"
font-family="Helvetica" font-size="14" font-weight="700" font-style="normal" 
>
<circle cx="953.79" cy="571.994" r="5.55556"/>
</g>

<g fill="none" stroke="#000000" stroke-opacity="1" stroke-width="2.66667" stroke-linecap="butt" stroke-linejoin="miter" stroke-miterlimit="2" transform="matrix(0.75,0,0,0.75,0,0)"
font-family="Helvetica" font-size="14" font-weight="700" font-style="normal" 
>
<path vector-effect="none" fill-rule="evenodd" d="M959.345,571.994 C959.345,568.926 956.858,566.439 953.79,566.439 C950.721,566.439 948.234,568.926 948.234,571.994 C948.234,575.062 950.721,577.55 953.79,577.55 C956.858,577.55 959.345,575.062 959.345,571.994 "/>
</g>

<g fill="#000000" fill-opacity="1" stroke="none" transform="matrix(0.75,0,0,0.75,0,0)"
font-family="Helvetica" font-size="14" font-weight="700" font-style="normal" 
>
<circle cx="1003.53" cy="572.019" r="5.55556"/>
</g>

<g fill="none" stroke="#000000" stroke-opacity="1" stroke-width="2.66667" stroke-linecap="butt" stroke-linejoin="miter" stroke-miterlimit="2" transform="matrix(0.75,0,0,0.75,0,0)"
font-family="Helvetica" font-size="14" font-weight="700" font-style="normal" 
>
<path vector-effect="none" fill-rule="evenodd" d="M1009.08,572.019 C1009.08,568.951 1006.59,566.463 1003.53,566.463 C1000.46,566.463 997.971,568.951 997.971,572.019 C997.971,575.087 1000.46,577.575 1003.53,577.575 C1006.59,577.575 1009.08,575.087 1009.08,572.019 "/>
</g>

<g fill="#000000" fill-opacity="1" stroke="none" transform="matrix(0.75,0,0,0.75,0,0)"
font-family="Helvetica" font-size="14" font-weight="700" font-style="normal" 
>
<circle cx="1053.26" cy="572.019" r="5.55556"/>
</g>

<g fill="none" stroke="#000000" stroke-opacity="1" stroke-width="2.66667" stroke-linecap="butt" stroke-linejoin="miter" stroke-miterlimit="2" transform="matrix(0.75,0,0,0.75,0,0)"
font-family="Helvetica" font-size="14" font-weight="700" font-style="normal" 
>
<path vector-effect="none" fill-rule="evenodd" d="M1058.82,572.019 C1058.82,568.951 1056.33,566.463 1053.26,566.463 C1050.19,566.463 1047.71,568.951 1047.71,572.019 C1047.71,575.087 1050.19,577.575 1053.26,577.575 C1056.33,577.575 1058.82,575.087 1058.82,572.019 "/>
</g>

<g fill="#000000" fill-opacity="1" stroke="none" transform="matrix(0.75,0,0,0.75,0,0)"
font-family="Helvetica" font-size="14" font-weight="700" font-style="normal" 
>
<circle cx="1103" cy="572.019" r="5.55556"/>
</g>

<g fill="none" stroke="#000000" stroke-opacity="1" stroke-width="2.66667" stroke-linecap="butt" stroke-linejoin="miter" stroke-miterlimit="2" transform="matrix(0.75,0,0,0.75,0,0)"
font-family="Helvetica" font-size="14" font-weight="700" font-style="normal" 
>
<path vector-effect="none" fill-rule="evenodd" d="M1108.56,572.019 C1108.56,568.951 1106.07,566.463 1103,566.463 C1099.93,566.463 1097.44,568.951 1097.44,572.019 C1097.44,575.087 1099.93,577.575 1103,577.575 C1106.07,577.575 1108.56,575.087 1108.56,572.019 "/>
</g>
</g>
</svg>
