<?xml version="1.0" encoding="UTF-8" standalone="no"?>
<svg width="284.339mm" height="171.45mm"
 viewBox="0 0 806 486"
 xmlns="http://www.w3.org/2000/svg" xmlns:xlink="http://www.w3.org/1999/xlink"  version="1.2" baseProfile="tiny">
<title>Qt SVG Document</title>
<desc>MATLAB, The MathWorks, Inc. Version 25.1.0.2973910 R2025a Update 1</desc>
<defs>
</defs>
<g fill="none" stroke="black" stroke-width="1" fill-rule="evenodd" stroke-linecap="square" stroke-linejoin="bevel" >

<g fill="#000000" fill-opacity="1" stroke="none" transform="matrix(0.75,0,0,0.75,0,0)"
font-family="MS Shell Dlg 2" font-size="9.75" font-weight="400" font-style="normal" 
>
<path vector-effect="none" fill-rule="evenodd" d="M0,0 L1075,0 L1075,648 L0,648 L0,0"/>
</g>

<g fill="#121212" fill-opacity="1" stroke="none" transform="matrix(7.5e-05,0,0,7.5e-05,0,0)"
font-family="MS Shell Dlg 2" font-size="9.75" font-weight="400" font-style="normal" 
>
<path vector-effect="none" fill-rule="evenodd" d="M1.4e+06,490000 L1.4e+06,5.76e+06 L9.72e+06,5.76e+06 L9.72e+06,490000 L1.4e+06,490000"/>
</g>

<g fill="#d9d9d9" fill-opacity="1" stroke="#d9d9d9" stroke-opacity="1" stroke-width="1" stroke-linecap="square" stroke-linejoin="bevel" transform="matrix(0.75,0,0,0.75,407.25,462.5)"
font-family="Helvetica" font-size="20" font-weight="400" font-style="normal" 
>
<text fill="#d9d9d9" fill-opacity="1" stroke="none" xml:space="preserve" x="0" y="0" font-family="Helvetica" font-size="20" font-weight="400" font-style="normal" 
 >x/c</text>
</g>

<g fill="#d9d9d9" fill-opacity="1" stroke="#d9d9d9" stroke-opacity="1" stroke-width="0.666667" stroke-linecap="square" stroke-linejoin="round" transform="matrix(0.75,0,0,0.75,0,0)"
font-family="Helvetica" font-size="20" font-weight="400" font-style="normal" 
>
<polyline fill="none" vector-effect="none" points="140,576 972,576 " />
<polyline fill="none" vector-effect="none" points="140,576 140,567.68 " />
<polyline fill="none" vector-effect="none" points="223.2,576 223.2,567.68 " />
<polyline fill="none" vector-effect="none" points="306.4,576 306.4,567.68 " />
<polyline fill="none" vector-effect="none" points="389.6,576 389.6,567.68 " />
<polyline fill="none" vector-effect="none" points="472.8,576 472.8,567.68 " />
<polyline fill="none" vector-effect="none" points="556,576 556,567.68 " />
<polyline fill="none" vector-effect="none" points="639.2,576 639.2,567.68 " />
<polyline fill="none" vector-effect="none" points="722.4,576 722.4,567.68 " />
<polyline fill="none" vector-effect="none" points="805.6,576 805.6,567.68 " />
<polyline fill="none" vector-effect="none" points="888.8,576 888.8,567.68 " />
<polyline fill="none" vector-effect="none" points="972,576 972,567.68 " />
</g>

<g fill="#d9d9d9" fill-opacity="1" stroke="#d9d9d9" stroke-opacity="1" stroke-width="1" stroke-linecap="square" stroke-linejoin="bevel" transform="matrix(0.75,0,0,0.75,102.375,445)"
font-family="Helvetica" font-size="13" font-weight="400" font-style="normal" 
>
<text fill="#d9d9d9" fill-opacity="1" stroke="none" xml:space="preserve" x="0" y="0" font-family="Helvetica" font-size="13" font-weight="400" font-style="normal" 
 >0</text>
</g>

<g fill="#d9d9d9" fill-opacity="1" stroke="#d9d9d9" stroke-opacity="1" stroke-width="1" stroke-linecap="square" stroke-linejoin="bevel" transform="matrix(0.75,0,0,0.75,160.65,445)"
font-family="Helvetica" font-size="13" font-weight="400" font-style="normal" 
>
<text fill="#d9d9d9" fill-opacity="1" stroke="none" xml:space="preserve" x="0" y="0" font-family="Helvetica" font-size="13" font-weight="400" font-style="normal" 
 >0.1</text>
</g>

<g fill="#d9d9d9" fill-opacity="1" stroke="#d9d9d9" stroke-opacity="1" stroke-width="1" stroke-linecap="square" stroke-linejoin="bevel" transform="matrix(0.75,0,0,0.75,223.05,445)"
font-family="Helvetica" font-size="13" font-weight="400" font-style="normal" 
>
<text fill="#d9d9d9" fill-opacity="1" stroke="none" xml:space="preserve" x="0" y="0" font-family="Helvetica" font-size="13" font-weight="400" font-style="normal" 
 >0.2</text>
</g>

<g fill="#d9d9d9" fill-opacity="1" stroke="#d9d9d9" stroke-opacity="1" stroke-width="1" stroke-linecap="square" stroke-linejoin="bevel" transform="matrix(0.75,0,0,0.75,285.45,445)"
font-family="Helvetica" font-size="13" font-weight="400" font-style="normal" 
>
<text fill="#d9d9d9" fill-opacity="1" stroke="none" xml:space="preserve" x="0" y="0" font-family="Helvetica" font-size="13" font-weight="400" font-style="normal" 
 >0.3</text>
</g>

<g fill="#d9d9d9" fill-opacity="1" stroke="#d9d9d9" stroke-opacity="1" stroke-width="1" stroke-linecap="square" stroke-linejoin="bevel" transform="matrix(0.75,0,0,0.75,347.85,445)"
font-family="Helvetica" font-size="13" font-weight="400" font-style="normal" 
>
<text fill="#d9d9d9" fill-opacity="1" stroke="none" xml:space="preserve" x="0" y="0" font-family="Helvetica" font-size="13" font-weight="400" font-style="normal" 
 >0.4</text>
</g>

<g fill="#d9d9d9" fill-opacity="1" stroke="#d9d9d9" stroke-opacity="1" stroke-width="1" stroke-linecap="square" stroke-linejoin="bevel" transform="matrix(0.75,0,0,0.75,410.25,445)"
font-family="Helvetica" font-size="13" font-weight="400" font-style="normal" 
>
<text fill="#d9d9d9" fill-opacity="1" stroke="none" xml:space="preserve" x="0" y="0" font-family="Helvetica" font-size="13" font-weight="400" font-style="normal" 
 >0.5</text>
</g>

<g fill="#d9d9d9" fill-opacity="1" stroke="#d9d9d9" stroke-opacity="1" stroke-width="1" stroke-linecap="square" stroke-linejoin="bevel" transform="matrix(0.75,0,0,0.75,472.65,445)"
font-family="Helvetica" font-size="13" font-weight="400" font-style="normal" 
>
<text fill="#d9d9d9" fill-opacity="1" stroke="none" xml:space="preserve" x="0" y="0" font-family="Helvetica" font-size="13" font-weight="400" font-style="normal" 
 >0.6</text>
</g>

<g fill="#d9d9d9" fill-opacity="1" stroke="#d9d9d9" stroke-opacity="1" stroke-width="1" stroke-linecap="square" stroke-linejoin="bevel" transform="matrix(0.75,0,0,0.75,535.05,445)"
font-family="Helvetica" font-size="13" font-weight="400" font-style="normal" 
>
<text fill="#d9d9d9" fill-opacity="1" stroke="none" xml:space="preserve" x="0" y="0" font-family="Helvetica" font-size="13" font-weight="400" font-style="normal" 
 >0.7</text>
</g>

<g fill="#d9d9d9" fill-opacity="1" stroke="#d9d9d9" stroke-opacity="1" stroke-width="1" stroke-linecap="square" stroke-linejoin="bevel" transform="matrix(0.75,0,0,0.75,597.45,445)"
font-family="Helvetica" font-size="13" font-weight="400" font-style="normal" 
>
<text fill="#d9d9d9" fill-opacity="1" stroke="none" xml:space="preserve" x="0" y="0" font-family="Helvetica" font-size="13" font-weight="400" font-style="normal" 
 >0.8</text>
</g>

<g fill="#d9d9d9" fill-opacity="1" stroke="#d9d9d9" stroke-opacity="1" stroke-width="1" stroke-linecap="square" stroke-linejoin="bevel" transform="matrix(0.75,0,0,0.75,659.85,445)"
font-family="Helvetica" font-size="13" font-weight="400" font-style="normal" 
>
<text fill="#d9d9d9" fill-opacity="1" stroke="none" xml:space="preserve" x="0" y="0" font-family="Helvetica" font-size="13" font-weight="400" font-style="normal" 
 >0.9</text>
</g>

<g fill="#d9d9d9" fill-opacity="1" stroke="#d9d9d9" stroke-opacity="1" stroke-width="1" stroke-linecap="square" stroke-linejoin="bevel" transform="matrix(0.75,0,0,0.75,726.375,445)"
font-family="Helvetica" font-size="13" font-weight="400" font-style="normal" 
>
<text fill="#d9d9d9" fill-opacity="1" stroke="none" xml:space="preserve" x="0" y="0" font-family="Helvetica" font-size="13" font-weight="400" font-style="normal" 
 >1</text>
</g>

<g fill="#d9d9d9" fill-opacity="1" stroke="#d9d9d9" stroke-opacity="1" stroke-width="1" stroke-linecap="square" stroke-linejoin="bevel" transform="matrix(0,-0.75,0.75,0,71,244.125)"
font-family="Helvetica" font-size="20" font-weight="400" font-style="normal" 
>
<text fill="#d9d9d9" fill-opacity="1" stroke="none" xml:space="preserve" x="0" y="0" font-family="Helvetica" font-size="20" font-weight="400" font-style="normal" 
 >y/c</text>
</g>

<g fill="#d9d9d9" fill-opacity="1" stroke="#d9d9d9" stroke-opacity="1" stroke-width="0.666667" stroke-linecap="square" stroke-linejoin="round" transform="matrix(0.75,0,0,0.75,0,0)"
font-family="Helvetica" font-size="20" font-weight="400" font-style="normal" 
>
<polyline fill="none" vector-effect="none" points="140,576 140,49 " />
<polyline fill="none" vector-effect="none" points="140,576 148.32,576 " />
<polyline fill="none" vector-effect="none" points="140,500.714 148.32,500.714 " />
<polyline fill="none" vector-effect="none" points="140,425.429 148.32,425.429 " />
<polyline fill="none" vector-effect="none" points="140,350.143 148.32,350.143 " />
<polyline fill="none" vector-effect="none" points="140,274.857 148.32,274.857 " />
<polyline fill="none" vector-effect="none" points="140,199.571 148.32,199.571 " />
<polyline fill="none" vector-effect="none" points="140,124.286 148.32,124.286 " />
<polyline fill="none" vector-effect="none" points="140,49 148.32,49 " />
</g>

<g fill="#d9d9d9" fill-opacity="1" stroke="#d9d9d9" stroke-opacity="1" stroke-width="1" stroke-linecap="square" stroke-linejoin="bevel" transform="matrix(0.75,0,0,0.75,79.25,435.375)"
font-family="Helvetica" font-size="13" font-weight="400" font-style="normal" 
>
<text fill="#d9d9d9" fill-opacity="1" stroke="none" xml:space="preserve" x="0" y="0" font-family="Helvetica" font-size="13" font-weight="400" font-style="normal" 
 >-0.06</text>
</g>

<g fill="#d9d9d9" fill-opacity="1" stroke="#d9d9d9" stroke-opacity="1" stroke-width="1" stroke-linecap="square" stroke-linejoin="bevel" transform="matrix(0.75,0,0,0.75,79.25,378.911)"
font-family="Helvetica" font-size="13" font-weight="400" font-style="normal" 
>
<text fill="#d9d9d9" fill-opacity="1" stroke="none" xml:space="preserve" x="0" y="0" font-family="Helvetica" font-size="13" font-weight="400" font-style="normal" 
 >-0.04</text>
</g>

<g fill="#d9d9d9" fill-opacity="1" stroke="#d9d9d9" stroke-opacity="1" stroke-width="1" stroke-linecap="square" stroke-linejoin="bevel" transform="matrix(0.75,0,0,0.75,79.25,322.446)"
font-family="Helvetica" font-size="13" font-weight="400" font-style="normal" 
>
<text fill="#d9d9d9" fill-opacity="1" stroke="none" xml:space="preserve" x="0" y="0" font-family="Helvetica" font-size="13" font-weight="400" font-style="normal" 
 >-0.02</text>
</g>

<g fill="#d9d9d9" fill-opacity="1" stroke="#d9d9d9" stroke-opacity="1" stroke-width="1" stroke-linecap="square" stroke-linejoin="bevel" transform="matrix(0.75,0,0,0.75,95.75,265.982)"
font-family="Helvetica" font-size="13" font-weight="400" font-style="normal" 
>
<text fill="#d9d9d9" fill-opacity="1" stroke="none" xml:space="preserve" x="0" y="0" font-family="Helvetica" font-size="13" font-weight="400" font-style="normal" 
 >0</text>
</g>

<g fill="#d9d9d9" fill-opacity="1" stroke="#d9d9d9" stroke-opacity="1" stroke-width="1" stroke-linecap="square" stroke-linejoin="bevel" transform="matrix(0.75,0,0,0.75,82.25,209.518)"
font-family="Helvetica" font-size="13" font-weight="400" font-style="normal" 
>
<text fill="#d9d9d9" fill-opacity="1" stroke="none" xml:space="preserve" x="0" y="0" font-family="Helvetica" font-size="13" font-weight="400" font-style="normal" 
 >0.02</text>
</g>

<g fill="#d9d9d9" fill-opacity="1" stroke="#d9d9d9" stroke-opacity="1" stroke-width="1" stroke-linecap="square" stroke-linejoin="bevel" transform="matrix(0.75,0,0,0.75,82.25,153.054)"
font-family="Helvetica" font-size="13" font-weight="400" font-style="normal" 
>
<text fill="#d9d9d9" fill-opacity="1" stroke="none" xml:space="preserve" x="0" y="0" font-family="Helvetica" font-size="13" font-weight="400" font-style="normal" 
 >0.04</text>
</g>

<g fill="#d9d9d9" fill-opacity="1" stroke="#d9d9d9" stroke-opacity="1" stroke-width="1" stroke-linecap="square" stroke-linejoin="bevel" transform="matrix(0.75,0,0,0.75,82.25,96.5893)"
font-family="Helvetica" font-size="13" font-weight="400" font-style="normal" 
>
<text fill="#d9d9d9" fill-opacity="1" stroke="none" xml:space="preserve" x="0" y="0" font-family="Helvetica" font-size="13" font-weight="400" font-style="normal" 
 >0.06</text>
</g>

<g fill="#d9d9d9" fill-opacity="1" stroke="#d9d9d9" stroke-opacity="1" stroke-width="1" stroke-linecap="square" stroke-linejoin="bevel" transform="matrix(0.75,0,0,0.75,82.25,40.125)"
font-family="Helvetica" font-size="13" font-weight="400" font-style="normal" 
>
<text fill="#d9d9d9" fill-opacity="1" stroke="none" xml:space="preserve" x="0" y="0" font-family="Helvetica" font-size="13" font-weight="400" font-style="normal" 
 >0.08</text>
</g>

<g fill="#d9d9d9" fill-opacity="1" stroke="#d9d9d9" stroke-opacity="1" stroke-width="1" stroke-linecap="square" stroke-linejoin="bevel" transform="matrix(0.75,0,0,0.75,333.375,28.5)"
font-family="Times New Roman" font-size="26" font-weight="700" font-style="normal" 
>
<text fill="#d9d9d9" fill-opacity="1" stroke="none" xml:space="preserve" x="0" y="0" font-family="Times New Roman" font-size="26" font-weight="700" font-style="normal" 
 >Airfoils Scaled Axes</text>
</g>

<g fill="none" stroke="#000000" stroke-opacity="1" stroke-width="1.33333" stroke-linecap="butt" stroke-linejoin="round" transform="matrix(0.75,0,0,0.75,0,0)"
font-family="Times New Roman" font-size="26" font-weight="700" font-style="normal" 
>
<polyline fill="none" vector-effect="none" points="140,350.143 140.105,343.649 140.419,337.175 140.942,330.74 141.675,324.362 142.617,318.058 143.767,311.845 145.126,305.738 146.694,299.749 148.469,293.889 150.451,288.168 152.64,282.591 155.035,277.163 157.636,271.886 160.442,266.76 163.453,261.782 166.667,256.948 170.083,252.252 173.702,247.686 177.521,243.241 181.541,238.908 185.759,234.674 190.176,230.529 194.789,226.461 199.598,222.46 204.601,218.514 209.798,214.614 215.186,210.752 220.765,206.919 226.533,203.11 232.489,199.321 238.631,195.55 244.957,191.797 251.467,188.062 258.158,184.349 265.028,180.664 272.077,177.013 279.302,173.404 286.701,169.848 294.273,166.354 302.015,162.934 309.926,159.599 318.004,156.361 326.246,153.232 334.651,150.223 343.216,147.343 351.94,144.603 360.82,142.01 369.853,139.569 379.038,137.287 388.373,135.165 397.854,133.205 407.48,131.406 417.248,129.766 427.156,128.281 437.201,126.947 447.38,125.757 457.692,124.705 468.133,123.784 478.701,122.987 489.393,122.31 500.206,121.746 511.139,121.293 522.187,120.95 533.348,120.718 544.62,120.602 556,120.609 567.484,120.75 579.07,121.04 590.756,121.498 602.537,122.146 614.411,123.009 626.375,124.118 638.426,125.505 650.561,127.204 662.777,129.252 675.071,131.687 687.439,134.548 699.879,137.874 712.388,141.7 724.962,146.061 737.599,150.99 750.294,156.514 763.045,162.656 775.849,169.435 788.702,176.862 801.601,184.947 814.543,193.689 827.525,203.087 840.543,213.134 853.594,223.821 866.675,235.14 879.783,247.085 892.913,259.655 906.064,272.861 919.231,286.727 932.412,301.298 945.602,316.647 958.799,332.879 972,350.143 " />
<polyline fill="none" vector-effect="none" points="140,350.143 140.105,356.964 140.419,363.764 140.942,370.524 141.675,377.222 142.617,383.841 143.767,390.361 145.126,396.767 146.694,403.043 148.469,409.175 150.451,415.151 152.64,420.961 155.035,426.597 157.636,432.053 160.442,437.324 163.453,442.408 166.667,447.305 170.083,452.014 173.702,456.541 177.521,460.887 181.541,465.059 185.759,469.063 190.176,472.906 194.789,476.595 199.598,480.14 204.601,483.548 209.798,486.828 215.186,489.988 220.765,493.035 226.533,495.976 232.489,498.819 238.631,501.568 244.957,504.228 251.467,506.803 258.158,509.296 265.028,511.708 272.077,514.041 279.302,516.294 286.701,518.467 294.273,520.556 302.015,522.561 309.926,524.478 318.004,526.303 326.246,528.031 334.651,529.659 343.216,531.181 351.94,532.592 360.82,533.885 369.853,535.055 379.038,536.096 388.373,537 397.854,537.76 407.48,538.368 417.248,538.815 427.156,539.092 437.201,539.187 447.38,539.09 457.692,538.786 468.133,538.262 478.701,537.502 489.393,536.488 500.206,535.202 511.139,533.624 522.187,531.732 533.348,529.505 544.62,526.919 556,523.953 567.484,520.582 579.07,516.786 590.756,512.546 602.537,507.844 614.411,502.665 626.375,497.002 638.426,490.851 650.561,484.215 662.777,477.104 675.071,469.538 687.439,461.547 699.879,453.172 712.388,444.463 724.962,435.486 737.599,426.316 750.294,417.042 763.045,407.765 775.849,398.597 788.702,389.661 801.601,381.085 814.543,373.006 827.525,365.56 840.543,358.884 853.594,353.105 866.675,348.339 879.783,344.684 892.913,342.208 906.064,340.945 919.231,340.882 932.412,341.95 945.602,344.012 958.799,346.848 972,350.143 " />
</g>

<g fill="none" stroke="#ff0000" stroke-opacity="1" stroke-dasharray="10,6" stroke-dashoffset="0" stroke-width="1.33333" stroke-linecap="butt" stroke-linejoin="round" transform="matrix(0.75,0,0,0.75,0,0)"
font-family="Times New Roman" font-size="26" font-weight="700" font-style="normal" 
>
<polyline fill="none" vector-effect="none" points="140,350.143 140.105,343.869 140.419,337.616 140.942,331.402 141.675,325.248 142.617,319.172 143.767,313.19 145.126,307.319 146.694,301.571 148.469,295.959 150.451,290.492 152.64,285.178 155.035,280.022 157.636,275.027 160.442,270.194 163.453,265.52 166.667,261.003 170.083,256.637 173.702,252.414 177.521,248.326 181.541,244.364 185.759,240.516 190.176,236.771 194.789,233.118 199.598,229.544 204.601,226.039 209.798,222.591 215.186,219.191 220.765,215.831 226.533,212.501 232.489,209.197 238.631,205.914 244.957,202.649 251.467,199.401 258.158,196.172 265.028,192.962 272.077,189.778 279.302,186.623 286.701,183.504 294.273,180.431 302.015,177.411 309.926,174.454 318.004,171.57 326.246,168.768 334.651,166.059 343.216,163.451 351.94,160.954 360.82,158.575 369.853,156.321 379.038,154.198 388.373,152.21 397.854,150.362 407.48,148.653 417.248,147.087 427.156,145.661 437.201,144.375 447.38,143.227 457.692,142.215 468.133,141.337 478.701,140.59 489.393,139.972 500.206,139.483 511.139,139.123 522.187,138.894 533.348,138.8 544.62,138.848 556,139.046 567.484,139.405 579.07,139.939 590.756,140.664 602.537,141.6 614.411,142.767 626.375,144.189 638.426,145.891 650.561,147.9 662.777,150.243 675.071,152.947 687.439,156.041 699.879,159.548 712.388,163.494 724.962,167.899 737.599,172.782 750.294,178.158 763.045,184.038 775.849,190.427 788.702,197.328 801.601,204.741 814.543,212.659 827.525,221.077 840.543,229.988 853.594,239.386 866.675,249.27 879.783,259.646 892.913,270.529 906.064,281.954 919.231,293.973 932.412,306.666 945.602,320.147 958.799,334.571 972,350.143 " />
<polyline fill="none" vector-effect="none" points="140,350.143 140.105,356.835 140.419,363.507 140.942,370.139 141.675,376.712 142.617,383.208 143.767,389.608 145.126,395.897 146.694,402.06 148.469,408.081 150.451,413.95 152.64,419.655 155.035,425.188 157.636,430.542 160.442,435.712 163.453,440.693 166.667,445.485 170.083,450.086 173.702,454.498 177.521,458.723 181.541,462.765 185.759,466.628 190.176,470.319 194.789,473.843 199.598,477.207 204.601,480.417 209.798,483.481 215.186,486.406 220.765,489.199 226.533,491.865 232.489,494.411 238.631,496.841 244.957,499.162 251.467,501.376 258.158,503.486 265.028,505.496 272.077,507.407 279.302,509.219 286.701,510.934 294.273,512.55 302.015,514.066 309.926,515.482 318.004,516.793 326.246,517.999 334.651,519.096 343.216,520.081 351.94,520.949 360.82,521.697 369.853,522.32 379.038,522.813 388.373,523.17 397.854,523.386 407.48,523.453 417.248,523.364 427.156,523.11 437.201,522.682 447.38,522.069 457.692,521.261 468.133,520.243 478.701,519.002 489.393,517.523 500.206,515.788 511.139,513.78 522.187,511.48 533.348,508.871 544.62,505.93 556,502.641 567.484,498.983 579.07,494.94 590.756,490.497 602.537,485.64 614.411,480.36 626.375,474.654 638.426,468.523 650.561,461.973 662.777,455.02 675.071,447.688 687.439,440.008 699.879,432.024 712.388,423.79 724.962,415.369 737.599,406.839 750.294,398.285 763.045,389.807 775.849,381.512 788.702,373.516 801.601,365.944 814.543,358.923 827.525,352.582 840.543,347.046 853.594,342.435 866.675,338.856 879.783,336.396 892.913,335.115 906.064,335.042 919.231,336.161 932.412,338.403 945.602,341.635 958.799,345.647 972,350.143 " />
</g>

<g fill="#121212" fill-opacity="1" stroke="none" transform="matrix(7.5e-05,0,0,7.5e-05,0,0)"
font-family="Times New Roman" font-size="26" font-weight="700" font-style="normal" 
>
<path vector-effect="none" fill-rule="evenodd" d="M7.34e+06,570000 L7.34e+06,1.06e+06 L9.33e+06,1.06e+06 L9.33e+06,570000 L7.34e+06,570000"/>
</g>

<g fill="#000000" fill-opacity="1" stroke="#000000" stroke-opacity="1" stroke-width="1.33333" stroke-linecap="butt" stroke-linejoin="round" transform="matrix(0.75,0,0,0.75,0,0)"
font-family="Times New Roman" font-size="26" font-weight="700" font-style="normal" 
>
<polyline fill="none" vector-effect="none" points="738,70.134 778,70.134 " />
</g>

<g fill="#ff0000" fill-opacity="1" stroke="#ff0000" stroke-opacity="1" stroke-dasharray="10,6" stroke-dashoffset="0" stroke-width="1.33333" stroke-linecap="butt" stroke-linejoin="round" transform="matrix(0.75,0,0,0.75,0,0)"
font-family="Times New Roman" font-size="26" font-weight="700" font-style="normal" 
>
<polyline fill="none" vector-effect="none" points="738,92.866 778,92.866 " />
</g>

<g fill="#d9d9d9" fill-opacity="1" stroke="#d9d9d9" stroke-opacity="1" stroke-width="1" stroke-linecap="square" stroke-linejoin="bevel" transform="matrix(0.75,0,0,0.75,585.75,57.8505)"
font-family="Helvetica" font-size="20" font-weight="400" font-style="normal" 
>
<text fill="#d9d9d9" fill-opacity="1" stroke="none" xml:space="preserve" x="0" y="0" font-family="Helvetica" font-size="20" font-weight="400" font-style="normal" 
 >Current Airfoil</text>
</g>

<g fill="#d9d9d9" fill-opacity="1" stroke="#d9d9d9" stroke-opacity="1" stroke-width="1" stroke-linecap="square" stroke-linejoin="bevel" transform="matrix(0.75,0,0,0.75,585.75,74.8995)"
font-family="Helvetica" font-size="20" font-weight="400" font-style="normal" 
>
<text fill="#d9d9d9" fill-opacity="1" stroke="none" xml:space="preserve" x="0" y="0" font-family="Helvetica" font-size="20" font-weight="400" font-style="normal" 
 >Reference Airfoil</text>
</g>

<g fill="none" stroke="#d9d9d9" stroke-opacity="1" stroke-width="0.666667" stroke-linecap="butt" stroke-linejoin="miter" stroke-miterlimit="2" transform="matrix(0.75,0,0,0.75,0,0)"
font-family="Helvetica" font-size="20" font-weight="400" font-style="normal" 
>
<path vector-effect="none" fill-rule="evenodd" d="M734,106 L734,57 L933,57 L933,106 L734,106"/>
</g>
</g>
</svg>
