<?xml version="1.0" encoding="UTF-8" standalone="no"?>
<svg width="252.589mm" height="152.047mm"
 viewBox="0 0 716 431"
 xmlns="http://www.w3.org/2000/svg" xmlns:xlink="http://www.w3.org/1999/xlink"  version="1.2" baseProfile="tiny">
<title>Qt SVG Document</title>
<desc>MATLAB, The MathWorks, Inc. Version 25.1.0.2973910 R2025a Update 1</desc>
<defs>
</defs>
<g fill="none" stroke="black" stroke-width="1" fill-rule="evenodd" stroke-linecap="square" stroke-linejoin="bevel" >

<g fill="#000000" fill-opacity="1" stroke="none" transform="matrix(0.6,0,0,0.6,0,0)"
font-family="MS Shell Dlg 2" font-size="7.8" font-weight="400" font-style="normal" 
>
<path vector-effect="none" fill-rule="evenodd" d="M0,0 L1194,0 L1194,719 L0,719 L0,0"/>
</g>

<g fill="#121212" fill-opacity="1" stroke="none" transform="matrix(6e-05,0,0,6e-05,0,0)"
font-family="MS Shell Dlg 2" font-size="7.8" font-weight="400" font-style="normal" 
>
<path vector-effect="none" fill-rule="evenodd" d="M1.55e+06,540000 L1.55e+06,6.39e+06 L1.08e+07,6.39e+06 L1.08e+07,540000 L1.55e+06,540000"/>
</g>

<g fill="#ffffff" fill-opacity="0.25098" stroke="#ffffff" stroke-opacity="0.25098" stroke-dasharray="1,3" stroke-dashoffset="0" stroke-width="0.833333" stroke-linecap="butt" stroke-linejoin="round" transform="matrix(0.6,0,0,0.6,0,0)"
font-family="MS Shell Dlg 2" font-size="7.8" font-weight="400" font-style="normal" 
>
<polyline fill="none" vector-effect="none" points="155,53.9998 155,639 " />
<polyline fill="none" vector-effect="none" points="183.906,53.9998 183.906,639 " />
<polyline fill="none" vector-effect="none" points="212.813,53.9998 212.813,639 " />
<polyline fill="none" vector-effect="none" points="241.719,53.9998 241.719,639 " />
<polyline fill="none" vector-effect="none" points="270.625,53.9998 270.625,639 " />
<polyline fill="none" vector-effect="none" points="299.531,53.9998 299.531,639 " />
<polyline fill="none" vector-effect="none" points="328.438,53.9998 328.438,639 " />
<polyline fill="none" vector-effect="none" points="357.344,53.9998 357.344,639 " />
<polyline fill="none" vector-effect="none" points="386.25,53.9998 386.25,639 " />
<polyline fill="none" vector-effect="none" points="415.156,53.9998 415.156,639 " />
<polyline fill="none" vector-effect="none" points="444.063,53.9998 444.063,639 " />
<polyline fill="none" vector-effect="none" points="472.969,53.9998 472.969,639 " />
<polyline fill="none" vector-effect="none" points="501.875,53.9998 501.875,639 " />
<polyline fill="none" vector-effect="none" points="530.781,53.9998 530.781,639 " />
<polyline fill="none" vector-effect="none" points="559.688,53.9998 559.688,639 " />
<polyline fill="none" vector-effect="none" points="588.594,53.9998 588.594,639 " />
<polyline fill="none" vector-effect="none" points="617.5,53.9998 617.5,639 " />
<polyline fill="none" vector-effect="none" points="646.406,53.9998 646.406,639 " />
<polyline fill="none" vector-effect="none" points="675.313,53.9998 675.313,639 " />
<polyline fill="none" vector-effect="none" points="704.219,53.9998 704.219,639 " />
<polyline fill="none" vector-effect="none" points="733.125,53.9998 733.125,639 " />
<polyline fill="none" vector-effect="none" points="762.031,53.9998 762.031,639 " />
<polyline fill="none" vector-effect="none" points="790.938,53.9998 790.938,639 " />
<polyline fill="none" vector-effect="none" points="819.844,53.9998 819.844,639 " />
<polyline fill="none" vector-effect="none" points="848.75,53.9998 848.75,639 " />
<polyline fill="none" vector-effect="none" points="877.656,53.9998 877.656,639 " />
<polyline fill="none" vector-effect="none" points="906.563,53.9998 906.563,639 " />
<polyline fill="none" vector-effect="none" points="935.469,53.9998 935.469,639 " />
<polyline fill="none" vector-effect="none" points="964.375,53.9998 964.375,639 " />
<polyline fill="none" vector-effect="none" points="993.281,53.9998 993.281,639 " />
<polyline fill="none" vector-effect="none" points="1022.19,53.9998 1022.19,639 " />
<polyline fill="none" vector-effect="none" points="1051.09,53.9998 1051.09,639 " />
<polyline fill="none" vector-effect="none" points="1080,53.9998 1080,639 " />
<polyline fill="none" vector-effect="none" points="155,628.117 1080,628.117 " />
<polyline fill="none" vector-effect="none" points="155,602.772 1080,602.772 " />
<polyline fill="none" vector-effect="none" points="155,577.428 1080,577.428 " />
<polyline fill="none" vector-effect="none" points="155,552.083 1080,552.083 " />
<polyline fill="none" vector-effect="none" points="155,526.739 1080,526.739 " />
<polyline fill="none" vector-effect="none" points="155,501.394 1080,501.394 " />
<polyline fill="none" vector-effect="none" points="155,476.05 1080,476.05 " />
<polyline fill="none" vector-effect="none" points="155,450.705 1080,450.705 " />
<polyline fill="none" vector-effect="none" points="155,425.361 1080,425.361 " />
<polyline fill="none" vector-effect="none" points="155,400.016 1080,400.016 " />
<polyline fill="none" vector-effect="none" points="155,374.672 1080,374.672 " />
<polyline fill="none" vector-effect="none" points="155,349.327 1080,349.327 " />
<polyline fill="none" vector-effect="none" points="155,323.983 1080,323.983 " />
<polyline fill="none" vector-effect="none" points="155,298.638 1080,298.638 " />
<polyline fill="none" vector-effect="none" points="155,273.294 1080,273.294 " />
<polyline fill="none" vector-effect="none" points="155,247.949 1080,247.949 " />
<polyline fill="none" vector-effect="none" points="155,222.605 1080,222.605 " />
<polyline fill="none" vector-effect="none" points="155,197.26 1080,197.26 " />
<polyline fill="none" vector-effect="none" points="155,171.916 1080,171.916 " />
<polyline fill="none" vector-effect="none" points="155,146.571 1080,146.571 " />
<polyline fill="none" vector-effect="none" points="155,121.227 1080,121.227 " />
<polyline fill="none" vector-effect="none" points="155,95.8822 1080,95.8822 " />
<polyline fill="none" vector-effect="none" points="155,70.5376 1080,70.5376 " />
</g>

<g fill="#d9d9d9" fill-opacity="1" stroke="none" transform="matrix(0.6,0,0,0.6,351,410)"
font-family="MS Shell Dlg 2" font-size="7.8" font-weight="400" font-style="normal" 
>
<path vector-effect="none" fill-rule="evenodd" d="M1.67188,0 L1.67188,-12.8906 L3.39063,-12.8906 L3.39063,0 L1.67188,0 M9.64063,-1.42188 L9.875,-0.015625 C9.42708,0.078125 9.02604,0.125 8.67188,0.125 C8.09896,0.125 7.65365,0.0338542 7.33594,-0.148438 C7.01823,-0.330729 6.79688,-0.570313 6.67188,-0.867188 C6.54688,-1.16406 6.48438,-1.78646 6.48438,-2.73438 L6.48438,-8.10938 L5.3125,-8.10938 L5.3125,-9.32813 L6.48438,-9.32813 L6.48438,-11.6406 L8.04688,-12.5938 L8.04688,-9.32813 L9.64063,-9.32813 L9.64063,-8.10938 L8.04688,-8.10938 L8.04688,-2.64063 C8.04688,-2.19271 8.07552,-1.90365 8.13281,-1.77344 C8.1901,-1.64323 8.28125,-1.54167 8.40625,-1.46875 C8.53125,-1.39583 8.71354,-1.35938 8.95313,-1.35938 C9.11979,-1.35938 9.34896,-1.38021 9.64063,-1.42188 M17.5781,-3 L19.2188,-2.79688 C18.9583,-1.84896 18.4792,-1.10938 17.7813,-0.578125 C17.0833,-0.046875 16.1927,0.21875 15.1094,0.21875 C13.7448,0.21875 12.6615,-0.203125 11.8594,-1.04688 C11.0573,-1.89063 10.6563,-3.07292 10.6563,-4.59375 C10.6563,-6.15625 11.0599,-7.3724 11.8672,-8.24219 C12.6745,-9.11198 13.724,-9.54688 15.0156,-9.54688 C16.2656,-9.54688 17.2865,-9.1224 18.0781,-8.27344 C18.8698,-7.42448 19.2656,-6.22917 19.2656,-4.6875 C19.2656,-4.59375 19.2604,-4.45313 19.25,-4.26563 L12.2969,-4.26563 C12.349,-3.23438 12.638,-2.44792 13.1641,-1.90625 C13.6901,-1.36458 14.3385,-1.09375 15.1094,-1.09375 C15.6927,-1.09375 16.1901,-1.24479 16.6016,-1.54688 C17.013,-1.84896 17.3385,-2.33333 17.5781,-3 M12.375,-5.5625 L17.5938,-5.5625 C17.5208,-6.34375 17.3229,-6.93229 17,-7.32813 C16.4896,-7.94271 15.8333,-8.25 15.0313,-8.25 C14.3125,-8.25 13.7057,-8.00521 13.2109,-7.51563 C12.7161,-7.02604 12.4375,-6.375 12.375,-5.5625 M21.1719,0 L21.1719,-9.32813 L22.5938,-9.32813 L22.5938,-7.92188 C22.9583,-8.57813 23.2943,-9.01302 23.6016,-9.22656 C23.9089,-9.4401 24.2448,-9.54688 24.6094,-9.54688 C25.151,-9.54688 25.6927,-9.375 26.2344,-9.03125 L25.7031,-7.5625 C25.3073,-7.79167 24.9167,-7.90625 24.5313,-7.90625 C24.1875,-7.90625 23.8776,-7.80208 23.6016,-7.59375 C23.3255,-7.38542 23.1302,-7.09896 23.0156,-6.73438 C22.8385,-6.17188 22.75,-5.55729 22.75,-4.89063 L22.75,0 L21.1719,0 M33.2813,-1.15625 C32.6979,-0.65625 32.1328,-0.302083 31.5859,-0.09375 C31.0391,0.114583 30.4583,0.21875 29.8438,0.21875 C28.8125,0.21875 28.0234,-0.0338542 27.4766,-0.539063 C26.9297,-1.04427 26.6563,-1.6875 26.6563,-2.46875 C26.6563,-2.91667 26.7604,-3.33073 26.9688,-3.71094 C27.1771,-4.09115 27.4479,-4.39583 27.7813,-4.625 C28.1146,-4.85417 28.4948,-5.02604 28.9219,-5.14063 C29.2344,-5.22396 29.7031,-5.30208 30.3281,-5.375 C31.599,-5.53125 32.5365,-5.71354 33.1406,-5.92188 C33.151,-6.14063 33.1563,-6.28125 33.1563,-6.34375 C33.1563,-6.97917 33.0052,-7.43229 32.7031,-7.70313 C32.2969,-8.05729 31.6979,-8.23438 30.9063,-8.23438 C30.1563,-8.23438 29.6042,-8.10417 29.25,-7.84375 C28.8958,-7.58333 28.6354,-7.11979 28.4688,-6.45313 L26.9219,-6.67188 C27.0677,-7.33854 27.2995,-7.875 27.6172,-8.28125 C27.9349,-8.6875 28.3984,-9 29.0078,-9.21875 C29.6172,-9.4375 30.3281,-9.54688 31.1406,-9.54688 C31.9323,-9.54688 32.5781,-9.45313 33.0781,-9.26563 C33.5781,-9.07813 33.9453,-8.84115 34.1797,-8.55469 C34.4141,-8.26823 34.5781,-7.91146 34.6719,-7.48438 C34.724,-7.21354 34.75,-6.72396 34.75,-6.01563 L34.75,-3.90625 C34.75,-2.4375 34.7839,-1.50781 34.8516,-1.11719 C34.9193,-0.726563 35.0521,-0.354167 35.25,0 L33.5938,0 C33.4271,-0.333333 33.3229,-0.71875 33.2813,-1.15625 M33.1406,-4.6875 C32.5677,-4.44792 31.7083,-4.25 30.5625,-4.09375 C29.9167,-4 29.4583,-3.89323 29.1875,-3.77344 C28.9167,-3.65365 28.7083,-3.48177 28.5625,-3.25781 C28.4167,-3.03385 28.3438,-2.78125 28.3438,-2.5 C28.3438,-2.08333 28.5026,-1.73438 28.8203,-1.45313 C29.138,-1.17188 29.6042,-1.03125 30.2188,-1.03125 C30.8333,-1.03125 31.3776,-1.16406 31.8516,-1.42969 C32.3255,-1.69531 32.6719,-2.05729 32.8906,-2.51563 C33.0573,-2.88021 33.1406,-3.41146 33.1406,-4.10938 L33.1406,-4.6875 M40.6406,-1.42188 L40.875,-0.015625 C40.4271,0.078125 40.026,0.125 39.6719,0.125 C39.099,0.125 38.6536,0.0338542 38.3359,-0.148438 C38.0182,-0.330729 37.7969,-0.570313 37.6719,-0.867188 C37.5469,-1.16406 37.4844,-1.78646 37.4844,-2.73438 L37.4844,-8.10938 L36.3125,-8.10938 L36.3125,-9.32813 L37.4844,-9.32813 L37.4844,-11.6406 L39.0469,-12.5938 L39.0469,-9.32813 L40.6406,-9.32813 L40.6406,-8.10938 L39.0469,-8.10938 L39.0469,-2.64063 C39.0469,-2.19271 39.0755,-1.90365 39.1328,-1.77344 C39.1901,-1.64323 39.2813,-1.54167 39.4063,-1.46875 C39.5313,-1.39583 39.7135,-1.35938 39.9531,-1.35938 C40.1198,-1.35938 40.349,-1.38021 40.6406,-1.42188 M42.2031,-11.0625 L42.2031,-12.8906 L43.7813,-12.8906 L43.7813,-11.0625 L42.2031,-11.0625 M42.2031,0 L42.2031,-9.32813 L43.7813,-9.32813 L43.7813,0 L42.2031,0 M45.5938,-4.67188 C45.5938,-6.40104 46.0781,-7.68229 47.0469,-8.51563 C47.849,-9.20313 48.8229,-9.54688 49.9688,-9.54688 C51.2604,-9.54688 52.3125,-9.125 53.125,-8.28125 C53.9375,-7.4375 54.3438,-6.27604 54.3438,-4.79688 C54.3438,-3.59896 54.1641,-2.65625 53.8047,-1.96875 C53.4453,-1.28125 52.9219,-0.744792 52.2344,-0.359375 C51.5469,0.0260417 50.7917,0.21875 49.9688,0.21875 C48.6667,0.21875 47.612,-0.200521 46.8047,-1.03906 C45.9974,-1.8776 45.5938,-3.08854 45.5938,-4.67188 M47.2188,-4.67188 C47.2188,-3.47396 47.4792,-2.57813 48,-1.98438 C48.5208,-1.39063 49.1771,-1.09375 49.9688,-1.09375 C50.7604,-1.09375 51.4167,-1.39323 51.9375,-1.99219 C52.4583,-2.59115 52.7188,-3.5 52.7188,-4.71875 C52.7188,-5.875 52.4557,-6.75 51.9297,-7.34375 C51.4036,-7.9375 50.75,-8.23438 49.9688,-8.23438 C49.1771,-8.23438 48.5208,-7.9375 48,-7.34375 C47.4792,-6.75 47.2188,-5.85938 47.2188,-4.67188 M56.1875,0 L56.1875,-9.32813 L57.6094,-9.32813 L57.6094,-8 C58.2969,-9.03125 59.2865,-9.54688 60.5781,-9.54688 C61.1406,-9.54688 61.6589,-9.44531 62.1328,-9.24219 C62.6068,-9.03906 62.9609,-8.77344 63.1953,-8.44531 C63.4297,-8.11719 63.5938,-7.72917 63.6875,-7.28125 C63.7396,-6.98958 63.7656,-6.47396 63.7656,-5.73438 L63.7656,0 L62.1875,0 L62.1875,-5.67188 C62.1875,-6.31771 62.1276,-6.80208 62.0078,-7.125 C61.888,-7.44792 61.6693,-7.70313 61.3516,-7.89063 C61.0339,-8.07813 60.6667,-8.17188 60.25,-8.17188 C59.5729,-8.17188 58.9896,-7.95833 58.5,-7.53125 C58.0104,-7.10417 57.7656,-6.29167 57.7656,-5.09375 L57.7656,0 L56.1875,0"/>
</g>

<g fill="#d9d9d9" fill-opacity="1" stroke="#d9d9d9" stroke-opacity="1" stroke-width="0.833333" stroke-linecap="square" stroke-linejoin="round" transform="matrix(0.6,0,0,0.6,0,0)"
font-family="MS Shell Dlg 2" font-size="7.8" font-weight="400" font-style="normal" 
>
<polyline fill="none" vector-effect="none" points="155,639 1080,639 " />
<polyline fill="none" vector-effect="none" points="155,53.9998 1080,53.9998 " />
<polyline fill="none" vector-effect="none" points="155,639 155,629.75 " />
<polyline fill="none" vector-effect="none" points="155,63.2496 155,53.9998 " />
<polyline fill="none" vector-effect="none" points="270.625,639 270.625,629.75 " />
<polyline fill="none" vector-effect="none" points="270.625,63.2496 270.625,53.9998 " />
<polyline fill="none" vector-effect="none" points="386.25,639 386.25,629.75 " />
<polyline fill="none" vector-effect="none" points="386.25,63.2496 386.25,53.9998 " />
<polyline fill="none" vector-effect="none" points="501.875,639 501.875,629.75 " />
<polyline fill="none" vector-effect="none" points="501.875,63.2496 501.875,53.9998 " />
<polyline fill="none" vector-effect="none" points="617.5,639 617.5,629.75 " />
<polyline fill="none" vector-effect="none" points="617.5,63.2496 617.5,53.9998 " />
<polyline fill="none" vector-effect="none" points="733.125,639 733.125,629.75 " />
<polyline fill="none" vector-effect="none" points="733.125,63.2496 733.125,53.9998 " />
<polyline fill="none" vector-effect="none" points="848.75,639 848.75,629.75 " />
<polyline fill="none" vector-effect="none" points="848.75,63.2496 848.75,53.9998 " />
<polyline fill="none" vector-effect="none" points="964.375,639 964.375,629.75 " />
<polyline fill="none" vector-effect="none" points="964.375,63.2496 964.375,53.9998 " />
<polyline fill="none" vector-effect="none" points="1080,639 1080,629.75 " />
<polyline fill="none" vector-effect="none" points="1080,63.2496 1080,53.9998 " />
</g>

<g fill="#d9d9d9" fill-opacity="1" stroke="none" transform="matrix(0.6,0,0,0.6,90.3,396.4)"
font-family="MS Shell Dlg 2" font-size="7.8" font-weight="400" font-style="normal" 
>
<path vector-effect="none" fill-rule="evenodd" d="M0.671875,-5.65625 C0.671875,-7.01042 0.809896,-8.09896 1.08594,-8.92188 C1.36198,-9.74479 1.77604,-10.3802 2.32813,-10.8281 C2.88021,-11.276 3.57292,-11.5 4.40625,-11.5 C5.02083,-11.5 5.5599,-11.3776 6.02344,-11.1328 C6.48698,-10.888 6.86979,-10.5313 7.17188,-10.0625 C7.47396,-9.59375 7.71094,-9.02604 7.88281,-8.35938 C8.05469,-7.69271 8.14063,-6.79167 8.14063,-5.65625 C8.14063,-4.3125 8.0026,-3.22656 7.72656,-2.39844 C7.45052,-1.57031 7.03646,-0.929688 6.48438,-0.476563 C5.93229,-0.0234375 5.23958,0.203125 4.40625,0.203125 C3.30208,0.203125 2.43229,-0.197917 1.79688,-1 C1.04688,-1.94792 0.671875,-3.5 0.671875,-5.65625 M2.10938,-5.65625 C2.10938,-3.77083 2.33073,-2.51823 2.77344,-1.89844 C3.21615,-1.27865 3.76042,-0.96875 4.40625,-0.96875 C5.05208,-0.96875 5.59375,-1.28125 6.03125,-1.90625 C6.46875,-2.53125 6.6875,-3.78125 6.6875,-5.65625 C6.6875,-7.54167 6.46875,-8.79427 6.03125,-9.41406 C5.59375,-10.0339 5.04688,-10.3438 4.39063,-10.3438 C3.74479,-10.3438 3.22917,-10.0677 2.84375,-9.51563 C2.35417,-8.81771 2.10938,-7.53125 2.10938,-5.65625 "/>
</g>

<g fill="#d9d9d9" fill-opacity="1" stroke="none" transform="matrix(0.6,0,0,0.6,159.675,396.4)"
font-family="MS Shell Dlg 2" font-size="7.8" font-weight="400" font-style="normal" 
>
<path vector-effect="none" fill-rule="evenodd" d="M8.0625,-1.35938 L8.0625,0 L0.484375,0 C0.473958,-0.34375 0.53125,-0.671875 0.65625,-0.984375 C0.84375,-1.49479 1.15104,-2 1.57813,-2.5 C2.00521,-3 2.61979,-3.57813 3.42188,-4.23438 C4.66146,-5.25521 5.5,-6.0651 5.9375,-6.66406 C6.375,-7.26302 6.59375,-7.82813 6.59375,-8.35938 C6.59375,-8.91146 6.39583,-9.38021 6,-9.76563 C5.60417,-10.151 5.08333,-10.3438 4.4375,-10.3438 C3.76042,-10.3438 3.21875,-10.1406 2.8125,-9.73438 C2.40625,-9.32813 2.20313,-8.76563 2.20313,-8.04688 L0.75,-8.1875 C0.854167,-9.27083 1.22917,-10.0938 1.875,-10.6563 C2.52083,-11.2188 3.38542,-11.5 4.46875,-11.5 C5.57292,-11.5 6.44531,-11.1953 7.08594,-10.5859 C7.72656,-9.97656 8.04688,-9.22396 8.04688,-8.32813 C8.04688,-7.86979 7.95313,-7.41927 7.76563,-6.97656 C7.57813,-6.53385 7.26563,-6.06771 6.82813,-5.57813 C6.39063,-5.08854 5.66667,-4.41667 4.65625,-3.5625 C3.8125,-2.85417 3.27083,-2.3724 3.03125,-2.11719 C2.79167,-1.86198 2.59375,-1.60938 2.4375,-1.35938 L8.0625,-1.35938"/>
</g>

<g fill="#d9d9d9" fill-opacity="1" stroke="none" transform="matrix(0.6,0,0,0.6,229.05,396.4)"
font-family="MS Shell Dlg 2" font-size="7.8" font-weight="400" font-style="normal" 
>
<path vector-effect="none" fill-rule="evenodd" d="M5.17188,0 L5.17188,-2.75 L0.203125,-2.75 L0.203125,-4.03125 L5.4375,-11.4531 L6.57813,-11.4531 L6.57813,-4.03125 L8.125,-4.03125 L8.125,-2.75 L6.57813,-2.75 L6.57813,0 L5.17188,0 M5.17188,-4.03125 L5.17188,-9.20313 L1.59375,-4.03125 L5.17188,-4.03125"/>
</g>

<g fill="#d9d9d9" fill-opacity="1" stroke="none" transform="matrix(0.6,0,0,0.6,298.425,396.4)"
font-family="MS Shell Dlg 2" font-size="7.8" font-weight="400" font-style="normal" 
>
<path vector-effect="none" fill-rule="evenodd" d="M7.96875,-8.65625 L6.5625,-8.54688 C6.4375,-9.09896 6.26042,-9.5 6.03125,-9.75 C5.65625,-10.1458 5.1875,-10.3438 4.625,-10.3438 C4.17708,-10.3438 3.78646,-10.2188 3.45313,-9.96875 C3.00521,-9.64583 2.65365,-9.17448 2.39844,-8.55469 C2.14323,-7.9349 2.01042,-7.05208 2,-5.90625 C2.34375,-6.42708 2.76042,-6.8125 3.25,-7.0625 C3.73958,-7.3125 4.25,-7.4375 4.78125,-7.4375 C5.71875,-7.4375 6.51823,-7.09115 7.17969,-6.39844 C7.84115,-5.70573 8.17188,-4.8125 8.17188,-3.71875 C8.17188,-3 8.01563,-2.33333 7.70313,-1.71875 C7.39063,-1.10417 6.96354,-0.630208 6.42188,-0.296875 C5.88021,0.0364583 5.26563,0.203125 4.57813,0.203125 C3.41146,0.203125 2.45833,-0.229167 1.71875,-1.09375 C0.979167,-1.95833 0.609375,-3.38021 0.609375,-5.35938 C0.609375,-7.57813 1.01563,-9.1875 1.82813,-10.1875 C2.54688,-11.0625 3.51042,-11.5 4.71875,-11.5 C5.61458,-11.5 6.35156,-11.2474 6.92969,-10.7422 C7.50781,-10.237 7.85417,-9.54167 7.96875,-8.65625 M2.21875,-3.71875 C2.21875,-3.22917 2.32292,-2.76302 2.53125,-2.32031 C2.73958,-1.8776 3.02865,-1.54167 3.39844,-1.3125 C3.76823,-1.08333 4.15625,-0.96875 4.5625,-0.96875 C5.15625,-0.96875 5.66667,-1.20833 6.09375,-1.6875 C6.52083,-2.16667 6.73438,-2.81771 6.73438,-3.64063 C6.73438,-4.43229 6.52344,-5.05469 6.10156,-5.50781 C5.67969,-5.96094 5.14583,-6.1875 4.5,-6.1875 C3.86458,-6.1875 3.32552,-5.96094 2.88281,-5.50781 C2.4401,-5.05469 2.21875,-4.45833 2.21875,-3.71875 "/>
</g>

<g fill="#d9d9d9" fill-opacity="1" stroke="none" transform="matrix(0.6,0,0,0.6,367.8,396.4)"
font-family="MS Shell Dlg 2" font-size="7.8" font-weight="400" font-style="normal" 
>
<path vector-effect="none" fill-rule="evenodd" d="M2.82813,-6.21875 C2.24479,-6.42708 1.8125,-6.72917 1.53125,-7.125 C1.25,-7.52083 1.10938,-7.99479 1.10938,-8.54688 C1.10938,-9.38021 1.40885,-10.0807 2.00781,-10.6484 C2.60677,-11.2161 3.40625,-11.5 4.40625,-11.5 C5.40625,-11.5 6.21094,-11.2109 6.82031,-10.6328 C7.42969,-10.0547 7.73438,-9.34896 7.73438,-8.51563 C7.73438,-7.98438 7.59375,-7.52083 7.3125,-7.125 C7.03125,-6.72917 6.60938,-6.42708 6.04688,-6.21875 C6.74479,-5.98958 7.27865,-5.61979 7.64844,-5.10938 C8.01823,-4.59896 8.20313,-3.98958 8.20313,-3.28125 C8.20313,-2.30208 7.85677,-1.47656 7.16406,-0.804688 C6.47135,-0.132813 5.55729,0.203125 4.42188,0.203125 C3.29688,0.203125 2.38802,-0.132813 1.69531,-0.804688 C1.0026,-1.47656 0.65625,-2.3125 0.65625,-3.3125 C0.65625,-4.0625 0.84375,-4.6875 1.21875,-5.1875 C1.59375,-5.6875 2.13021,-6.03125 2.82813,-6.21875 M2.54688,-8.59375 C2.54688,-8.05208 2.72135,-7.60938 3.07031,-7.26563 C3.41927,-6.92188 3.875,-6.75 4.4375,-6.75 C4.97917,-6.75 5.42188,-6.92188 5.76563,-7.26563 C6.10938,-7.60938 6.28125,-8.02604 6.28125,-8.51563 C6.28125,-9.03646 6.10417,-9.47135 5.75,-9.82031 C5.39583,-10.1693 4.95313,-10.3438 4.42188,-10.3438 C3.88021,-10.3438 3.43229,-10.1719 3.07813,-9.82813 C2.72396,-9.48438 2.54688,-9.07292 2.54688,-8.59375 M2.09375,-3.3125 C2.09375,-2.90625 2.1901,-2.51563 2.38281,-2.14063 C2.57552,-1.76563 2.85938,-1.47656 3.23438,-1.27344 C3.60938,-1.07031 4.01042,-0.96875 4.4375,-0.96875 C5.11458,-0.96875 5.67188,-1.1849 6.10938,-1.61719 C6.54688,-2.04948 6.76563,-2.59896 6.76563,-3.26563 C6.76563,-3.94271 6.53906,-4.5026 6.08594,-4.94531 C5.63281,-5.38802 5.06771,-5.60938 4.39063,-5.60938 C3.73438,-5.60938 3.1875,-5.39063 2.75,-4.95313 C2.3125,-4.51563 2.09375,-3.96875 2.09375,-3.3125 "/>
</g>

<g fill="#d9d9d9" fill-opacity="1" stroke="none" transform="matrix(0.6,0,0,0.6,434.475,396.4)"
font-family="MS Shell Dlg 2" font-size="7.8" font-weight="400" font-style="normal" 
>
<path vector-effect="none" fill-rule="evenodd" d="M5.96875,0 L4.5625,0 L4.5625,-8.96875 C4.21875,-8.64583 3.77344,-8.32292 3.22656,-8 C2.67969,-7.67708 2.1875,-7.43229 1.75,-7.26563 L1.75,-8.625 C2.53125,-9 3.21615,-9.45052 3.80469,-9.97656 C4.39323,-10.5026 4.8125,-11.0104 5.0625,-11.5 L5.96875,-11.5 L5.96875,0 M9.67188,-5.65625 C9.67188,-7.01042 9.8099,-8.09896 10.0859,-8.92188 C10.362,-9.74479 10.776,-10.3802 11.3281,-10.8281 C11.8802,-11.276 12.5729,-11.5 13.4063,-11.5 C14.0208,-11.5 14.5599,-11.3776 15.0234,-11.1328 C15.487,-10.888 15.8698,-10.5313 16.1719,-10.0625 C16.474,-9.59375 16.7109,-9.02604 16.8828,-8.35938 C17.0547,-7.69271 17.1406,-6.79167 17.1406,-5.65625 C17.1406,-4.3125 17.0026,-3.22656 16.7266,-2.39844 C16.4505,-1.57031 16.0365,-0.929688 15.4844,-0.476563 C14.9323,-0.0234375 14.2396,0.203125 13.4063,0.203125 C12.3021,0.203125 11.4323,-0.197917 10.7969,-1 C10.0469,-1.94792 9.67188,-3.5 9.67188,-5.65625 M11.1094,-5.65625 C11.1094,-3.77083 11.3307,-2.51823 11.7734,-1.89844 C12.2161,-1.27865 12.7604,-0.96875 13.4063,-0.96875 C14.0521,-0.96875 14.5938,-1.28125 15.0313,-1.90625 C15.4688,-2.53125 15.6875,-3.78125 15.6875,-5.65625 C15.6875,-7.54167 15.4688,-8.79427 15.0313,-9.41406 C14.5938,-10.0339 14.0469,-10.3438 13.3906,-10.3438 C12.7448,-10.3438 12.2292,-10.0677 11.8438,-9.51563 C11.3542,-8.81771 11.1094,-7.53125 11.1094,-5.65625 "/>
</g>

<g fill="#d9d9d9" fill-opacity="1" stroke="none" transform="matrix(0.6,0,0,0.6,503.85,396.4)"
font-family="MS Shell Dlg 2" font-size="7.8" font-weight="400" font-style="normal" 
>
<path vector-effect="none" fill-rule="evenodd" d="M5.96875,0 L4.5625,0 L4.5625,-8.96875 C4.21875,-8.64583 3.77344,-8.32292 3.22656,-8 C2.67969,-7.67708 2.1875,-7.43229 1.75,-7.26563 L1.75,-8.625 C2.53125,-9 3.21615,-9.45052 3.80469,-9.97656 C4.39323,-10.5026 4.8125,-11.0104 5.0625,-11.5 L5.96875,-11.5 L5.96875,0 M17.0625,-1.35938 L17.0625,0 L9.48438,0 C9.47396,-0.34375 9.53125,-0.671875 9.65625,-0.984375 C9.84375,-1.49479 10.151,-2 10.5781,-2.5 C11.0052,-3 11.6198,-3.57813 12.4219,-4.23438 C13.6615,-5.25521 14.5,-6.0651 14.9375,-6.66406 C15.375,-7.26302 15.5938,-7.82813 15.5938,-8.35938 C15.5938,-8.91146 15.3958,-9.38021 15,-9.76563 C14.6042,-10.151 14.0833,-10.3438 13.4375,-10.3438 C12.7604,-10.3438 12.2188,-10.1406 11.8125,-9.73438 C11.4063,-9.32813 11.2031,-8.76563 11.2031,-8.04688 L9.75,-8.1875 C9.85417,-9.27083 10.2292,-10.0938 10.875,-10.6563 C11.5208,-11.2188 12.3854,-11.5 13.4688,-11.5 C14.5729,-11.5 15.4453,-11.1953 16.0859,-10.5859 C16.7266,-9.97656 17.0469,-9.22396 17.0469,-8.32813 C17.0469,-7.86979 16.9531,-7.41927 16.7656,-6.97656 C16.5781,-6.53385 16.2656,-6.06771 15.8281,-5.57813 C15.3906,-5.08854 14.6667,-4.41667 13.6563,-3.5625 C12.8125,-2.85417 12.2708,-2.3724 12.0313,-2.11719 C11.7917,-1.86198 11.5938,-1.60938 11.4375,-1.35938 L17.0625,-1.35938"/>
</g>

<g fill="#d9d9d9" fill-opacity="1" stroke="none" transform="matrix(0.6,0,0,0.6,573.225,396.4)"
font-family="MS Shell Dlg 2" font-size="7.8" font-weight="400" font-style="normal" 
>
<path vector-effect="none" fill-rule="evenodd" d="M5.96875,0 L4.5625,0 L4.5625,-8.96875 C4.21875,-8.64583 3.77344,-8.32292 3.22656,-8 C2.67969,-7.67708 2.1875,-7.43229 1.75,-7.26563 L1.75,-8.625 C2.53125,-9 3.21615,-9.45052 3.80469,-9.97656 C4.39323,-10.5026 4.8125,-11.0104 5.0625,-11.5 L5.96875,-11.5 L5.96875,0 M14.1719,0 L14.1719,-2.75 L9.20313,-2.75 L9.20313,-4.03125 L14.4375,-11.4531 L15.5781,-11.4531 L15.5781,-4.03125 L17.125,-4.03125 L17.125,-2.75 L15.5781,-2.75 L15.5781,0 L14.1719,0 M14.1719,-4.03125 L14.1719,-9.20313 L10.5938,-4.03125 L14.1719,-4.03125"/>
</g>

<g fill="#d9d9d9" fill-opacity="1" stroke="none" transform="matrix(0.6,0,0,0.6,642.6,396.4)"
font-family="MS Shell Dlg 2" font-size="7.8" font-weight="400" font-style="normal" 
>
<path vector-effect="none" fill-rule="evenodd" d="M5.96875,0 L4.5625,0 L4.5625,-8.96875 C4.21875,-8.64583 3.77344,-8.32292 3.22656,-8 C2.67969,-7.67708 2.1875,-7.43229 1.75,-7.26563 L1.75,-8.625 C2.53125,-9 3.21615,-9.45052 3.80469,-9.97656 C4.39323,-10.5026 4.8125,-11.0104 5.0625,-11.5 L5.96875,-11.5 L5.96875,0 M16.9688,-8.65625 L15.5625,-8.54688 C15.4375,-9.09896 15.2604,-9.5 15.0313,-9.75 C14.6563,-10.1458 14.1875,-10.3438 13.625,-10.3438 C13.1771,-10.3438 12.7865,-10.2188 12.4531,-9.96875 C12.0052,-9.64583 11.6536,-9.17448 11.3984,-8.55469 C11.1432,-7.9349 11.0104,-7.05208 11,-5.90625 C11.3438,-6.42708 11.7604,-6.8125 12.25,-7.0625 C12.7396,-7.3125 13.25,-7.4375 13.7813,-7.4375 C14.7188,-7.4375 15.5182,-7.09115 16.1797,-6.39844 C16.8411,-5.70573 17.1719,-4.8125 17.1719,-3.71875 C17.1719,-3 17.0156,-2.33333 16.7031,-1.71875 C16.3906,-1.10417 15.9635,-0.630208 15.4219,-0.296875 C14.8802,0.0364583 14.2656,0.203125 13.5781,0.203125 C12.4115,0.203125 11.4583,-0.229167 10.7188,-1.09375 C9.97917,-1.95833 9.60938,-3.38021 9.60938,-5.35938 C9.60938,-7.57813 10.0156,-9.1875 10.8281,-10.1875 C11.5469,-11.0625 12.5104,-11.5 13.7188,-11.5 C14.6146,-11.5 15.3516,-11.2474 15.9297,-10.7422 C16.5078,-10.237 16.8542,-9.54167 16.9688,-8.65625 M11.2188,-3.71875 C11.2188,-3.22917 11.3229,-2.76302 11.5313,-2.32031 C11.7396,-1.8776 12.0286,-1.54167 12.3984,-1.3125 C12.7682,-1.08333 13.1563,-0.96875 13.5625,-0.96875 C14.1563,-0.96875 14.6667,-1.20833 15.0938,-1.6875 C15.5208,-2.16667 15.7344,-2.81771 15.7344,-3.64063 C15.7344,-4.43229 15.5234,-5.05469 15.1016,-5.50781 C14.6797,-5.96094 14.1458,-6.1875 13.5,-6.1875 C12.8646,-6.1875 12.3255,-5.96094 11.8828,-5.50781 C11.4401,-5.05469 11.2188,-4.45833 11.2188,-3.71875 "/>
</g>

<g fill="#d9d9d9" fill-opacity="1" stroke="#d9d9d9" stroke-opacity="1" stroke-width="0.833333" stroke-linecap="square" stroke-linejoin="round" transform="matrix(0.6,0,0,0.6,0,0)"
font-family="MS Shell Dlg 2" font-size="7.8" font-weight="400" font-style="normal" 
>
<polyline fill="none" vector-effect="none" points="155,639 155,53.9998 " />
<polyline fill="none" vector-effect="none" points="1080,639 1080,53.9998 " />
<polyline fill="none" vector-effect="none" points="155,628.117 164.25,628.117 " />
<polyline fill="none" vector-effect="none" points="155,526.739 164.25,526.739 " />
<polyline fill="none" vector-effect="none" points="155,425.361 164.25,425.361 " />
<polyline fill="none" vector-effect="none" points="155,323.983 164.25,323.983 " />
<polyline fill="none" vector-effect="none" points="155,222.605 164.25,222.605 " />
<polyline fill="none" vector-effect="none" points="155,121.227 164.25,121.227 " />
<polyline fill="none" vector-effect="none" points="1080,628.117 1070.75,628.117 " />
<polyline fill="none" vector-effect="none" points="1080,526.739 1070.75,526.739 " />
<polyline fill="none" vector-effect="none" points="1080,425.361 1070.75,425.361 " />
<polyline fill="none" vector-effect="none" points="1080,323.983 1070.75,323.983 " />
<polyline fill="none" vector-effect="none" points="1080,222.605 1070.75,222.605 " />
<polyline fill="none" vector-effect="none" points="1080,121.227 1070.75,121.227 " />
</g>

<g fill="#d9d9d9" fill-opacity="1" stroke="none" transform="matrix(0.6,0,0,0.6,72.8,380.17)"
font-family="MS Shell Dlg 2" font-size="7.8" font-weight="400" font-style="normal" 
>
<path vector-effect="none" fill-rule="evenodd" d="M0.515625,-3.4375 L0.515625,-4.85938 L4.82813,-4.85938 L4.82813,-3.4375 L0.515625,-3.4375 M10.9688,0 L9.5625,0 L9.5625,-8.96875 C9.21875,-8.64583 8.77344,-8.32292 8.22656,-8 C7.67969,-7.67708 7.1875,-7.43229 6.75,-7.26563 L6.75,-8.625 C7.53125,-9 8.21615,-9.45052 8.80469,-9.97656 C9.39323,-10.5026 9.8125,-11.0104 10.0625,-11.5 L10.9688,-11.5 L10.9688,0 M15.4531,0 L15.4531,-1.60938 L17.0625,-1.60938 L17.0625,0 L15.4531,0 M20.8281,-6.21875 C20.2448,-6.42708 19.8125,-6.72917 19.5313,-7.125 C19.25,-7.52083 19.1094,-7.99479 19.1094,-8.54688 C19.1094,-9.38021 19.4089,-10.0807 20.0078,-10.6484 C20.6068,-11.2161 21.4063,-11.5 22.4063,-11.5 C23.4063,-11.5 24.2109,-11.2109 24.8203,-10.6328 C25.4297,-10.0547 25.7344,-9.34896 25.7344,-8.51563 C25.7344,-7.98438 25.5938,-7.52083 25.3125,-7.125 C25.0313,-6.72917 24.6094,-6.42708 24.0469,-6.21875 C24.7448,-5.98958 25.2786,-5.61979 25.6484,-5.10938 C26.0182,-4.59896 26.2031,-3.98958 26.2031,-3.28125 C26.2031,-2.30208 25.8568,-1.47656 25.1641,-0.804688 C24.4714,-0.132813 23.5573,0.203125 22.4219,0.203125 C21.2969,0.203125 20.388,-0.132813 19.6953,-0.804688 C19.0026,-1.47656 18.6563,-2.3125 18.6563,-3.3125 C18.6563,-4.0625 18.8438,-4.6875 19.2188,-5.1875 C19.5938,-5.6875 20.1302,-6.03125 20.8281,-6.21875 M20.5469,-8.59375 C20.5469,-8.05208 20.7214,-7.60938 21.0703,-7.26563 C21.4193,-6.92188 21.875,-6.75 22.4375,-6.75 C22.9792,-6.75 23.4219,-6.92188 23.7656,-7.26563 C24.1094,-7.60938 24.2813,-8.02604 24.2813,-8.51563 C24.2813,-9.03646 24.1042,-9.47135 23.75,-9.82031 C23.3958,-10.1693 22.9531,-10.3438 22.4219,-10.3438 C21.8802,-10.3438 21.4323,-10.1719 21.0781,-9.82813 C20.724,-9.48438 20.5469,-9.07292 20.5469,-8.59375 M20.0938,-3.3125 C20.0938,-2.90625 20.1901,-2.51563 20.3828,-2.14063 C20.5755,-1.76563 20.8594,-1.47656 21.2344,-1.27344 C21.6094,-1.07031 22.0104,-0.96875 22.4375,-0.96875 C23.1146,-0.96875 23.6719,-1.1849 24.1094,-1.61719 C24.5469,-2.04948 24.7656,-2.59896 24.7656,-3.26563 C24.7656,-3.94271 24.5391,-4.5026 24.0859,-4.94531 C23.6328,-5.38802 23.0677,-5.60938 22.3906,-5.60938 C21.7344,-5.60938 21.1875,-5.39063 20.75,-4.95313 C20.3125,-4.51563 20.0938,-3.96875 20.0938,-3.3125 "/>
</g>

<g fill="#d9d9d9" fill-opacity="1" stroke="none" transform="matrix(0.6,0,0,0.6,67.4,319.343)"
font-family="MS Shell Dlg 2" font-size="7.8" font-weight="400" font-style="normal" 
>
<path vector-effect="none" fill-rule="evenodd" d="M0.515625,-3.4375 L0.515625,-4.85938 L4.82813,-4.85938 L4.82813,-3.4375 L0.515625,-3.4375 M10.9688,0 L9.5625,0 L9.5625,-8.96875 C9.21875,-8.64583 8.77344,-8.32292 8.22656,-8 C7.67969,-7.67708 7.1875,-7.43229 6.75,-7.26563 L6.75,-8.625 C7.53125,-9 8.21615,-9.45052 8.80469,-9.97656 C9.39323,-10.5026 9.8125,-11.0104 10.0625,-11.5 L10.9688,-11.5 L10.9688,0 M15.4531,0 L15.4531,-1.60938 L17.0625,-1.60938 L17.0625,0 L15.4531,0 M18.7656,-9.95313 L18.7656,-11.3125 L26.1719,-11.3125 L26.1719,-10.2188 C25.4427,-9.4375 24.7214,-8.40365 24.0078,-7.11719 C23.2943,-5.83073 22.7396,-4.51042 22.3438,-3.15625 C22.0625,-2.19792 21.8854,-1.14583 21.8125,0 L20.3594,0 C20.3802,-0.90625 20.5599,-1.9974 20.8984,-3.27344 C21.237,-4.54948 21.7214,-5.77865 22.3516,-6.96094 C22.9818,-8.14323 23.6563,-9.14063 24.375,-9.95313 L18.7656,-9.95313 M29.8281,-6.21875 C29.2448,-6.42708 28.8125,-6.72917 28.5313,-7.125 C28.25,-7.52083 28.1094,-7.99479 28.1094,-8.54688 C28.1094,-9.38021 28.4089,-10.0807 29.0078,-10.6484 C29.6068,-11.2161 30.4063,-11.5 31.4063,-11.5 C32.4063,-11.5 33.2109,-11.2109 33.8203,-10.6328 C34.4297,-10.0547 34.7344,-9.34896 34.7344,-8.51563 C34.7344,-7.98438 34.5938,-7.52083 34.3125,-7.125 C34.0313,-6.72917 33.6094,-6.42708 33.0469,-6.21875 C33.7448,-5.98958 34.2786,-5.61979 34.6484,-5.10938 C35.0182,-4.59896 35.2031,-3.98958 35.2031,-3.28125 C35.2031,-2.30208 34.8568,-1.47656 34.1641,-0.804688 C33.4714,-0.132813 32.5573,0.203125 31.4219,0.203125 C30.2969,0.203125 29.388,-0.132813 28.6953,-0.804688 C28.0026,-1.47656 27.6563,-2.3125 27.6563,-3.3125 C27.6563,-4.0625 27.8438,-4.6875 28.2188,-5.1875 C28.5938,-5.6875 29.1302,-6.03125 29.8281,-6.21875 M29.5469,-8.59375 C29.5469,-8.05208 29.7214,-7.60938 30.0703,-7.26563 C30.4193,-6.92188 30.875,-6.75 31.4375,-6.75 C31.9792,-6.75 32.4219,-6.92188 32.7656,-7.26563 C33.1094,-7.60938 33.2813,-8.02604 33.2813,-8.51563 C33.2813,-9.03646 33.1042,-9.47135 32.75,-9.82031 C32.3958,-10.1693 31.9531,-10.3438 31.4219,-10.3438 C30.8802,-10.3438 30.4323,-10.1719 30.0781,-9.82813 C29.724,-9.48438 29.5469,-9.07292 29.5469,-8.59375 M29.0938,-3.3125 C29.0938,-2.90625 29.1901,-2.51563 29.3828,-2.14063 C29.5755,-1.76563 29.8594,-1.47656 30.2344,-1.27344 C30.6094,-1.07031 31.0104,-0.96875 31.4375,-0.96875 C32.1146,-0.96875 32.6719,-1.1849 33.1094,-1.61719 C33.5469,-2.04948 33.7656,-2.59896 33.7656,-3.26563 C33.7656,-3.94271 33.5391,-4.5026 33.0859,-4.94531 C32.6328,-5.38802 32.0677,-5.60938 31.3906,-5.60938 C30.7344,-5.60938 30.1875,-5.39063 29.75,-4.95313 C29.3125,-4.51563 29.0938,-3.96875 29.0938,-3.3125 "/>
</g>

<g fill="#d9d9d9" fill-opacity="1" stroke="none" transform="matrix(0.6,0,0,0.6,67.4,258.517)"
font-family="MS Shell Dlg 2" font-size="7.8" font-weight="400" font-style="normal" 
>
<path vector-effect="none" fill-rule="evenodd" d="M0.515625,-3.4375 L0.515625,-4.85938 L4.82813,-4.85938 L4.82813,-3.4375 L0.515625,-3.4375 M10.9688,0 L9.5625,0 L9.5625,-8.96875 C9.21875,-8.64583 8.77344,-8.32292 8.22656,-8 C7.67969,-7.67708 7.1875,-7.43229 6.75,-7.26563 L6.75,-8.625 C7.53125,-9 8.21615,-9.45052 8.80469,-9.97656 C9.39323,-10.5026 9.8125,-11.0104 10.0625,-11.5 L10.9688,-11.5 L10.9688,0 M15.4531,0 L15.4531,-1.60938 L17.0625,-1.60938 L17.0625,0 L15.4531,0 M18.7656,-9.95313 L18.7656,-11.3125 L26.1719,-11.3125 L26.1719,-10.2188 C25.4427,-9.4375 24.7214,-8.40365 24.0078,-7.11719 C23.2943,-5.83073 22.7396,-4.51042 22.3438,-3.15625 C22.0625,-2.19792 21.8854,-1.14583 21.8125,0 L20.3594,0 C20.3802,-0.90625 20.5599,-1.9974 20.8984,-3.27344 C21.237,-4.54948 21.7214,-5.77865 22.3516,-6.96094 C22.9818,-8.14323 23.6563,-9.14063 24.375,-9.95313 L18.7656,-9.95313 M34.9688,-8.65625 L33.5625,-8.54688 C33.4375,-9.09896 33.2604,-9.5 33.0313,-9.75 C32.6563,-10.1458 32.1875,-10.3438 31.625,-10.3438 C31.1771,-10.3438 30.7865,-10.2188 30.4531,-9.96875 C30.0052,-9.64583 29.6536,-9.17448 29.3984,-8.55469 C29.1432,-7.9349 29.0104,-7.05208 29,-5.90625 C29.3438,-6.42708 29.7604,-6.8125 30.25,-7.0625 C30.7396,-7.3125 31.25,-7.4375 31.7813,-7.4375 C32.7188,-7.4375 33.5182,-7.09115 34.1797,-6.39844 C34.8411,-5.70573 35.1719,-4.8125 35.1719,-3.71875 C35.1719,-3 35.0156,-2.33333 34.7031,-1.71875 C34.3906,-1.10417 33.9635,-0.630208 33.4219,-0.296875 C32.8802,0.0364583 32.2656,0.203125 31.5781,0.203125 C30.4115,0.203125 29.4583,-0.229167 28.7188,-1.09375 C27.9792,-1.95833 27.6094,-3.38021 27.6094,-5.35938 C27.6094,-7.57813 28.0156,-9.1875 28.8281,-10.1875 C29.5469,-11.0625 30.5104,-11.5 31.7188,-11.5 C32.6146,-11.5 33.3516,-11.2474 33.9297,-10.7422 C34.5078,-10.237 34.8542,-9.54167 34.9688,-8.65625 M29.2188,-3.71875 C29.2188,-3.22917 29.3229,-2.76302 29.5313,-2.32031 C29.7396,-1.8776 30.0286,-1.54167 30.3984,-1.3125 C30.7682,-1.08333 31.1563,-0.96875 31.5625,-0.96875 C32.1563,-0.96875 32.6667,-1.20833 33.0938,-1.6875 C33.5208,-2.16667 33.7344,-2.81771 33.7344,-3.64063 C33.7344,-4.43229 33.5234,-5.05469 33.1016,-5.50781 C32.6797,-5.96094 32.1458,-6.1875 31.5,-6.1875 C30.8646,-6.1875 30.3255,-5.96094 29.8828,-5.50781 C29.4401,-5.05469 29.2188,-4.45833 29.2188,-3.71875 "/>
</g>

<g fill="#d9d9d9" fill-opacity="1" stroke="none" transform="matrix(0.6,0,0,0.6,67.4,197.69)"
font-family="MS Shell Dlg 2" font-size="7.8" font-weight="400" font-style="normal" 
>
<path vector-effect="none" fill-rule="evenodd" d="M0.515625,-3.4375 L0.515625,-4.85938 L4.82813,-4.85938 L4.82813,-3.4375 L0.515625,-3.4375 M10.9688,0 L9.5625,0 L9.5625,-8.96875 C9.21875,-8.64583 8.77344,-8.32292 8.22656,-8 C7.67969,-7.67708 7.1875,-7.43229 6.75,-7.26563 L6.75,-8.625 C7.53125,-9 8.21615,-9.45052 8.80469,-9.97656 C9.39323,-10.5026 9.8125,-11.0104 10.0625,-11.5 L10.9688,-11.5 L10.9688,0 M15.4531,0 L15.4531,-1.60938 L17.0625,-1.60938 L17.0625,0 L15.4531,0 M18.7656,-9.95313 L18.7656,-11.3125 L26.1719,-11.3125 L26.1719,-10.2188 C25.4427,-9.4375 24.7214,-8.40365 24.0078,-7.11719 C23.2943,-5.83073 22.7396,-4.51042 22.3438,-3.15625 C22.0625,-2.19792 21.8854,-1.14583 21.8125,0 L20.3594,0 C20.3802,-0.90625 20.5599,-1.9974 20.8984,-3.27344 C21.237,-4.54948 21.7214,-5.77865 22.3516,-6.96094 C22.9818,-8.14323 23.6563,-9.14063 24.375,-9.95313 L18.7656,-9.95313 M32.1719,0 L32.1719,-2.75 L27.2031,-2.75 L27.2031,-4.03125 L32.4375,-11.4531 L33.5781,-11.4531 L33.5781,-4.03125 L35.125,-4.03125 L35.125,-2.75 L33.5781,-2.75 L33.5781,0 L32.1719,0 M32.1719,-4.03125 L32.1719,-9.20313 L28.5938,-4.03125 L32.1719,-4.03125"/>
</g>

<g fill="#d9d9d9" fill-opacity="1" stroke="none" transform="matrix(0.6,0,0,0.6,67.4,136.863)"
font-family="MS Shell Dlg 2" font-size="7.8" font-weight="400" font-style="normal" 
>
<path vector-effect="none" fill-rule="evenodd" d="M0.515625,-3.4375 L0.515625,-4.85938 L4.82813,-4.85938 L4.82813,-3.4375 L0.515625,-3.4375 M10.9688,0 L9.5625,0 L9.5625,-8.96875 C9.21875,-8.64583 8.77344,-8.32292 8.22656,-8 C7.67969,-7.67708 7.1875,-7.43229 6.75,-7.26563 L6.75,-8.625 C7.53125,-9 8.21615,-9.45052 8.80469,-9.97656 C9.39323,-10.5026 9.8125,-11.0104 10.0625,-11.5 L10.9688,-11.5 L10.9688,0 M15.4531,0 L15.4531,-1.60938 L17.0625,-1.60938 L17.0625,0 L15.4531,0 M18.7656,-9.95313 L18.7656,-11.3125 L26.1719,-11.3125 L26.1719,-10.2188 C25.4427,-9.4375 24.7214,-8.40365 24.0078,-7.11719 C23.2943,-5.83073 22.7396,-4.51042 22.3438,-3.15625 C22.0625,-2.19792 21.8854,-1.14583 21.8125,0 L20.3594,0 C20.3802,-0.90625 20.5599,-1.9974 20.8984,-3.27344 C21.237,-4.54948 21.7214,-5.77865 22.3516,-6.96094 C22.9818,-8.14323 23.6563,-9.14063 24.375,-9.95313 L18.7656,-9.95313 M35.0625,-1.35938 L35.0625,0 L27.4844,0 C27.474,-0.34375 27.5313,-0.671875 27.6563,-0.984375 C27.8438,-1.49479 28.151,-2 28.5781,-2.5 C29.0052,-3 29.6198,-3.57813 30.4219,-4.23438 C31.6615,-5.25521 32.5,-6.0651 32.9375,-6.66406 C33.375,-7.26302 33.5938,-7.82813 33.5938,-8.35938 C33.5938,-8.91146 33.3958,-9.38021 33,-9.76563 C32.6042,-10.151 32.0833,-10.3438 31.4375,-10.3438 C30.7604,-10.3438 30.2188,-10.1406 29.8125,-9.73438 C29.4063,-9.32813 29.2031,-8.76563 29.2031,-8.04688 L27.75,-8.1875 C27.8542,-9.27083 28.2292,-10.0938 28.875,-10.6563 C29.5208,-11.2188 30.3854,-11.5 31.4688,-11.5 C32.5729,-11.5 33.4453,-11.1953 34.0859,-10.5859 C34.7266,-9.97656 35.0469,-9.22396 35.0469,-8.32813 C35.0469,-7.86979 34.9531,-7.41927 34.7656,-6.97656 C34.5781,-6.53385 34.2656,-6.06771 33.8281,-5.57813 C33.3906,-5.08854 32.6667,-4.41667 31.6563,-3.5625 C30.8125,-2.85417 30.2708,-2.3724 30.0313,-2.11719 C29.7917,-1.86198 29.5938,-1.60938 29.4375,-1.35938 L35.0625,-1.35938"/>
</g>

<g fill="#d9d9d9" fill-opacity="1" stroke="none" transform="matrix(0.6,0,0,0.6,72.8,76.036)"
font-family="MS Shell Dlg 2" font-size="7.8" font-weight="400" font-style="normal" 
>
<path vector-effect="none" fill-rule="evenodd" d="M0.515625,-3.4375 L0.515625,-4.85938 L4.82813,-4.85938 L4.82813,-3.4375 L0.515625,-3.4375 M10.9688,0 L9.5625,0 L9.5625,-8.96875 C9.21875,-8.64583 8.77344,-8.32292 8.22656,-8 C7.67969,-7.67708 7.1875,-7.43229 6.75,-7.26563 L6.75,-8.625 C7.53125,-9 8.21615,-9.45052 8.80469,-9.97656 C9.39323,-10.5026 9.8125,-11.0104 10.0625,-11.5 L10.9688,-11.5 L10.9688,0 M15.4531,0 L15.4531,-1.60938 L17.0625,-1.60938 L17.0625,0 L15.4531,0 M18.7656,-9.95313 L18.7656,-11.3125 L26.1719,-11.3125 L26.1719,-10.2188 C25.4427,-9.4375 24.7214,-8.40365 24.0078,-7.11719 C23.2943,-5.83073 22.7396,-4.51042 22.3438,-3.15625 C22.0625,-2.19792 21.8854,-1.14583 21.8125,0 L20.3594,0 C20.3802,-0.90625 20.5599,-1.9974 20.8984,-3.27344 C21.237,-4.54948 21.7214,-5.77865 22.3516,-6.96094 C22.9818,-8.14323 23.6563,-9.14063 24.375,-9.95313 L18.7656,-9.95313"/>
</g>

<g fill="#d9d9d9" fill-opacity="1" stroke="none" transform="matrix(0,-0.6,0.6,0,60.8,250.8)"
font-family="MS Shell Dlg 2" font-size="7.8" font-weight="400" font-style="normal" 
>
<path vector-effect="none" fill-rule="evenodd" d="M0.875,-6.28125 C0.875,-8.41667 1.44792,-10.0885 2.59375,-11.2969 C3.73958,-12.5052 5.22396,-13.1094 7.04688,-13.1094 C8.23438,-13.1094 9.30469,-12.8255 10.2578,-12.2578 C11.2109,-11.6901 11.9375,-10.8984 12.4375,-9.88281 C12.9375,-8.86719 13.1875,-7.71354 13.1875,-6.42188 C13.1875,-5.11979 12.9245,-3.95313 12.3984,-2.92188 C11.8724,-1.89063 11.125,-1.10938 10.1563,-0.578125 C9.1875,-0.046875 8.14583,0.21875 7.03125,0.21875 C5.82292,0.21875 4.73958,-0.0729167 3.78125,-0.65625 C2.82292,-1.23958 2.09896,-2.03906 1.60938,-3.05469 C1.11979,-4.07031 0.875,-5.14583 0.875,-6.28125 M2.625,-6.25 C2.625,-4.69792 3.04427,-3.47396 3.88281,-2.57813 C4.72135,-1.68229 5.76563,-1.23438 7.01563,-1.23438 C8.30729,-1.23438 9.36719,-1.6875 10.1953,-2.59375 C11.0234,-3.5 11.4375,-4.78125 11.4375,-6.4375 C11.4375,-7.47917 11.2604,-8.39323 10.9063,-9.17969 C10.5521,-9.96615 10.0339,-10.5729 9.35156,-11 C8.66927,-11.4271 7.90104,-11.6406 7.04688,-11.6406 C5.83854,-11.6406 4.79948,-11.2266 3.92969,-10.3984 C3.0599,-9.57031 2.625,-8.1875 2.625,-6.25 M16.6406,0 L15.1719,0 L15.1719,-12.8906 L16.7656,-12.8906 L16.7656,-8.28125 C17.4323,-9.125 18.2813,-9.54688 19.3125,-9.54688 C19.8854,-9.54688 20.4297,-9.42969 20.9453,-9.19531 C21.4609,-8.96094 21.8828,-8.63542 22.2109,-8.21875 C22.5391,-7.80208 22.7969,-7.29688 22.9844,-6.70313 C23.1719,-6.10938 23.2656,-5.47917 23.2656,-4.8125 C23.2656,-3.20833 22.8724,-1.96875 22.0859,-1.09375 C21.2995,-0.21875 20.349,0.21875 19.2344,0.21875 C18.1406,0.21875 17.276,-0.244792 16.6406,-1.17188 L16.6406,0 M16.625,-4.73438 C16.625,-3.61979 16.776,-2.8125 17.0781,-2.3125 C17.5781,-1.5 18.2552,-1.09375 19.1094,-1.09375 C19.7969,-1.09375 20.3932,-1.39323 20.8984,-1.99219 C21.4036,-2.59115 21.6563,-3.48438 21.6563,-4.67188 C21.6563,-5.89063 21.4141,-6.79167 20.9297,-7.375 C20.4453,-7.95833 19.8594,-8.25 19.1719,-8.25 C18.4844,-8.25 17.888,-7.94792 17.3828,-7.34375 C16.8776,-6.73958 16.625,-5.86979 16.625,-4.73438 M25.1719,-11.0469 L25.1719,-12.8906 L26.7656,-12.8906 L26.7656,-11.0469 L25.1719,-11.0469 M23.1719,3.625 L23.4688,2.28125 C23.7917,2.36458 24.0417,2.40625 24.2188,2.40625 C24.5417,2.40625 24.7813,2.29948 24.9375,2.08594 C25.0938,1.8724 25.1719,1.33333 25.1719,0.46875 L25.1719,-9.32813 L26.7656,-9.32813 L26.7656,0.515625 C26.7656,1.66146 26.6146,2.45833 26.3125,2.90625 C25.9271,3.48958 25.2917,3.78125 24.4063,3.78125 C23.9792,3.78125 23.5677,3.72917 23.1719,3.625 M35.5781,-3 L37.2188,-2.79688 C36.9583,-1.84896 36.4792,-1.10938 35.7813,-0.578125 C35.0833,-0.046875 34.1927,0.21875 33.1094,0.21875 C31.7448,0.21875 30.6615,-0.203125 29.8594,-1.04688 C29.0573,-1.89063 28.6563,-3.07292 28.6563,-4.59375 C28.6563,-6.15625 29.0599,-7.3724 29.8672,-8.24219 C30.6745,-9.11198 31.724,-9.54688 33.0156,-9.54688 C34.2656,-9.54688 35.2865,-9.1224 36.0781,-8.27344 C36.8698,-7.42448 37.2656,-6.22917 37.2656,-4.6875 C37.2656,-4.59375 37.2604,-4.45313 37.25,-4.26563 L30.2969,-4.26563 C30.349,-3.23438 30.638,-2.44792 31.1641,-1.90625 C31.6901,-1.36458 32.3385,-1.09375 33.1094,-1.09375 C33.6927,-1.09375 34.1901,-1.24479 34.6016,-1.54688 C35.013,-1.84896 35.3385,-2.33333 35.5781,-3 M30.375,-5.5625 L35.5938,-5.5625 C35.5208,-6.34375 35.3229,-6.93229 35,-7.32813 C34.4896,-7.94271 33.8333,-8.25 33.0313,-8.25 C32.3125,-8.25 31.7057,-8.00521 31.2109,-7.51563 C30.7161,-7.02604 30.4375,-6.375 30.375,-5.5625 M45.2813,-3.42188 L46.8281,-3.21875 C46.6615,-2.14583 46.2292,-1.30469 45.5313,-0.695313 C44.8333,-0.0859375 43.974,0.21875 42.9531,0.21875 C41.6719,0.21875 40.6432,-0.200521 39.8672,-1.03906 C39.0911,-1.8776 38.7031,-3.07292 38.7031,-4.625 C38.7031,-5.63542 38.8698,-6.51823 39.2031,-7.27344 C39.5365,-8.02865 40.0443,-8.59635 40.7266,-8.97656 C41.4089,-9.35677 42.151,-9.54688 42.9531,-9.54688 C43.974,-9.54688 44.8047,-9.28906 45.4453,-8.77344 C46.0859,-8.25781 46.5,-7.53125 46.6875,-6.59375 L45.1406,-6.35938 C44.9948,-6.98438 44.737,-7.45573 44.3672,-7.77344 C43.9974,-8.09115 43.5469,-8.25 43.0156,-8.25 C42.224,-8.25 41.5781,-7.96354 41.0781,-7.39063 C40.5781,-6.81771 40.3281,-5.91146 40.3281,-4.67188 C40.3281,-3.42188 40.5677,-2.51302 41.0469,-1.94531 C41.526,-1.3776 42.1563,-1.09375 42.9375,-1.09375 C43.5521,-1.09375 44.0677,-1.28385 44.4844,-1.66406 C44.901,-2.04427 45.1667,-2.63021 45.2813,-3.42188 M51.6406,-1.42188 L51.875,-0.015625 C51.4271,0.078125 51.026,0.125 50.6719,0.125 C50.099,0.125 49.6536,0.0338542 49.3359,-0.148438 C49.0182,-0.330729 48.7969,-0.570313 48.6719,-0.867188 C48.5469,-1.16406 48.4844,-1.78646 48.4844,-2.73438 L48.4844,-8.10938 L47.3125,-8.10938 L47.3125,-9.32813 L48.4844,-9.32813 L48.4844,-11.6406 L50.0469,-12.5938 L50.0469,-9.32813 L51.6406,-9.32813 L51.6406,-8.10938 L50.0469,-8.10938 L50.0469,-2.64063 C50.0469,-2.19271 50.0755,-1.90365 50.1328,-1.77344 C50.1901,-1.64323 50.2813,-1.54167 50.4063,-1.46875 C50.5313,-1.39583 50.7135,-1.35938 50.9531,-1.35938 C51.1198,-1.35938 51.349,-1.38021 51.6406,-1.42188 M53.2031,-11.0625 L53.2031,-12.8906 L54.7813,-12.8906 L54.7813,-11.0625 L53.2031,-11.0625 M53.2031,0 L53.2031,-9.32813 L54.7813,-9.32813 L54.7813,0 L53.2031,0 M59.7813,0 L56.2344,-9.32813 L57.9063,-9.32813 L59.9063,-3.75 C60.125,-3.14583 60.3229,-2.51563 60.5,-1.85938 C60.6458,-2.35938 60.8438,-2.95313 61.0938,-3.64063 L63.1563,-9.32813 L64.7969,-9.32813 L61.25,0 L59.7813,0 M72.5781,-3 L74.2188,-2.79688 C73.9583,-1.84896 73.4792,-1.10938 72.7813,-0.578125 C72.0833,-0.046875 71.1927,0.21875 70.1094,0.21875 C68.7448,0.21875 67.6615,-0.203125 66.8594,-1.04688 C66.0573,-1.89063 65.6563,-3.07292 65.6563,-4.59375 C65.6563,-6.15625 66.0599,-7.3724 66.8672,-8.24219 C67.6745,-9.11198 68.724,-9.54688 70.0156,-9.54688 C71.2656,-9.54688 72.2865,-9.1224 73.0781,-8.27344 C73.8698,-7.42448 74.2656,-6.22917 74.2656,-4.6875 C74.2656,-4.59375 74.2604,-4.45313 74.25,-4.26563 L67.2969,-4.26563 C67.349,-3.23438 67.638,-2.44792 68.1641,-1.90625 C68.6901,-1.36458 69.3385,-1.09375 70.1094,-1.09375 C70.6927,-1.09375 71.1901,-1.24479 71.6016,-1.54688 C72.013,-1.84896 72.3385,-2.33333 72.5781,-3 M67.375,-5.5625 L72.5938,-5.5625 C72.5208,-6.34375 72.3229,-6.93229 72,-7.32813 C71.4896,-7.94271 70.8333,-8.25 70.0313,-8.25 C69.3125,-8.25 68.7057,-8.00521 68.2109,-7.51563 C67.7161,-7.02604 67.4375,-6.375 67.375,-5.5625 M81.5625,0 L81.5625,-8.10938 L80.1719,-8.10938 L80.1719,-9.32813 L81.5625,-9.32813 L81.5625,-10.3281 C81.5625,-10.9531 81.6198,-11.4167 81.7344,-11.7188 C81.8802,-12.1354 82.1458,-12.4714 82.5313,-12.7266 C82.9167,-12.9818 83.4583,-13.1094 84.1563,-13.1094 C84.5938,-13.1094 85.0833,-13.0573 85.625,-12.9531 L85.3906,-11.5625 C85.0573,-11.625 84.7448,-11.6563 84.4531,-11.6563 C83.974,-11.6563 83.6354,-11.5547 83.4375,-11.3516 C83.2396,-11.1484 83.1406,-10.7656 83.1406,-10.2031 L83.1406,-9.32813 L84.9531,-9.32813 L84.9531,-8.10938 L83.1406,-8.10938 L83.1406,0 L81.5625,0 M92.2969,0 L92.2969,-1.375 C91.5781,-0.3125 90.5938,0.21875 89.3438,0.21875 C88.7917,0.21875 88.276,0.111979 87.7969,-0.101563 C87.3177,-0.315104 86.9635,-0.580729 86.7344,-0.898438 C86.5052,-1.21615 86.3438,-1.60938 86.25,-2.07813 C86.1875,-2.39063 86.1563,-2.88021 86.1563,-3.54688 L86.1563,-9.32813 L87.7344,-9.32813 L87.7344,-4.15625 C87.7344,-3.33333 87.7656,-2.77604 87.8281,-2.48438 C87.9323,-2.06771 88.1458,-1.74219 88.4688,-1.50781 C88.7917,-1.27344 89.1875,-1.15625 89.6563,-1.15625 C90.1354,-1.15625 90.5833,-1.27604 91,-1.51563 C91.4167,-1.75521 91.7109,-2.08594 91.8828,-2.50781 C92.0547,-2.92969 92.1406,-3.53646 92.1406,-4.32813 L92.1406,-9.32813 L93.7188,-9.32813 L93.7188,0 L92.2969,0 M96.1875,0 L96.1875,-9.32813 L97.6094,-9.32813 L97.6094,-8 C98.2969,-9.03125 99.2865,-9.54688 100.578,-9.54688 C101.141,-9.54688 101.659,-9.44531 102.133,-9.24219 C102.607,-9.03906 102.961,-8.77344 103.195,-8.44531 C103.43,-8.11719 103.594,-7.72917 103.688,-7.28125 C103.74,-6.98958 103.766,-6.47396 103.766,-5.73438 L103.766,0 L102.188,0 L102.188,-5.67188 C102.188,-6.31771 102.128,-6.80208 102.008,-7.125 C101.888,-7.44792 101.669,-7.70313 101.352,-7.89063 C101.034,-8.07813 100.667,-8.17188 100.25,-8.17188 C99.5729,-8.17188 98.9896,-7.95833 98.5,-7.53125 C98.0104,-7.10417 97.7656,-6.29167 97.7656,-5.09375 L97.7656,0 L96.1875,0 M112.281,-3.42188 L113.828,-3.21875 C113.661,-2.14583 113.229,-1.30469 112.531,-0.695313 C111.833,-0.0859375 110.974,0.21875 109.953,0.21875 C108.672,0.21875 107.643,-0.200521 106.867,-1.03906 C106.091,-1.8776 105.703,-3.07292 105.703,-4.625 C105.703,-5.63542 105.87,-6.51823 106.203,-7.27344 C106.536,-8.02865 107.044,-8.59635 107.727,-8.97656 C108.409,-9.35677 109.151,-9.54688 109.953,-9.54688 C110.974,-9.54688 111.805,-9.28906 112.445,-8.77344 C113.086,-8.25781 113.5,-7.53125 113.688,-6.59375 L112.141,-6.35938 C111.995,-6.98438 111.737,-7.45573 111.367,-7.77344 C110.997,-8.09115 110.547,-8.25 110.016,-8.25 C109.224,-8.25 108.578,-7.96354 108.078,-7.39063 C107.578,-6.81771 107.328,-5.91146 107.328,-4.67188 C107.328,-3.42188 107.568,-2.51302 108.047,-1.94531 C108.526,-1.3776 109.156,-1.09375 109.938,-1.09375 C110.552,-1.09375 111.068,-1.28385 111.484,-1.66406 C111.901,-2.04427 112.167,-2.63021 112.281,-3.42188 M118.641,-1.42188 L118.875,-0.015625 C118.427,0.078125 118.026,0.125 117.672,0.125 C117.099,0.125 116.654,0.0338542 116.336,-0.148438 C116.018,-0.330729 115.797,-0.570313 115.672,-0.867188 C115.547,-1.16406 115.484,-1.78646 115.484,-2.73438 L115.484,-8.10938 L114.313,-8.10938 L114.313,-9.32813 L115.484,-9.32813 L115.484,-11.6406 L117.047,-12.5938 L117.047,-9.32813 L118.641,-9.32813 L118.641,-8.10938 L117.047,-8.10938 L117.047,-2.64063 C117.047,-2.19271 117.076,-1.90365 117.133,-1.77344 C117.19,-1.64323 117.281,-1.54167 117.406,-1.46875 C117.531,-1.39583 117.714,-1.35938 117.953,-1.35938 C118.12,-1.35938 118.349,-1.38021 118.641,-1.42188 M120.203,-11.0625 L120.203,-12.8906 L121.781,-12.8906 L121.781,-11.0625 L120.203,-11.0625 M120.203,0 L120.203,-9.32813 L121.781,-9.32813 L121.781,0 L120.203,0 M123.594,-4.67188 C123.594,-6.40104 124.078,-7.68229 125.047,-8.51563 C125.849,-9.20313 126.823,-9.54688 127.969,-9.54688 C129.26,-9.54688 130.313,-9.125 131.125,-8.28125 C131.938,-7.4375 132.344,-6.27604 132.344,-4.79688 C132.344,-3.59896 132.164,-2.65625 131.805,-1.96875 C131.445,-1.28125 130.922,-0.744792 130.234,-0.359375 C129.547,0.0260417 128.792,0.21875 127.969,0.21875 C126.667,0.21875 125.612,-0.200521 124.805,-1.03906 C123.997,-1.8776 123.594,-3.08854 123.594,-4.67188 M125.219,-4.67188 C125.219,-3.47396 125.479,-2.57813 126,-1.98438 C126.521,-1.39063 127.177,-1.09375 127.969,-1.09375 C128.76,-1.09375 129.417,-1.39323 129.938,-1.99219 C130.458,-2.59115 130.719,-3.5 130.719,-4.71875 C130.719,-5.875 130.456,-6.75 129.93,-7.34375 C129.404,-7.9375 128.75,-8.23438 127.969,-8.23438 C127.177,-8.23438 126.521,-7.9375 126,-7.34375 C125.479,-6.75 125.219,-5.85938 125.219,-4.67188 M134.188,0 L134.188,-9.32813 L135.609,-9.32813 L135.609,-8 C136.297,-9.03125 137.286,-9.54688 138.578,-9.54688 C139.141,-9.54688 139.659,-9.44531 140.133,-9.24219 C140.607,-9.03906 140.961,-8.77344 141.195,-8.44531 C141.43,-8.11719 141.594,-7.72917 141.688,-7.28125 C141.74,-6.98958 141.766,-6.47396 141.766,-5.73438 L141.766,0 L140.188,0 L140.188,-5.67188 C140.188,-6.31771 140.128,-6.80208 140.008,-7.125 C139.888,-7.44792 139.669,-7.70313 139.352,-7.89063 C139.034,-8.07813 138.667,-8.17188 138.25,-8.17188 C137.573,-8.17188 136.99,-7.95833 136.5,-7.53125 C136.01,-7.10417 135.766,-6.29167 135.766,-5.09375 L135.766,0 L134.188,0"/>
</g>

<g fill="#d9d9d9" fill-opacity="1" stroke="none" transform="matrix(0.6,0,0,0.6,91.2,30)"
font-family="MS Shell Dlg 2" font-size="7.8" font-weight="400" font-style="normal" 
>
<path vector-effect="none" fill-rule="evenodd" d="M2.35938,-0.46875 C2.35938,-0.552083 2.38542,-0.625 2.4375,-0.6875 L5.76563,-4 L2.4375,-7.32813 C2.38542,-7.38021 2.35938,-7.45313 2.35938,-7.54688 C2.35938,-7.61979 2.39063,-7.6901 2.45313,-7.75781 C2.51563,-7.82552 2.58854,-7.85938 2.67188,-7.85938 C2.74479,-7.85938 2.82813,-7.82813 2.92188,-7.76563 L6.23438,-4.45313 L9.53125,-7.76563 C9.61458,-7.82813 9.69271,-7.85938 9.76563,-7.85938 C9.84896,-7.85938 9.92188,-7.82813 9.98438,-7.76563 C10.0469,-7.70313 10.0781,-7.63021 10.0781,-7.54688 C10.0781,-7.45313 10.0521,-7.38021 10,-7.32813 L6.67188,-4 L10,-0.6875 C10.0521,-0.625 10.0781,-0.552083 10.0781,-0.46875 C10.0781,-0.375 10.0469,-0.296875 9.98438,-0.234375 C9.92188,-0.171875 9.84896,-0.140625 9.76563,-0.140625 C9.68229,-0.140625 9.60417,-0.182292 9.53125,-0.265625 L6.23438,-3.5625 L2.92188,-0.265625 C2.83854,-0.182292 2.75521,-0.140625 2.67188,-0.140625 C2.58854,-0.140625 2.51563,-0.174479 2.45313,-0.242188 C2.39063,-0.309896 2.35938,-0.385417 2.35938,-0.46875 "/>
</g>

<g fill="#d9d9d9" fill-opacity="1" stroke="none" transform="matrix(0.6,0,0,0.6,98.4,30)"
font-family="MS Shell Dlg 2" font-size="7.8" font-weight="400" font-style="normal" 
>
<path vector-effect="none" fill-rule="evenodd" d="M5.96875,0 L4.5625,0 L4.5625,-8.96875 C4.21875,-8.64583 3.77344,-8.32292 3.22656,-8 C2.67969,-7.67708 2.1875,-7.43229 1.75,-7.26563 L1.75,-8.625 C2.53125,-9 3.21615,-9.45052 3.80469,-9.97656 C4.39323,-10.5026 4.8125,-11.0104 5.0625,-11.5 L5.96875,-11.5 L5.96875,0 M9.67188,-5.65625 C9.67188,-7.01042 9.8099,-8.09896 10.0859,-8.92188 C10.362,-9.74479 10.776,-10.3802 11.3281,-10.8281 C11.8802,-11.276 12.5729,-11.5 13.4063,-11.5 C14.0208,-11.5 14.5599,-11.3776 15.0234,-11.1328 C15.487,-10.888 15.8698,-10.5313 16.1719,-10.0625 C16.474,-9.59375 16.7109,-9.02604 16.8828,-8.35938 C17.0547,-7.69271 17.1406,-6.79167 17.1406,-5.65625 C17.1406,-4.3125 17.0026,-3.22656 16.7266,-2.39844 C16.4505,-1.57031 16.0365,-0.929688 15.4844,-0.476563 C14.9323,-0.0234375 14.2396,0.203125 13.4063,0.203125 C12.3021,0.203125 11.4323,-0.197917 10.7969,-1 C10.0469,-1.94792 9.67188,-3.5 9.67188,-5.65625 M11.1094,-5.65625 C11.1094,-3.77083 11.3307,-2.51823 11.7734,-1.89844 C12.2161,-1.27865 12.7604,-0.96875 13.4063,-0.96875 C14.0521,-0.96875 14.5938,-1.28125 15.0313,-1.90625 C15.4688,-2.53125 15.6875,-3.78125 15.6875,-5.65625 C15.6875,-7.54167 15.4688,-8.79427 15.0313,-9.41406 C14.5938,-10.0339 14.0469,-10.3438 13.3906,-10.3438 C12.7448,-10.3438 12.2292,-10.0677 11.8438,-9.51563 C11.3542,-8.81771 11.1094,-7.53125 11.1094,-5.65625 "/>
</g>

<g fill="#d9d9d9" fill-opacity="1" stroke="none" transform="matrix(0.6,0,0,0.6,109.2,25.2)"
font-family="MS Shell Dlg 2" font-size="7.8" font-weight="400" font-style="normal" 
>
<path vector-effect="none" fill-rule="evenodd" d="M0.609375,-8.09375 L0.609375,-9.1875 L6.64063,-9.1875 L6.64063,-8.29688 C6.04688,-7.66146 5.45833,-6.82292 4.875,-5.78125 C4.29167,-4.73958 3.84375,-3.66667 3.53125,-2.5625 C3.30208,-1.78125 3.15625,-0.927083 3.09375,0 L1.92188,0 C1.93229,-0.729167 2.07552,-1.61198 2.35156,-2.64844 C2.6276,-3.6849 3.02083,-4.6849 3.53125,-5.64844 C4.04167,-6.61198 4.58854,-7.42708 5.17188,-8.09375 L0.609375,-8.09375"/>
</g>

<g fill="#d9d9d9" fill-opacity="1" stroke="none" transform="matrix(0.6,0,0,0.6,252.9,28.3503)"
font-family="MS Shell Dlg 2" font-size="7.8" font-weight="400" font-style="normal" 
>
<path vector-effect="none" fill-rule="evenodd" d="M9.54688,-4.73438 L12.0781,-3.9375 C11.6927,-2.53125 11.0495,-1.48698 10.1484,-0.804688 C9.2474,-0.122396 8.10417,0.21875 6.71875,0.21875 C5.01042,0.21875 3.60677,-0.364583 2.50781,-1.53125 C1.40885,-2.69792 0.859375,-4.29688 0.859375,-6.32813 C0.859375,-8.47396 1.41146,-10.1406 2.51563,-11.3281 C3.61979,-12.5156 5.07292,-13.1094 6.875,-13.1094 C8.45833,-13.1094 9.73958,-12.6406 10.7188,-11.7031 C11.3125,-11.151 11.7552,-10.3594 12.0469,-9.32813 L9.46875,-8.71875 C9.3125,-9.38542 8.99219,-9.91146 8.50781,-10.2969 C8.02344,-10.6823 7.4375,-10.875 6.75,-10.875 C5.79167,-10.875 5.01563,-10.5339 4.42188,-9.85156 C3.82813,-9.16927 3.53125,-8.05729 3.53125,-6.51563 C3.53125,-4.89063 3.82552,-3.73177 4.41406,-3.03906 C5.0026,-2.34635 5.76563,-2 6.70313,-2 C7.39063,-2 7.98438,-2.22135 8.48438,-2.66406 C8.98438,-3.10677 9.33854,-3.79688 9.54688,-4.73438 M13.7188,-4.79688 C13.7188,-5.61979 13.9219,-6.41406 14.3281,-7.17969 C14.7344,-7.94531 15.3073,-8.53125 16.0469,-8.9375 C16.7865,-9.34375 17.6146,-9.54688 18.5313,-9.54688 C19.9375,-9.54688 21.0938,-9.08854 22,-8.17188 C22.9063,-7.25521 23.3594,-6.09375 23.3594,-4.6875 C23.3594,-3.28125 22.9036,-2.11198 21.9922,-1.17969 C21.0807,-0.247396 19.9323,0.21875 18.5469,0.21875 C17.6927,0.21875 16.8776,0.0234375 16.1016,-0.367188 C15.3255,-0.757813 14.7344,-1.32552 14.3281,-2.07031 C13.9219,-2.8151 13.7188,-3.72396 13.7188,-4.79688 M16.25,-4.67188 C16.25,-3.74479 16.4714,-3.03385 16.9141,-2.53906 C17.3568,-2.04427 17.8958,-1.79688 18.5313,-1.79688 C19.1771,-1.79688 19.7188,-2.04427 20.1563,-2.53906 C20.5938,-3.03385 20.8125,-3.75 20.8125,-4.6875 C20.8125,-5.60417 20.5938,-6.30729 20.1563,-6.79688 C19.7188,-7.28646 19.1771,-7.53125 18.5313,-7.53125 C17.8958,-7.53125 17.3568,-7.28646 16.9141,-6.79688 C16.4714,-6.30729 16.25,-5.59896 16.25,-4.67188 M33.7813,0 L31.3125,0 L31.3125,-4.76563 C31.3125,-5.77604 31.2604,-6.42708 31.1563,-6.71875 C31.0521,-7.01042 30.8802,-7.23958 30.6406,-7.40625 C30.401,-7.57292 30.1146,-7.65625 29.7813,-7.65625 C29.3542,-7.65625 28.9714,-7.53906 28.6328,-7.30469 C28.2943,-7.07031 28.0625,-6.76042 27.9375,-6.375 C27.8125,-5.98958 27.75,-5.27604 27.75,-4.23438 L27.75,0 L25.2813,0 L25.2813,-9.32813 L27.5625,-9.32813 L27.5625,-7.96875 C28.3854,-9.02083 29.4115,-9.54688 30.6406,-9.54688 C31.1927,-9.54688 31.6927,-9.44792 32.1406,-9.25 C32.5885,-9.05208 32.9297,-8.80208 33.1641,-8.5 C33.3984,-8.19792 33.5599,-7.85156 33.6484,-7.46094 C33.737,-7.07031 33.7813,-6.51563 33.7813,-5.79688 L33.7813,0 M38.8594,0 L35.0938,-9.32813 L37.6875,-9.32813 L39.4531,-4.57813 L39.9531,-2.98438 C40.0885,-3.39063 40.1771,-3.65625 40.2188,-3.78125 C40.2917,-4.04167 40.375,-4.30729 40.4688,-4.57813 L42.25,-9.32813 L44.7969,-9.32813 L41.0781,0 L38.8594,0 M51.7031,-2.96875 L54.1563,-2.5625 C53.8438,-1.65625 53.3464,-0.966146 52.6641,-0.492188 C51.9818,-0.0182292 51.125,0.21875 50.0938,0.21875 C48.4688,0.21875 47.2708,-0.3125 46.5,-1.375 C45.8854,-2.22917 45.5781,-3.30208 45.5781,-4.59375 C45.5781,-6.14583 45.9818,-7.35938 46.7891,-8.23438 C47.5964,-9.10938 48.6198,-9.54688 49.8594,-9.54688 C51.2448,-9.54688 52.3385,-9.08854 53.1406,-8.17188 C53.9427,-7.25521 54.3281,-5.84896 54.2969,-3.95313 L48.1094,-3.95313 C48.1198,-3.22396 48.3151,-2.65625 48.6953,-2.25 C49.0755,-1.84375 49.5521,-1.64063 50.125,-1.64063 C50.5104,-1.64063 50.8359,-1.74479 51.1016,-1.95313 C51.3672,-2.16146 51.5677,-2.5 51.7031,-2.96875 M51.8438,-5.46875 C51.8229,-6.1875 51.6354,-6.73177 51.2813,-7.10156 C50.9271,-7.47135 50.5,-7.65625 50,-7.65625 C49.4583,-7.65625 49.0156,-7.45833 48.6719,-7.0625 C48.3177,-6.67708 48.1406,-6.14583 48.1406,-5.46875 L51.8438,-5.46875 M58.6563,0 L56.1875,0 L56.1875,-9.32813 L58.4844,-9.32813 L58.4844,-8 C58.8698,-8.63542 59.2214,-9.05208 59.5391,-9.25 C59.8568,-9.44792 60.2135,-9.54688 60.6094,-9.54688 C61.1719,-9.54688 61.7135,-9.39063 62.2344,-9.07813 L61.4688,-6.92188 C61.0521,-7.19271 60.6667,-7.32813 60.3125,-7.32813 C59.9688,-7.32813 59.6745,-7.23438 59.4297,-7.04688 C59.1849,-6.85938 58.9948,-6.51563 58.8594,-6.01563 C58.724,-5.51563 58.6563,-4.47396 58.6563,-2.89063 L58.6563,0 M63.0625,0.609375 L65.8906,0.953125 C65.9323,1.28646 66.0365,1.51563 66.2031,1.64063 C66.4427,1.81771 66.8125,1.90625 67.3125,1.90625 C67.9583,1.90625 68.4427,1.80729 68.7656,1.60938 C68.9844,1.48438 69.151,1.27604 69.2656,0.984375 C69.3385,0.776042 69.375,0.395833 69.375,-0.15625 L69.375,-1.51563 C68.6354,-0.505208 67.7031,0 66.5781,0 C65.3281,0 64.3333,-0.53125 63.5938,-1.59375 C63.0208,-2.42708 62.7344,-3.46875 62.7344,-4.71875 C62.7344,-6.28125 63.112,-7.47656 63.8672,-8.30469 C64.6224,-9.13281 65.5573,-9.54688 66.6719,-9.54688 C67.8281,-9.54688 68.7813,-9.04167 69.5313,-8.03125 L69.5313,-9.32813 L71.8438,-9.32813 L71.8438,-0.953125 C71.8438,0.140625 71.7526,0.960938 71.5703,1.50781 C71.388,2.05469 71.1328,2.48438 70.8047,2.79688 C70.4766,3.10938 70.0391,3.35156 69.4922,3.52344 C68.9453,3.69531 68.2552,3.78125 67.4219,3.78125 C65.8385,3.78125 64.7161,3.51042 64.0547,2.96875 C63.3932,2.42708 63.0625,1.74479 63.0625,0.921875 C63.0625,0.838542 63.0625,0.734375 63.0625,0.609375 M65.2656,-4.85938 C65.2656,-3.86979 65.4583,-3.14583 65.8438,-2.6875 C66.2292,-2.22917 66.7031,-2 67.2656,-2 C67.8698,-2 68.3802,-2.23438 68.7969,-2.70313 C69.2135,-3.17188 69.4219,-3.86979 69.4219,-4.79688 C69.4219,-5.76563 69.2214,-6.48438 68.8203,-6.95313 C68.4193,-7.42188 67.9167,-7.65625 67.3125,-7.65625 C66.7188,-7.65625 66.2292,-7.42708 65.8438,-6.96875 C65.4583,-6.51042 65.2656,-5.80729 65.2656,-4.85938 M79.7031,-2.96875 L82.1563,-2.5625 C81.8438,-1.65625 81.3464,-0.966146 80.6641,-0.492188 C79.9818,-0.0182292 79.125,0.21875 78.0938,0.21875 C76.4688,0.21875 75.2708,-0.3125 74.5,-1.375 C73.8854,-2.22917 73.5781,-3.30208 73.5781,-4.59375 C73.5781,-6.14583 73.9818,-7.35938 74.7891,-8.23438 C75.5964,-9.10938 76.6198,-9.54688 77.8594,-9.54688 C79.2448,-9.54688 80.3385,-9.08854 81.1406,-8.17188 C81.9427,-7.25521 82.3281,-5.84896 82.2969,-3.95313 L76.1094,-3.95313 C76.1198,-3.22396 76.3151,-2.65625 76.6953,-2.25 C77.0755,-1.84375 77.5521,-1.64063 78.125,-1.64063 C78.5104,-1.64063 78.8359,-1.74479 79.1016,-1.95313 C79.3672,-2.16146 79.5677,-2.5 79.7031,-2.96875 M79.8438,-5.46875 C79.8229,-6.1875 79.6354,-6.73177 79.2813,-7.10156 C78.9271,-7.47135 78.5,-7.65625 78,-7.65625 C77.4583,-7.65625 77.0156,-7.45833 76.6719,-7.0625 C76.3177,-6.67708 76.1406,-6.14583 76.1406,-5.46875 L79.8438,-5.46875 M92.7813,0 L90.3125,0 L90.3125,-4.76563 C90.3125,-5.77604 90.2604,-6.42708 90.1563,-6.71875 C90.0521,-7.01042 89.8802,-7.23958 89.6406,-7.40625 C89.401,-7.57292 89.1146,-7.65625 88.7813,-7.65625 C88.3542,-7.65625 87.9714,-7.53906 87.6328,-7.30469 C87.2943,-7.07031 87.0625,-6.76042 86.9375,-6.375 C86.8125,-5.98958 86.75,-5.27604 86.75,-4.23438 L86.75,0 L84.2813,0 L84.2813,-9.32813 L86.5625,-9.32813 L86.5625,-7.96875 C87.3854,-9.02083 88.4115,-9.54688 89.6406,-9.54688 C90.1927,-9.54688 90.6927,-9.44792 91.1406,-9.25 C91.5885,-9.05208 91.9297,-8.80208 92.1641,-8.5 C92.3984,-8.19792 92.5599,-7.85156 92.6484,-7.46094 C92.737,-7.07031 92.7813,-6.51563 92.7813,-5.79688 L92.7813,0 M103.438,-6.57813 L101,-6.14063 C100.917,-6.61979 100.729,-6.98438 100.438,-7.23438 C100.146,-7.48438 99.7708,-7.60938 99.3125,-7.60938 C98.6979,-7.60938 98.2057,-7.39583 97.8359,-6.96875 C97.4661,-6.54167 97.2813,-5.82813 97.2813,-4.82813 C97.2813,-3.72396 97.4688,-2.94271 97.8438,-2.48438 C98.2188,-2.02604 98.7188,-1.79688 99.3438,-1.79688 C99.8125,-1.79688 100.195,-1.93229 100.492,-2.20313 C100.789,-2.47396 101,-2.93229 101.125,-3.57813 L103.547,-3.17188 C103.297,-2.05729 102.815,-1.21354 102.102,-0.640625 C101.388,-0.0677083 100.432,0.21875 99.2344,0.21875 C97.8698,0.21875 96.7813,-0.213542 95.9688,-1.07813 C95.1563,-1.94271 94.75,-3.13542 94.75,-4.65625 C94.75,-6.19792 95.1563,-7.39844 95.9688,-8.25781 C96.7813,-9.11719 97.8854,-9.54688 99.2813,-9.54688 C100.417,-9.54688 101.318,-9.30208 101.984,-8.8125 C102.651,-8.32292 103.135,-7.57813 103.438,-6.57813 M110.703,-2.96875 L113.156,-2.5625 C112.844,-1.65625 112.346,-0.966146 111.664,-0.492188 C110.982,-0.0182292 110.125,0.21875 109.094,0.21875 C107.469,0.21875 106.271,-0.3125 105.5,-1.375 C104.885,-2.22917 104.578,-3.30208 104.578,-4.59375 C104.578,-6.14583 104.982,-7.35938 105.789,-8.23438 C106.596,-9.10938 107.62,-9.54688 108.859,-9.54688 C110.245,-9.54688 111.339,-9.08854 112.141,-8.17188 C112.943,-7.25521 113.328,-5.84896 113.297,-3.95313 L107.109,-3.95313 C107.12,-3.22396 107.315,-2.65625 107.695,-2.25 C108.076,-1.84375 108.552,-1.64063 109.125,-1.64063 C109.51,-1.64063 109.836,-1.74479 110.102,-1.95313 C110.367,-2.16146 110.568,-2.5 110.703,-2.96875 M110.844,-5.46875 C110.823,-6.1875 110.635,-6.73177 110.281,-7.10156 C109.927,-7.47135 109.5,-7.65625 109,-7.65625 C108.458,-7.65625 108.016,-7.45833 107.672,-7.0625 C107.318,-6.67708 107.141,-6.14583 107.141,-5.46875 L110.844,-5.46875 M122.75,-12.8906 L122.75,-8.14063 C123.552,-9.07813 124.505,-9.54688 125.609,-9.54688 C126.182,-9.54688 126.695,-9.4401 127.148,-9.22656 C127.602,-9.01302 127.945,-8.74219 128.18,-8.41406 C128.414,-8.08594 128.573,-7.72396 128.656,-7.32813 C128.74,-6.93229 128.781,-6.3125 128.781,-5.46875 L128.781,0 L126.313,0 L126.313,-4.9375 C126.313,-5.91667 126.266,-6.53646 126.172,-6.79688 C126.078,-7.05729 125.911,-7.26563 125.672,-7.42188 C125.432,-7.57813 125.135,-7.65625 124.781,-7.65625 C124.375,-7.65625 124.01,-7.55729 123.688,-7.35938 C123.365,-7.16146 123.128,-6.86198 122.977,-6.46094 C122.826,-6.0599 122.75,-5.46354 122.75,-4.67188 L122.75,0 L120.281,0 L120.281,-12.8906 L122.75,-12.8906 M131.297,-10.5938 L131.297,-12.8906 L133.766,-12.8906 L133.766,-10.5938 L131.297,-10.5938 M131.297,0 L131.297,-9.32813 L133.766,-9.32813 L133.766,0 L131.297,0 M135.422,-2.65625 L137.906,-3.04688 C138.01,-2.56771 138.224,-2.20313 138.547,-1.95313 C138.87,-1.70313 139.318,-1.57813 139.891,-1.57813 C140.536,-1.57813 141.021,-1.69271 141.344,-1.92188 C141.552,-2.08854 141.656,-2.30729 141.656,-2.57813 C141.656,-2.76563 141.599,-2.92188 141.484,-3.04688 C141.359,-3.16146 141.083,-3.27083 140.656,-3.375 C138.667,-3.8125 137.406,-4.21354 136.875,-4.57813 C136.135,-5.07813 135.766,-5.78125 135.766,-6.6875 C135.766,-7.48958 136.086,-8.16667 136.727,-8.71875 C137.367,-9.27083 138.354,-9.54688 139.688,-9.54688 C140.969,-9.54688 141.919,-9.33854 142.539,-8.92188 C143.159,-8.50521 143.589,-7.89063 143.828,-7.07813 L141.5,-6.64063 C141.396,-7.00521 141.206,-7.28385 140.93,-7.47656 C140.654,-7.66927 140.255,-7.76563 139.734,-7.76563 C139.089,-7.76563 138.625,-7.67708 138.344,-7.5 C138.156,-7.36458 138.063,-7.19792 138.063,-7 C138.063,-6.82292 138.146,-6.67188 138.313,-6.54688 C138.531,-6.38021 139.297,-6.14844 140.609,-5.85156 C141.922,-5.55469 142.844,-5.1875 143.375,-4.75 C143.885,-4.3125 144.141,-3.70313 144.141,-2.92188 C144.141,-2.06771 143.784,-1.33073 143.07,-0.710938 C142.357,-0.0911458 141.297,0.21875 139.891,0.21875 C138.62,0.21875 137.615,-0.0416667 136.875,-0.5625 C136.135,-1.08333 135.651,-1.78125 135.422,-2.65625 M150.578,-9.32813 L150.578,-7.35938 L148.891,-7.35938 L148.891,-3.60938 C148.891,-2.84896 148.906,-2.40365 148.938,-2.27344 C148.969,-2.14323 149.042,-2.03906 149.156,-1.96094 C149.271,-1.88281 149.411,-1.84375 149.578,-1.84375 C149.797,-1.84375 150.125,-1.92188 150.563,-2.07813 L150.781,-0.15625 C150.198,0.09375 149.547,0.21875 148.828,0.21875 C148.38,0.21875 147.977,0.143229 147.617,-0.0078125 C147.258,-0.158854 146.995,-0.354167 146.828,-0.59375 C146.661,-0.833333 146.547,-1.15625 146.484,-1.5625 C146.432,-1.84375 146.406,-2.42188 146.406,-3.29688 L146.406,-7.35938 L145.266,-7.35938 L145.266,-9.32813 L146.406,-9.32813 L146.406,-11.1875 L148.891,-12.625 L148.891,-9.32813 L150.578,-9.32813 M151.719,-4.79688 C151.719,-5.61979 151.922,-6.41406 152.328,-7.17969 C152.734,-7.94531 153.307,-8.53125 154.047,-8.9375 C154.786,-9.34375 155.615,-9.54688 156.531,-9.54688 C157.938,-9.54688 159.094,-9.08854 160,-8.17188 C160.906,-7.25521 161.359,-6.09375 161.359,-4.6875 C161.359,-3.28125 160.904,-2.11198 159.992,-1.17969 C159.081,-0.247396 157.932,0.21875 156.547,0.21875 C155.693,0.21875 154.878,0.0234375 154.102,-0.367188 C153.326,-0.757813 152.734,-1.32552 152.328,-2.07031 C151.922,-2.8151 151.719,-3.72396 151.719,-4.79688 M154.25,-4.67188 C154.25,-3.74479 154.471,-3.03385 154.914,-2.53906 C155.357,-2.04427 155.896,-1.79688 156.531,-1.79688 C157.177,-1.79688 157.719,-2.04427 158.156,-2.53906 C158.594,-3.03385 158.813,-3.75 158.813,-4.6875 C158.813,-5.60417 158.594,-6.30729 158.156,-6.79688 C157.719,-7.28646 157.177,-7.53125 156.531,-7.53125 C155.896,-7.53125 155.357,-7.28646 154.914,-6.79688 C154.471,-6.30729 154.25,-5.59896 154.25,-4.67188 M165.656,0 L163.188,0 L163.188,-9.32813 L165.484,-9.32813 L165.484,-8 C165.87,-8.63542 166.221,-9.05208 166.539,-9.25 C166.857,-9.44792 167.214,-9.54688 167.609,-9.54688 C168.172,-9.54688 168.714,-9.39063 169.234,-9.07813 L168.469,-6.92188 C168.052,-7.19271 167.667,-7.32813 167.313,-7.32813 C166.969,-7.32813 166.674,-7.23438 166.43,-7.04688 C166.185,-6.85938 165.995,-6.51563 165.859,-6.01563 C165.724,-5.51563 165.656,-4.47396 165.656,-2.89063 L165.656,0 M169.125,-9.32813 L171.75,-9.32813 L173.984,-2.70313 L176.156,-9.32813 L178.719,-9.32813 L175.422,-0.359375 L174.844,1.28125 C174.625,1.82292 174.417,2.23698 174.219,2.52344 C174.021,2.8099 173.794,3.04167 173.539,3.21875 C173.284,3.39583 172.971,3.53385 172.602,3.63281 C172.232,3.73177 171.813,3.78125 171.344,3.78125 C170.865,3.78125 170.396,3.73438 169.938,3.64063 L169.719,1.70313 C170.104,1.77604 170.453,1.8125 170.766,1.8125 C171.339,1.8125 171.763,1.64583 172.039,1.3125 C172.315,0.979167 172.526,0.552083 172.672,0.03125 L169.125,-9.32813 M184.719,-4.79688 C184.719,-5.61979 184.922,-6.41406 185.328,-7.17969 C185.734,-7.94531 186.307,-8.53125 187.047,-8.9375 C187.786,-9.34375 188.615,-9.54688 189.531,-9.54688 C190.938,-9.54688 192.094,-9.08854 193,-8.17188 C193.906,-7.25521 194.359,-6.09375 194.359,-4.6875 C194.359,-3.28125 193.904,-2.11198 192.992,-1.17969 C192.081,-0.247396 190.932,0.21875 189.547,0.21875 C188.693,0.21875 187.878,0.0234375 187.102,-0.367188 C186.326,-0.757813 185.734,-1.32552 185.328,-2.07031 C184.922,-2.8151 184.719,-3.72396 184.719,-4.79688 M187.25,-4.67188 C187.25,-3.74479 187.471,-3.03385 187.914,-2.53906 C188.357,-2.04427 188.896,-1.79688 189.531,-1.79688 C190.177,-1.79688 190.719,-2.04427 191.156,-2.53906 C191.594,-3.03385 191.813,-3.75 191.813,-4.6875 C191.813,-5.60417 191.594,-6.30729 191.156,-6.79688 C190.719,-7.28646 190.177,-7.53125 189.531,-7.53125 C188.896,-7.53125 188.357,-7.28646 187.914,-6.79688 C187.471,-6.30729 187.25,-5.59896 187.25,-4.67188 M195.219,-9.32813 L196.578,-9.32813 L196.578,-10.0313 C196.578,-10.8229 196.661,-11.4115 196.828,-11.7969 C196.995,-12.1823 197.302,-12.4974 197.75,-12.7422 C198.198,-12.987 198.766,-13.1094 199.453,-13.1094 C200.161,-13.1094 200.849,-13 201.516,-12.7813 L201.188,-11.0625 C200.792,-11.1563 200.411,-11.2031 200.047,-11.2031 C199.693,-11.2031 199.438,-11.1198 199.281,-10.9531 C199.125,-10.7865 199.047,-10.4688 199.047,-10 L199.047,-9.32813 L200.891,-9.32813 L200.891,-7.39063 L199.047,-7.39063 L199.047,0 L196.578,0 L196.578,-7.39063 L195.219,-7.39063 L195.219,-9.32813 M211.578,-9.32813 L211.578,-7.35938 L209.891,-7.35938 L209.891,-3.60938 C209.891,-2.84896 209.906,-2.40365 209.938,-2.27344 C209.969,-2.14323 210.042,-2.03906 210.156,-1.96094 C210.271,-1.88281 210.411,-1.84375 210.578,-1.84375 C210.797,-1.84375 211.125,-1.92188 211.563,-2.07813 L211.781,-0.15625 C211.198,0.09375 210.547,0.21875 209.828,0.21875 C209.38,0.21875 208.977,0.143229 208.617,-0.0078125 C208.258,-0.158854 207.995,-0.354167 207.828,-0.59375 C207.661,-0.833333 207.547,-1.15625 207.484,-1.5625 C207.432,-1.84375 207.406,-2.42188 207.406,-3.29688 L207.406,-7.35938 L206.266,-7.35938 L206.266,-9.32813 L207.406,-9.32813 L207.406,-11.1875 L209.891,-12.625 L209.891,-9.32813 L211.578,-9.32813 M215.75,-12.8906 L215.75,-8.14063 C216.552,-9.07813 217.505,-9.54688 218.609,-9.54688 C219.182,-9.54688 219.695,-9.4401 220.148,-9.22656 C220.602,-9.01302 220.945,-8.74219 221.18,-8.41406 C221.414,-8.08594 221.573,-7.72396 221.656,-7.32813 C221.74,-6.93229 221.781,-6.3125 221.781,-5.46875 L221.781,0 L219.313,0 L219.313,-4.9375 C219.313,-5.91667 219.266,-6.53646 219.172,-6.79688 C219.078,-7.05729 218.911,-7.26563 218.672,-7.42188 C218.432,-7.57813 218.135,-7.65625 217.781,-7.65625 C217.375,-7.65625 217.01,-7.55729 216.688,-7.35938 C216.365,-7.16146 216.128,-6.86198 215.977,-6.46094 C215.826,-6.0599 215.75,-5.46354 215.75,-4.67188 L215.75,0 L213.281,0 L213.281,-12.8906 L215.75,-12.8906 M229.703,-2.96875 L232.156,-2.5625 C231.844,-1.65625 231.346,-0.966146 230.664,-0.492188 C229.982,-0.0182292 229.125,0.21875 228.094,0.21875 C226.469,0.21875 225.271,-0.3125 224.5,-1.375 C223.885,-2.22917 223.578,-3.30208 223.578,-4.59375 C223.578,-6.14583 223.982,-7.35938 224.789,-8.23438 C225.596,-9.10938 226.62,-9.54688 227.859,-9.54688 C229.245,-9.54688 230.339,-9.08854 231.141,-8.17188 C231.943,-7.25521 232.328,-5.84896 232.297,-3.95313 L226.109,-3.95313 C226.12,-3.22396 226.315,-2.65625 226.695,-2.25 C227.076,-1.84375 227.552,-1.64063 228.125,-1.64063 C228.51,-1.64063 228.836,-1.74479 229.102,-1.95313 C229.367,-2.16146 229.568,-2.5 229.703,-2.96875 M229.844,-5.46875 C229.823,-6.1875 229.635,-6.73177 229.281,-7.10156 C228.927,-7.47135 228.5,-7.65625 228,-7.65625 C227.458,-7.65625 227.016,-7.45833 226.672,-7.0625 C226.318,-6.67708 226.141,-6.14583 226.141,-5.46875 L229.844,-5.46875 M238.719,-4.79688 C238.719,-5.61979 238.922,-6.41406 239.328,-7.17969 C239.734,-7.94531 240.307,-8.53125 241.047,-8.9375 C241.786,-9.34375 242.615,-9.54688 243.531,-9.54688 C244.938,-9.54688 246.094,-9.08854 247,-8.17188 C247.906,-7.25521 248.359,-6.09375 248.359,-4.6875 C248.359,-3.28125 247.904,-2.11198 246.992,-1.17969 C246.081,-0.247396 244.932,0.21875 243.547,0.21875 C242.693,0.21875 241.878,0.0234375 241.102,-0.367188 C240.326,-0.757813 239.734,-1.32552 239.328,-2.07031 C238.922,-2.8151 238.719,-3.72396 238.719,-4.79688 M241.25,-4.67188 C241.25,-3.74479 241.471,-3.03385 241.914,-2.53906 C242.357,-2.04427 242.896,-1.79688 243.531,-1.79688 C244.177,-1.79688 244.719,-2.04427 245.156,-2.53906 C245.594,-3.03385 245.813,-3.75 245.813,-4.6875 C245.813,-5.60417 245.594,-6.30729 245.156,-6.79688 C244.719,-7.28646 244.177,-7.53125 243.531,-7.53125 C242.896,-7.53125 242.357,-7.28646 241.914,-6.79688 C241.471,-6.30729 241.25,-5.59896 241.25,-4.67188 M250.188,0 L250.188,-12.8906 L252.656,-12.8906 L252.656,-8.25 C253.417,-9.11458 254.318,-9.54688 255.359,-9.54688 C256.495,-9.54688 257.435,-9.13542 258.18,-8.3125 C258.924,-7.48958 259.297,-6.30729 259.297,-4.76563 C259.297,-3.17188 258.919,-1.94271 258.164,-1.07813 C257.409,-0.213542 256.49,0.21875 255.406,0.21875 C254.865,0.21875 254.336,0.0833333 253.82,-0.1875 C253.305,-0.458333 252.859,-0.854167 252.484,-1.375 L252.484,0 L250.188,0 M252.641,-4.875 C252.641,-3.90625 252.792,-3.1875 253.094,-2.71875 C253.521,-2.0625 254.089,-1.73438 254.797,-1.73438 C255.349,-1.73438 255.815,-1.96875 256.195,-2.4375 C256.576,-2.90625 256.766,-3.64063 256.766,-4.64063 C256.766,-5.70313 256.573,-6.47135 256.188,-6.94531 C255.802,-7.41927 255.307,-7.65625 254.703,-7.65625 C254.109,-7.65625 253.617,-7.42708 253.227,-6.96875 C252.836,-6.51042 252.641,-5.8125 252.641,-4.875 M261.234,-10.5938 L261.234,-12.8906 L263.703,-12.8906 L263.703,-10.5938 L261.234,-10.5938 M263.703,-9.32813 L263.703,-0.296875 C263.703,0.901042 263.628,1.74479 263.477,2.23438 C263.326,2.72396 263.029,3.10417 262.586,3.375 C262.143,3.64583 261.578,3.78125 260.891,3.78125 C260.641,3.78125 260.375,3.76042 260.094,3.71875 C259.813,3.67708 259.505,3.61458 259.172,3.53125 L259.609,1.42188 C259.724,1.44271 259.833,1.46094 259.938,1.47656 C260.042,1.49219 260.135,1.5 260.219,1.5 C260.469,1.5 260.674,1.44531 260.836,1.33594 C260.997,1.22656 261.104,1.09635 261.156,0.945313 C261.208,0.794271 261.234,0.333333 261.234,-0.4375 L261.234,-9.32813 L263.703,-9.32813 M271.703,-2.96875 L274.156,-2.5625 C273.844,-1.65625 273.346,-0.966146 272.664,-0.492188 C271.982,-0.0182292 271.125,0.21875 270.094,0.21875 C268.469,0.21875 267.271,-0.3125 266.5,-1.375 C265.885,-2.22917 265.578,-3.30208 265.578,-4.59375 C265.578,-6.14583 265.982,-7.35938 266.789,-8.23438 C267.596,-9.10938 268.62,-9.54688 269.859,-9.54688 C271.245,-9.54688 272.339,-9.08854 273.141,-8.17188 C273.943,-7.25521 274.328,-5.84896 274.297,-3.95313 L268.109,-3.95313 C268.12,-3.22396 268.315,-2.65625 268.695,-2.25 C269.076,-1.84375 269.552,-1.64063 270.125,-1.64063 C270.51,-1.64063 270.836,-1.74479 271.102,-1.95313 C271.367,-2.16146 271.568,-2.5 271.703,-2.96875 M271.844,-5.46875 C271.823,-6.1875 271.635,-6.73177 271.281,-7.10156 C270.927,-7.47135 270.5,-7.65625 270,-7.65625 C269.458,-7.65625 269.016,-7.45833 268.672,-7.0625 C268.318,-6.67708 268.141,-6.14583 268.141,-5.46875 L271.844,-5.46875 M284.438,-6.57813 L282,-6.14063 C281.917,-6.61979 281.729,-6.98438 281.438,-7.23438 C281.146,-7.48438 280.771,-7.60938 280.313,-7.60938 C279.698,-7.60938 279.206,-7.39583 278.836,-6.96875 C278.466,-6.54167 278.281,-5.82813 278.281,-4.82813 C278.281,-3.72396 278.469,-2.94271 278.844,-2.48438 C279.219,-2.02604 279.719,-1.79688 280.344,-1.79688 C280.813,-1.79688 281.195,-1.93229 281.492,-2.20313 C281.789,-2.47396 282,-2.93229 282.125,-3.57813 L284.547,-3.17188 C284.297,-2.05729 283.815,-1.21354 283.102,-0.640625 C282.388,-0.0677083 281.432,0.21875 280.234,0.21875 C278.87,0.21875 277.781,-0.213542 276.969,-1.07813 C276.156,-1.94271 275.75,-3.13542 275.75,-4.65625 C275.75,-6.19792 276.156,-7.39844 276.969,-8.25781 C277.781,-9.11719 278.885,-9.54688 280.281,-9.54688 C281.417,-9.54688 282.318,-9.30208 282.984,-8.8125 C283.651,-8.32292 284.135,-7.57813 284.438,-6.57813 M290.578,-9.32813 L290.578,-7.35938 L288.891,-7.35938 L288.891,-3.60938 C288.891,-2.84896 288.906,-2.40365 288.938,-2.27344 C288.969,-2.14323 289.042,-2.03906 289.156,-1.96094 C289.271,-1.88281 289.411,-1.84375 289.578,-1.84375 C289.797,-1.84375 290.125,-1.92188 290.563,-2.07813 L290.781,-0.15625 C290.198,0.09375 289.547,0.21875 288.828,0.21875 C288.38,0.21875 287.977,0.143229 287.617,-0.0078125 C287.258,-0.158854 286.995,-0.354167 286.828,-0.59375 C286.661,-0.833333 286.547,-1.15625 286.484,-1.5625 C286.432,-1.84375 286.406,-2.42188 286.406,-3.29688 L286.406,-7.35938 L285.266,-7.35938 L285.266,-9.32813 L286.406,-9.32813 L286.406,-11.1875 L288.891,-12.625 L288.891,-9.32813 L290.578,-9.32813 M292.297,-10.5938 L292.297,-12.8906 L294.766,-12.8906 L294.766,-10.5938 L292.297,-10.5938 M292.297,0 L292.297,-9.32813 L294.766,-9.32813 L294.766,0 L292.297,0 M299.859,0 L296.094,-9.32813 L298.688,-9.32813 L300.453,-4.57813 L300.953,-2.98438 C301.089,-3.39063 301.177,-3.65625 301.219,-3.78125 C301.292,-4.04167 301.375,-4.30729 301.469,-4.57813 L303.25,-9.32813 L305.797,-9.32813 L302.078,0 L299.859,0 M312.703,-2.96875 L315.156,-2.5625 C314.844,-1.65625 314.346,-0.966146 313.664,-0.492188 C312.982,-0.0182292 312.125,0.21875 311.094,0.21875 C309.469,0.21875 308.271,-0.3125 307.5,-1.375 C306.885,-2.22917 306.578,-3.30208 306.578,-4.59375 C306.578,-6.14583 306.982,-7.35938 307.789,-8.23438 C308.596,-9.10938 309.62,-9.54688 310.859,-9.54688 C312.245,-9.54688 313.339,-9.08854 314.141,-8.17188 C314.943,-7.25521 315.328,-5.84896 315.297,-3.95313 L309.109,-3.95313 C309.12,-3.22396 309.315,-2.65625 309.695,-2.25 C310.076,-1.84375 310.552,-1.64063 311.125,-1.64063 C311.51,-1.64063 311.836,-1.74479 312.102,-1.95313 C312.367,-2.16146 312.568,-2.5 312.703,-2.96875 M312.844,-5.46875 C312.823,-6.1875 312.635,-6.73177 312.281,-7.10156 C311.927,-7.47135 311.5,-7.65625 311,-7.65625 C310.458,-7.65625 310.016,-7.45833 309.672,-7.0625 C309.318,-6.67708 309.141,-6.14583 309.141,-5.46875 L312.844,-5.46875 M321.219,-9.32813 L322.578,-9.32813 L322.578,-10.0313 C322.578,-10.8229 322.661,-11.4115 322.828,-11.7969 C322.995,-12.1823 323.302,-12.4974 323.75,-12.7422 C324.198,-12.987 324.766,-13.1094 325.453,-13.1094 C326.161,-13.1094 326.849,-13 327.516,-12.7813 L327.188,-11.0625 C326.792,-11.1563 326.411,-11.2031 326.047,-11.2031 C325.693,-11.2031 325.438,-11.1198 325.281,-10.9531 C325.125,-10.7865 325.047,-10.4688 325.047,-10 L325.047,-9.32813 L326.891,-9.32813 L326.891,-7.39063 L325.047,-7.39063 L325.047,0 L322.578,0 L322.578,-7.39063 L321.219,-7.39063 L321.219,-9.32813 M334.438,0 L334.438,-1.39063 C334.094,-0.901042 333.646,-0.510417 333.094,-0.21875 C332.542,0.0729167 331.958,0.21875 331.344,0.21875 C330.719,0.21875 330.156,0.0807292 329.656,-0.195313 C329.156,-0.471354 328.794,-0.859375 328.57,-1.35938 C328.346,-1.85938 328.234,-2.54688 328.234,-3.42188 L328.234,-9.32813 L330.703,-9.32813 L330.703,-5.04688 C330.703,-3.73438 330.75,-2.92969 330.844,-2.63281 C330.938,-2.33594 331.104,-2.10156 331.344,-1.92969 C331.583,-1.75781 331.885,-1.67188 332.25,-1.67188 C332.677,-1.67188 333.057,-1.78646 333.391,-2.01563 C333.724,-2.24479 333.953,-2.53125 334.078,-2.875 C334.203,-3.21875 334.266,-4.05729 334.266,-5.39063 L334.266,-9.32813 L336.734,-9.32813 L336.734,0 L334.438,0 M347.781,0 L345.313,0 L345.313,-4.76563 C345.313,-5.77604 345.26,-6.42708 345.156,-6.71875 C345.052,-7.01042 344.88,-7.23958 344.641,-7.40625 C344.401,-7.57292 344.115,-7.65625 343.781,-7.65625 C343.354,-7.65625 342.971,-7.53906 342.633,-7.30469 C342.294,-7.07031 342.063,-6.76042 341.938,-6.375 C341.813,-5.98958 341.75,-5.27604 341.75,-4.23438 L341.75,0 L339.281,0 L339.281,-9.32813 L341.563,-9.32813 L341.563,-7.96875 C342.385,-9.02083 343.411,-9.54688 344.641,-9.54688 C345.193,-9.54688 345.693,-9.44792 346.141,-9.25 C346.589,-9.05208 346.93,-8.80208 347.164,-8.5 C347.398,-8.19792 347.56,-7.85156 347.648,-7.46094 C347.737,-7.07031 347.781,-6.51563 347.781,-5.79688 L347.781,0 M358.438,-6.57813 L356,-6.14063 C355.917,-6.61979 355.729,-6.98438 355.438,-7.23438 C355.146,-7.48438 354.771,-7.60938 354.313,-7.60938 C353.698,-7.60938 353.206,-7.39583 352.836,-6.96875 C352.466,-6.54167 352.281,-5.82813 352.281,-4.82813 C352.281,-3.72396 352.469,-2.94271 352.844,-2.48438 C353.219,-2.02604 353.719,-1.79688 354.344,-1.79688 C354.813,-1.79688 355.195,-1.93229 355.492,-2.20313 C355.789,-2.47396 356,-2.93229 356.125,-3.57813 L358.547,-3.17188 C358.297,-2.05729 357.815,-1.21354 357.102,-0.640625 C356.388,-0.0677083 355.432,0.21875 354.234,0.21875 C352.87,0.21875 351.781,-0.213542 350.969,-1.07813 C350.156,-1.94271 349.75,-3.13542 349.75,-4.65625 C349.75,-6.19792 350.156,-7.39844 350.969,-8.25781 C351.781,-9.11719 352.885,-9.54688 354.281,-9.54688 C355.417,-9.54688 356.318,-9.30208 356.984,-8.8125 C357.651,-8.32292 358.135,-7.57813 358.438,-6.57813 M364.578,-9.32813 L364.578,-7.35938 L362.891,-7.35938 L362.891,-3.60938 C362.891,-2.84896 362.906,-2.40365 362.938,-2.27344 C362.969,-2.14323 363.042,-2.03906 363.156,-1.96094 C363.271,-1.88281 363.411,-1.84375 363.578,-1.84375 C363.797,-1.84375 364.125,-1.92188 364.563,-2.07813 L364.781,-0.15625 C364.198,0.09375 363.547,0.21875 362.828,0.21875 C362.38,0.21875 361.977,0.143229 361.617,-0.0078125 C361.258,-0.158854 360.995,-0.354167 360.828,-0.59375 C360.661,-0.833333 360.547,-1.15625 360.484,-1.5625 C360.432,-1.84375 360.406,-2.42188 360.406,-3.29688 L360.406,-7.35938 L359.266,-7.35938 L359.266,-9.32813 L360.406,-9.32813 L360.406,-11.1875 L362.891,-12.625 L362.891,-9.32813 L364.578,-9.32813 M366.297,-10.5938 L366.297,-12.8906 L368.766,-12.8906 L368.766,-10.5938 L366.297,-10.5938 M366.297,0 L366.297,-9.32813 L368.766,-9.32813 L368.766,0 L366.297,0 M370.719,-4.79688 C370.719,-5.61979 370.922,-6.41406 371.328,-7.17969 C371.734,-7.94531 372.307,-8.53125 373.047,-8.9375 C373.786,-9.34375 374.615,-9.54688 375.531,-9.54688 C376.938,-9.54688 378.094,-9.08854 379,-8.17188 C379.906,-7.25521 380.359,-6.09375 380.359,-4.6875 C380.359,-3.28125 379.904,-2.11198 378.992,-1.17969 C378.081,-0.247396 376.932,0.21875 375.547,0.21875 C374.693,0.21875 373.878,0.0234375 373.102,-0.367188 C372.326,-0.757813 371.734,-1.32552 371.328,-2.07031 C370.922,-2.8151 370.719,-3.72396 370.719,-4.79688 M373.25,-4.67188 C373.25,-3.74479 373.471,-3.03385 373.914,-2.53906 C374.357,-2.04427 374.896,-1.79688 375.531,-1.79688 C376.177,-1.79688 376.719,-2.04427 377.156,-2.53906 C377.594,-3.03385 377.813,-3.75 377.813,-4.6875 C377.813,-5.60417 377.594,-6.30729 377.156,-6.79688 C376.719,-7.28646 376.177,-7.53125 375.531,-7.53125 C374.896,-7.53125 374.357,-7.28646 373.914,-6.79688 C373.471,-6.30729 373.25,-5.59896 373.25,-4.67188 M390.781,0 L388.313,0 L388.313,-4.76563 C388.313,-5.77604 388.26,-6.42708 388.156,-6.71875 C388.052,-7.01042 387.88,-7.23958 387.641,-7.40625 C387.401,-7.57292 387.115,-7.65625 386.781,-7.65625 C386.354,-7.65625 385.971,-7.53906 385.633,-7.30469 C385.294,-7.07031 385.063,-6.76042 384.938,-6.375 C384.813,-5.98958 384.75,-5.27604 384.75,-4.23438 L384.75,0 L382.281,0 L382.281,-9.32813 L384.563,-9.32813 L384.563,-7.96875 C385.385,-9.02083 386.411,-9.54688 387.641,-9.54688 C388.193,-9.54688 388.693,-9.44792 389.141,-9.25 C389.589,-9.05208 389.93,-8.80208 390.164,-8.5 C390.398,-8.19792 390.56,-7.85156 390.648,-7.46094 C390.737,-7.07031 390.781,-6.51563 390.781,-5.79688 L390.781,0"/>
</g>

<g fill="none" stroke="#000000" stroke-opacity="1" stroke-width="3.33333" stroke-linecap="butt" stroke-linejoin="round" transform="matrix(0.6,0,0,0.6,0,0)"
font-family="MS Shell Dlg 2" font-size="7.8" font-weight="400" font-style="normal" 
>
<polyline fill="none" vector-effect="none" points="155,53.9998 212.813,59.1215 270.625,239.713 328.438,295.36 386.25,354.517 444.063,429.397 501.875,520.529 559.688,531.744 617.5,566.128 675.313,582.011 733.125,588.092 790.938,600.956 848.75,634.892 906.563,638.83 964.375,638.993 1022.19,639 1080,639 " />
</g>

<g fill="#000000" fill-opacity="1" stroke="none" transform="matrix(0.6,0,0,0.6,0,0)"
font-family="MS Shell Dlg 2" font-size="7.8" font-weight="400" font-style="normal" 
>
<circle cx="155" cy="53.9998" r="6.94444"/>
</g>

<g fill="none" stroke="#000000" stroke-opacity="1" stroke-width="3.33333" stroke-linecap="butt" stroke-linejoin="miter" stroke-miterlimit="2" transform="matrix(0.6,0,0,0.6,0,0)"
font-family="MS Shell Dlg 2" font-size="7.8" font-weight="400" font-style="normal" 
>
<path vector-effect="none" fill-rule="evenodd" d="M161.944,53.9998 C161.944,50.1645 158.835,47.0554 155,47.0554 C151.165,47.0554 148.056,50.1645 148.056,53.9998 C148.056,57.8352 151.165,60.9443 155,60.9443 C158.835,60.9443 161.944,57.8352 161.944,53.9998 "/>
</g>

<g fill="#000000" fill-opacity="1" stroke="none" transform="matrix(0.6,0,0,0.6,0,0)"
font-family="MS Shell Dlg 2" font-size="7.8" font-weight="400" font-style="normal" 
>
<circle cx="212.813" cy="59.1215" r="6.94444"/>
</g>

<g fill="none" stroke="#000000" stroke-opacity="1" stroke-width="3.33333" stroke-linecap="butt" stroke-linejoin="miter" stroke-miterlimit="2" transform="matrix(0.6,0,0,0.6,0,0)"
font-family="MS Shell Dlg 2" font-size="7.8" font-weight="400" font-style="normal" 
>
<path vector-effect="none" fill-rule="evenodd" d="M219.757,59.1215 C219.757,55.2862 216.648,52.177 212.813,52.177 C208.977,52.177 205.868,55.2862 205.868,59.1215 C205.868,62.9568 208.977,66.0659 212.813,66.0659 C216.648,66.0659 219.757,62.9568 219.757,59.1215 "/>
</g>

<g fill="#000000" fill-opacity="1" stroke="none" transform="matrix(0.6,0,0,0.6,0,0)"
font-family="MS Shell Dlg 2" font-size="7.8" font-weight="400" font-style="normal" 
>
<circle cx="270.625" cy="239.713" r="6.94444"/>
</g>

<g fill="none" stroke="#000000" stroke-opacity="1" stroke-width="3.33333" stroke-linecap="butt" stroke-linejoin="miter" stroke-miterlimit="2" transform="matrix(0.6,0,0,0.6,0,0)"
font-family="MS Shell Dlg 2" font-size="7.8" font-weight="400" font-style="normal" 
>
<path vector-effect="none" fill-rule="evenodd" d="M277.569,239.713 C277.569,235.878 274.46,232.769 270.625,232.769 C266.79,232.769 263.681,235.878 263.681,239.713 C263.681,243.549 266.79,246.658 270.625,246.658 C274.46,246.658 277.569,243.549 277.569,239.713 "/>
</g>

<g fill="#000000" fill-opacity="1" stroke="none" transform="matrix(0.6,0,0,0.6,0,0)"
font-family="MS Shell Dlg 2" font-size="7.8" font-weight="400" font-style="normal" 
>
<circle cx="328.437" cy="295.36" r="6.94444"/>
</g>

<g fill="none" stroke="#000000" stroke-opacity="1" stroke-width="3.33333" stroke-linecap="butt" stroke-linejoin="miter" stroke-miterlimit="2" transform="matrix(0.6,0,0,0.6,0,0)"
font-family="MS Shell Dlg 2" font-size="7.8" font-weight="400" font-style="normal" 
>
<path vector-effect="none" fill-rule="evenodd" d="M335.382,295.36 C335.382,291.524 332.273,288.415 328.437,288.415 C324.602,288.415 321.493,291.524 321.493,295.36 C321.493,299.195 324.602,302.304 328.437,302.304 C332.273,302.304 335.382,299.195 335.382,295.36 "/>
</g>

<g fill="#000000" fill-opacity="1" stroke="none" transform="matrix(0.6,0,0,0.6,0,0)"
font-family="MS Shell Dlg 2" font-size="7.8" font-weight="400" font-style="normal" 
>
<circle cx="386.25" cy="354.517" r="6.94444"/>
</g>

<g fill="none" stroke="#000000" stroke-opacity="1" stroke-width="3.33333" stroke-linecap="butt" stroke-linejoin="miter" stroke-miterlimit="2" transform="matrix(0.6,0,0,0.6,0,0)"
font-family="MS Shell Dlg 2" font-size="7.8" font-weight="400" font-style="normal" 
>
<path vector-effect="none" fill-rule="evenodd" d="M393.194,354.517 C393.194,350.682 390.085,347.572 386.25,347.572 C382.415,347.572 379.306,350.682 379.306,354.517 C379.306,358.352 382.415,361.461 386.25,361.461 C390.085,361.461 393.194,358.352 393.194,354.517 "/>
</g>

<g fill="#000000" fill-opacity="1" stroke="none" transform="matrix(0.6,0,0,0.6,0,0)"
font-family="MS Shell Dlg 2" font-size="7.8" font-weight="400" font-style="normal" 
>
<circle cx="444.062" cy="429.397" r="6.94444"/>
</g>

<g fill="none" stroke="#000000" stroke-opacity="1" stroke-width="3.33333" stroke-linecap="butt" stroke-linejoin="miter" stroke-miterlimit="2" transform="matrix(0.6,0,0,0.6,0,0)"
font-family="MS Shell Dlg 2" font-size="7.8" font-weight="400" font-style="normal" 
>
<path vector-effect="none" fill-rule="evenodd" d="M451.007,429.397 C451.007,425.561 447.898,422.452 444.062,422.452 C440.227,422.452 437.118,425.561 437.118,429.397 C437.118,433.232 440.227,436.341 444.062,436.341 C447.898,436.341 451.007,433.232 451.007,429.397 "/>
</g>

<g fill="#000000" fill-opacity="1" stroke="none" transform="matrix(0.6,0,0,0.6,0,0)"
font-family="MS Shell Dlg 2" font-size="7.8" font-weight="400" font-style="normal" 
>
<circle cx="501.875" cy="520.529" r="6.94444"/>
</g>

<g fill="none" stroke="#000000" stroke-opacity="1" stroke-width="3.33333" stroke-linecap="butt" stroke-linejoin="miter" stroke-miterlimit="2" transform="matrix(0.6,0,0,0.6,0,0)"
font-family="MS Shell Dlg 2" font-size="7.8" font-weight="400" font-style="normal" 
>
<path vector-effect="none" fill-rule="evenodd" d="M508.819,520.529 C508.819,516.694 505.71,513.585 501.875,513.585 C498.04,513.585 494.931,516.694 494.931,520.529 C494.931,524.365 498.04,527.474 501.875,527.474 C505.71,527.474 508.819,524.365 508.819,520.529 "/>
</g>

<g fill="#000000" fill-opacity="1" stroke="none" transform="matrix(0.6,0,0,0.6,0,0)"
font-family="MS Shell Dlg 2" font-size="7.8" font-weight="400" font-style="normal" 
>
<circle cx="559.687" cy="531.744" r="6.94444"/>
</g>

<g fill="none" stroke="#000000" stroke-opacity="1" stroke-width="3.33333" stroke-linecap="butt" stroke-linejoin="miter" stroke-miterlimit="2" transform="matrix(0.6,0,0,0.6,0,0)"
font-family="MS Shell Dlg 2" font-size="7.8" font-weight="400" font-style="normal" 
>
<path vector-effect="none" fill-rule="evenodd" d="M566.632,531.744 C566.632,527.909 563.523,524.799 559.687,524.799 C555.852,524.799 552.743,527.909 552.743,531.744 C552.743,535.579 555.852,538.688 559.687,538.688 C563.523,538.688 566.632,535.579 566.632,531.744 "/>
</g>

<g fill="#000000" fill-opacity="1" stroke="none" transform="matrix(0.6,0,0,0.6,0,0)"
font-family="MS Shell Dlg 2" font-size="7.8" font-weight="400" font-style="normal" 
>
<circle cx="617.5" cy="566.128" r="6.94444"/>
</g>

<g fill="none" stroke="#000000" stroke-opacity="1" stroke-width="3.33333" stroke-linecap="butt" stroke-linejoin="miter" stroke-miterlimit="2" transform="matrix(0.6,0,0,0.6,0,0)"
font-family="MS Shell Dlg 2" font-size="7.8" font-weight="400" font-style="normal" 
>
<path vector-effect="none" fill-rule="evenodd" d="M624.444,566.128 C624.444,562.293 621.335,559.184 617.5,559.184 C613.665,559.184 610.556,562.293 610.556,566.128 C610.556,569.964 613.665,573.073 617.5,573.073 C621.335,573.073 624.444,569.964 624.444,566.128 "/>
</g>

<g fill="#000000" fill-opacity="1" stroke="none" transform="matrix(0.6,0,0,0.6,0,0)"
font-family="MS Shell Dlg 2" font-size="7.8" font-weight="400" font-style="normal" 
>
<circle cx="675.312" cy="582.011" r="6.94444"/>
</g>

<g fill="none" stroke="#000000" stroke-opacity="1" stroke-width="3.33333" stroke-linecap="butt" stroke-linejoin="miter" stroke-miterlimit="2" transform="matrix(0.6,0,0,0.6,0,0)"
font-family="MS Shell Dlg 2" font-size="7.8" font-weight="400" font-style="normal" 
>
<path vector-effect="none" fill-rule="evenodd" d="M682.257,582.011 C682.257,578.176 679.148,575.067 675.312,575.067 C671.477,575.067 668.368,578.176 668.368,582.011 C668.368,585.847 671.477,588.956 675.312,588.956 C679.148,588.956 682.257,585.847 682.257,582.011 "/>
</g>

<g fill="#000000" fill-opacity="1" stroke="none" transform="matrix(0.6,0,0,0.6,0,0)"
font-family="MS Shell Dlg 2" font-size="7.8" font-weight="400" font-style="normal" 
>
<circle cx="733.125" cy="588.092" r="6.94444"/>
</g>

<g fill="none" stroke="#000000" stroke-opacity="1" stroke-width="3.33333" stroke-linecap="butt" stroke-linejoin="miter" stroke-miterlimit="2" transform="matrix(0.6,0,0,0.6,0,0)"
font-family="MS Shell Dlg 2" font-size="7.8" font-weight="400" font-style="normal" 
>
<path vector-effect="none" fill-rule="evenodd" d="M740.069,588.092 C740.069,584.257 736.96,581.147 733.125,581.147 C729.29,581.147 726.181,584.257 726.181,588.092 C726.181,591.927 729.29,595.036 733.125,595.036 C736.96,595.036 740.069,591.927 740.069,588.092 "/>
</g>

<g fill="#000000" fill-opacity="1" stroke="none" transform="matrix(0.6,0,0,0.6,0,0)"
font-family="MS Shell Dlg 2" font-size="7.8" font-weight="400" font-style="normal" 
>
<circle cx="790.937" cy="600.956" r="6.94444"/>
</g>

<g fill="none" stroke="#000000" stroke-opacity="1" stroke-width="3.33333" stroke-linecap="butt" stroke-linejoin="miter" stroke-miterlimit="2" transform="matrix(0.6,0,0,0.6,0,0)"
font-family="MS Shell Dlg 2" font-size="7.8" font-weight="400" font-style="normal" 
>
<path vector-effect="none" fill-rule="evenodd" d="M797.882,600.956 C797.882,597.12 794.773,594.011 790.937,594.011 C787.102,594.011 783.993,597.12 783.993,600.956 C783.993,604.791 787.102,607.9 790.937,607.9 C794.773,607.9 797.882,604.791 797.882,600.956 "/>
</g>

<g fill="#000000" fill-opacity="1" stroke="none" transform="matrix(0.6,0,0,0.6,0,0)"
font-family="MS Shell Dlg 2" font-size="7.8" font-weight="400" font-style="normal" 
>
<circle cx="848.75" cy="634.892" r="6.94444"/>
</g>

<g fill="none" stroke="#000000" stroke-opacity="1" stroke-width="3.33333" stroke-linecap="butt" stroke-linejoin="miter" stroke-miterlimit="2" transform="matrix(0.6,0,0,0.6,0,0)"
font-family="MS Shell Dlg 2" font-size="7.8" font-weight="400" font-style="normal" 
>
<path vector-effect="none" fill-rule="evenodd" d="M855.694,634.892 C855.694,631.057 852.585,627.948 848.75,627.948 C844.915,627.948 841.806,631.057 841.806,634.892 C841.806,638.727 844.915,641.836 848.75,641.836 C852.585,641.836 855.694,638.727 855.694,634.892 "/>
</g>

<g fill="#000000" fill-opacity="1" stroke="none" transform="matrix(0.6,0,0,0.6,0,0)"
font-family="MS Shell Dlg 2" font-size="7.8" font-weight="400" font-style="normal" 
>
<circle cx="906.562" cy="638.83" r="6.94444"/>
</g>

<g fill="none" stroke="#000000" stroke-opacity="1" stroke-width="3.33333" stroke-linecap="butt" stroke-linejoin="miter" stroke-miterlimit="2" transform="matrix(0.6,0,0,0.6,0,0)"
font-family="MS Shell Dlg 2" font-size="7.8" font-weight="400" font-style="normal" 
>
<path vector-effect="none" fill-rule="evenodd" d="M913.507,638.83 C913.507,634.994 910.398,631.885 906.562,631.885 C902.727,631.885 899.618,634.994 899.618,638.83 C899.618,642.665 902.727,645.774 906.562,645.774 C910.398,645.774 913.507,642.665 913.507,638.83 "/>
</g>

<g fill="#000000" fill-opacity="1" stroke="none" transform="matrix(0.6,0,0,0.6,0,0)"
font-family="MS Shell Dlg 2" font-size="7.8" font-weight="400" font-style="normal" 
>
<circle cx="964.375" cy="638.993" r="6.94444"/>
</g>

<g fill="none" stroke="#000000" stroke-opacity="1" stroke-width="3.33333" stroke-linecap="butt" stroke-linejoin="miter" stroke-miterlimit="2" transform="matrix(0.6,0,0,0.6,0,0)"
font-family="MS Shell Dlg 2" font-size="7.8" font-weight="400" font-style="normal" 
>
<path vector-effect="none" fill-rule="evenodd" d="M971.319,638.993 C971.319,635.157 968.21,632.048 964.375,632.048 C960.54,632.048 957.431,635.157 957.431,638.993 C957.431,642.828 960.54,645.937 964.375,645.937 C968.21,645.937 971.319,642.828 971.319,638.993 "/>
</g>

<g fill="#000000" fill-opacity="1" stroke="none" transform="matrix(0.6,0,0,0.6,0,0)"
font-family="MS Shell Dlg 2" font-size="7.8" font-weight="400" font-style="normal" 
>
<circle cx="1022.19" cy="639" r="6.94444"/>
</g>

<g fill="none" stroke="#000000" stroke-opacity="1" stroke-width="3.33333" stroke-linecap="butt" stroke-linejoin="miter" stroke-miterlimit="2" transform="matrix(0.6,0,0,0.6,0,0)"
font-family="MS Shell Dlg 2" font-size="7.8" font-weight="400" font-style="normal" 
>
<path vector-effect="none" fill-rule="evenodd" d="M1029.13,639 C1029.13,635.165 1026.02,632.055 1022.19,632.055 C1018.35,632.055 1015.24,635.165 1015.24,639 C1015.24,642.835 1018.35,645.944 1022.19,645.944 C1026.02,645.944 1029.13,642.835 1029.13,639 "/>
</g>

<g fill="#000000" fill-opacity="1" stroke="none" transform="matrix(0.6,0,0,0.6,0,0)"
font-family="MS Shell Dlg 2" font-size="7.8" font-weight="400" font-style="normal" 
>
<circle cx="1080" cy="639" r="6.94444"/>
</g>

<g fill="none" stroke="#000000" stroke-opacity="1" stroke-width="3.33333" stroke-linecap="butt" stroke-linejoin="miter" stroke-miterlimit="2" transform="matrix(0.6,0,0,0.6,0,0)"
font-family="MS Shell Dlg 2" font-size="7.8" font-weight="400" font-style="normal" 
>
<path vector-effect="none" fill-rule="evenodd" d="M1086.94,639 C1086.94,635.165 1083.84,632.055 1080,632.055 C1076.16,632.055 1073.06,635.165 1073.06,639 C1073.06,642.835 1076.16,645.944 1080,645.944 C1083.84,645.944 1086.94,642.835 1086.94,639 "/>
</g>
</g>
</svg>
