<?xml version="1.0" encoding="UTF-8" standalone="no"?>
<svg width="252.942mm" height="152.4mm"
 viewBox="0 0 717 432"
 xmlns="http://www.w3.org/2000/svg" xmlns:xlink="http://www.w3.org/1999/xlink"  version="1.2" baseProfile="tiny">
<title>Qt SVG Document</title>
<desc>MATLAB, The MathWorks, Inc. Version 25.1.0.2973910 R2025a Update 1</desc>
<defs>
</defs>
<g fill="none" stroke="black" stroke-width="1" fill-rule="evenodd" stroke-linecap="square" stroke-linejoin="bevel" >

<g fill="#000000" fill-opacity="1" stroke="none" transform="matrix(0.6,0,0,0.6,0,0)"
font-family="MS Shell Dlg 2" font-size="7.8" font-weight="400" font-style="normal" 
>
<path vector-effect="none" fill-rule="evenodd" d="M0,0 L1196,0 L1196,721 L0,721 L0,0"/>
</g>

<g fill="#121212" fill-opacity="1" stroke="none" transform="matrix(6e-05,0,0,6e-05,0,0)"
font-family="MS Shell Dlg 2" font-size="7.8" font-weight="400" font-style="normal" 
>
<path vector-effect="none" fill-rule="evenodd" d="M1.55e+06,543422 L1.55e+06,6.40658e+06 L1.081e+07,6.40658e+06 L1.081e+07,543422 L1.55e+06,543422"/>
</g>

<g fill="#d9d9d9" fill-opacity="1" stroke="#d9d9d9" stroke-opacity="1" stroke-width="1" stroke-linecap="square" stroke-linejoin="bevel" transform="matrix(0.6,0,0,0.6,360.9,414.595)"
font-family="Helvetica" font-size="25" font-weight="400" font-style="normal" 
>
<text fill="#d9d9d9" fill-opacity="1" stroke="none" xml:space="preserve" x="0" y="0" font-family="Helvetica" font-size="25" font-weight="400" font-style="normal" 
 >x/c</text>
</g>

<g fill="#d9d9d9" fill-opacity="1" stroke="#d9d9d9" stroke-opacity="1" stroke-width="0.833333" stroke-linecap="square" stroke-linejoin="round" transform="matrix(0.6,0,0,0.6,0,0)"
font-family="Helvetica" font-size="25" font-weight="400" font-style="normal" 
>
<polyline fill="none" vector-effect="none" points="155,640.658 1081,640.658 " />
<polyline fill="none" vector-effect="none" points="155,640.658 155,631.398 " />
<polyline fill="none" vector-effect="none" points="247.6,640.658 247.6,631.398 " />
<polyline fill="none" vector-effect="none" points="340.2,640.658 340.2,631.398 " />
<polyline fill="none" vector-effect="none" points="432.8,640.658 432.8,631.398 " />
<polyline fill="none" vector-effect="none" points="525.4,640.658 525.4,631.398 " />
<polyline fill="none" vector-effect="none" points="618,640.658 618,631.398 " />
<polyline fill="none" vector-effect="none" points="710.6,640.658 710.6,631.398 " />
<polyline fill="none" vector-effect="none" points="803.2,640.658 803.2,631.398 " />
<polyline fill="none" vector-effect="none" points="895.8,640.658 895.8,631.398 " />
<polyline fill="none" vector-effect="none" points="988.4,640.658 988.4,631.398 " />
<polyline fill="none" vector-effect="none" points="1081,640.658 1081,631.398 " />
</g>

<g fill="#d9d9d9" fill-opacity="1" stroke="#d9d9d9" stroke-opacity="1" stroke-width="1" stroke-linecap="square" stroke-linejoin="bevel" transform="matrix(0.6,0,0,0.6,90.3,397.395)"
font-family="Helvetica" font-size="16" font-weight="400" font-style="normal" 
>
<text fill="#d9d9d9" fill-opacity="1" stroke="none" xml:space="preserve" x="0" y="0" font-family="Helvetica" font-size="16" font-weight="400" font-style="normal" 
 >0</text>
</g>

<g fill="#d9d9d9" fill-opacity="1" stroke="#d9d9d9" stroke-opacity="1" stroke-width="1" stroke-linecap="square" stroke-linejoin="bevel" transform="matrix(0.6,0,0,0.6,141.96,397.395)"
font-family="Helvetica" font-size="16" font-weight="400" font-style="normal" 
>
<text fill="#d9d9d9" fill-opacity="1" stroke="none" xml:space="preserve" x="0" y="0" font-family="Helvetica" font-size="16" font-weight="400" font-style="normal" 
 >0.1</text>
</g>

<g fill="#d9d9d9" fill-opacity="1" stroke="#d9d9d9" stroke-opacity="1" stroke-width="1" stroke-linecap="square" stroke-linejoin="bevel" transform="matrix(0.6,0,0,0.6,197.52,397.395)"
font-family="Helvetica" font-size="16" font-weight="400" font-style="normal" 
>
<text fill="#d9d9d9" fill-opacity="1" stroke="none" xml:space="preserve" x="0" y="0" font-family="Helvetica" font-size="16" font-weight="400" font-style="normal" 
 >0.2</text>
</g>

<g fill="#d9d9d9" fill-opacity="1" stroke="#d9d9d9" stroke-opacity="1" stroke-width="1" stroke-linecap="square" stroke-linejoin="bevel" transform="matrix(0.6,0,0,0.6,253.08,397.395)"
font-family="Helvetica" font-size="16" font-weight="400" font-style="normal" 
>
<text fill="#d9d9d9" fill-opacity="1" stroke="none" xml:space="preserve" x="0" y="0" font-family="Helvetica" font-size="16" font-weight="400" font-style="normal" 
 >0.3</text>
</g>

<g fill="#d9d9d9" fill-opacity="1" stroke="#d9d9d9" stroke-opacity="1" stroke-width="1" stroke-linecap="square" stroke-linejoin="bevel" transform="matrix(0.6,0,0,0.6,308.64,397.395)"
font-family="Helvetica" font-size="16" font-weight="400" font-style="normal" 
>
<text fill="#d9d9d9" fill-opacity="1" stroke="none" xml:space="preserve" x="0" y="0" font-family="Helvetica" font-size="16" font-weight="400" font-style="normal" 
 >0.4</text>
</g>

<g fill="#d9d9d9" fill-opacity="1" stroke="#d9d9d9" stroke-opacity="1" stroke-width="1" stroke-linecap="square" stroke-linejoin="bevel" transform="matrix(0.6,0,0,0.6,364.2,397.395)"
font-family="Helvetica" font-size="16" font-weight="400" font-style="normal" 
>
<text fill="#d9d9d9" fill-opacity="1" stroke="none" xml:space="preserve" x="0" y="0" font-family="Helvetica" font-size="16" font-weight="400" font-style="normal" 
 >0.5</text>
</g>

<g fill="#d9d9d9" fill-opacity="1" stroke="#d9d9d9" stroke-opacity="1" stroke-width="1" stroke-linecap="square" stroke-linejoin="bevel" transform="matrix(0.6,0,0,0.6,419.76,397.395)"
font-family="Helvetica" font-size="16" font-weight="400" font-style="normal" 
>
<text fill="#d9d9d9" fill-opacity="1" stroke="none" xml:space="preserve" x="0" y="0" font-family="Helvetica" font-size="16" font-weight="400" font-style="normal" 
 >0.6</text>
</g>

<g fill="#d9d9d9" fill-opacity="1" stroke="#d9d9d9" stroke-opacity="1" stroke-width="1" stroke-linecap="square" stroke-linejoin="bevel" transform="matrix(0.6,0,0,0.6,475.32,397.395)"
font-family="Helvetica" font-size="16" font-weight="400" font-style="normal" 
>
<text fill="#d9d9d9" fill-opacity="1" stroke="none" xml:space="preserve" x="0" y="0" font-family="Helvetica" font-size="16" font-weight="400" font-style="normal" 
 >0.7</text>
</g>

<g fill="#d9d9d9" fill-opacity="1" stroke="#d9d9d9" stroke-opacity="1" stroke-width="1" stroke-linecap="square" stroke-linejoin="bevel" transform="matrix(0.6,0,0,0.6,530.88,397.395)"
font-family="Helvetica" font-size="16" font-weight="400" font-style="normal" 
>
<text fill="#d9d9d9" fill-opacity="1" stroke="none" xml:space="preserve" x="0" y="0" font-family="Helvetica" font-size="16" font-weight="400" font-style="normal" 
 >0.8</text>
</g>

<g fill="#d9d9d9" fill-opacity="1" stroke="#d9d9d9" stroke-opacity="1" stroke-width="1" stroke-linecap="square" stroke-linejoin="bevel" transform="matrix(0.6,0,0,0.6,586.44,397.395)"
font-family="Helvetica" font-size="16" font-weight="400" font-style="normal" 
>
<text fill="#d9d9d9" fill-opacity="1" stroke="none" xml:space="preserve" x="0" y="0" font-family="Helvetica" font-size="16" font-weight="400" font-style="normal" 
 >0.9</text>
</g>

<g fill="#d9d9d9" fill-opacity="1" stroke="#d9d9d9" stroke-opacity="1" stroke-width="1" stroke-linecap="square" stroke-linejoin="bevel" transform="matrix(0.6,0,0,0.6,645.9,397.395)"
font-family="Helvetica" font-size="16" font-weight="400" font-style="normal" 
>
<text fill="#d9d9d9" fill-opacity="1" stroke="none" xml:space="preserve" x="0" y="0" font-family="Helvetica" font-size="16" font-weight="400" font-style="normal" 
 >1</text>
</g>

<g fill="#d9d9d9" fill-opacity="1" stroke="#d9d9d9" stroke-opacity="1" stroke-width="1" stroke-linecap="square" stroke-linejoin="bevel" transform="matrix(0,-0.6,0.6,0,65,218.4)"
font-family="Helvetica" font-size="25" font-weight="400" font-style="normal" 
>
<text fill="#d9d9d9" fill-opacity="1" stroke="none" xml:space="preserve" x="0" y="0" font-family="Helvetica" font-size="25" font-weight="400" font-style="normal" 
 >y/c</text>
</g>

<g fill="#d9d9d9" fill-opacity="1" stroke="#d9d9d9" stroke-opacity="1" stroke-width="0.833333" stroke-linecap="square" stroke-linejoin="round" transform="matrix(0.6,0,0,0.6,0,0)"
font-family="Helvetica" font-size="25" font-weight="400" font-style="normal" 
>
<polyline fill="none" vector-effect="none" points="155,640.658 155,54.3423 " />
<polyline fill="none" vector-effect="none" points="155,627.301 164.26,627.301 " />
<polyline fill="none" vector-effect="none" points="155,534.701 164.26,534.701 " />
<polyline fill="none" vector-effect="none" points="155,442.101 164.26,442.101 " />
<polyline fill="none" vector-effect="none" points="155,349.501 164.26,349.501 " />
<polyline fill="none" vector-effect="none" points="155,256.901 164.26,256.901 " />
<polyline fill="none" vector-effect="none" points="155,164.301 164.26,164.301 " />
<polyline fill="none" vector-effect="none" points="155,71.7012 164.26,71.7012 " />
</g>

<g fill="#d9d9d9" fill-opacity="1" stroke="#d9d9d9" stroke-opacity="1" stroke-width="1" stroke-linecap="square" stroke-linejoin="bevel" transform="matrix(0.6,0,0,0.6,72.8,379.681)"
font-family="Helvetica" font-size="16" font-weight="400" font-style="normal" 
>
<text fill="#d9d9d9" fill-opacity="1" stroke="none" xml:space="preserve" x="0" y="0" font-family="Helvetica" font-size="16" font-weight="400" font-style="normal" 
 >-0.3</text>
</g>

<g fill="#d9d9d9" fill-opacity="1" stroke="#d9d9d9" stroke-opacity="1" stroke-width="1" stroke-linecap="square" stroke-linejoin="bevel" transform="matrix(0.6,0,0,0.6,72.8,324.121)"
font-family="Helvetica" font-size="16" font-weight="400" font-style="normal" 
>
<text fill="#d9d9d9" fill-opacity="1" stroke="none" xml:space="preserve" x="0" y="0" font-family="Helvetica" font-size="16" font-weight="400" font-style="normal" 
 >-0.2</text>
</g>

<g fill="#d9d9d9" fill-opacity="1" stroke="#d9d9d9" stroke-opacity="1" stroke-width="1" stroke-linecap="square" stroke-linejoin="bevel" transform="matrix(0.6,0,0,0.6,72.8,268.561)"
font-family="Helvetica" font-size="16" font-weight="400" font-style="normal" 
>
<text fill="#d9d9d9" fill-opacity="1" stroke="none" xml:space="preserve" x="0" y="0" font-family="Helvetica" font-size="16" font-weight="400" font-style="normal" 
 >-0.1</text>
</g>

<g fill="#d9d9d9" fill-opacity="1" stroke="#d9d9d9" stroke-opacity="1" stroke-width="1" stroke-linecap="square" stroke-linejoin="bevel" transform="matrix(0.6,0,0,0.6,83.6,213.001)"
font-family="Helvetica" font-size="16" font-weight="400" font-style="normal" 
>
<text fill="#d9d9d9" fill-opacity="1" stroke="none" xml:space="preserve" x="0" y="0" font-family="Helvetica" font-size="16" font-weight="400" font-style="normal" 
 >0</text>
</g>

<g fill="#d9d9d9" fill-opacity="1" stroke="#d9d9d9" stroke-opacity="1" stroke-width="1" stroke-linecap="square" stroke-linejoin="bevel" transform="matrix(0.6,0,0,0.6,75.8,157.441)"
font-family="Helvetica" font-size="16" font-weight="400" font-style="normal" 
>
<text fill="#d9d9d9" fill-opacity="1" stroke="none" xml:space="preserve" x="0" y="0" font-family="Helvetica" font-size="16" font-weight="400" font-style="normal" 
 >0.1</text>
</g>

<g fill="#d9d9d9" fill-opacity="1" stroke="#d9d9d9" stroke-opacity="1" stroke-width="1" stroke-linecap="square" stroke-linejoin="bevel" transform="matrix(0.6,0,0,0.6,75.8,101.881)"
font-family="Helvetica" font-size="16" font-weight="400" font-style="normal" 
>
<text fill="#d9d9d9" fill-opacity="1" stroke="none" xml:space="preserve" x="0" y="0" font-family="Helvetica" font-size="16" font-weight="400" font-style="normal" 
 >0.2</text>
</g>

<g fill="#d9d9d9" fill-opacity="1" stroke="#d9d9d9" stroke-opacity="1" stroke-width="1" stroke-linecap="square" stroke-linejoin="bevel" transform="matrix(0.6,0,0,0.6,75.8,46.3207)"
font-family="Helvetica" font-size="16" font-weight="400" font-style="normal" 
>
<text fill="#d9d9d9" fill-opacity="1" stroke="none" xml:space="preserve" x="0" y="0" font-family="Helvetica" font-size="16" font-weight="400" font-style="normal" 
 >0.3</text>
</g>

<g fill="#d9d9d9" fill-opacity="1" stroke="#d9d9d9" stroke-opacity="1" stroke-width="1" stroke-linecap="square" stroke-linejoin="bevel" transform="matrix(0.6,0,0,0.6,288.6,24.8054)"
font-family="Times New Roman" font-size="33" font-weight="700" font-style="normal" 
>
<text fill="#d9d9d9" fill-opacity="1" stroke="none" xml:space="preserve" x="0" y="0" font-family="Times New Roman" font-size="33" font-weight="700" font-style="normal" 
 >Airfoils Equal Axes</text>
</g>

<g fill="none" stroke="#000000" stroke-opacity="1" stroke-width="1.66667" stroke-linecap="butt" stroke-linejoin="round" transform="matrix(0.6,0,0,0.6,0,0)"
font-family="Times New Roman" font-size="33" font-weight="700" font-style="normal" 
>
<polyline fill="none" vector-effect="none" points="155,349.501 155.117,348.38 155.466,347.26 156.049,346.143 156.864,345.032 157.912,343.927 159.193,342.83 160.706,341.743 162.45,340.666 164.425,339.6 166.632,338.547 169.068,337.505 171.734,336.477 174.629,335.461 177.752,334.457 181.102,333.466 184.68,332.487 188.482,331.519 192.51,330.562 196.761,329.614 201.234,328.675 205.929,327.744 210.845,326.821 215.979,325.904 221.331,324.994 226.9,324.09 232.684,323.191 238.681,322.298 244.89,321.411 251.31,320.53 257.938,319.657 264.774,318.791 271.815,317.934 279.06,317.088 286.507,316.254 294.154,315.433 301.999,314.628 310.04,313.839 318.275,313.07 326.703,312.322 335.32,311.597 344.125,310.896 353.115,310.221 362.288,309.574 371.643,308.954 381.176,308.365 390.885,307.804 400.768,307.274 410.822,306.774 421.045,306.302 431.434,305.86 441.987,305.444 452.7,305.055 463.572,304.689 474.599,304.347 485.779,304.025 497.108,303.721 508.585,303.435 520.205,303.164 531.967,302.907 543.867,302.663 555.903,302.431 568.07,302.211 580.367,302.003 592.789,301.809 605.335,301.631 618,301.47 630.782,301.332 643.677,301.219 656.682,301.137 669.794,301.093 683.01,301.093 696.326,301.144 709.738,301.255 723.244,301.434 736.841,301.691 750.523,302.033 764.289,302.471 778.135,303.014 792.057,303.67 806.052,304.447 820.116,305.355 834.245,306.399 848.437,307.586 862.687,308.922 876.992,310.41 891.349,312.055 905.753,313.859 920.202,315.823 934.691,317.951 949.216,320.244 963.775,322.704 978.364,325.336 992.978,328.144 1007.61,331.136 1022.27,334.326 1036.94,337.73 1051.62,341.371 1066.31,345.281 1081,349.501 " />
<polyline fill="none" vector-effect="none" points="155,349.501 155.117,351.127 155.466,352.749 156.049,354.362 156.864,355.962 157.912,357.545 159.193,359.107 160.706,360.645 162.45,362.156 164.425,363.636 166.632,365.084 169.068,366.496 171.734,367.872 174.629,369.211 177.752,370.511 181.102,371.772 184.68,372.994 188.482,374.177 192.51,375.322 196.761,376.43 201.234,377.502 205.929,378.539 210.845,379.543 215.979,380.515 221.331,381.456 226.9,382.369 232.684,383.255 238.681,384.116 244.89,384.951 251.31,385.764 257.938,386.553 264.774,387.321 271.815,388.068 279.06,388.793 286.507,389.496 294.154,390.178 301.999,390.838 310.04,391.475 318.275,392.088 326.703,392.676 335.32,393.238 344.125,393.772 353.115,394.277 362.288,394.752 371.643,395.194 381.176,395.603 390.885,395.977 400.768,396.313 410.822,396.611 421.045,396.869 431.434,397.084 441.987,397.256 452.7,397.382 463.572,397.46 474.599,397.488 485.779,397.464 497.108,397.385 508.585,397.249 520.205,397.051 531.967,396.79 543.867,396.46 555.903,396.058 568.07,395.58 580.367,395.021 592.789,394.376 605.335,393.64 618,392.808 630.782,391.875 643.677,390.837 656.682,389.689 669.794,388.428 683.01,387.051 696.326,385.556 709.738,383.944 723.244,382.215 736.841,380.373 750.523,378.424 764.289,376.375 778.135,374.237 792.057,372.024 806.052,369.751 820.116,367.438 834.245,365.109 848.437,362.787 862.687,360.502 876.992,358.284 891.349,356.166 905.753,354.181 920.202,352.364 934.691,350.748 949.216,349.365 963.775,348.245 978.364,347.41 992.978,346.877 1007.61,346.655 1022.27,346.739 1036.94,347.112 1051.62,347.738 1066.31,348.561 1081,349.501 " />
</g>

<g fill="none" stroke="#ff0000" stroke-opacity="1" stroke-dasharray="10,6" stroke-dashoffset="0" stroke-width="1.66667" stroke-linecap="butt" stroke-linejoin="round" transform="matrix(0.6,0,0,0.6,0,0)"
font-family="Times New Roman" font-size="33" font-weight="700" font-style="normal" 
>
<polyline fill="none" vector-effect="none" points="155,349.501 155.117,347.958 155.466,346.42 156.049,344.891 156.864,343.377 157.912,341.883 159.193,340.411 160.706,338.967 162.45,337.553 164.425,336.172 166.632,334.827 169.068,333.52 171.734,332.252 174.629,331.023 177.752,329.834 181.102,328.684 184.68,327.573 188.482,326.499 192.51,325.46 196.761,324.455 201.234,323.48 205.929,322.533 210.845,321.612 215.979,320.713 221.331,319.834 226.9,318.972 232.684,318.124 238.681,317.288 244.89,316.461 251.31,315.642 257.938,314.829 264.774,314.021 271.815,313.218 279.06,312.419 286.507,311.625 294.154,310.835 301.999,310.052 310.04,309.276 318.275,308.509 326.703,307.753 335.32,307.01 344.125,306.282 353.115,305.573 362.288,304.884 371.643,304.217 381.176,303.576 390.885,302.961 400.768,302.376 410.822,301.822 421.045,301.299 431.434,300.811 441.987,300.356 452.7,299.936 463.572,299.55 474.599,299.199 485.779,298.883 497.108,298.601 508.585,298.352 520.205,298.136 531.967,297.952 543.867,297.8 555.903,297.68 568.07,297.591 580.367,297.535 592.789,297.512 605.335,297.524 618,297.572 630.782,297.661 643.677,297.792 656.682,297.97 669.794,298.2 683.01,298.487 696.326,298.837 709.738,299.256 723.244,299.75 736.841,300.327 750.523,300.992 764.289,301.753 778.135,302.616 792.057,303.586 806.052,304.67 820.116,305.871 834.245,307.194 848.437,308.64 862.687,310.212 876.992,311.909 891.349,313.733 905.753,315.681 920.202,317.752 934.691,319.944 949.216,322.256 963.775,324.687 978.364,327.239 992.978,329.917 1007.61,332.727 1022.27,335.684 1036.94,338.806 1051.62,342.122 1066.31,345.671 1081,349.501 " />
<polyline fill="none" vector-effect="none" points="155,349.501 155.117,351.147 155.466,352.789 156.049,354.42 156.864,356.037 157.912,357.635 159.193,359.21 160.706,360.757 162.45,362.273 164.425,363.754 166.632,365.197 169.068,366.601 171.734,367.962 174.629,369.279 177.752,370.551 181.102,371.776 184.68,372.955 188.482,374.087 192.51,375.172 196.761,376.211 201.234,377.206 205.929,378.156 210.845,379.064 215.979,379.931 221.331,380.758 226.9,381.548 232.684,382.302 238.681,383.022 244.89,383.708 251.31,384.364 257.938,384.991 264.774,385.589 271.815,386.159 279.06,386.704 286.507,387.223 294.154,387.718 301.999,388.188 310.04,388.633 318.275,389.055 326.703,389.453 335.32,389.826 344.125,390.174 353.115,390.497 362.288,390.793 371.643,391.063 381.176,391.305 390.885,391.519 400.768,391.703 410.822,391.856 421.045,391.977 431.434,392.065 441.987,392.118 452.7,392.135 463.572,392.113 474.599,392.05 485.779,391.945 497.108,391.794 508.585,391.596 520.205,391.345 531.967,391.04 543.867,390.676 555.903,390.249 568.07,389.755 580.367,389.19 592.789,388.548 605.335,387.824 618,387.015 630.782,386.115 643.677,385.121 656.682,384.028 669.794,382.833 683.01,381.534 696.326,380.131 709.738,378.622 723.244,377.011 736.841,375.301 750.523,373.497 764.289,371.608 778.135,369.644 792.057,367.618 806.052,365.547 820.116,363.448 834.245,361.344 848.437,359.258 862.687,357.218 876.992,355.251 891.349,353.388 905.753,351.661 920.202,350.101 934.691,348.739 949.216,347.605 963.775,346.725 978.364,346.119 992.978,345.804 1007.61,345.787 1022.27,346.062 1036.94,346.613 1051.62,347.408 1066.31,348.395 1081,349.501 " />
</g>

<g fill="#121212" fill-opacity="1" stroke="none" transform="matrix(6e-05,0,0,6e-05,0,0)"
font-family="Times New Roman" font-size="33" font-weight="700" font-style="normal" 
>
<path vector-effect="none" fill-rule="evenodd" d="M8.03e+06,650000 L8.03e+06,1.27e+06 L1.051e+07,1.27e+06 L1.051e+07,650000 L8.03e+06,650000"/>
</g>

<g fill="#000000" fill-opacity="1" stroke="#000000" stroke-opacity="1" stroke-width="1.66667" stroke-linecap="butt" stroke-linejoin="round" transform="matrix(0.6,0,0,0.6,0,0)"
font-family="Times New Roman" font-size="33" font-weight="700" font-style="normal" 
>
<polyline fill="none" vector-effect="none" points="807.985,81.6004 857.834,81.6004 " />
</g>

<g fill="#ff0000" fill-opacity="1" stroke="#ff0000" stroke-opacity="1" stroke-dasharray="10,6" stroke-dashoffset="0" stroke-width="1.66667" stroke-linecap="butt" stroke-linejoin="round" transform="matrix(0.6,0,0,0.6,0,0)"
font-family="Times New Roman" font-size="33" font-weight="700" font-style="normal" 
>
<polyline fill="none" vector-effect="none" points="807.985,110.4 857.834,110.4 " />
</g>

<g fill="#d9d9d9" fill-opacity="1" stroke="#d9d9d9" stroke-opacity="1" stroke-width="1" stroke-linecap="square" stroke-linejoin="bevel" transform="matrix(0.6,0,0,0.6,516.944,54.0602)"
font-family="Helvetica" font-size="25" font-weight="400" font-style="normal" 
>
<text fill="#d9d9d9" fill-opacity="1" stroke="none" xml:space="preserve" x="0" y="0" font-family="Helvetica" font-size="25" font-weight="400" font-style="normal" 
 >Current Airfoil</text>
</g>

<g fill="#d9d9d9" fill-opacity="1" stroke="#d9d9d9" stroke-opacity="1" stroke-width="1" stroke-linecap="square" stroke-linejoin="bevel" transform="matrix(0.6,0,0,0.6,516.944,71.3398)"
font-family="Helvetica" font-size="25" font-weight="400" font-style="normal" 
>
<text fill="#d9d9d9" fill-opacity="1" stroke="none" xml:space="preserve" x="0" y="0" font-family="Helvetica" font-size="25" font-weight="400" font-style="normal" 
 >Reference Airfoil</text>
</g>

<g fill="none" stroke="#d9d9d9" stroke-opacity="1" stroke-width="0.833333" stroke-linecap="butt" stroke-linejoin="miter" stroke-miterlimit="2" transform="matrix(0.6,0,0,0.6,0,0)"
font-family="Helvetica" font-size="25" font-weight="400" font-style="normal" 
>
<path vector-effect="none" fill-rule="evenodd" d="M803,127 L803,65 L1051,65 L1051,127 L803,127"/>
</g>
</g>
</svg>
