<?xml version="1.0" encoding="UTF-8" standalone="no"?>
<svg width="284.339mm" height="171.45mm"
 viewBox="0 0 806 486"
 xmlns="http://www.w3.org/2000/svg" xmlns:xlink="http://www.w3.org/1999/xlink"  version="1.2" baseProfile="tiny">
<title>Qt SVG Document</title>
<desc>MATLAB, The MathWorks, Inc. Version 25.1.0.2973910 R2025a Update 1</desc>
<defs>
</defs>
<g fill="none" stroke="black" stroke-width="1" fill-rule="evenodd" stroke-linecap="square" stroke-linejoin="bevel" >

<g fill="#000000" fill-opacity="1" stroke="none" transform="matrix(0.75,0,0,0.75,0,0)"
font-family="MS Shell Dlg 2" font-size="9.75" font-weight="400" font-style="normal" 
>
<path vector-effect="none" fill-rule="evenodd" d="M0,0 L1075,0 L1075,648 L0,648 L0,0"/>
</g>

<g fill="#121212" fill-opacity="1" stroke="none" transform="matrix(7.5e-05,0,0,7.5e-05,0,0)"
font-family="MS Shell Dlg 2" font-size="9.75" font-weight="400" font-style="normal" 
>
<path vector-effect="none" fill-rule="evenodd" d="M1.40066e+06,490000 L1.40066e+06,5.76e+06 L9.71934e+06,5.76e+06 L9.71934e+06,490000 L1.40066e+06,490000"/>
</g>

<g fill="#d9d9d9" fill-opacity="1" stroke="#d9d9d9" stroke-opacity="1" stroke-width="1" stroke-linecap="square" stroke-linejoin="bevel" transform="matrix(0.75,0,0,0.75,407.25,462.5)"
font-family="Helvetica" font-size="20" font-weight="400" font-style="normal" 
>
<text fill="#d9d9d9" fill-opacity="1" stroke="none" xml:space="preserve" x="0" y="0" font-family="Helvetica" font-size="20" font-weight="400" font-style="normal" 
 >x/c</text>
</g>

<g fill="#d9d9d9" fill-opacity="1" stroke="#d9d9d9" stroke-opacity="1" stroke-width="0.666667" stroke-linecap="square" stroke-linejoin="round" transform="matrix(0.75,0,0,0.75,0,0)"
font-family="Helvetica" font-size="20" font-weight="400" font-style="normal" 
>
<polyline fill="none" vector-effect="none" points="140.066,576 971.934,576 " />
<polyline fill="none" vector-effect="none" points="140.066,576 140.066,567.681 " />
<polyline fill="none" vector-effect="none" points="223.253,576 223.253,567.681 " />
<polyline fill="none" vector-effect="none" points="306.439,576 306.439,567.681 " />
<polyline fill="none" vector-effect="none" points="389.626,576 389.626,567.681 " />
<polyline fill="none" vector-effect="none" points="472.813,576 472.813,567.681 " />
<polyline fill="none" vector-effect="none" points="556,576 556,567.681 " />
<polyline fill="none" vector-effect="none" points="639.187,576 639.187,567.681 " />
<polyline fill="none" vector-effect="none" points="722.374,576 722.374,567.681 " />
<polyline fill="none" vector-effect="none" points="805.561,576 805.561,567.681 " />
<polyline fill="none" vector-effect="none" points="888.747,576 888.747,567.681 " />
<polyline fill="none" vector-effect="none" points="971.934,576 971.934,567.681 " />
</g>

<g fill="#d9d9d9" fill-opacity="1" stroke="#d9d9d9" stroke-opacity="1" stroke-width="1" stroke-linecap="square" stroke-linejoin="bevel" transform="matrix(0.75,0,0,0.75,102.424,445)"
font-family="Helvetica" font-size="13" font-weight="400" font-style="normal" 
>
<text fill="#d9d9d9" fill-opacity="1" stroke="none" xml:space="preserve" x="0" y="0" font-family="Helvetica" font-size="13" font-weight="400" font-style="normal" 
 >0</text>
</g>

<g fill="#d9d9d9" fill-opacity="1" stroke="#d9d9d9" stroke-opacity="1" stroke-width="1" stroke-linecap="square" stroke-linejoin="bevel" transform="matrix(0.75,0,0,0.75,160.689,445)"
font-family="Helvetica" font-size="13" font-weight="400" font-style="normal" 
>
<text fill="#d9d9d9" fill-opacity="1" stroke="none" xml:space="preserve" x="0" y="0" font-family="Helvetica" font-size="13" font-weight="400" font-style="normal" 
 >0.1</text>
</g>

<g fill="#d9d9d9" fill-opacity="1" stroke="#d9d9d9" stroke-opacity="1" stroke-width="1" stroke-linecap="square" stroke-linejoin="bevel" transform="matrix(0.75,0,0,0.75,223.08,445)"
font-family="Helvetica" font-size="13" font-weight="400" font-style="normal" 
>
<text fill="#d9d9d9" fill-opacity="1" stroke="none" xml:space="preserve" x="0" y="0" font-family="Helvetica" font-size="13" font-weight="400" font-style="normal" 
 >0.2</text>
</g>

<g fill="#d9d9d9" fill-opacity="1" stroke="#d9d9d9" stroke-opacity="1" stroke-width="1" stroke-linecap="square" stroke-linejoin="bevel" transform="matrix(0.75,0,0,0.75,285.47,445)"
font-family="Helvetica" font-size="13" font-weight="400" font-style="normal" 
>
<text fill="#d9d9d9" fill-opacity="1" stroke="none" xml:space="preserve" x="0" y="0" font-family="Helvetica" font-size="13" font-weight="400" font-style="normal" 
 >0.3</text>
</g>

<g fill="#d9d9d9" fill-opacity="1" stroke="#d9d9d9" stroke-opacity="1" stroke-width="1" stroke-linecap="square" stroke-linejoin="bevel" transform="matrix(0.75,0,0,0.75,347.86,445)"
font-family="Helvetica" font-size="13" font-weight="400" font-style="normal" 
>
<text fill="#d9d9d9" fill-opacity="1" stroke="none" xml:space="preserve" x="0" y="0" font-family="Helvetica" font-size="13" font-weight="400" font-style="normal" 
 >0.4</text>
</g>

<g fill="#d9d9d9" fill-opacity="1" stroke="#d9d9d9" stroke-opacity="1" stroke-width="1" stroke-linecap="square" stroke-linejoin="bevel" transform="matrix(0.75,0,0,0.75,410.25,445)"
font-family="Helvetica" font-size="13" font-weight="400" font-style="normal" 
>
<text fill="#d9d9d9" fill-opacity="1" stroke="none" xml:space="preserve" x="0" y="0" font-family="Helvetica" font-size="13" font-weight="400" font-style="normal" 
 >0.5</text>
</g>

<g fill="#d9d9d9" fill-opacity="1" stroke="#d9d9d9" stroke-opacity="1" stroke-width="1" stroke-linecap="square" stroke-linejoin="bevel" transform="matrix(0.75,0,0,0.75,472.64,445)"
font-family="Helvetica" font-size="13" font-weight="400" font-style="normal" 
>
<text fill="#d9d9d9" fill-opacity="1" stroke="none" xml:space="preserve" x="0" y="0" font-family="Helvetica" font-size="13" font-weight="400" font-style="normal" 
 >0.6</text>
</g>

<g fill="#d9d9d9" fill-opacity="1" stroke="#d9d9d9" stroke-opacity="1" stroke-width="1" stroke-linecap="square" stroke-linejoin="bevel" transform="matrix(0.75,0,0,0.75,535.03,445)"
font-family="Helvetica" font-size="13" font-weight="400" font-style="normal" 
>
<text fill="#d9d9d9" fill-opacity="1" stroke="none" xml:space="preserve" x="0" y="0" font-family="Helvetica" font-size="13" font-weight="400" font-style="normal" 
 >0.7</text>
</g>

<g fill="#d9d9d9" fill-opacity="1" stroke="#d9d9d9" stroke-opacity="1" stroke-width="1" stroke-linecap="square" stroke-linejoin="bevel" transform="matrix(0.75,0,0,0.75,597.42,445)"
font-family="Helvetica" font-size="13" font-weight="400" font-style="normal" 
>
<text fill="#d9d9d9" fill-opacity="1" stroke="none" xml:space="preserve" x="0" y="0" font-family="Helvetica" font-size="13" font-weight="400" font-style="normal" 
 >0.8</text>
</g>

<g fill="#d9d9d9" fill-opacity="1" stroke="#d9d9d9" stroke-opacity="1" stroke-width="1" stroke-linecap="square" stroke-linejoin="bevel" transform="matrix(0.75,0,0,0.75,659.811,445)"
font-family="Helvetica" font-size="13" font-weight="400" font-style="normal" 
>
<text fill="#d9d9d9" fill-opacity="1" stroke="none" xml:space="preserve" x="0" y="0" font-family="Helvetica" font-size="13" font-weight="400" font-style="normal" 
 >0.9</text>
</g>

<g fill="#d9d9d9" fill-opacity="1" stroke="#d9d9d9" stroke-opacity="1" stroke-width="1" stroke-linecap="square" stroke-linejoin="bevel" transform="matrix(0.75,0,0,0.75,726.326,445)"
font-family="Helvetica" font-size="13" font-weight="400" font-style="normal" 
>
<text fill="#d9d9d9" fill-opacity="1" stroke="none" xml:space="preserve" x="0" y="0" font-family="Helvetica" font-size="13" font-weight="400" font-style="normal" 
 >1</text>
</g>

<g fill="#d9d9d9" fill-opacity="1" stroke="#d9d9d9" stroke-opacity="1" stroke-width="1" stroke-linecap="square" stroke-linejoin="bevel" transform="matrix(0,-0.75,0.75,0,77.0493,244.125)"
font-family="Helvetica" font-size="20" font-weight="400" font-style="normal" 
>
<text fill="#d9d9d9" fill-opacity="1" stroke="none" xml:space="preserve" x="0" y="0" font-family="Helvetica" font-size="20" font-weight="400" font-style="normal" 
 >y/c</text>
</g>

<g fill="#d9d9d9" fill-opacity="1" stroke="#d9d9d9" stroke-opacity="1" stroke-width="0.666667" stroke-linecap="square" stroke-linejoin="round" transform="matrix(0.75,0,0,0.75,0,0)"
font-family="Helvetica" font-size="20" font-weight="400" font-style="normal" 
>
<polyline fill="none" vector-effect="none" points="140.066,576 140.066,49 " />
<polyline fill="none" vector-effect="none" points="140.066,562.393 148.384,562.393 " />
<polyline fill="none" vector-effect="none" points="140.066,479.206 148.384,479.206 " />
<polyline fill="none" vector-effect="none" points="140.066,396.019 148.384,396.019 " />
<polyline fill="none" vector-effect="none" points="140.066,312.833 148.384,312.833 " />
<polyline fill="none" vector-effect="none" points="140.066,229.646 148.384,229.646 " />
<polyline fill="none" vector-effect="none" points="140.066,146.459 148.384,146.459 " />
<polyline fill="none" vector-effect="none" points="140.066,63.2719 148.384,63.2719 " />
</g>

<g fill="#d9d9d9" fill-opacity="1" stroke="#d9d9d9" stroke-opacity="1" stroke-width="1" stroke-linecap="square" stroke-linejoin="bevel" transform="matrix(0.75,0,0,0.75,84.5493,425.17)"
font-family="Helvetica" font-size="13" font-weight="400" font-style="normal" 
>
<text fill="#d9d9d9" fill-opacity="1" stroke="none" xml:space="preserve" x="0" y="0" font-family="Helvetica" font-size="13" font-weight="400" font-style="normal" 
 >-0.3</text>
</g>

<g fill="#d9d9d9" fill-opacity="1" stroke="#d9d9d9" stroke-opacity="1" stroke-width="1" stroke-linecap="square" stroke-linejoin="bevel" transform="matrix(0.75,0,0,0.75,84.5493,362.78)"
font-family="Helvetica" font-size="13" font-weight="400" font-style="normal" 
>
<text fill="#d9d9d9" fill-opacity="1" stroke="none" xml:space="preserve" x="0" y="0" font-family="Helvetica" font-size="13" font-weight="400" font-style="normal" 
 >-0.2</text>
</g>

<g fill="#d9d9d9" fill-opacity="1" stroke="#d9d9d9" stroke-opacity="1" stroke-width="1" stroke-linecap="square" stroke-linejoin="bevel" transform="matrix(0.75,0,0,0.75,84.5493,300.39)"
font-family="Helvetica" font-size="13" font-weight="400" font-style="normal" 
>
<text fill="#d9d9d9" fill-opacity="1" stroke="none" xml:space="preserve" x="0" y="0" font-family="Helvetica" font-size="13" font-weight="400" font-style="normal" 
 >-0.1</text>
</g>

<g fill="#d9d9d9" fill-opacity="1" stroke="#d9d9d9" stroke-opacity="1" stroke-width="1" stroke-linecap="square" stroke-linejoin="bevel" transform="matrix(0.75,0,0,0.75,95.7993,237.999)"
font-family="Helvetica" font-size="13" font-weight="400" font-style="normal" 
>
<text fill="#d9d9d9" fill-opacity="1" stroke="none" xml:space="preserve" x="0" y="0" font-family="Helvetica" font-size="13" font-weight="400" font-style="normal" 
 >0</text>
</g>

<g fill="#d9d9d9" fill-opacity="1" stroke="#d9d9d9" stroke-opacity="1" stroke-width="1" stroke-linecap="square" stroke-linejoin="bevel" transform="matrix(0.75,0,0,0.75,87.5493,175.609)"
font-family="Helvetica" font-size="13" font-weight="400" font-style="normal" 
>
<text fill="#d9d9d9" fill-opacity="1" stroke="none" xml:space="preserve" x="0" y="0" font-family="Helvetica" font-size="13" font-weight="400" font-style="normal" 
 >0.1</text>
</g>

<g fill="#d9d9d9" fill-opacity="1" stroke="#d9d9d9" stroke-opacity="1" stroke-width="1" stroke-linecap="square" stroke-linejoin="bevel" transform="matrix(0.75,0,0,0.75,87.5493,113.219)"
font-family="Helvetica" font-size="13" font-weight="400" font-style="normal" 
>
<text fill="#d9d9d9" fill-opacity="1" stroke="none" xml:space="preserve" x="0" y="0" font-family="Helvetica" font-size="13" font-weight="400" font-style="normal" 
 >0.2</text>
</g>

<g fill="#d9d9d9" fill-opacity="1" stroke="#d9d9d9" stroke-opacity="1" stroke-width="1" stroke-linecap="square" stroke-linejoin="bevel" transform="matrix(0.75,0,0,0.75,87.5493,50.829)"
font-family="Helvetica" font-size="13" font-weight="400" font-style="normal" 
>
<text fill="#d9d9d9" fill-opacity="1" stroke="none" xml:space="preserve" x="0" y="0" font-family="Helvetica" font-size="13" font-weight="400" font-style="normal" 
 >0.3</text>
</g>

<g fill="#d9d9d9" fill-opacity="1" stroke="#d9d9d9" stroke-opacity="1" stroke-width="1" stroke-linecap="square" stroke-linejoin="bevel" transform="matrix(0.75,0,0,0.75,336,28.5)"
font-family="Times New Roman" font-size="26" font-weight="700" font-style="normal" 
>
<text fill="#d9d9d9" fill-opacity="1" stroke="none" xml:space="preserve" x="0" y="0" font-family="Times New Roman" font-size="26" font-weight="700" font-style="normal" 
 >Airfoils Equal Axes</text>
</g>

<g fill="none" stroke="#000000" stroke-opacity="1" stroke-width="1.33333" stroke-linecap="butt" stroke-linejoin="round" transform="matrix(0.75,0,0,0.75,0,0)"
font-family="Times New Roman" font-size="26" font-weight="700" font-style="normal" 
>
<polyline fill="none" vector-effect="none" points="140.066,312.833 140.17,311.692 140.485,310.554 141.008,309.422 141.741,308.297 142.682,307.183 143.832,306.082 145.191,304.995 146.758,303.925 148.533,302.873 150.515,301.839 152.704,300.826 155.099,299.833 157.699,298.86 160.505,297.907 163.515,296.974 166.728,296.06 170.144,295.164 173.762,294.284 177.581,293.42 181.6,292.569 185.818,291.73 190.234,290.902 194.846,290.083 199.654,289.272 204.657,288.466 209.852,287.666 215.24,286.869 220.818,286.076 226.585,285.286 232.54,284.499 238.681,283.715 245.006,282.935 251.515,282.159 258.205,281.389 265.074,280.627 272.122,279.873 279.346,279.131 286.744,278.402 294.314,277.688 302.055,276.992 309.965,276.316 318.041,275.662 326.282,275.033 334.686,274.43 343.25,273.857 351.972,273.313 360.851,272.8 369.883,272.32 379.066,271.873 388.399,271.46 397.879,271.079 407.504,270.731 417.27,270.415 427.176,270.13 437.219,269.874 447.397,269.646 457.707,269.445 468.147,269.268 478.713,269.114 489.403,268.981 500.215,268.868 511.146,268.774 522.192,268.698 533.352,268.64 544.622,268.6 556,268.579 567.482,268.58 579.067,268.604 590.75,268.654 602.529,268.735 614.401,268.851 626.364,269.008 638.413,269.211 650.546,269.467 662.76,269.783 675.052,270.168 687.418,270.628 699.857,271.171 712.363,271.806 724.936,272.541 737.57,273.382 750.263,274.337 763.012,275.412 775.814,276.613 788.665,277.945 801.562,279.412 814.502,281.019 827.482,282.769 840.498,284.664 853.547,286.707 866.626,288.901 879.732,291.251 892.86,293.76 906.009,296.436 919.174,299.29 932.352,302.334 945.541,305.589 958.736,309.077 971.934,312.833 " />
<polyline fill="none" vector-effect="none" points="140.066,312.833 140.17,314.436 140.485,316.035 141.008,317.625 141.741,319.201 142.682,320.758 143.832,322.293 145.191,323.801 146.758,325.28 148.533,326.727 150.515,328.138 152.704,329.512 155.099,330.848 157.699,332.144 160.505,333.399 163.515,334.614 166.728,335.788 170.144,336.923 173.762,338.02 177.581,339.079 181.6,340.103 185.818,341.093 190.234,342.052 194.846,342.981 199.654,343.883 204.657,344.759 209.852,345.611 215.24,346.442 220.818,347.252 226.585,348.043 232.54,348.815 238.681,349.569 245.006,350.306 251.515,351.025 258.205,351.725 265.074,352.406 272.122,353.067 279.346,353.705 286.744,354.318 294.314,354.905 302.055,355.463 309.965,355.989 318.041,356.481 326.282,356.935 334.686,357.349 343.25,357.719 351.972,358.043 360.851,358.318 369.883,358.541 379.066,358.709 388.399,358.82 397.879,358.872 407.504,358.862 417.27,358.789 427.176,358.65 437.219,358.445 447.397,358.171 457.707,357.827 468.147,357.412 478.713,356.924 489.403,356.363 500.215,355.727 511.146,355.014 522.192,354.225 533.352,353.357 544.622,352.409 556,351.381 567.482,350.272 579.067,349.081 590.75,347.808 602.529,346.453 614.401,345.017 626.364,343.501 638.413,341.908 650.546,340.241 662.76,338.505 675.052,336.705 687.418,334.851 699.857,332.95 712.363,331.015 724.936,329.058 737.57,327.095 750.263,325.144 763.012,323.222 775.814,321.352 788.665,319.556 801.562,317.858 814.502,316.282 827.482,314.853 840.498,313.595 853.547,312.531 866.626,311.68 879.732,311.058 892.86,310.676 906.009,310.536 919.174,310.633 932.352,310.951 945.541,311.457 958.736,312.106 971.934,312.833 " />
</g>

<g fill="none" stroke="#ff0000" stroke-opacity="1" stroke-dasharray="10,6" stroke-dashoffset="0" stroke-width="1.33333" stroke-linecap="butt" stroke-linejoin="round" transform="matrix(0.75,0,0,0.75,0,0)"
font-family="Times New Roman" font-size="26" font-weight="700" font-style="normal" 
>
<polyline fill="none" vector-effect="none" points="140.066,312.833 140.17,311.446 140.485,310.064 141.008,308.691 141.741,307.331 142.682,305.988 143.832,304.666 145.191,303.369 146.758,302.099 148.533,300.858 150.515,299.65 152.704,298.476 155.099,297.337 157.699,296.233 160.505,295.165 163.515,294.132 166.728,293.134 170.144,292.169 173.762,291.235 177.581,290.332 181.6,289.456 185.818,288.606 190.234,287.779 194.846,286.971 199.654,286.181 204.657,285.407 209.852,284.645 215.24,283.894 220.818,283.151 226.585,282.415 232.54,281.685 238.681,280.959 245.006,280.238 251.515,279.52 258.205,278.806 265.074,278.097 272.122,277.393 279.346,276.696 286.744,276.007 294.314,275.328 302.055,274.661 309.965,274.007 318.041,273.37 326.282,272.751 334.686,272.152 343.25,271.576 351.972,271.024 360.851,270.498 369.883,270 379.066,269.531 388.399,269.091 397.879,268.683 407.504,268.305 417.27,267.959 427.176,267.644 437.219,267.36 447.397,267.106 457.707,266.883 468.147,266.689 478.713,266.523 489.403,266.387 500.215,266.279 511.146,266.199 522.192,266.149 533.352,266.128 544.622,266.139 556,266.182 567.482,266.262 579.067,266.38 590.75,266.54 602.529,266.747 614.401,267.005 626.364,267.319 638.413,267.695 650.546,268.139 662.76,268.657 675.052,269.254 687.418,269.938 699.857,270.713 712.363,271.585 724.936,272.559 737.57,273.638 750.263,274.826 763.012,276.125 775.814,277.537 788.665,279.062 801.562,280.7 814.502,282.45 827.482,284.31 840.498,286.28 853.547,288.356 866.626,290.541 879.732,292.834 892.86,295.239 906.009,297.763 919.174,300.419 932.352,303.224 945.541,306.204 958.736,309.391 971.934,312.833 " />
<polyline fill="none" vector-effect="none" points="140.066,312.833 140.17,314.311 140.485,315.786 141.008,317.251 141.741,318.704 142.682,320.14 143.832,321.554 145.191,322.944 146.758,324.306 148.533,325.636 150.515,326.933 152.704,328.194 155.099,329.417 157.699,330.6 160.505,331.742 163.515,332.843 166.728,333.902 170.144,334.919 173.762,335.894 177.581,336.828 181.6,337.721 185.818,338.575 190.234,339.39 194.846,340.169 199.654,340.912 204.657,341.622 209.852,342.299 215.24,342.945 220.818,343.562 226.585,344.152 232.54,344.714 238.681,345.251 245.006,345.764 251.515,346.253 258.205,346.72 265.074,347.164 272.122,347.586 279.346,347.987 286.744,348.366 294.314,348.723 302.055,349.058 309.965,349.371 318.041,349.661 326.282,349.927 334.686,350.17 343.25,350.387 351.972,350.579 360.851,350.744 369.883,350.882 379.066,350.991 388.399,351.07 397.879,351.117 407.504,351.132 417.27,351.113 427.176,351.056 437.219,350.962 447.397,350.827 457.707,350.648 468.147,350.423 478.713,350.149 489.403,349.822 500.215,349.438 511.146,348.995 522.192,348.486 533.352,347.91 544.622,347.26 556,346.533 567.482,345.725 579.067,344.831 590.75,343.849 602.529,342.776 614.401,341.609 626.364,340.348 638.413,338.993 650.546,337.546 662.76,336.009 675.052,334.389 687.418,332.692 699.857,330.927 712.363,329.108 724.936,327.247 737.57,325.362 750.263,323.471 763.012,321.598 775.814,319.765 788.665,317.998 801.562,316.324 814.502,314.773 827.482,313.371 840.498,312.148 853.547,311.129 866.626,310.338 879.732,309.795 892.86,309.512 906.009,309.495 919.174,309.743 932.352,310.238 945.541,310.952 958.736,311.839 971.934,312.833 " />
</g>

<g fill="#121212" fill-opacity="1" stroke="none" transform="matrix(7.5e-05,0,0,7.5e-05,0,0)"
font-family="Times New Roman" font-size="26" font-weight="700" font-style="normal" 
>
<path vector-effect="none" fill-rule="evenodd" d="M7.34e+06,570000 L7.34e+06,1.06e+06 L9.33e+06,1.06e+06 L9.33e+06,570000 L7.34e+06,570000"/>
</g>

<g fill="#000000" fill-opacity="1" stroke="#000000" stroke-opacity="1" stroke-width="1.33333" stroke-linecap="butt" stroke-linejoin="round" transform="matrix(0.75,0,0,0.75,0,0)"
font-family="Times New Roman" font-size="26" font-weight="700" font-style="normal" 
>
<polyline fill="none" vector-effect="none" points="738,70.134 778,70.134 " />
</g>

<g fill="#ff0000" fill-opacity="1" stroke="#ff0000" stroke-opacity="1" stroke-dasharray="10,6" stroke-dashoffset="0" stroke-width="1.33333" stroke-linecap="butt" stroke-linejoin="round" transform="matrix(0.75,0,0,0.75,0,0)"
font-family="Times New Roman" font-size="26" font-weight="700" font-style="normal" 
>
<polyline fill="none" vector-effect="none" points="738,92.866 778,92.866 " />
</g>

<g fill="#d9d9d9" fill-opacity="1" stroke="#d9d9d9" stroke-opacity="1" stroke-width="1" stroke-linecap="square" stroke-linejoin="bevel" transform="matrix(0.75,0,0,0.75,585.75,57.8505)"
font-family="Helvetica" font-size="20" font-weight="400" font-style="normal" 
>
<text fill="#d9d9d9" fill-opacity="1" stroke="none" xml:space="preserve" x="0" y="0" font-family="Helvetica" font-size="20" font-weight="400" font-style="normal" 
 >Current Airfoil</text>
</g>

<g fill="#d9d9d9" fill-opacity="1" stroke="#d9d9d9" stroke-opacity="1" stroke-width="1" stroke-linecap="square" stroke-linejoin="bevel" transform="matrix(0.75,0,0,0.75,585.75,74.8995)"
font-family="Helvetica" font-size="20" font-weight="400" font-style="normal" 
>
<text fill="#d9d9d9" fill-opacity="1" stroke="none" xml:space="preserve" x="0" y="0" font-family="Helvetica" font-size="20" font-weight="400" font-style="normal" 
 >Reference Airfoil</text>
</g>

<g fill="none" stroke="#d9d9d9" stroke-opacity="1" stroke-width="0.666667" stroke-linecap="butt" stroke-linejoin="miter" stroke-miterlimit="2" transform="matrix(0.75,0,0,0.75,0,0)"
font-family="Helvetica" font-size="20" font-weight="400" font-style="normal" 
>
<path vector-effect="none" fill-rule="evenodd" d="M734,106 L734,57 L933,57 L933,106 L734,106"/>
</g>
</g>
</svg>
