<?xml version="1.0" encoding="UTF-8" standalone="no"?>
<svg width="284.339mm" height="171.45mm"
 viewBox="0 0 806 486"
 xmlns="http://www.w3.org/2000/svg" xmlns:xlink="http://www.w3.org/1999/xlink"  version="1.2" baseProfile="tiny">
<title>Qt SVG Document</title>
<desc>MATLAB, The MathWorks, Inc. Version 25.1.0.2973910 R2025a Update 1</desc>
<defs>
</defs>
<g fill="none" stroke="black" stroke-width="1" fill-rule="evenodd" stroke-linecap="square" stroke-linejoin="bevel" >

<g fill="#000000" fill-opacity="1" stroke="none" transform="matrix(0.75,0,0,0.75,0,0)"
font-family="MS Shell Dlg 2" font-size="9.75" font-weight="400" font-style="normal" 
>
<path vector-effect="none" fill-rule="evenodd" d="M0,0 L1075,0 L1075,648 L0,648 L0,0"/>
</g>

<g fill="#121212" fill-opacity="1" stroke="none" transform="matrix(7.5e-05,0,0,7.5e-05,0,0)"
font-family="MS Shell Dlg 2" font-size="9.75" font-weight="400" font-style="normal" 
>
<path vector-effect="none" fill-rule="evenodd" d="M1.40066e+06,490000 L1.40066e+06,5.76e+06 L9.71934e+06,5.76e+06 L9.71934e+06,490000 L1.40066e+06,490000"/>
</g>

<g fill="#d9d9d9" fill-opacity="1" stroke="#d9d9d9" stroke-opacity="1" stroke-width="1" stroke-linecap="square" stroke-linejoin="bevel" transform="matrix(0.75,0,0,0.75,407.25,462.5)"
font-family="Helvetica" font-size="20" font-weight="400" font-style="normal" 
>
<text fill="#d9d9d9" fill-opacity="1" stroke="none" xml:space="preserve" x="0" y="0" font-family="Helvetica" font-size="20" font-weight="400" font-style="normal" 
 >x/c</text>
</g>

<g fill="#d9d9d9" fill-opacity="1" stroke="#d9d9d9" stroke-opacity="1" stroke-width="0.666667" stroke-linecap="square" stroke-linejoin="round" transform="matrix(0.75,0,0,0.75,0,0)"
font-family="Helvetica" font-size="20" font-weight="400" font-style="normal" 
>
<polyline fill="none" vector-effect="none" points="140.066,576 971.934,576 " />
<polyline fill="none" vector-effect="none" points="140.066,576 140.066,567.681 " />
<polyline fill="none" vector-effect="none" points="223.253,576 223.253,567.681 " />
<polyline fill="none" vector-effect="none" points="306.439,576 306.439,567.681 " />
<polyline fill="none" vector-effect="none" points="389.626,576 389.626,567.681 " />
<polyline fill="none" vector-effect="none" points="472.813,576 472.813,567.681 " />
<polyline fill="none" vector-effect="none" points="556,576 556,567.681 " />
<polyline fill="none" vector-effect="none" points="639.187,576 639.187,567.681 " />
<polyline fill="none" vector-effect="none" points="722.374,576 722.374,567.681 " />
<polyline fill="none" vector-effect="none" points="805.561,576 805.561,567.681 " />
<polyline fill="none" vector-effect="none" points="888.747,576 888.747,567.681 " />
<polyline fill="none" vector-effect="none" points="971.934,576 971.934,567.681 " />
</g>

<g fill="#d9d9d9" fill-opacity="1" stroke="#d9d9d9" stroke-opacity="1" stroke-width="1" stroke-linecap="square" stroke-linejoin="bevel" transform="matrix(0.75,0,0,0.75,102.424,445)"
font-family="Helvetica" font-size="13" font-weight="400" font-style="normal" 
>
<text fill="#d9d9d9" fill-opacity="1" stroke="none" xml:space="preserve" x="0" y="0" font-family="Helvetica" font-size="13" font-weight="400" font-style="normal" 
 >0</text>
</g>

<g fill="#d9d9d9" fill-opacity="1" stroke="#d9d9d9" stroke-opacity="1" stroke-width="1" stroke-linecap="square" stroke-linejoin="bevel" transform="matrix(0.75,0,0,0.75,160.689,445)"
font-family="Helvetica" font-size="13" font-weight="400" font-style="normal" 
>
<text fill="#d9d9d9" fill-opacity="1" stroke="none" xml:space="preserve" x="0" y="0" font-family="Helvetica" font-size="13" font-weight="400" font-style="normal" 
 >0.1</text>
</g>

<g fill="#d9d9d9" fill-opacity="1" stroke="#d9d9d9" stroke-opacity="1" stroke-width="1" stroke-linecap="square" stroke-linejoin="bevel" transform="matrix(0.75,0,0,0.75,223.08,445)"
font-family="Helvetica" font-size="13" font-weight="400" font-style="normal" 
>
<text fill="#d9d9d9" fill-opacity="1" stroke="none" xml:space="preserve" x="0" y="0" font-family="Helvetica" font-size="13" font-weight="400" font-style="normal" 
 >0.2</text>
</g>

<g fill="#d9d9d9" fill-opacity="1" stroke="#d9d9d9" stroke-opacity="1" stroke-width="1" stroke-linecap="square" stroke-linejoin="bevel" transform="matrix(0.75,0,0,0.75,285.47,445)"
font-family="Helvetica" font-size="13" font-weight="400" font-style="normal" 
>
<text fill="#d9d9d9" fill-opacity="1" stroke="none" xml:space="preserve" x="0" y="0" font-family="Helvetica" font-size="13" font-weight="400" font-style="normal" 
 >0.3</text>
</g>

<g fill="#d9d9d9" fill-opacity="1" stroke="#d9d9d9" stroke-opacity="1" stroke-width="1" stroke-linecap="square" stroke-linejoin="bevel" transform="matrix(0.75,0,0,0.75,347.86,445)"
font-family="Helvetica" font-size="13" font-weight="400" font-style="normal" 
>
<text fill="#d9d9d9" fill-opacity="1" stroke="none" xml:space="preserve" x="0" y="0" font-family="Helvetica" font-size="13" font-weight="400" font-style="normal" 
 >0.4</text>
</g>

<g fill="#d9d9d9" fill-opacity="1" stroke="#d9d9d9" stroke-opacity="1" stroke-width="1" stroke-linecap="square" stroke-linejoin="bevel" transform="matrix(0.75,0,0,0.75,410.25,445)"
font-family="Helvetica" font-size="13" font-weight="400" font-style="normal" 
>
<text fill="#d9d9d9" fill-opacity="1" stroke="none" xml:space="preserve" x="0" y="0" font-family="Helvetica" font-size="13" font-weight="400" font-style="normal" 
 >0.5</text>
</g>

<g fill="#d9d9d9" fill-opacity="1" stroke="#d9d9d9" stroke-opacity="1" stroke-width="1" stroke-linecap="square" stroke-linejoin="bevel" transform="matrix(0.75,0,0,0.75,472.64,445)"
font-family="Helvetica" font-size="13" font-weight="400" font-style="normal" 
>
<text fill="#d9d9d9" fill-opacity="1" stroke="none" xml:space="preserve" x="0" y="0" font-family="Helvetica" font-size="13" font-weight="400" font-style="normal" 
 >0.6</text>
</g>

<g fill="#d9d9d9" fill-opacity="1" stroke="#d9d9d9" stroke-opacity="1" stroke-width="1" stroke-linecap="square" stroke-linejoin="bevel" transform="matrix(0.75,0,0,0.75,535.03,445)"
font-family="Helvetica" font-size="13" font-weight="400" font-style="normal" 
>
<text fill="#d9d9d9" fill-opacity="1" stroke="none" xml:space="preserve" x="0" y="0" font-family="Helvetica" font-size="13" font-weight="400" font-style="normal" 
 >0.7</text>
</g>

<g fill="#d9d9d9" fill-opacity="1" stroke="#d9d9d9" stroke-opacity="1" stroke-width="1" stroke-linecap="square" stroke-linejoin="bevel" transform="matrix(0.75,0,0,0.75,597.42,445)"
font-family="Helvetica" font-size="13" font-weight="400" font-style="normal" 
>
<text fill="#d9d9d9" fill-opacity="1" stroke="none" xml:space="preserve" x="0" y="0" font-family="Helvetica" font-size="13" font-weight="400" font-style="normal" 
 >0.8</text>
</g>

<g fill="#d9d9d9" fill-opacity="1" stroke="#d9d9d9" stroke-opacity="1" stroke-width="1" stroke-linecap="square" stroke-linejoin="bevel" transform="matrix(0.75,0,0,0.75,659.811,445)"
font-family="Helvetica" font-size="13" font-weight="400" font-style="normal" 
>
<text fill="#d9d9d9" fill-opacity="1" stroke="none" xml:space="preserve" x="0" y="0" font-family="Helvetica" font-size="13" font-weight="400" font-style="normal" 
 >0.9</text>
</g>

<g fill="#d9d9d9" fill-opacity="1" stroke="#d9d9d9" stroke-opacity="1" stroke-width="1" stroke-linecap="square" stroke-linejoin="bevel" transform="matrix(0.75,0,0,0.75,726.326,445)"
font-family="Helvetica" font-size="13" font-weight="400" font-style="normal" 
>
<text fill="#d9d9d9" fill-opacity="1" stroke="none" xml:space="preserve" x="0" y="0" font-family="Helvetica" font-size="13" font-weight="400" font-style="normal" 
 >1</text>
</g>

<g fill="#d9d9d9" fill-opacity="1" stroke="#d9d9d9" stroke-opacity="1" stroke-width="1" stroke-linecap="square" stroke-linejoin="bevel" transform="matrix(0,-0.75,0.75,0,77.0493,244.125)"
font-family="Helvetica" font-size="20" font-weight="400" font-style="normal" 
>
<text fill="#d9d9d9" fill-opacity="1" stroke="none" xml:space="preserve" x="0" y="0" font-family="Helvetica" font-size="20" font-weight="400" font-style="normal" 
 >y/c</text>
</g>

<g fill="#d9d9d9" fill-opacity="1" stroke="#d9d9d9" stroke-opacity="1" stroke-width="0.666667" stroke-linecap="square" stroke-linejoin="round" transform="matrix(0.75,0,0,0.75,0,0)"
font-family="Helvetica" font-size="20" font-weight="400" font-style="normal" 
>
<polyline fill="none" vector-effect="none" points="140.066,576 140.066,49 " />
<polyline fill="none" vector-effect="none" points="140.066,565.803 148.384,565.803 " />
<polyline fill="none" vector-effect="none" points="140.066,482.616 148.384,482.616 " />
<polyline fill="none" vector-effect="none" points="140.066,399.429 148.384,399.429 " />
<polyline fill="none" vector-effect="none" points="140.066,316.242 148.384,316.242 " />
<polyline fill="none" vector-effect="none" points="140.066,233.056 148.384,233.056 " />
<polyline fill="none" vector-effect="none" points="140.066,149.869 148.384,149.869 " />
<polyline fill="none" vector-effect="none" points="140.066,66.6818 148.384,66.6818 " />
</g>

<g fill="#d9d9d9" fill-opacity="1" stroke="#d9d9d9" stroke-opacity="1" stroke-width="1" stroke-linecap="square" stroke-linejoin="bevel" transform="matrix(0.75,0,0,0.75,84.5493,427.727)"
font-family="Helvetica" font-size="13" font-weight="400" font-style="normal" 
>
<text fill="#d9d9d9" fill-opacity="1" stroke="none" xml:space="preserve" x="0" y="0" font-family="Helvetica" font-size="13" font-weight="400" font-style="normal" 
 >-0.3</text>
</g>

<g fill="#d9d9d9" fill-opacity="1" stroke="#d9d9d9" stroke-opacity="1" stroke-width="1" stroke-linecap="square" stroke-linejoin="bevel" transform="matrix(0.75,0,0,0.75,84.5493,365.337)"
font-family="Helvetica" font-size="13" font-weight="400" font-style="normal" 
>
<text fill="#d9d9d9" fill-opacity="1" stroke="none" xml:space="preserve" x="0" y="0" font-family="Helvetica" font-size="13" font-weight="400" font-style="normal" 
 >-0.2</text>
</g>

<g fill="#d9d9d9" fill-opacity="1" stroke="#d9d9d9" stroke-opacity="1" stroke-width="1" stroke-linecap="square" stroke-linejoin="bevel" transform="matrix(0.75,0,0,0.75,84.5493,302.947)"
font-family="Helvetica" font-size="13" font-weight="400" font-style="normal" 
>
<text fill="#d9d9d9" fill-opacity="1" stroke="none" xml:space="preserve" x="0" y="0" font-family="Helvetica" font-size="13" font-weight="400" font-style="normal" 
 >-0.1</text>
</g>

<g fill="#d9d9d9" fill-opacity="1" stroke="#d9d9d9" stroke-opacity="1" stroke-width="1" stroke-linecap="square" stroke-linejoin="bevel" transform="matrix(0.75,0,0,0.75,95.7993,240.557)"
font-family="Helvetica" font-size="13" font-weight="400" font-style="normal" 
>
<text fill="#d9d9d9" fill-opacity="1" stroke="none" xml:space="preserve" x="0" y="0" font-family="Helvetica" font-size="13" font-weight="400" font-style="normal" 
 >0</text>
</g>

<g fill="#d9d9d9" fill-opacity="1" stroke="#d9d9d9" stroke-opacity="1" stroke-width="1" stroke-linecap="square" stroke-linejoin="bevel" transform="matrix(0.75,0,0,0.75,87.5493,178.167)"
font-family="Helvetica" font-size="13" font-weight="400" font-style="normal" 
>
<text fill="#d9d9d9" fill-opacity="1" stroke="none" xml:space="preserve" x="0" y="0" font-family="Helvetica" font-size="13" font-weight="400" font-style="normal" 
 >0.1</text>
</g>

<g fill="#d9d9d9" fill-opacity="1" stroke="#d9d9d9" stroke-opacity="1" stroke-width="1" stroke-linecap="square" stroke-linejoin="bevel" transform="matrix(0.75,0,0,0.75,87.5493,115.777)"
font-family="Helvetica" font-size="13" font-weight="400" font-style="normal" 
>
<text fill="#d9d9d9" fill-opacity="1" stroke="none" xml:space="preserve" x="0" y="0" font-family="Helvetica" font-size="13" font-weight="400" font-style="normal" 
 >0.2</text>
</g>

<g fill="#d9d9d9" fill-opacity="1" stroke="#d9d9d9" stroke-opacity="1" stroke-width="1" stroke-linecap="square" stroke-linejoin="bevel" transform="matrix(0.75,0,0,0.75,87.5493,53.3864)"
font-family="Helvetica" font-size="13" font-weight="400" font-style="normal" 
>
<text fill="#d9d9d9" fill-opacity="1" stroke="none" xml:space="preserve" x="0" y="0" font-family="Helvetica" font-size="13" font-weight="400" font-style="normal" 
 >0.3</text>
</g>

<g fill="#d9d9d9" fill-opacity="1" stroke="#d9d9d9" stroke-opacity="1" stroke-width="1" stroke-linecap="square" stroke-linejoin="bevel" transform="matrix(0.75,0,0,0.75,336,28.5)"
font-family="Times New Roman" font-size="26" font-weight="700" font-style="normal" 
>
<text fill="#d9d9d9" fill-opacity="1" stroke="none" xml:space="preserve" x="0" y="0" font-family="Times New Roman" font-size="26" font-weight="700" font-style="normal" 
 >Airfoils Equal Axes</text>
</g>

<g fill="none" stroke="#000000" stroke-opacity="1" stroke-width="1.33333" stroke-linecap="butt" stroke-linejoin="round" transform="matrix(0.75,0,0,0.75,0,0)"
font-family="Times New Roman" font-size="26" font-weight="700" font-style="normal" 
>
<polyline fill="none" vector-effect="none" points="140.066,316.242 140.17,315.234 140.485,314.228 141.008,313.227 141.741,312.232 142.682,311.246 143.832,310.27 145.191,309.307 146.758,308.356 148.533,307.419 150.515,306.497 152.704,305.588 155.099,304.694 157.699,303.814 160.505,302.946 163.515,302.09 166.728,301.243 170.144,300.403 173.762,299.57 177.581,298.74 181.6,297.911 185.818,297.08 190.234,296.247 194.846,295.408 199.654,294.561 204.657,293.705 209.852,292.838 215.24,291.959 220.818,291.068 226.585,290.163 232.54,289.245 238.681,288.314 245.006,287.373 251.515,286.421 258.205,285.46 265.074,284.494 272.122,283.525 279.346,282.556 286.744,281.589 294.314,280.629 302.055,279.679 309.965,278.743 318.041,277.824 326.282,276.926 334.686,276.053 343.25,275.207 351.972,274.391 360.851,273.609 369.883,272.863 379.066,272.154 388.399,271.483 397.879,270.852 407.504,270.261 417.27,269.711 427.176,269.201 437.219,268.731 447.397,268.3 457.707,267.907 468.147,267.551 478.713,267.231 489.403,266.945 500.215,266.694 511.146,266.477 522.192,266.294 533.352,266.145 544.622,266.031 556,265.954 567.482,265.916 579.067,265.92 590.75,265.971 602.529,266.072 614.401,266.23 626.364,266.449 638.413,266.737 650.546,267.101 662.76,267.548 675.052,268.085 687.418,268.721 699.857,269.462 712.363,270.316 724.936,271.291 737.57,272.391 750.263,273.622 763.012,274.988 775.814,276.493 788.665,278.139 801.562,279.926 814.502,281.854 827.482,283.923 840.498,286.131 853.547,288.477 866.626,290.958 879.732,293.574 892.86,296.327 906.009,299.22 919.174,302.26 932.352,305.459 945.541,308.837 958.736,312.419 971.934,316.242 " />
<polyline fill="none" vector-effect="none" points="140.066,316.242 140.17,317.784 140.485,319.321 141.008,320.848 141.741,322.361 142.682,323.855 143.832,325.326 145.191,326.769 146.758,328.182 148.533,329.56 150.515,330.903 152.704,332.206 155.099,333.468 157.699,334.689 160.505,335.866 163.515,337 166.728,338.091 170.144,339.139 173.762,340.146 177.581,341.111 181.6,342.038 185.818,342.927 190.234,343.781 194.846,344.601 199.654,345.391 204.657,346.151 209.852,346.885 215.24,347.594 220.818,348.281 226.585,348.946 232.54,349.592 238.681,350.221 245.006,350.832 251.515,351.427 258.205,352.007 265.074,352.572 272.122,353.121 279.346,353.655 286.744,354.172 294.314,354.673 302.055,355.155 309.965,355.618 318.041,356.06 326.282,356.48 334.686,356.876 343.25,357.246 351.972,357.588 360.851,357.901 369.883,358.182 379.066,358.43 388.399,358.641 397.879,358.815 407.504,358.948 417.27,359.039 427.176,359.084 437.219,359.081 447.397,359.028 457.707,358.922 468.147,358.758 478.713,358.534 489.403,358.247 500.215,357.892 511.146,357.466 522.192,356.964 533.352,356.382 544.622,355.716 556,354.962 567.482,354.116 579.067,353.173 590.75,352.131 602.529,350.987 614.401,349.739 626.364,348.386 638.413,346.929 650.546,345.37 662.76,343.711 675.052,341.959 687.418,340.121 699.857,338.207 712.363,336.229 724.936,334.203 737.57,332.146 750.263,330.077 763.012,328.02 775.814,326 788.665,324.044 801.562,322.18 814.502,320.437 827.482,318.845 840.498,317.434 853.547,316.23 866.626,315.258 879.732,314.536 892.86,314.078 906.009,313.888 919.174,313.961 932.352,314.277 945.541,314.802 958.736,315.482 971.934,316.242 " />
</g>

<g fill="none" stroke="#ff0000" stroke-opacity="1" stroke-dasharray="10,6" stroke-dashoffset="0" stroke-width="1.33333" stroke-linecap="butt" stroke-linejoin="round" transform="matrix(0.75,0,0,0.75,0,0)"
font-family="Times New Roman" font-size="26" font-weight="700" font-style="normal" 
>
<polyline fill="none" vector-effect="none" points="140.066,316.242 140.17,314.856 140.485,313.474 141.008,312.101 141.741,310.741 142.682,309.398 143.832,308.076 145.191,306.779 146.758,305.509 148.533,304.268 150.515,303.06 152.704,301.886 155.099,300.747 157.699,299.643 160.505,298.574 163.515,297.542 166.728,296.543 170.144,295.578 173.762,294.645 177.581,293.742 181.6,292.866 185.818,292.016 190.234,291.188 194.846,290.381 199.654,289.591 204.657,288.817 209.852,288.055 215.24,287.303 220.818,286.561 226.585,285.825 232.54,285.095 238.681,284.369 245.006,283.648 251.515,282.93 258.205,282.216 265.074,281.507 272.122,280.803 279.346,280.106 286.744,279.417 294.314,278.738 302.055,278.07 309.965,277.417 318.041,276.78 326.282,276.16 334.686,275.562 343.25,274.985 351.972,274.434 360.851,273.908 369.883,273.41 379.066,272.941 388.399,272.501 397.879,272.093 407.504,271.715 417.27,271.369 427.176,271.054 437.219,270.77 447.397,270.516 457.707,270.293 468.147,270.098 478.713,269.933 489.403,269.797 500.215,269.689 511.146,269.609 522.192,269.559 533.352,269.538 544.622,269.549 556,269.592 567.482,269.672 579.067,269.79 590.75,269.95 602.529,270.157 614.401,270.414 626.364,270.729 638.413,271.105 650.546,271.549 662.76,272.067 675.052,272.664 687.418,273.348 699.857,274.123 712.363,274.995 724.936,275.968 737.57,277.048 750.263,278.236 763.012,279.535 775.814,280.947 788.665,282.472 801.562,284.11 814.502,285.86 827.482,287.72 840.498,289.689 853.547,291.766 866.626,293.951 879.732,296.243 892.86,298.649 906.009,301.173 919.174,303.829 932.352,306.634 945.541,309.614 958.736,312.801 971.934,316.242 " />
<polyline fill="none" vector-effect="none" points="140.066,316.242 140.17,317.721 140.485,319.196 141.008,320.661 141.741,322.114 142.682,323.549 143.832,324.964 145.191,326.354 146.758,327.715 148.533,329.046 150.515,330.343 152.704,331.604 155.099,332.827 157.699,334.01 160.505,335.152 163.515,336.253 166.728,337.312 170.144,338.329 173.762,339.304 177.581,340.237 181.6,341.131 185.818,341.984 190.234,342.8 194.846,343.579 199.654,344.322 204.657,345.032 209.852,345.709 215.24,346.355 220.818,346.972 226.585,347.562 232.54,348.124 238.681,348.661 245.006,349.174 251.515,349.663 258.205,350.13 265.074,350.574 272.122,350.996 279.346,351.397 286.744,351.776 294.314,352.133 302.055,352.468 309.965,352.781 318.041,353.07 326.282,353.337 334.686,353.579 343.25,353.797 351.972,353.989 360.851,354.154 369.883,354.292 379.066,354.401 388.399,354.48 397.879,354.527 407.504,354.542 417.27,354.522 427.176,354.466 437.219,354.372 447.397,354.236 457.707,354.058 468.147,353.833 478.713,353.559 489.403,353.232 500.215,352.848 511.146,352.405 522.192,351.896 533.352,351.32 544.622,350.67 556,349.943 567.482,349.135 579.067,348.241 590.75,347.259 602.529,346.186 614.401,345.019 626.364,343.758 638.413,342.403 650.546,340.956 662.76,339.419 675.052,337.799 687.418,336.102 699.857,334.337 712.363,332.518 724.936,330.657 737.57,328.772 750.263,326.881 763.012,325.008 775.814,323.175 788.665,321.408 801.562,319.734 814.502,318.183 827.482,316.781 840.498,315.558 853.547,314.539 866.626,313.748 879.732,313.204 892.86,312.921 906.009,312.905 919.174,313.153 932.352,313.648 945.541,314.362 958.736,315.249 971.934,316.242 " />
</g>

<g fill="#121212" fill-opacity="1" stroke="none" transform="matrix(7.5e-05,0,0,7.5e-05,0,0)"
font-family="Times New Roman" font-size="26" font-weight="700" font-style="normal" 
>
<path vector-effect="none" fill-rule="evenodd" d="M7.34e+06,570000 L7.34e+06,1.06e+06 L9.33e+06,1.06e+06 L9.33e+06,570000 L7.34e+06,570000"/>
</g>

<g fill="#000000" fill-opacity="1" stroke="#000000" stroke-opacity="1" stroke-width="1.33333" stroke-linecap="butt" stroke-linejoin="round" transform="matrix(0.75,0,0,0.75,0,0)"
font-family="Times New Roman" font-size="26" font-weight="700" font-style="normal" 
>
<polyline fill="none" vector-effect="none" points="738,70.134 778,70.134 " />
</g>

<g fill="#ff0000" fill-opacity="1" stroke="#ff0000" stroke-opacity="1" stroke-dasharray="10,6" stroke-dashoffset="0" stroke-width="1.33333" stroke-linecap="butt" stroke-linejoin="round" transform="matrix(0.75,0,0,0.75,0,0)"
font-family="Times New Roman" font-size="26" font-weight="700" font-style="normal" 
>
<polyline fill="none" vector-effect="none" points="738,92.866 778,92.866 " />
</g>

<g fill="#d9d9d9" fill-opacity="1" stroke="#d9d9d9" stroke-opacity="1" stroke-width="1" stroke-linecap="square" stroke-linejoin="bevel" transform="matrix(0.75,0,0,0.75,585.75,57.8505)"
font-family="Helvetica" font-size="20" font-weight="400" font-style="normal" 
>
<text fill="#d9d9d9" fill-opacity="1" stroke="none" xml:space="preserve" x="0" y="0" font-family="Helvetica" font-size="20" font-weight="400" font-style="normal" 
 >Current Airfoil</text>
</g>

<g fill="#d9d9d9" fill-opacity="1" stroke="#d9d9d9" stroke-opacity="1" stroke-width="1" stroke-linecap="square" stroke-linejoin="bevel" transform="matrix(0.75,0,0,0.75,585.75,74.8995)"
font-family="Helvetica" font-size="20" font-weight="400" font-style="normal" 
>
<text fill="#d9d9d9" fill-opacity="1" stroke="none" xml:space="preserve" x="0" y="0" font-family="Helvetica" font-size="20" font-weight="400" font-style="normal" 
 >Reference Airfoil</text>
</g>

<g fill="none" stroke="#d9d9d9" stroke-opacity="1" stroke-width="0.666667" stroke-linecap="butt" stroke-linejoin="miter" stroke-miterlimit="2" transform="matrix(0.75,0,0,0.75,0,0)"
font-family="Helvetica" font-size="20" font-weight="400" font-style="normal" 
>
<path vector-effect="none" fill-rule="evenodd" d="M734,106 L734,57 L933,57 L933,106 L734,106"/>
</g>
</g>
</svg>
