<?xml version="1.0" encoding="UTF-8" standalone="no"?>
<svg width="284.339mm" height="171.45mm"
 viewBox="0 0 806 486"
 xmlns="http://www.w3.org/2000/svg" xmlns:xlink="http://www.w3.org/1999/xlink"  version="1.2" baseProfile="tiny">
<title>Qt SVG Document</title>
<desc>MATLAB, The MathWorks, Inc. Version 25.1.0.2973910 R2025a Update 1</desc>
<defs>
</defs>
<g fill="none" stroke="black" stroke-width="1" fill-rule="evenodd" stroke-linecap="square" stroke-linejoin="bevel" >

<g fill="#000000" fill-opacity="1" stroke="none" transform="matrix(0.75,0,0,0.75,0,0)"
font-family="MS Shell Dlg 2" font-size="9.75" font-weight="400" font-style="normal" 
>
<path vector-effect="none" fill-rule="evenodd" d="M0,0 L1075,0 L1075,648 L0,648 L0,0"/>
</g>

<g fill="#121212" fill-opacity="1" stroke="none" transform="matrix(7.5e-05,0,0,7.5e-05,0,0)"
font-family="MS Shell Dlg 2" font-size="9.75" font-weight="400" font-style="normal" 
>
<path vector-effect="none" fill-rule="evenodd" d="M1.4e+06,490000 L1.4e+06,5.76e+06 L9.72e+06,5.76e+06 L9.72e+06,490000 L1.4e+06,490000"/>
</g>

<g fill="#d9d9d9" fill-opacity="1" stroke="#d9d9d9" stroke-opacity="1" stroke-width="1" stroke-linecap="square" stroke-linejoin="bevel" transform="matrix(0.75,0,0,0.75,407.25,462.5)"
font-family="Helvetica" font-size="20" font-weight="400" font-style="normal" 
>
<text fill="#d9d9d9" fill-opacity="1" stroke="none" xml:space="preserve" x="0" y="0" font-family="Helvetica" font-size="20" font-weight="400" font-style="normal" 
 >x/c</text>
</g>

<g fill="#d9d9d9" fill-opacity="1" stroke="#d9d9d9" stroke-opacity="1" stroke-width="0.666667" stroke-linecap="square" stroke-linejoin="round" transform="matrix(0.75,0,0,0.75,0,0)"
font-family="Helvetica" font-size="20" font-weight="400" font-style="normal" 
>
<polyline fill="none" vector-effect="none" points="140,576 972,576 " />
<polyline fill="none" vector-effect="none" points="140,576 140,567.68 " />
<polyline fill="none" vector-effect="none" points="223.2,576 223.2,567.68 " />
<polyline fill="none" vector-effect="none" points="306.4,576 306.4,567.68 " />
<polyline fill="none" vector-effect="none" points="389.6,576 389.6,567.68 " />
<polyline fill="none" vector-effect="none" points="472.8,576 472.8,567.68 " />
<polyline fill="none" vector-effect="none" points="556,576 556,567.68 " />
<polyline fill="none" vector-effect="none" points="639.2,576 639.2,567.68 " />
<polyline fill="none" vector-effect="none" points="722.4,576 722.4,567.68 " />
<polyline fill="none" vector-effect="none" points="805.6,576 805.6,567.68 " />
<polyline fill="none" vector-effect="none" points="888.8,576 888.8,567.68 " />
<polyline fill="none" vector-effect="none" points="972,576 972,567.68 " />
</g>

<g fill="#d9d9d9" fill-opacity="1" stroke="#d9d9d9" stroke-opacity="1" stroke-width="1" stroke-linecap="square" stroke-linejoin="bevel" transform="matrix(0.75,0,0,0.75,102.375,445)"
font-family="Helvetica" font-size="13" font-weight="400" font-style="normal" 
>
<text fill="#d9d9d9" fill-opacity="1" stroke="none" xml:space="preserve" x="0" y="0" font-family="Helvetica" font-size="13" font-weight="400" font-style="normal" 
 >0</text>
</g>

<g fill="#d9d9d9" fill-opacity="1" stroke="#d9d9d9" stroke-opacity="1" stroke-width="1" stroke-linecap="square" stroke-linejoin="bevel" transform="matrix(0.75,0,0,0.75,160.65,445)"
font-family="Helvetica" font-size="13" font-weight="400" font-style="normal" 
>
<text fill="#d9d9d9" fill-opacity="1" stroke="none" xml:space="preserve" x="0" y="0" font-family="Helvetica" font-size="13" font-weight="400" font-style="normal" 
 >0.1</text>
</g>

<g fill="#d9d9d9" fill-opacity="1" stroke="#d9d9d9" stroke-opacity="1" stroke-width="1" stroke-linecap="square" stroke-linejoin="bevel" transform="matrix(0.75,0,0,0.75,223.05,445)"
font-family="Helvetica" font-size="13" font-weight="400" font-style="normal" 
>
<text fill="#d9d9d9" fill-opacity="1" stroke="none" xml:space="preserve" x="0" y="0" font-family="Helvetica" font-size="13" font-weight="400" font-style="normal" 
 >0.2</text>
</g>

<g fill="#d9d9d9" fill-opacity="1" stroke="#d9d9d9" stroke-opacity="1" stroke-width="1" stroke-linecap="square" stroke-linejoin="bevel" transform="matrix(0.75,0,0,0.75,285.45,445)"
font-family="Helvetica" font-size="13" font-weight="400" font-style="normal" 
>
<text fill="#d9d9d9" fill-opacity="1" stroke="none" xml:space="preserve" x="0" y="0" font-family="Helvetica" font-size="13" font-weight="400" font-style="normal" 
 >0.3</text>
</g>

<g fill="#d9d9d9" fill-opacity="1" stroke="#d9d9d9" stroke-opacity="1" stroke-width="1" stroke-linecap="square" stroke-linejoin="bevel" transform="matrix(0.75,0,0,0.75,347.85,445)"
font-family="Helvetica" font-size="13" font-weight="400" font-style="normal" 
>
<text fill="#d9d9d9" fill-opacity="1" stroke="none" xml:space="preserve" x="0" y="0" font-family="Helvetica" font-size="13" font-weight="400" font-style="normal" 
 >0.4</text>
</g>

<g fill="#d9d9d9" fill-opacity="1" stroke="#d9d9d9" stroke-opacity="1" stroke-width="1" stroke-linecap="square" stroke-linejoin="bevel" transform="matrix(0.75,0,0,0.75,410.25,445)"
font-family="Helvetica" font-size="13" font-weight="400" font-style="normal" 
>
<text fill="#d9d9d9" fill-opacity="1" stroke="none" xml:space="preserve" x="0" y="0" font-family="Helvetica" font-size="13" font-weight="400" font-style="normal" 
 >0.5</text>
</g>

<g fill="#d9d9d9" fill-opacity="1" stroke="#d9d9d9" stroke-opacity="1" stroke-width="1" stroke-linecap="square" stroke-linejoin="bevel" transform="matrix(0.75,0,0,0.75,472.65,445)"
font-family="Helvetica" font-size="13" font-weight="400" font-style="normal" 
>
<text fill="#d9d9d9" fill-opacity="1" stroke="none" xml:space="preserve" x="0" y="0" font-family="Helvetica" font-size="13" font-weight="400" font-style="normal" 
 >0.6</text>
</g>

<g fill="#d9d9d9" fill-opacity="1" stroke="#d9d9d9" stroke-opacity="1" stroke-width="1" stroke-linecap="square" stroke-linejoin="bevel" transform="matrix(0.75,0,0,0.75,535.05,445)"
font-family="Helvetica" font-size="13" font-weight="400" font-style="normal" 
>
<text fill="#d9d9d9" fill-opacity="1" stroke="none" xml:space="preserve" x="0" y="0" font-family="Helvetica" font-size="13" font-weight="400" font-style="normal" 
 >0.7</text>
</g>

<g fill="#d9d9d9" fill-opacity="1" stroke="#d9d9d9" stroke-opacity="1" stroke-width="1" stroke-linecap="square" stroke-linejoin="bevel" transform="matrix(0.75,0,0,0.75,597.45,445)"
font-family="Helvetica" font-size="13" font-weight="400" font-style="normal" 
>
<text fill="#d9d9d9" fill-opacity="1" stroke="none" xml:space="preserve" x="0" y="0" font-family="Helvetica" font-size="13" font-weight="400" font-style="normal" 
 >0.8</text>
</g>

<g fill="#d9d9d9" fill-opacity="1" stroke="#d9d9d9" stroke-opacity="1" stroke-width="1" stroke-linecap="square" stroke-linejoin="bevel" transform="matrix(0.75,0,0,0.75,659.85,445)"
font-family="Helvetica" font-size="13" font-weight="400" font-style="normal" 
>
<text fill="#d9d9d9" fill-opacity="1" stroke="none" xml:space="preserve" x="0" y="0" font-family="Helvetica" font-size="13" font-weight="400" font-style="normal" 
 >0.9</text>
</g>

<g fill="#d9d9d9" fill-opacity="1" stroke="#d9d9d9" stroke-opacity="1" stroke-width="1" stroke-linecap="square" stroke-linejoin="bevel" transform="matrix(0.75,0,0,0.75,726.375,445)"
font-family="Helvetica" font-size="13" font-weight="400" font-style="normal" 
>
<text fill="#d9d9d9" fill-opacity="1" stroke="none" xml:space="preserve" x="0" y="0" font-family="Helvetica" font-size="13" font-weight="400" font-style="normal" 
 >1</text>
</g>

<g fill="#d9d9d9" fill-opacity="1" stroke="#d9d9d9" stroke-opacity="1" stroke-width="1" stroke-linecap="square" stroke-linejoin="bevel" transform="matrix(0,-0.75,0.75,0,71,244.125)"
font-family="Helvetica" font-size="20" font-weight="400" font-style="normal" 
>
<text fill="#d9d9d9" fill-opacity="1" stroke="none" xml:space="preserve" x="0" y="0" font-family="Helvetica" font-size="20" font-weight="400" font-style="normal" 
 >y/c</text>
</g>

<g fill="#d9d9d9" fill-opacity="1" stroke="#d9d9d9" stroke-opacity="1" stroke-width="0.666667" stroke-linecap="square" stroke-linejoin="round" transform="matrix(0.75,0,0,0.75,0,0)"
font-family="Helvetica" font-size="20" font-weight="400" font-style="normal" 
>
<polyline fill="none" vector-effect="none" points="140,576 140,49 " />
<polyline fill="none" vector-effect="none" points="140,576 148.32,576 " />
<polyline fill="none" vector-effect="none" points="140,500.714 148.32,500.714 " />
<polyline fill="none" vector-effect="none" points="140,425.429 148.32,425.429 " />
<polyline fill="none" vector-effect="none" points="140,350.143 148.32,350.143 " />
<polyline fill="none" vector-effect="none" points="140,274.857 148.32,274.857 " />
<polyline fill="none" vector-effect="none" points="140,199.571 148.32,199.571 " />
<polyline fill="none" vector-effect="none" points="140,124.286 148.32,124.286 " />
<polyline fill="none" vector-effect="none" points="140,49 148.32,49 " />
</g>

<g fill="#d9d9d9" fill-opacity="1" stroke="#d9d9d9" stroke-opacity="1" stroke-width="1" stroke-linecap="square" stroke-linejoin="bevel" transform="matrix(0.75,0,0,0.75,79.25,435.375)"
font-family="Helvetica" font-size="13" font-weight="400" font-style="normal" 
>
<text fill="#d9d9d9" fill-opacity="1" stroke="none" xml:space="preserve" x="0" y="0" font-family="Helvetica" font-size="13" font-weight="400" font-style="normal" 
 >-0.06</text>
</g>

<g fill="#d9d9d9" fill-opacity="1" stroke="#d9d9d9" stroke-opacity="1" stroke-width="1" stroke-linecap="square" stroke-linejoin="bevel" transform="matrix(0.75,0,0,0.75,79.25,378.911)"
font-family="Helvetica" font-size="13" font-weight="400" font-style="normal" 
>
<text fill="#d9d9d9" fill-opacity="1" stroke="none" xml:space="preserve" x="0" y="0" font-family="Helvetica" font-size="13" font-weight="400" font-style="normal" 
 >-0.04</text>
</g>

<g fill="#d9d9d9" fill-opacity="1" stroke="#d9d9d9" stroke-opacity="1" stroke-width="1" stroke-linecap="square" stroke-linejoin="bevel" transform="matrix(0.75,0,0,0.75,79.25,322.446)"
font-family="Helvetica" font-size="13" font-weight="400" font-style="normal" 
>
<text fill="#d9d9d9" fill-opacity="1" stroke="none" xml:space="preserve" x="0" y="0" font-family="Helvetica" font-size="13" font-weight="400" font-style="normal" 
 >-0.02</text>
</g>

<g fill="#d9d9d9" fill-opacity="1" stroke="#d9d9d9" stroke-opacity="1" stroke-width="1" stroke-linecap="square" stroke-linejoin="bevel" transform="matrix(0.75,0,0,0.75,95.75,265.982)"
font-family="Helvetica" font-size="13" font-weight="400" font-style="normal" 
>
<text fill="#d9d9d9" fill-opacity="1" stroke="none" xml:space="preserve" x="0" y="0" font-family="Helvetica" font-size="13" font-weight="400" font-style="normal" 
 >0</text>
</g>

<g fill="#d9d9d9" fill-opacity="1" stroke="#d9d9d9" stroke-opacity="1" stroke-width="1" stroke-linecap="square" stroke-linejoin="bevel" transform="matrix(0.75,0,0,0.75,82.25,209.518)"
font-family="Helvetica" font-size="13" font-weight="400" font-style="normal" 
>
<text fill="#d9d9d9" fill-opacity="1" stroke="none" xml:space="preserve" x="0" y="0" font-family="Helvetica" font-size="13" font-weight="400" font-style="normal" 
 >0.02</text>
</g>

<g fill="#d9d9d9" fill-opacity="1" stroke="#d9d9d9" stroke-opacity="1" stroke-width="1" stroke-linecap="square" stroke-linejoin="bevel" transform="matrix(0.75,0,0,0.75,82.25,153.054)"
font-family="Helvetica" font-size="13" font-weight="400" font-style="normal" 
>
<text fill="#d9d9d9" fill-opacity="1" stroke="none" xml:space="preserve" x="0" y="0" font-family="Helvetica" font-size="13" font-weight="400" font-style="normal" 
 >0.04</text>
</g>

<g fill="#d9d9d9" fill-opacity="1" stroke="#d9d9d9" stroke-opacity="1" stroke-width="1" stroke-linecap="square" stroke-linejoin="bevel" transform="matrix(0.75,0,0,0.75,82.25,96.5893)"
font-family="Helvetica" font-size="13" font-weight="400" font-style="normal" 
>
<text fill="#d9d9d9" fill-opacity="1" stroke="none" xml:space="preserve" x="0" y="0" font-family="Helvetica" font-size="13" font-weight="400" font-style="normal" 
 >0.06</text>
</g>

<g fill="#d9d9d9" fill-opacity="1" stroke="#d9d9d9" stroke-opacity="1" stroke-width="1" stroke-linecap="square" stroke-linejoin="bevel" transform="matrix(0.75,0,0,0.75,82.25,40.125)"
font-family="Helvetica" font-size="13" font-weight="400" font-style="normal" 
>
<text fill="#d9d9d9" fill-opacity="1" stroke="none" xml:space="preserve" x="0" y="0" font-family="Helvetica" font-size="13" font-weight="400" font-style="normal" 
 >0.08</text>
</g>

<g fill="#d9d9d9" fill-opacity="1" stroke="#d9d9d9" stroke-opacity="1" stroke-width="1" stroke-linecap="square" stroke-linejoin="bevel" transform="matrix(0.75,0,0,0.75,333.375,28.5)"
font-family="Times New Roman" font-size="26" font-weight="700" font-style="normal" 
>
<text fill="#d9d9d9" fill-opacity="1" stroke="none" xml:space="preserve" x="0" y="0" font-family="Times New Roman" font-size="26" font-weight="700" font-style="normal" 
 >Airfoils Scaled Axes</text>
</g>

<g fill="none" stroke="#000000" stroke-opacity="1" stroke-width="1.33333" stroke-linecap="butt" stroke-linejoin="round" transform="matrix(0.75,0,0,0.75,0,0)"
font-family="Times New Roman" font-size="26" font-weight="700" font-style="normal" 
>
<polyline fill="none" vector-effect="none" points="140,350.143 140.105,345.58 140.419,341.028 140.942,336.497 141.675,331.996 142.617,327.534 143.767,323.119 145.126,318.758 146.694,314.456 148.469,310.216 150.451,306.042 152.64,301.932 155.035,297.887 157.636,293.903 160.442,289.976 163.453,286.1 166.667,282.267 170.083,278.469 173.702,274.697 177.521,270.94 181.541,267.189 185.759,263.433 190.176,259.661 194.789,255.864 199.598,252.033 204.601,248.159 209.798,244.236 215.186,240.259 220.765,236.224 226.533,232.13 232.489,227.976 238.631,223.766 244.957,219.504 251.467,215.196 258.158,210.851 265.028,206.48 272.077,202.094 279.302,197.707 286.701,193.333 294.273,188.989 302.015,184.69 309.926,180.453 318.004,176.295 326.246,172.232 334.651,168.28 343.216,164.452 351.94,160.763 360.82,157.224 369.853,153.846 379.038,150.636 388.373,147.602 397.854,144.747 407.48,142.074 417.248,139.585 427.156,137.278 437.201,135.15 447.38,133.199 457.692,131.42 468.133,129.808 478.701,128.359 489.393,127.069 500.206,125.933 511.139,124.951 522.187,124.121 533.348,123.446 544.62,122.931 556,122.582 567.484,122.411 579.07,122.431 590.756,122.66 602.537,123.119 614.411,123.831 626.375,124.824 638.426,126.127 650.561,127.773 662.777,129.794 675.071,132.225 687.439,135.102 699.879,138.457 712.388,142.324 724.962,146.732 737.599,151.71 750.294,157.281 763.045,163.464 775.849,170.274 788.702,177.719 801.601,185.805 814.543,194.532 827.525,203.895 840.543,213.886 853.594,224.5 866.675,235.728 879.783,247.568 892.913,260.025 906.064,273.115 919.231,286.871 932.412,301.349 945.602,316.633 958.799,332.842 972,350.143 " />
<polyline fill="none" vector-effect="none" points="140,350.143 140.105,357.12 140.419,364.075 140.942,370.985 141.675,377.831 142.617,384.59 143.767,391.245 145.126,397.776 146.694,404.169 148.469,410.408 150.451,416.481 152.64,422.378 155.035,428.091 157.636,433.613 160.442,438.942 163.453,444.074 166.667,449.01 170.083,453.753 173.702,458.307 177.521,462.677 181.541,466.87 185.759,470.894 190.176,474.757 194.789,478.47 199.598,482.042 204.601,485.484 209.798,488.804 215.186,492.013 220.765,495.119 226.533,498.13 232.489,501.055 238.631,503.898 244.957,506.664 251.467,509.358 258.158,511.982 265.028,514.537 272.077,517.022 279.302,519.437 286.701,521.779 294.273,524.043 302.015,526.225 309.926,528.32 318.004,530.321 326.246,532.221 334.651,534.013 343.216,535.688 351.94,537.237 360.82,538.653 369.853,539.925 379.038,541.045 388.373,542.002 397.854,542.788 407.48,543.391 417.248,543.8 427.156,544.005 437.201,543.994 447.38,543.753 457.692,543.27 468.133,542.53 478.701,541.518 489.393,540.217 500.206,538.612 511.139,536.682 522.187,534.411 533.348,531.779 544.62,528.766 556,525.353 567.484,521.523 579.07,517.258 590.756,512.543 602.537,507.366 614.411,501.719 626.375,495.598 638.426,489.004 650.561,481.947 662.777,474.442 675.071,466.513 687.439,458.196 699.879,449.535 712.388,440.586 724.962,431.417 737.599,422.106 750.294,412.746 763.045,403.439 775.849,394.298 788.702,385.445 801.601,377.009 814.543,369.123 827.525,361.921 840.543,355.535 853.594,350.088 866.675,345.687 879.783,342.421 892.913,340.349 906.064,339.49 919.231,339.819 932.412,341.25 945.602,343.624 958.799,346.702 972,350.143 " />
</g>

<g fill="none" stroke="#ff0000" stroke-opacity="1" stroke-dasharray="10,6" stroke-dashoffset="0" stroke-width="1.33333" stroke-linecap="butt" stroke-linejoin="round" transform="matrix(0.75,0,0,0.75,0,0)"
font-family="Times New Roman" font-size="26" font-weight="700" font-style="normal" 
>
<polyline fill="none" vector-effect="none" points="140,350.143 140.105,343.869 140.419,337.616 140.942,331.402 141.675,325.248 142.617,319.172 143.767,313.19 145.126,307.319 146.694,301.571 148.469,295.959 150.451,290.492 152.64,285.178 155.035,280.022 157.636,275.027 160.442,270.194 163.453,265.52 166.667,261.003 170.083,256.637 173.702,252.414 177.521,248.326 181.541,244.364 185.759,240.516 190.176,236.771 194.789,233.118 199.598,229.544 204.601,226.039 209.798,222.591 215.186,219.191 220.765,215.831 226.533,212.501 232.489,209.197 238.631,205.914 244.957,202.649 251.467,199.401 258.158,196.172 265.028,192.962 272.077,189.778 279.302,186.623 286.701,183.504 294.273,180.431 302.015,177.411 309.926,174.454 318.004,171.57 326.246,168.768 334.651,166.059 343.216,163.451 351.94,160.954 360.82,158.575 369.853,156.321 379.038,154.198 388.373,152.21 397.854,150.362 407.48,148.653 417.248,147.087 427.156,145.661 437.201,144.375 447.38,143.227 457.692,142.215 468.133,141.337 478.701,140.59 489.393,139.972 500.206,139.483 511.139,139.123 522.187,138.894 533.348,138.8 544.62,138.848 556,139.046 567.484,139.405 579.07,139.939 590.756,140.664 602.537,141.6 614.411,142.767 626.375,144.189 638.426,145.891 650.561,147.9 662.777,150.243 675.071,152.947 687.439,156.041 699.879,159.548 712.388,163.494 724.962,167.899 737.599,172.782 750.294,178.158 763.045,184.038 775.849,190.427 788.702,197.328 801.601,204.741 814.543,212.659 827.525,221.077 840.543,229.988 853.594,239.386 866.675,249.27 879.783,259.646 892.913,270.529 906.064,281.954 919.231,293.973 932.412,306.666 945.602,320.147 958.799,334.571 972,350.143 " />
<polyline fill="none" vector-effect="none" points="140,350.143 140.105,356.835 140.419,363.507 140.942,370.139 141.675,376.712 142.617,383.208 143.767,389.608 145.126,395.897 146.694,402.06 148.469,408.081 150.451,413.95 152.64,419.655 155.035,425.188 157.636,430.542 160.442,435.712 163.453,440.693 166.667,445.485 170.083,450.086 173.702,454.498 177.521,458.723 181.541,462.765 185.759,466.628 190.176,470.319 194.789,473.843 199.598,477.207 204.601,480.417 209.798,483.481 215.186,486.406 220.765,489.199 226.533,491.865 232.489,494.411 238.631,496.841 244.957,499.162 251.467,501.376 258.158,503.486 265.028,505.496 272.077,507.407 279.302,509.219 286.701,510.934 294.273,512.55 302.015,514.066 309.926,515.482 318.004,516.793 326.246,517.999 334.651,519.096 343.216,520.081 351.94,520.949 360.82,521.697 369.853,522.32 379.038,522.813 388.373,523.17 397.854,523.386 407.48,523.453 417.248,523.364 427.156,523.11 437.201,522.682 447.38,522.069 457.692,521.261 468.133,520.243 478.701,519.002 489.393,517.523 500.206,515.788 511.139,513.78 522.187,511.48 533.348,508.871 544.62,505.93 556,502.641 567.484,498.983 579.07,494.94 590.756,490.497 602.537,485.64 614.411,480.36 626.375,474.654 638.426,468.523 650.561,461.973 662.777,455.02 675.071,447.688 687.439,440.008 699.879,432.024 712.388,423.79 724.962,415.369 737.599,406.839 750.294,398.285 763.045,389.807 775.849,381.512 788.702,373.516 801.601,365.944 814.543,358.923 827.525,352.582 840.543,347.046 853.594,342.435 866.675,338.856 879.783,336.396 892.913,335.115 906.064,335.042 919.231,336.161 932.412,338.403 945.602,341.635 958.799,345.647 972,350.143 " />
</g>

<g fill="#121212" fill-opacity="1" stroke="none" transform="matrix(7.5e-05,0,0,7.5e-05,0,0)"
font-family="Times New Roman" font-size="26" font-weight="700" font-style="normal" 
>
<path vector-effect="none" fill-rule="evenodd" d="M7.34e+06,570000 L7.34e+06,1.06e+06 L9.33e+06,1.06e+06 L9.33e+06,570000 L7.34e+06,570000"/>
</g>

<g fill="#000000" fill-opacity="1" stroke="#000000" stroke-opacity="1" stroke-width="1.33333" stroke-linecap="butt" stroke-linejoin="round" transform="matrix(0.75,0,0,0.75,0,0)"
font-family="Times New Roman" font-size="26" font-weight="700" font-style="normal" 
>
<polyline fill="none" vector-effect="none" points="738,70.134 778,70.134 " />
</g>

<g fill="#ff0000" fill-opacity="1" stroke="#ff0000" stroke-opacity="1" stroke-dasharray="10,6" stroke-dashoffset="0" stroke-width="1.33333" stroke-linecap="butt" stroke-linejoin="round" transform="matrix(0.75,0,0,0.75,0,0)"
font-family="Times New Roman" font-size="26" font-weight="700" font-style="normal" 
>
<polyline fill="none" vector-effect="none" points="738,92.866 778,92.866 " />
</g>

<g fill="#d9d9d9" fill-opacity="1" stroke="#d9d9d9" stroke-opacity="1" stroke-width="1" stroke-linecap="square" stroke-linejoin="bevel" transform="matrix(0.75,0,0,0.75,585.75,57.8505)"
font-family="Helvetica" font-size="20" font-weight="400" font-style="normal" 
>
<text fill="#d9d9d9" fill-opacity="1" stroke="none" xml:space="preserve" x="0" y="0" font-family="Helvetica" font-size="20" font-weight="400" font-style="normal" 
 >Current Airfoil</text>
</g>

<g fill="#d9d9d9" fill-opacity="1" stroke="#d9d9d9" stroke-opacity="1" stroke-width="1" stroke-linecap="square" stroke-linejoin="bevel" transform="matrix(0.75,0,0,0.75,585.75,74.8995)"
font-family="Helvetica" font-size="20" font-weight="400" font-style="normal" 
>
<text fill="#d9d9d9" fill-opacity="1" stroke="none" xml:space="preserve" x="0" y="0" font-family="Helvetica" font-size="20" font-weight="400" font-style="normal" 
 >Reference Airfoil</text>
</g>

<g fill="none" stroke="#d9d9d9" stroke-opacity="1" stroke-width="0.666667" stroke-linecap="butt" stroke-linejoin="miter" stroke-miterlimit="2" transform="matrix(0.75,0,0,0.75,0,0)"
font-family="Helvetica" font-size="20" font-weight="400" font-style="normal" 
>
<path vector-effect="none" fill-rule="evenodd" d="M734,106 L734,57 L933,57 L933,106 L734,106"/>
</g>
</g>
</svg>
