<?xml version="1.0" encoding="UTF-8" standalone="no"?>
<svg width="284.339mm" height="171.45mm"
 viewBox="0 0 806 486"
 xmlns="http://www.w3.org/2000/svg" xmlns:xlink="http://www.w3.org/1999/xlink"  version="1.2" baseProfile="tiny">
<title>Qt SVG Document</title>
<desc>MATLAB, The MathWorks, Inc. Version 25.1.0.2973910 R2025a Update 1</desc>
<defs>
</defs>
<g fill="none" stroke="black" stroke-width="1" fill-rule="evenodd" stroke-linecap="square" stroke-linejoin="bevel" >

<g fill="#000000" fill-opacity="1" stroke="none" transform="matrix(0.75,0,0,0.75,0,0)"
font-family="MS Shell Dlg 2" font-size="9.75" font-weight="400" font-style="normal" 
>
<path vector-effect="none" fill-rule="evenodd" d="M0,0 L1075,0 L1075,648 L0,648 L0,0"/>
</g>

<g fill="#121212" fill-opacity="1" stroke="none" transform="matrix(7.5e-05,0,0,7.5e-05,0,0)"
font-family="MS Shell Dlg 2" font-size="9.75" font-weight="400" font-style="normal" 
>
<path vector-effect="none" fill-rule="evenodd" d="M1.40066e+06,490000 L1.40066e+06,5.76e+06 L9.71934e+06,5.76e+06 L9.71934e+06,490000 L1.40066e+06,490000"/>
</g>

<g fill="#d9d9d9" fill-opacity="1" stroke="#d9d9d9" stroke-opacity="1" stroke-width="1" stroke-linecap="square" stroke-linejoin="bevel" transform="matrix(0.75,0,0,0.75,407.25,462.5)"
font-family="Helvetica" font-size="20" font-weight="400" font-style="normal" 
>
<text fill="#d9d9d9" fill-opacity="1" stroke="none" xml:space="preserve" x="0" y="0" font-family="Helvetica" font-size="20" font-weight="400" font-style="normal" 
 >x/c</text>
</g>

<g fill="#d9d9d9" fill-opacity="1" stroke="#d9d9d9" stroke-opacity="1" stroke-width="0.666667" stroke-linecap="square" stroke-linejoin="round" transform="matrix(0.75,0,0,0.75,0,0)"
font-family="Helvetica" font-size="20" font-weight="400" font-style="normal" 
>
<polyline fill="none" vector-effect="none" points="140.066,576 971.934,576 " />
<polyline fill="none" vector-effect="none" points="140.066,576 140.066,567.681 " />
<polyline fill="none" vector-effect="none" points="223.253,576 223.253,567.681 " />
<polyline fill="none" vector-effect="none" points="306.439,576 306.439,567.681 " />
<polyline fill="none" vector-effect="none" points="389.626,576 389.626,567.681 " />
<polyline fill="none" vector-effect="none" points="472.813,576 472.813,567.681 " />
<polyline fill="none" vector-effect="none" points="556,576 556,567.681 " />
<polyline fill="none" vector-effect="none" points="639.187,576 639.187,567.681 " />
<polyline fill="none" vector-effect="none" points="722.374,576 722.374,567.681 " />
<polyline fill="none" vector-effect="none" points="805.561,576 805.561,567.681 " />
<polyline fill="none" vector-effect="none" points="888.747,576 888.747,567.681 " />
<polyline fill="none" vector-effect="none" points="971.934,576 971.934,567.681 " />
</g>

<g fill="#d9d9d9" fill-opacity="1" stroke="#d9d9d9" stroke-opacity="1" stroke-width="1" stroke-linecap="square" stroke-linejoin="bevel" transform="matrix(0.75,0,0,0.75,102.424,445)"
font-family="Helvetica" font-size="13" font-weight="400" font-style="normal" 
>
<text fill="#d9d9d9" fill-opacity="1" stroke="none" xml:space="preserve" x="0" y="0" font-family="Helvetica" font-size="13" font-weight="400" font-style="normal" 
 >0</text>
</g>

<g fill="#d9d9d9" fill-opacity="1" stroke="#d9d9d9" stroke-opacity="1" stroke-width="1" stroke-linecap="square" stroke-linejoin="bevel" transform="matrix(0.75,0,0,0.75,160.689,445)"
font-family="Helvetica" font-size="13" font-weight="400" font-style="normal" 
>
<text fill="#d9d9d9" fill-opacity="1" stroke="none" xml:space="preserve" x="0" y="0" font-family="Helvetica" font-size="13" font-weight="400" font-style="normal" 
 >0.1</text>
</g>

<g fill="#d9d9d9" fill-opacity="1" stroke="#d9d9d9" stroke-opacity="1" stroke-width="1" stroke-linecap="square" stroke-linejoin="bevel" transform="matrix(0.75,0,0,0.75,223.08,445)"
font-family="Helvetica" font-size="13" font-weight="400" font-style="normal" 
>
<text fill="#d9d9d9" fill-opacity="1" stroke="none" xml:space="preserve" x="0" y="0" font-family="Helvetica" font-size="13" font-weight="400" font-style="normal" 
 >0.2</text>
</g>

<g fill="#d9d9d9" fill-opacity="1" stroke="#d9d9d9" stroke-opacity="1" stroke-width="1" stroke-linecap="square" stroke-linejoin="bevel" transform="matrix(0.75,0,0,0.75,285.47,445)"
font-family="Helvetica" font-size="13" font-weight="400" font-style="normal" 
>
<text fill="#d9d9d9" fill-opacity="1" stroke="none" xml:space="preserve" x="0" y="0" font-family="Helvetica" font-size="13" font-weight="400" font-style="normal" 
 >0.3</text>
</g>

<g fill="#d9d9d9" fill-opacity="1" stroke="#d9d9d9" stroke-opacity="1" stroke-width="1" stroke-linecap="square" stroke-linejoin="bevel" transform="matrix(0.75,0,0,0.75,347.86,445)"
font-family="Helvetica" font-size="13" font-weight="400" font-style="normal" 
>
<text fill="#d9d9d9" fill-opacity="1" stroke="none" xml:space="preserve" x="0" y="0" font-family="Helvetica" font-size="13" font-weight="400" font-style="normal" 
 >0.4</text>
</g>

<g fill="#d9d9d9" fill-opacity="1" stroke="#d9d9d9" stroke-opacity="1" stroke-width="1" stroke-linecap="square" stroke-linejoin="bevel" transform="matrix(0.75,0,0,0.75,410.25,445)"
font-family="Helvetica" font-size="13" font-weight="400" font-style="normal" 
>
<text fill="#d9d9d9" fill-opacity="1" stroke="none" xml:space="preserve" x="0" y="0" font-family="Helvetica" font-size="13" font-weight="400" font-style="normal" 
 >0.5</text>
</g>

<g fill="#d9d9d9" fill-opacity="1" stroke="#d9d9d9" stroke-opacity="1" stroke-width="1" stroke-linecap="square" stroke-linejoin="bevel" transform="matrix(0.75,0,0,0.75,472.64,445)"
font-family="Helvetica" font-size="13" font-weight="400" font-style="normal" 
>
<text fill="#d9d9d9" fill-opacity="1" stroke="none" xml:space="preserve" x="0" y="0" font-family="Helvetica" font-size="13" font-weight="400" font-style="normal" 
 >0.6</text>
</g>

<g fill="#d9d9d9" fill-opacity="1" stroke="#d9d9d9" stroke-opacity="1" stroke-width="1" stroke-linecap="square" stroke-linejoin="bevel" transform="matrix(0.75,0,0,0.75,535.03,445)"
font-family="Helvetica" font-size="13" font-weight="400" font-style="normal" 
>
<text fill="#d9d9d9" fill-opacity="1" stroke="none" xml:space="preserve" x="0" y="0" font-family="Helvetica" font-size="13" font-weight="400" font-style="normal" 
 >0.7</text>
</g>

<g fill="#d9d9d9" fill-opacity="1" stroke="#d9d9d9" stroke-opacity="1" stroke-width="1" stroke-linecap="square" stroke-linejoin="bevel" transform="matrix(0.75,0,0,0.75,597.42,445)"
font-family="Helvetica" font-size="13" font-weight="400" font-style="normal" 
>
<text fill="#d9d9d9" fill-opacity="1" stroke="none" xml:space="preserve" x="0" y="0" font-family="Helvetica" font-size="13" font-weight="400" font-style="normal" 
 >0.8</text>
</g>

<g fill="#d9d9d9" fill-opacity="1" stroke="#d9d9d9" stroke-opacity="1" stroke-width="1" stroke-linecap="square" stroke-linejoin="bevel" transform="matrix(0.75,0,0,0.75,659.811,445)"
font-family="Helvetica" font-size="13" font-weight="400" font-style="normal" 
>
<text fill="#d9d9d9" fill-opacity="1" stroke="none" xml:space="preserve" x="0" y="0" font-family="Helvetica" font-size="13" font-weight="400" font-style="normal" 
 >0.9</text>
</g>

<g fill="#d9d9d9" fill-opacity="1" stroke="#d9d9d9" stroke-opacity="1" stroke-width="1" stroke-linecap="square" stroke-linejoin="bevel" transform="matrix(0.75,0,0,0.75,726.326,445)"
font-family="Helvetica" font-size="13" font-weight="400" font-style="normal" 
>
<text fill="#d9d9d9" fill-opacity="1" stroke="none" xml:space="preserve" x="0" y="0" font-family="Helvetica" font-size="13" font-weight="400" font-style="normal" 
 >1</text>
</g>

<g fill="#d9d9d9" fill-opacity="1" stroke="#d9d9d9" stroke-opacity="1" stroke-width="1" stroke-linecap="square" stroke-linejoin="bevel" transform="matrix(0,-0.75,0.75,0,77.0493,244.125)"
font-family="Helvetica" font-size="20" font-weight="400" font-style="normal" 
>
<text fill="#d9d9d9" fill-opacity="1" stroke="none" xml:space="preserve" x="0" y="0" font-family="Helvetica" font-size="20" font-weight="400" font-style="normal" 
 >y/c</text>
</g>

<g fill="#d9d9d9" fill-opacity="1" stroke="#d9d9d9" stroke-opacity="1" stroke-width="0.666667" stroke-linecap="square" stroke-linejoin="round" transform="matrix(0.75,0,0,0.75,0,0)"
font-family="Helvetica" font-size="20" font-weight="400" font-style="normal" 
>
<polyline fill="none" vector-effect="none" points="140.066,576 140.066,49 " />
<polyline fill="none" vector-effect="none" points="140.066,566.535 148.384,566.535 " />
<polyline fill="none" vector-effect="none" points="140.066,483.348 148.384,483.348 " />
<polyline fill="none" vector-effect="none" points="140.066,400.161 148.384,400.161 " />
<polyline fill="none" vector-effect="none" points="140.066,316.975 148.384,316.975 " />
<polyline fill="none" vector-effect="none" points="140.066,233.788 148.384,233.788 " />
<polyline fill="none" vector-effect="none" points="140.066,150.601 148.384,150.601 " />
<polyline fill="none" vector-effect="none" points="140.066,67.4141 148.384,67.4141 " />
</g>

<g fill="#d9d9d9" fill-opacity="1" stroke="#d9d9d9" stroke-opacity="1" stroke-width="1" stroke-linecap="square" stroke-linejoin="bevel" transform="matrix(0.75,0,0,0.75,84.5493,428.276)"
font-family="Helvetica" font-size="13" font-weight="400" font-style="normal" 
>
<text fill="#d9d9d9" fill-opacity="1" stroke="none" xml:space="preserve" x="0" y="0" font-family="Helvetica" font-size="13" font-weight="400" font-style="normal" 
 >-0.3</text>
</g>

<g fill="#d9d9d9" fill-opacity="1" stroke="#d9d9d9" stroke-opacity="1" stroke-width="1" stroke-linecap="square" stroke-linejoin="bevel" transform="matrix(0.75,0,0,0.75,84.5493,365.886)"
font-family="Helvetica" font-size="13" font-weight="400" font-style="normal" 
>
<text fill="#d9d9d9" fill-opacity="1" stroke="none" xml:space="preserve" x="0" y="0" font-family="Helvetica" font-size="13" font-weight="400" font-style="normal" 
 >-0.2</text>
</g>

<g fill="#d9d9d9" fill-opacity="1" stroke="#d9d9d9" stroke-opacity="1" stroke-width="1" stroke-linecap="square" stroke-linejoin="bevel" transform="matrix(0.75,0,0,0.75,84.5493,303.496)"
font-family="Helvetica" font-size="13" font-weight="400" font-style="normal" 
>
<text fill="#d9d9d9" fill-opacity="1" stroke="none" xml:space="preserve" x="0" y="0" font-family="Helvetica" font-size="13" font-weight="400" font-style="normal" 
 >-0.1</text>
</g>

<g fill="#d9d9d9" fill-opacity="1" stroke="#d9d9d9" stroke-opacity="1" stroke-width="1" stroke-linecap="square" stroke-linejoin="bevel" transform="matrix(0.75,0,0,0.75,95.7993,241.106)"
font-family="Helvetica" font-size="13" font-weight="400" font-style="normal" 
>
<text fill="#d9d9d9" fill-opacity="1" stroke="none" xml:space="preserve" x="0" y="0" font-family="Helvetica" font-size="13" font-weight="400" font-style="normal" 
 >0</text>
</g>

<g fill="#d9d9d9" fill-opacity="1" stroke="#d9d9d9" stroke-opacity="1" stroke-width="1" stroke-linecap="square" stroke-linejoin="bevel" transform="matrix(0.75,0,0,0.75,87.5493,178.716)"
font-family="Helvetica" font-size="13" font-weight="400" font-style="normal" 
>
<text fill="#d9d9d9" fill-opacity="1" stroke="none" xml:space="preserve" x="0" y="0" font-family="Helvetica" font-size="13" font-weight="400" font-style="normal" 
 >0.1</text>
</g>

<g fill="#d9d9d9" fill-opacity="1" stroke="#d9d9d9" stroke-opacity="1" stroke-width="1" stroke-linecap="square" stroke-linejoin="bevel" transform="matrix(0.75,0,0,0.75,87.5493,116.326)"
font-family="Helvetica" font-size="13" font-weight="400" font-style="normal" 
>
<text fill="#d9d9d9" fill-opacity="1" stroke="none" xml:space="preserve" x="0" y="0" font-family="Helvetica" font-size="13" font-weight="400" font-style="normal" 
 >0.2</text>
</g>

<g fill="#d9d9d9" fill-opacity="1" stroke="#d9d9d9" stroke-opacity="1" stroke-width="1" stroke-linecap="square" stroke-linejoin="bevel" transform="matrix(0.75,0,0,0.75,87.5493,53.9355)"
font-family="Helvetica" font-size="13" font-weight="400" font-style="normal" 
>
<text fill="#d9d9d9" fill-opacity="1" stroke="none" xml:space="preserve" x="0" y="0" font-family="Helvetica" font-size="13" font-weight="400" font-style="normal" 
 >0.3</text>
</g>

<g fill="#d9d9d9" fill-opacity="1" stroke="#d9d9d9" stroke-opacity="1" stroke-width="1" stroke-linecap="square" stroke-linejoin="bevel" transform="matrix(0.75,0,0,0.75,336,28.5)"
font-family="Times New Roman" font-size="26" font-weight="700" font-style="normal" 
>
<text fill="#d9d9d9" fill-opacity="1" stroke="none" xml:space="preserve" x="0" y="0" font-family="Times New Roman" font-size="26" font-weight="700" font-style="normal" 
 >Airfoils Equal Axes</text>
</g>

<g fill="none" stroke="#000000" stroke-opacity="1" stroke-width="1.33333" stroke-linecap="butt" stroke-linejoin="round" transform="matrix(0.75,0,0,0.75,0,0)"
font-family="Times New Roman" font-size="26" font-weight="700" font-style="normal" 
>
<polyline fill="none" vector-effect="none" points="140.066,316.975 140.17,315.54 140.485,314.109 141.008,312.687 141.741,311.277 142.682,309.884 143.832,308.511 145.191,307.162 146.758,305.838 148.533,304.543 150.515,303.279 152.704,302.046 155.099,300.847 157.699,299.681 160.505,298.548 163.515,297.448 166.728,296.38 170.144,295.342 173.762,294.333 177.581,293.351 181.6,292.393 185.818,291.457 190.234,290.541 194.846,289.642 199.654,288.758 204.657,287.886 209.852,287.024 215.24,286.171 220.818,285.324 226.585,284.482 232.54,283.645 238.681,282.811 245.006,281.982 251.515,281.156 258.205,280.336 265.074,279.522 272.122,278.715 279.346,277.917 286.744,277.131 294.314,276.359 302.055,275.603 309.965,274.866 318.041,274.151 326.282,273.459 334.686,272.794 343.25,272.158 351.972,271.552 360.851,270.979 369.883,270.44 379.066,269.936 388.399,269.467 397.879,269.034 407.504,268.636 417.27,268.274 427.176,267.945 437.219,267.651 447.397,267.388 457.707,267.155 468.147,266.952 478.713,266.776 489.403,266.626 500.215,266.501 511.146,266.401 522.192,266.325 533.352,266.274 544.622,266.248 556,266.25 567.482,266.281 579.067,266.345 590.75,266.447 602.529,266.59 614.401,266.78 626.364,267.026 638.413,267.332 650.546,267.707 662.76,268.16 675.052,268.698 687.418,269.331 699.857,270.065 712.363,270.911 724.936,271.875 737.57,272.964 750.263,274.185 763.012,275.542 775.814,277.04 788.665,278.681 801.562,280.468 814.502,282.4 827.482,284.477 840.498,286.697 853.547,289.059 866.626,291.56 879.732,294.2 892.86,296.978 906.009,299.896 919.174,302.96 932.352,306.18 945.541,309.572 958.736,313.16 971.934,316.975 " />
<polyline fill="none" vector-effect="none" points="140.066,316.975 140.17,318.482 140.485,319.985 141.008,321.479 141.741,322.959 142.682,324.422 143.832,325.863 145.191,327.278 146.758,328.665 148.533,330.02 150.515,331.341 152.704,332.625 155.099,333.87 157.699,335.076 160.505,336.241 163.515,337.364 166.728,338.446 170.144,339.487 173.762,340.487 177.581,341.448 181.6,342.37 185.818,343.255 190.234,344.104 194.846,344.919 199.654,345.703 204.657,346.456 209.852,347.181 215.24,347.879 220.818,348.552 226.585,349.202 232.54,349.831 238.681,350.438 245.006,351.026 251.515,351.595 258.205,352.146 265.074,352.679 272.122,353.194 279.346,353.692 286.744,354.172 294.314,354.634 302.055,355.077 309.965,355.501 318.041,355.904 326.282,356.286 334.686,356.646 343.25,356.982 351.972,357.294 360.851,357.58 369.883,357.838 379.066,358.068 388.399,358.268 397.879,358.436 407.504,358.57 417.27,358.669 427.176,358.73 437.219,358.752 447.397,358.73 457.707,358.663 468.147,358.547 478.713,358.379 489.403,358.155 500.215,357.871 511.146,357.522 522.192,357.104 533.352,356.612 544.622,356.04 556,355.385 567.482,354.64 579.067,353.801 590.75,352.864 602.529,351.825 614.401,350.681 626.364,349.429 638.413,348.07 650.546,346.603 662.76,345.032 675.052,343.36 687.418,341.594 699.857,339.743 712.363,337.818 724.936,335.835 737.57,333.808 750.263,331.759 763.012,329.709 775.814,327.683 788.665,325.708 801.562,323.813 814.502,322.027 827.482,320.382 840.498,318.906 853.547,317.629 866.626,316.576 879.732,315.768 892.86,315.221 906.009,314.942 919.174,314.928 932.352,315.164 945.541,315.62 958.736,316.247 971.934,316.975 " />
</g>

<g fill="none" stroke="#ff0000" stroke-opacity="1" stroke-dasharray="10,6" stroke-dashoffset="0" stroke-width="1.33333" stroke-linecap="butt" stroke-linejoin="round" transform="matrix(0.75,0,0,0.75,0,0)"
font-family="Times New Roman" font-size="26" font-weight="700" font-style="normal" 
>
<polyline fill="none" vector-effect="none" points="140.066,316.975 140.17,315.588 140.485,314.206 141.008,312.833 141.741,311.473 142.682,310.13 143.832,308.809 145.191,307.511 146.758,306.241 148.533,305.001 150.515,303.792 152.704,302.618 155.099,301.479 157.699,300.375 160.505,299.307 163.515,298.274 166.728,297.276 170.144,296.311 173.762,295.378 177.581,294.474 181.6,293.599 185.818,292.748 190.234,291.921 194.846,291.113 199.654,290.324 204.657,289.549 209.852,288.787 215.24,288.036 220.818,287.293 226.585,286.557 232.54,285.827 238.681,285.102 245.006,284.38 251.515,283.662 258.205,282.949 265.074,282.239 272.122,281.536 279.346,280.838 286.744,280.149 294.314,279.47 302.055,278.803 309.965,278.149 318.041,277.512 326.282,276.893 334.686,276.294 343.25,275.718 351.972,275.166 360.851,274.64 369.883,274.142 379.066,273.673 388.399,273.234 397.879,272.825 407.504,272.448 417.27,272.101 427.176,271.786 437.219,271.502 447.397,271.248 457.707,271.025 468.147,270.831 478.713,270.666 489.403,270.529 500.215,270.421 511.146,270.341 522.192,270.291 533.352,270.27 544.622,270.281 556,270.324 567.482,270.404 579.067,270.522 590.75,270.682 602.529,270.889 614.401,271.147 626.364,271.461 638.413,271.837 650.546,272.281 662.76,272.799 675.052,273.396 687.418,274.08 699.857,274.855 712.363,275.727 724.936,276.701 737.57,277.78 750.263,278.968 763.012,280.267 775.814,281.679 788.665,283.204 801.562,284.842 814.502,286.592 827.482,288.452 840.498,290.422 853.547,292.499 866.626,294.683 879.732,296.976 892.86,299.381 906.009,301.906 919.174,304.562 932.352,307.367 945.541,310.346 958.736,313.533 971.934,316.975 " />
<polyline fill="none" vector-effect="none" points="140.066,316.975 140.17,318.453 140.485,319.928 141.008,321.394 141.741,322.846 142.682,324.282 143.832,325.696 145.191,327.086 146.758,328.448 148.533,329.778 150.515,331.075 152.704,332.336 155.099,333.559 157.699,334.742 160.505,335.885 163.515,336.985 166.728,338.044 170.144,339.061 173.762,340.036 177.581,340.97 181.6,341.863 185.818,342.717 190.234,343.532 194.846,344.311 199.654,345.054 204.657,345.764 209.852,346.441 215.24,347.087 220.818,347.705 226.585,348.294 232.54,348.856 238.681,349.394 245.006,349.906 251.515,350.396 258.205,350.862 265.074,351.306 272.122,351.728 279.346,352.129 286.744,352.508 294.314,352.865 302.055,353.2 309.965,353.513 318.041,353.803 326.282,354.069 334.686,354.312 343.25,354.529 351.972,354.721 360.851,354.886 369.883,355.024 379.066,355.133 388.399,355.212 397.879,355.26 407.504,355.274 417.27,355.255 427.176,355.199 437.219,355.104 447.397,354.969 457.707,354.79 468.147,354.565 478.713,354.291 489.403,353.964 500.215,353.58 511.146,353.137 522.192,352.629 533.352,352.052 544.622,351.402 556,350.675 567.482,349.867 579.067,348.973 590.75,347.991 602.529,346.918 614.401,345.751 626.364,344.49 638.413,343.135 650.546,341.688 662.76,340.151 675.052,338.531 687.418,336.834 699.857,335.07 712.363,333.25 724.936,331.389 737.57,329.504 750.263,327.614 763.012,325.74 775.814,323.907 788.665,322.14 801.562,320.467 814.502,318.915 827.482,317.514 840.498,316.29 853.547,315.271 866.626,314.48 879.732,313.937 892.86,313.654 906.009,313.638 919.174,313.885 932.352,314.38 945.541,315.094 958.736,315.981 971.934,316.975 " />
</g>

<g fill="#121212" fill-opacity="1" stroke="none" transform="matrix(7.5e-05,0,0,7.5e-05,0,0)"
font-family="Times New Roman" font-size="26" font-weight="700" font-style="normal" 
>
<path vector-effect="none" fill-rule="evenodd" d="M7.34e+06,570000 L7.34e+06,1.06e+06 L9.33e+06,1.06e+06 L9.33e+06,570000 L7.34e+06,570000"/>
</g>

<g fill="#000000" fill-opacity="1" stroke="#000000" stroke-opacity="1" stroke-width="1.33333" stroke-linecap="butt" stroke-linejoin="round" transform="matrix(0.75,0,0,0.75,0,0)"
font-family="Times New Roman" font-size="26" font-weight="700" font-style="normal" 
>
<polyline fill="none" vector-effect="none" points="738,70.134 778,70.134 " />
</g>

<g fill="#ff0000" fill-opacity="1" stroke="#ff0000" stroke-opacity="1" stroke-dasharray="10,6" stroke-dashoffset="0" stroke-width="1.33333" stroke-linecap="butt" stroke-linejoin="round" transform="matrix(0.75,0,0,0.75,0,0)"
font-family="Times New Roman" font-size="26" font-weight="700" font-style="normal" 
>
<polyline fill="none" vector-effect="none" points="738,92.866 778,92.866 " />
</g>

<g fill="#d9d9d9" fill-opacity="1" stroke="#d9d9d9" stroke-opacity="1" stroke-width="1" stroke-linecap="square" stroke-linejoin="bevel" transform="matrix(0.75,0,0,0.75,585.75,57.8505)"
font-family="Helvetica" font-size="20" font-weight="400" font-style="normal" 
>
<text fill="#d9d9d9" fill-opacity="1" stroke="none" xml:space="preserve" x="0" y="0" font-family="Helvetica" font-size="20" font-weight="400" font-style="normal" 
 >Current Airfoil</text>
</g>

<g fill="#d9d9d9" fill-opacity="1" stroke="#d9d9d9" stroke-opacity="1" stroke-width="1" stroke-linecap="square" stroke-linejoin="bevel" transform="matrix(0.75,0,0,0.75,585.75,74.8995)"
font-family="Helvetica" font-size="20" font-weight="400" font-style="normal" 
>
<text fill="#d9d9d9" fill-opacity="1" stroke="none" xml:space="preserve" x="0" y="0" font-family="Helvetica" font-size="20" font-weight="400" font-style="normal" 
 >Reference Airfoil</text>
</g>

<g fill="none" stroke="#d9d9d9" stroke-opacity="1" stroke-width="0.666667" stroke-linecap="butt" stroke-linejoin="miter" stroke-miterlimit="2" transform="matrix(0.75,0,0,0.75,0,0)"
font-family="Helvetica" font-size="20" font-weight="400" font-style="normal" 
>
<path vector-effect="none" fill-rule="evenodd" d="M734,106 L734,57 L933,57 L933,106 L734,106"/>
</g>
</g>
</svg>
