<?xml version="1.0" encoding="UTF-8" standalone="no"?>
<svg width="284.692mm" height="147.461mm"
 viewBox="0 0 807 418"
 xmlns="http://www.w3.org/2000/svg" xmlns:xlink="http://www.w3.org/1999/xlink"  version="1.2" baseProfile="tiny">
<title>Qt SVG Document</title>
<desc>MATLAB, The MathWorks, Inc. Version 25.1.0.2973910 R2025a Update 1</desc>
<defs>
</defs>
<g fill="none" stroke="black" stroke-width="1" fill-rule="evenodd" stroke-linecap="square" stroke-linejoin="bevel" >

<g fill="#000000" fill-opacity="1" stroke="none" transform="matrix(0.75,0,0,0.75,0,0)"
font-family="MS Shell Dlg 2" font-size="9.75" font-weight="400" font-style="normal" 
>
<path vector-effect="none" fill-rule="evenodd" d="M0,0 L1077,0 L1077,558 L0,558 L0,0"/>
</g>

<g fill="#121212" fill-opacity="1" stroke="none" transform="matrix(7.5e-05,0,0,7.5e-05,0,0)"
font-family="MS Shell Dlg 2" font-size="9.75" font-weight="400" font-style="normal" 
>
<path vector-effect="none" fill-rule="evenodd" d="M1.4e+06,420000 L1.4e+06,4.96e+06 L9.74e+06,4.96e+06 L9.74e+06,420000 L1.4e+06,420000"/>
</g>

<g fill="#d9d9d9" fill-opacity="1" stroke="#d9d9d9" stroke-opacity="1" stroke-width="1" stroke-linecap="square" stroke-linejoin="bevel" transform="matrix(0.75,0,0,0.75,408,402.5)"
font-family="Helvetica" font-size="20" font-weight="400" font-style="normal" 
>
<text fill="#d9d9d9" fill-opacity="1" stroke="none" xml:space="preserve" x="0" y="0" font-family="Helvetica" font-size="20" font-weight="400" font-style="normal" 
 >x/c</text>
</g>

<g fill="#d9d9d9" fill-opacity="1" stroke="#d9d9d9" stroke-opacity="1" stroke-width="0.666667" stroke-linecap="square" stroke-linejoin="round" transform="matrix(0.75,0,0,0.75,0,0)"
font-family="Helvetica" font-size="20" font-weight="400" font-style="normal" 
>
<polyline fill="none" vector-effect="none" points="140,496 974,496 " />
<polyline fill="none" vector-effect="none" points="140,496 140,487.66 " />
<polyline fill="none" vector-effect="none" points="223.4,496 223.4,487.66 " />
<polyline fill="none" vector-effect="none" points="306.8,496 306.8,487.66 " />
<polyline fill="none" vector-effect="none" points="390.2,496 390.2,487.66 " />
<polyline fill="none" vector-effect="none" points="473.6,496 473.6,487.66 " />
<polyline fill="none" vector-effect="none" points="557,496 557,487.66 " />
<polyline fill="none" vector-effect="none" points="640.4,496 640.4,487.66 " />
<polyline fill="none" vector-effect="none" points="723.8,496 723.8,487.66 " />
<polyline fill="none" vector-effect="none" points="807.2,496 807.2,487.66 " />
<polyline fill="none" vector-effect="none" points="890.6,496 890.6,487.66 " />
<polyline fill="none" vector-effect="none" points="974,496 974,487.66 " />
</g>

<g fill="#d9d9d9" fill-opacity="1" stroke="#d9d9d9" stroke-opacity="1" stroke-width="1" stroke-linecap="square" stroke-linejoin="bevel" transform="matrix(0.75,0,0,0.75,102.375,385)"
font-family="Helvetica" font-size="13" font-weight="400" font-style="normal" 
>
<text fill="#d9d9d9" fill-opacity="1" stroke="none" xml:space="preserve" x="0" y="0" font-family="Helvetica" font-size="13" font-weight="400" font-style="normal" 
 >0</text>
</g>

<g fill="#d9d9d9" fill-opacity="1" stroke="#d9d9d9" stroke-opacity="1" stroke-width="1" stroke-linecap="square" stroke-linejoin="bevel" transform="matrix(0.75,0,0,0.75,160.8,385)"
font-family="Helvetica" font-size="13" font-weight="400" font-style="normal" 
>
<text fill="#d9d9d9" fill-opacity="1" stroke="none" xml:space="preserve" x="0" y="0" font-family="Helvetica" font-size="13" font-weight="400" font-style="normal" 
 >0.1</text>
</g>

<g fill="#d9d9d9" fill-opacity="1" stroke="#d9d9d9" stroke-opacity="1" stroke-width="1" stroke-linecap="square" stroke-linejoin="bevel" transform="matrix(0.75,0,0,0.75,223.35,385)"
font-family="Helvetica" font-size="13" font-weight="400" font-style="normal" 
>
<text fill="#d9d9d9" fill-opacity="1" stroke="none" xml:space="preserve" x="0" y="0" font-family="Helvetica" font-size="13" font-weight="400" font-style="normal" 
 >0.2</text>
</g>

<g fill="#d9d9d9" fill-opacity="1" stroke="#d9d9d9" stroke-opacity="1" stroke-width="1" stroke-linecap="square" stroke-linejoin="bevel" transform="matrix(0.75,0,0,0.75,285.9,385)"
font-family="Helvetica" font-size="13" font-weight="400" font-style="normal" 
>
<text fill="#d9d9d9" fill-opacity="1" stroke="none" xml:space="preserve" x="0" y="0" font-family="Helvetica" font-size="13" font-weight="400" font-style="normal" 
 >0.3</text>
</g>

<g fill="#d9d9d9" fill-opacity="1" stroke="#d9d9d9" stroke-opacity="1" stroke-width="1" stroke-linecap="square" stroke-linejoin="bevel" transform="matrix(0.75,0,0,0.75,348.45,385)"
font-family="Helvetica" font-size="13" font-weight="400" font-style="normal" 
>
<text fill="#d9d9d9" fill-opacity="1" stroke="none" xml:space="preserve" x="0" y="0" font-family="Helvetica" font-size="13" font-weight="400" font-style="normal" 
 >0.4</text>
</g>

<g fill="#d9d9d9" fill-opacity="1" stroke="#d9d9d9" stroke-opacity="1" stroke-width="1" stroke-linecap="square" stroke-linejoin="bevel" transform="matrix(0.75,0,0,0.75,411,385)"
font-family="Helvetica" font-size="13" font-weight="400" font-style="normal" 
>
<text fill="#d9d9d9" fill-opacity="1" stroke="none" xml:space="preserve" x="0" y="0" font-family="Helvetica" font-size="13" font-weight="400" font-style="normal" 
 >0.5</text>
</g>

<g fill="#d9d9d9" fill-opacity="1" stroke="#d9d9d9" stroke-opacity="1" stroke-width="1" stroke-linecap="square" stroke-linejoin="bevel" transform="matrix(0.75,0,0,0.75,473.55,385)"
font-family="Helvetica" font-size="13" font-weight="400" font-style="normal" 
>
<text fill="#d9d9d9" fill-opacity="1" stroke="none" xml:space="preserve" x="0" y="0" font-family="Helvetica" font-size="13" font-weight="400" font-style="normal" 
 >0.6</text>
</g>

<g fill="#d9d9d9" fill-opacity="1" stroke="#d9d9d9" stroke-opacity="1" stroke-width="1" stroke-linecap="square" stroke-linejoin="bevel" transform="matrix(0.75,0,0,0.75,536.1,385)"
font-family="Helvetica" font-size="13" font-weight="400" font-style="normal" 
>
<text fill="#d9d9d9" fill-opacity="1" stroke="none" xml:space="preserve" x="0" y="0" font-family="Helvetica" font-size="13" font-weight="400" font-style="normal" 
 >0.7</text>
</g>

<g fill="#d9d9d9" fill-opacity="1" stroke="#d9d9d9" stroke-opacity="1" stroke-width="1" stroke-linecap="square" stroke-linejoin="bevel" transform="matrix(0.75,0,0,0.75,598.65,385)"
font-family="Helvetica" font-size="13" font-weight="400" font-style="normal" 
>
<text fill="#d9d9d9" fill-opacity="1" stroke="none" xml:space="preserve" x="0" y="0" font-family="Helvetica" font-size="13" font-weight="400" font-style="normal" 
 >0.8</text>
</g>

<g fill="#d9d9d9" fill-opacity="1" stroke="#d9d9d9" stroke-opacity="1" stroke-width="1" stroke-linecap="square" stroke-linejoin="bevel" transform="matrix(0.75,0,0,0.75,661.2,385)"
font-family="Helvetica" font-size="13" font-weight="400" font-style="normal" 
>
<text fill="#d9d9d9" fill-opacity="1" stroke="none" xml:space="preserve" x="0" y="0" font-family="Helvetica" font-size="13" font-weight="400" font-style="normal" 
 >0.9</text>
</g>

<g fill="#d9d9d9" fill-opacity="1" stroke="#d9d9d9" stroke-opacity="1" stroke-width="1" stroke-linecap="square" stroke-linejoin="bevel" transform="matrix(0.75,0,0,0.75,727.875,385)"
font-family="Helvetica" font-size="13" font-weight="400" font-style="normal" 
>
<text fill="#d9d9d9" fill-opacity="1" stroke="none" xml:space="preserve" x="0" y="0" font-family="Helvetica" font-size="13" font-weight="400" font-style="normal" 
 >1</text>
</g>

<g fill="#d9d9d9" fill-opacity="1" stroke="#d9d9d9" stroke-opacity="1" stroke-width="1" stroke-linecap="square" stroke-linejoin="bevel" transform="matrix(0,-0.75,0.75,0,71,211.5)"
font-family="Helvetica" font-size="20" font-weight="400" font-style="normal" 
>
<text fill="#d9d9d9" fill-opacity="1" stroke="none" xml:space="preserve" x="0" y="0" font-family="Helvetica" font-size="20" font-weight="400" font-style="normal" 
 >y/c</text>
</g>

<g fill="#d9d9d9" fill-opacity="1" stroke="#d9d9d9" stroke-opacity="1" stroke-width="0.666667" stroke-linecap="square" stroke-linejoin="round" transform="matrix(0.75,0,0,0.75,0,0)"
font-family="Helvetica" font-size="20" font-weight="400" font-style="normal" 
>
<polyline fill="none" vector-effect="none" points="140,496 140,42 " />
<polyline fill="none" vector-effect="none" points="140,496 148.34,496 " />
<polyline fill="none" vector-effect="none" points="140,420.333 148.34,420.333 " />
<polyline fill="none" vector-effect="none" points="140,344.667 148.34,344.667 " />
<polyline fill="none" vector-effect="none" points="140,269 148.34,269 " />
<polyline fill="none" vector-effect="none" points="140,193.333 148.34,193.333 " />
<polyline fill="none" vector-effect="none" points="140,117.667 148.34,117.667 " />
<polyline fill="none" vector-effect="none" points="140,42 148.34,42 " />
</g>

<g fill="#d9d9d9" fill-opacity="1" stroke="#d9d9d9" stroke-opacity="1" stroke-width="1" stroke-linecap="square" stroke-linejoin="bevel" transform="matrix(0.75,0,0,0.75,79.25,375.375)"
font-family="Helvetica" font-size="13" font-weight="400" font-style="normal" 
>
<text fill="#d9d9d9" fill-opacity="1" stroke="none" xml:space="preserve" x="0" y="0" font-family="Helvetica" font-size="13" font-weight="400" font-style="normal" 
 >-0.06</text>
</g>

<g fill="#d9d9d9" fill-opacity="1" stroke="#d9d9d9" stroke-opacity="1" stroke-width="1" stroke-linecap="square" stroke-linejoin="bevel" transform="matrix(0.75,0,0,0.75,79.25,318.625)"
font-family="Helvetica" font-size="13" font-weight="400" font-style="normal" 
>
<text fill="#d9d9d9" fill-opacity="1" stroke="none" xml:space="preserve" x="0" y="0" font-family="Helvetica" font-size="13" font-weight="400" font-style="normal" 
 >-0.04</text>
</g>

<g fill="#d9d9d9" fill-opacity="1" stroke="#d9d9d9" stroke-opacity="1" stroke-width="1" stroke-linecap="square" stroke-linejoin="bevel" transform="matrix(0.75,0,0,0.75,79.25,261.875)"
font-family="Helvetica" font-size="13" font-weight="400" font-style="normal" 
>
<text fill="#d9d9d9" fill-opacity="1" stroke="none" xml:space="preserve" x="0" y="0" font-family="Helvetica" font-size="13" font-weight="400" font-style="normal" 
 >-0.02</text>
</g>

<g fill="#d9d9d9" fill-opacity="1" stroke="#d9d9d9" stroke-opacity="1" stroke-width="1" stroke-linecap="square" stroke-linejoin="bevel" transform="matrix(0.75,0,0,0.75,95.75,205.125)"
font-family="Helvetica" font-size="13" font-weight="400" font-style="normal" 
>
<text fill="#d9d9d9" fill-opacity="1" stroke="none" xml:space="preserve" x="0" y="0" font-family="Helvetica" font-size="13" font-weight="400" font-style="normal" 
 >0</text>
</g>

<g fill="#d9d9d9" fill-opacity="1" stroke="#d9d9d9" stroke-opacity="1" stroke-width="1" stroke-linecap="square" stroke-linejoin="bevel" transform="matrix(0.75,0,0,0.75,82.25,148.375)"
font-family="Helvetica" font-size="13" font-weight="400" font-style="normal" 
>
<text fill="#d9d9d9" fill-opacity="1" stroke="none" xml:space="preserve" x="0" y="0" font-family="Helvetica" font-size="13" font-weight="400" font-style="normal" 
 >0.02</text>
</g>

<g fill="#d9d9d9" fill-opacity="1" stroke="#d9d9d9" stroke-opacity="1" stroke-width="1" stroke-linecap="square" stroke-linejoin="bevel" transform="matrix(0.75,0,0,0.75,82.25,91.625)"
font-family="Helvetica" font-size="13" font-weight="400" font-style="normal" 
>
<text fill="#d9d9d9" fill-opacity="1" stroke="none" xml:space="preserve" x="0" y="0" font-family="Helvetica" font-size="13" font-weight="400" font-style="normal" 
 >0.04</text>
</g>

<g fill="#d9d9d9" fill-opacity="1" stroke="#d9d9d9" stroke-opacity="1" stroke-width="1" stroke-linecap="square" stroke-linejoin="bevel" transform="matrix(0.75,0,0,0.75,82.25,34.875)"
font-family="Helvetica" font-size="13" font-weight="400" font-style="normal" 
>
<text fill="#d9d9d9" fill-opacity="1" stroke="none" xml:space="preserve" x="0" y="0" font-family="Helvetica" font-size="13" font-weight="400" font-style="normal" 
 >0.06</text>
</g>

<g fill="#d9d9d9" fill-opacity="1" stroke="#d9d9d9" stroke-opacity="1" stroke-width="1" stroke-linecap="square" stroke-linejoin="bevel" transform="matrix(0.75,0,0,0.75,334.125,23.25)"
font-family="Times New Roman" font-size="26" font-weight="700" font-style="normal" 
>
<text fill="#d9d9d9" fill-opacity="1" stroke="none" xml:space="preserve" x="0" y="0" font-family="Times New Roman" font-size="26" font-weight="700" font-style="normal" 
 >Airfoils Scaled Axes</text>
</g>

<g fill="none" stroke="#000000" stroke-opacity="1" stroke-width="1.33333" stroke-linecap="butt" stroke-linejoin="round" transform="matrix(0.75,0,0,0.75,0,0)"
font-family="Times New Roman" font-size="26" font-weight="700" font-style="normal" 
>
<polyline fill="none" vector-effect="none" points="140,269 140.105,264.195 140.42,259.398 140.945,254.617 141.679,249.857 142.623,245.126 143.776,240.43 145.139,235.774 146.71,231.163 148.489,226.6 150.476,222.087 152.67,217.626 155.071,213.217 157.679,208.86 160.492,204.553 163.509,200.293 166.731,196.079 170.156,191.905 173.783,187.767 177.612,183.662 181.641,179.585 185.869,175.532 190.296,171.497 194.921,167.478 199.741,163.471 204.757,159.475 209.966,155.487 215.367,151.508 220.959,147.539 226.741,143.581 232.711,139.638 238.868,135.714 245.21,131.815 251.735,127.947 258.442,124.12 265.329,120.34 272.395,116.618 279.637,112.964 287.054,109.386 294.644,105.896 302.405,102.504 310.335,99.2183 318.432,96.0481 326.694,93.0013 335.119,90.0845 343.705,87.3033 352.449,84.6615 361.35,82.1615 370.406,79.8042 379.613,77.5886 388.97,75.5123 398.474,73.5712 408.123,71.76 417.915,70.072 427.846,68.5 437.915,67.0356 448.119,65.6706 458.455,64.3967 468.922,63.206 479.515,62.092 490.233,61.049 501.072,60.0737 512.031,59.1648 523.106,58.3235 534.294,57.5545 545.593,56.8655 557,56.2679 568.512,55.7769 580.126,55.4115 591.839,55.1947 603.648,55.153 615.551,55.3165 627.544,55.7186 639.624,56.3952 651.788,57.3848 664.034,58.7269 676.357,60.4625 688.755,62.6322 701.225,65.276 713.764,68.4324 726.368,72.1374 739.035,76.4237 751.761,81.3201 764.543,86.8509 777.377,93.0354 790.261,99.8876 803.191,107.417 816.164,115.626 829.177,124.516 842.227,134.084 855.309,144.324 868.422,155.233 881.561,166.81 894.723,179.061 907.906,192.002 921.104,205.664 934.317,220.1 947.539,235.387 960.768,251.636 974,269 " />
<polyline fill="none" vector-effect="none" points="140,269 140.105,276.117 140.42,283.214 140.945,290.27 141.679,297.264 142.623,304.179 143.776,310.996 145.139,317.698 146.71,324.27 148.489,330.699 150.476,336.972 152.67,343.079 155.071,349.012 157.679,354.764 160.492,360.332 163.509,365.713 166.731,370.906 170.156,375.911 173.783,380.733 177.612,385.373 181.641,389.838 185.869,394.133 190.296,398.265 194.921,402.242 199.741,406.069 204.757,409.757 209.966,413.311 215.367,416.739 220.959,420.048 226.741,423.244 232.711,426.332 238.868,429.317 245.21,432.202 251.735,434.989 258.442,437.681 265.329,440.276 272.395,442.776 279.637,445.178 287.054,447.481 294.644,449.68 302.405,451.773 310.335,453.754 318.432,455.62 326.694,457.365 335.119,458.982 343.705,460.468 352.449,461.814 361.35,463.016 370.406,464.067 379.613,464.961 388.97,465.689 398.474,466.246 408.123,466.624 417.915,466.814 427.846,466.808 437.915,466.595 448.119,466.167 458.455,465.51 468.922,464.611 479.515,463.457 490.233,462.033 501.072,460.32 512.031,458.302 523.106,455.959 534.294,453.271 545.593,450.217 557,446.778 568.512,442.933 580.126,438.662 591.839,433.949 603.648,428.779 615.551,423.14 627.544,417.027 639.624,410.437 651.788,403.377 664.034,395.86 676.357,387.909 688.755,379.554 701.225,370.841 713.764,361.822 726.368,352.564 739.035,343.147 751.761,333.662 764.543,324.212 777.377,314.911 790.261,305.883 803.191,297.26 816.164,289.178 829.177,281.776 842.227,275.188 855.309,269.544 868.422,264.956 881.561,261.519 894.723,259.297 907.906,258.318 921.104,258.56 934.317,259.945 947.539,262.32 960.768,265.45 974,269 " />
</g>

<g fill="none" stroke="#ff0000" stroke-opacity="1" stroke-dasharray="10,6" stroke-dashoffset="0" stroke-width="1.33333" stroke-linecap="butt" stroke-linejoin="round" transform="matrix(0.75,0,0,0.75,0,0)"
font-family="Times New Roman" font-size="26" font-weight="700" font-style="normal" 
>
<polyline fill="none" vector-effect="none" points="140,269 140.105,262.695 140.42,256.409 140.945,250.165 141.679,243.979 142.623,237.872 143.776,231.86 145.139,225.959 146.71,220.182 148.489,214.542 150.476,209.048 152.67,203.707 155.071,198.525 157.679,193.504 160.492,188.646 163.509,183.949 166.731,179.409 170.156,175.021 173.783,170.777 177.612,166.668 181.641,162.686 185.869,158.818 190.296,155.055 194.921,151.383 199.741,147.791 204.757,144.268 209.966,140.803 215.367,137.386 220.959,134.008 226.741,130.662 232.711,127.341 238.868,124.041 245.21,120.76 251.735,117.496 258.442,114.25 265.329,111.024 272.395,107.823 279.637,104.652 287.054,101.518 294.644,98.4294 302.405,95.3942 310.335,92.4222 318.432,89.5232 326.694,86.7073 335.119,83.9842 343.705,81.3633 352.449,78.8534 361.35,76.4624 370.406,74.1972 379.613,72.0635 388.97,70.066 398.474,68.2078 408.123,66.4909 417.915,64.9162 427.846,63.4832 437.915,62.191 448.119,61.0375 458.455,60.0205 468.922,59.1375 479.515,58.3864 490.233,57.7654 501.072,57.2737 512.031,56.9119 523.106,56.6821 534.294,56.5882 545.593,56.6364 557,56.8354 568.512,57.1963 580.126,57.7328 591.839,58.4616 603.648,59.4016 615.551,60.5744 627.544,62.0035 639.624,63.7143 651.788,65.7335 664.034,68.0884 676.357,70.8067 688.755,73.9155 701.225,77.4407 713.764,81.4064 726.368,85.8341 739.035,90.7422 751.761,96.1454 764.543,102.054 777.377,108.476 790.261,115.412 803.191,122.862 816.164,130.82 829.177,139.281 842.227,148.237 855.309,157.683 868.422,167.617 881.561,178.045 894.723,188.984 907.906,200.466 921.104,212.546 934.317,225.303 947.539,238.852 960.768,253.349 974,269 " />
<polyline fill="none" vector-effect="none" points="140,269 140.105,275.726 140.42,282.431 140.945,289.097 141.679,295.704 142.623,302.232 143.776,308.665 145.139,314.986 146.71,321.179 148.489,327.231 150.476,333.13 152.67,338.864 155.071,344.425 157.679,349.806 160.492,355.002 163.509,360.009 166.731,364.824 170.156,369.449 173.783,373.883 177.612,378.129 181.641,382.192 185.869,386.075 190.296,389.784 194.921,393.326 199.741,396.707 204.757,399.934 209.966,403.013 215.367,405.953 220.959,408.759 226.741,411.439 232.711,413.998 238.868,416.441 245.21,418.773 251.735,420.998 258.442,423.119 265.329,425.139 272.395,427.06 279.637,428.882 287.054,430.605 294.644,432.229 302.405,433.753 310.335,435.175 318.432,436.494 326.694,437.706 335.119,438.809 343.705,439.798 352.449,440.671 361.35,441.423 370.406,442.049 379.613,442.544 388.97,442.903 398.474,443.12 408.123,443.187 417.915,443.097 427.846,442.842 437.915,442.412 448.119,441.797 458.455,440.984 468.922,439.961 479.515,438.714 490.233,437.227 501.072,435.483 512.031,433.465 523.106,431.154 534.294,428.531 545.593,425.576 557,422.27 568.512,418.594 580.126,414.53 591.839,410.064 603.648,405.182 615.551,399.876 627.544,394.141 639.624,387.979 651.788,381.396 664.034,374.408 676.357,367.038 688.755,359.32 701.225,351.296 713.764,343.02 726.368,334.556 739.035,325.983 751.761,317.386 764.543,308.864 777.377,300.527 790.261,292.492 803.191,284.881 816.164,277.825 829.177,271.451 842.227,265.888 855.309,261.254 868.422,257.656 881.561,255.183 894.723,253.896 907.906,253.823 921.104,254.948 934.317,257.201 947.539,260.449 960.768,264.482 974,269 " />
</g>

<g fill="#121212" fill-opacity="1" stroke="none" transform="matrix(7.5e-05,0,0,7.5e-05,0,0)"
font-family="Times New Roman" font-size="26" font-weight="700" font-style="normal" 
>
<path vector-effect="none" fill-rule="evenodd" d="M7.35e+06,4.39e+06 L7.35e+06,4.88e+06 L9.34e+06,4.88e+06 L9.34e+06,4.39e+06 L7.35e+06,4.39e+06"/>
</g>

<g fill="#000000" fill-opacity="1" stroke="#000000" stroke-opacity="1" stroke-width="1.33333" stroke-linecap="butt" stroke-linejoin="round" transform="matrix(0.75,0,0,0.75,0,0)"
font-family="Times New Roman" font-size="26" font-weight="700" font-style="normal" 
>
<polyline fill="none" vector-effect="none" points="739,452.134 779,452.134 " />
</g>

<g fill="#ff0000" fill-opacity="1" stroke="#ff0000" stroke-opacity="1" stroke-dasharray="10,6" stroke-dashoffset="0" stroke-width="1.33333" stroke-linecap="butt" stroke-linejoin="round" transform="matrix(0.75,0,0,0.75,0,0)"
font-family="Times New Roman" font-size="26" font-weight="700" font-style="normal" 
>
<polyline fill="none" vector-effect="none" points="739,474.866 779,474.866 " />
</g>

<g fill="#d9d9d9" fill-opacity="1" stroke="#d9d9d9" stroke-opacity="1" stroke-width="1" stroke-linecap="square" stroke-linejoin="bevel" transform="matrix(0.75,0,0,0.75,586.5,344.351)"
font-family="Helvetica" font-size="20" font-weight="400" font-style="normal" 
>
<text fill="#d9d9d9" fill-opacity="1" stroke="none" xml:space="preserve" x="0" y="0" font-family="Helvetica" font-size="20" font-weight="400" font-style="normal" 
 >Current Airfoil</text>
</g>

<g fill="#d9d9d9" fill-opacity="1" stroke="#d9d9d9" stroke-opacity="1" stroke-width="1" stroke-linecap="square" stroke-linejoin="bevel" transform="matrix(0.75,0,0,0.75,586.5,361.399)"
font-family="Helvetica" font-size="20" font-weight="400" font-style="normal" 
>
<text fill="#d9d9d9" fill-opacity="1" stroke="none" xml:space="preserve" x="0" y="0" font-family="Helvetica" font-size="20" font-weight="400" font-style="normal" 
 >Reference Airfoil</text>
</g>

<g fill="none" stroke="#d9d9d9" stroke-opacity="1" stroke-width="0.666667" stroke-linecap="butt" stroke-linejoin="miter" stroke-miterlimit="2" transform="matrix(0.75,0,0,0.75,0,0)"
font-family="Helvetica" font-size="20" font-weight="400" font-style="normal" 
>
<path vector-effect="none" fill-rule="evenodd" d="M735,488 L735,439 L934,439 L934,488 L735,488"/>
</g>
</g>
</svg>
